M48
; DRILL file {KiCad (5.1.9)-1} date 09/19/22 13:39:18
; FORMAT={-:-/ absolute / metric / decimal}
; #@! TF.CreationDate,2022-09-19T13:39:18+02:00
; #@! TF.GenerationSoftware,Kicad,Pcbnew,(5.1.9)-1
; #@! TF.FileFunction,Plated,1,2,PTH
FMAT,2
METRIC
T1C0.400
T2C0.600
T3C0.760
T4C0.800
T5C0.940
T6C0.970
T7C1.000
T8C1.300
T9C1.400
T10C1.620
%
G90
G05
T1
X73.05Y-97.0
X73.8Y-102.25
X74.0Y-106.9
X74.15Y-108.82
X76.3Y-96.0
X76.75Y-94.75
X76.8Y-111.75
X77.1Y-100.4
X78.25Y-93.25
X79.25Y-94.25
X79.77Y-108.03
X79.8Y-102.75
X80.102Y-104.552
X81.5Y-96.4
X81.51Y-94.4
X82.75Y-89.25
X82.75Y-91.0
X83.5Y-112.0
X83.673Y-101.612
X84.8Y-108.0
X85.0Y-86.75
X85.204Y-105.0
X85.513Y-111.337
X85.55Y-108.75
X85.84Y-81.84
X85.9Y-103.6
X86.6Y-106.3
X87.4Y-100.6
X87.4Y-101.8
X87.5Y-88.5
X87.5Y-90.5
X87.5Y-93.0
X87.951Y-109.451
X89.5Y-109.9
X90.35Y-109.35
X91.8Y-103.25
X101.749Y-103.6
X102.56Y-115.435
X103.155Y-96.375
X103.5Y-105.75
X105.085Y-111.52
X107.4Y-108.27
X107.5Y-106.3
X108.262Y-107.007
X109.205Y-110.095
X111.11Y-115.675
X112.85Y-103.215
X114.075Y-115.79
X114.725Y-110.595
X115.339Y-104.432
X115.754Y-109.608
X117.0Y-101.42
X117.803Y-104.758
X118.906Y-115.81
X123.375Y-114.42
X126.24Y-105.805
X126.24Y-115.955
T2
X87.685Y-76.065
X89.852Y-85.717
X100.51Y-87.125
X102.875Y-78.605
X103.0Y-102.2
X103.68Y-111.11
X104.15Y-93.27
X105.25Y-100.75
X110.0Y-103.2
X110.275Y-92.765
X112.24Y-99.28
X116.185Y-92.765
X121.59Y-93.175
X122.48Y-102.865
X139.765Y-96.87
X141.565Y-91.87
T3
X107.105Y-83.48
X107.105Y-91.08
T4
X135.105Y-75.88
X135.105Y-91.08
X139.11Y-115.18
X141.16Y-107.68
T5
X76.3Y-103.41
X76.3Y-105.44
X76.3Y-107.47
X76.3Y-109.5
X78.08Y-102.39
X78.08Y-104.42
X78.08Y-106.45
X78.08Y-108.48
T6
X81.8Y-102.814
X81.8Y-104.854
X81.8Y-106.894
X81.8Y-108.934
X83.32Y-103.834
X83.32Y-105.874
X83.32Y-107.914
X83.32Y-109.954
T7
X75.96Y-82.92
X75.96Y-85.46
X75.96Y-88.0
X78.5Y-82.92
X78.5Y-85.46
X78.5Y-88.0
X139.11Y-115.18
X141.21Y-105.18
T8
X139.115Y-115.205
X141.915Y-102.505
T9
X122.185Y-118.99
X122.185Y-124.07
X127.265Y-118.99
X127.265Y-124.07
X132.345Y-118.99
X132.345Y-124.07
X133.815Y-100.195
X133.815Y-105.275
X133.815Y-110.355
T10
X77.19Y-97.82
X77.19Y-114.08
T0
M30
