G04 #@! TF.GenerationSoftware,KiCad,Pcbnew,(5.1.9)-1*
G04 #@! TF.CreationDate,2022-09-19T13:39:08+02:00*
G04 #@! TF.ProjectId,Zusatzplatine,5a757361-747a-4706-9c61-74696e652e6b,1.0*
G04 #@! TF.SameCoordinates,Original*
G04 #@! TF.FileFunction,Copper,L2,Bot*
G04 #@! TF.FilePolarity,Positive*
%FSLAX46Y46*%
G04 Gerber Fmt 4.6, Leading zero omitted, Abs format (unit mm)*
G04 Created by KiCad (PCBNEW (5.1.9)-1) date 2022-09-19 13:39:08*
%MOMM*%
%LPD*%
G01*
G04 APERTURE LIST*
G04 #@! TA.AperFunction,EtchedComponent*
%ADD10C,0.120000*%
G04 #@! TD*
G04 #@! TA.AperFunction,SMDPad,CuDef*
%ADD11C,1.000000*%
G04 #@! TD*
G04 #@! TA.AperFunction,ComponentPad*
%ADD12C,1.462000*%
G04 #@! TD*
G04 #@! TA.AperFunction,ComponentPad*
%ADD13C,2.430000*%
G04 #@! TD*
G04 #@! TA.AperFunction,ComponentPad*
%ADD14C,1.509000*%
G04 #@! TD*
G04 #@! TA.AperFunction,ComponentPad*
%ADD15C,2.500000*%
G04 #@! TD*
G04 #@! TA.AperFunction,ComponentPad*
%ADD16C,2.300000*%
G04 #@! TD*
G04 #@! TA.AperFunction,ComponentPad*
%ADD17R,2.300000X2.000000*%
G04 #@! TD*
G04 #@! TA.AperFunction,ComponentPad*
%ADD18O,2.080000X3.600000*%
G04 #@! TD*
G04 #@! TA.AperFunction,ComponentPad*
%ADD19R,2.080000X3.600000*%
G04 #@! TD*
G04 #@! TA.AperFunction,ComponentPad*
%ADD20O,3.600000X2.080000*%
G04 #@! TD*
G04 #@! TA.AperFunction,ComponentPad*
%ADD21R,3.600000X2.080000*%
G04 #@! TD*
G04 #@! TA.AperFunction,ComponentPad*
%ADD22O,1.700000X1.700000*%
G04 #@! TD*
G04 #@! TA.AperFunction,ComponentPad*
%ADD23R,1.700000X1.700000*%
G04 #@! TD*
G04 #@! TA.AperFunction,ComponentPad*
%ADD24C,2.000000*%
G04 #@! TD*
G04 #@! TA.AperFunction,ComponentPad*
%ADD25C,1.600000*%
G04 #@! TD*
G04 #@! TA.AperFunction,ComponentPad*
%ADD26C,1.800000*%
G04 #@! TD*
G04 #@! TA.AperFunction,ViaPad*
%ADD27C,1.200000*%
G04 #@! TD*
G04 #@! TA.AperFunction,ViaPad*
%ADD28C,0.800000*%
G04 #@! TD*
G04 #@! TA.AperFunction,Conductor*
%ADD29C,1.000000*%
G04 #@! TD*
G04 #@! TA.AperFunction,Conductor*
%ADD30C,0.300000*%
G04 #@! TD*
G04 #@! TA.AperFunction,Conductor*
%ADD31C,0.500000*%
G04 #@! TD*
G04 #@! TA.AperFunction,Conductor*
%ADD32C,0.250000*%
G04 #@! TD*
G04 #@! TA.AperFunction,Conductor*
%ADD33C,0.350000*%
G04 #@! TD*
G04 #@! TA.AperFunction,Conductor*
%ADD34C,0.254000*%
G04 #@! TD*
G04 #@! TA.AperFunction,Conductor*
%ADD35C,0.200000*%
G04 #@! TD*
G04 APERTURE END LIST*
D10*
X71080000Y-109220000D02*
G75*
G03*
X71080000Y-109220000I-2500000J0D01*
G01*
X125944000Y-79248000D02*
G75*
G03*
X125944000Y-79248000I-2500000J0D01*
G01*
X71080000Y-79248000D02*
G75*
G03*
X71080000Y-79248000I-2500000J0D01*
G01*
D11*
X68580000Y-109220000D03*
X123444000Y-79248000D03*
X68580000Y-79248000D03*
G04 #@! TA.AperFunction,SMDPad,CuDef*
G36*
G01*
X111225000Y-110050000D02*
X110275000Y-110050000D01*
G75*
G02*
X110025000Y-109800000I0J250000D01*
G01*
X110025000Y-109300000D01*
G75*
G02*
X110275000Y-109050000I250000J0D01*
G01*
X111225000Y-109050000D01*
G75*
G02*
X111475000Y-109300000I0J-250000D01*
G01*
X111475000Y-109800000D01*
G75*
G02*
X111225000Y-110050000I-250000J0D01*
G01*
G37*
G04 #@! TD.AperFunction*
G04 #@! TA.AperFunction,SMDPad,CuDef*
G36*
G01*
X111225000Y-111950000D02*
X110275000Y-111950000D01*
G75*
G02*
X110025000Y-111700000I0J250000D01*
G01*
X110025000Y-111200000D01*
G75*
G02*
X110275000Y-110950000I250000J0D01*
G01*
X111225000Y-110950000D01*
G75*
G02*
X111475000Y-111200000I0J-250000D01*
G01*
X111475000Y-111700000D01*
G75*
G02*
X111225000Y-111950000I-250000J0D01*
G01*
G37*
G04 #@! TD.AperFunction*
G04 #@! TA.AperFunction,SMDPad,CuDef*
G36*
G01*
X109775000Y-106950000D02*
X110725000Y-106950000D01*
G75*
G02*
X110975000Y-107200000I0J-250000D01*
G01*
X110975000Y-107700000D01*
G75*
G02*
X110725000Y-107950000I-250000J0D01*
G01*
X109775000Y-107950000D01*
G75*
G02*
X109525000Y-107700000I0J250000D01*
G01*
X109525000Y-107200000D01*
G75*
G02*
X109775000Y-106950000I250000J0D01*
G01*
G37*
G04 #@! TD.AperFunction*
G04 #@! TA.AperFunction,SMDPad,CuDef*
G36*
G01*
X109775000Y-105050000D02*
X110725000Y-105050000D01*
G75*
G02*
X110975000Y-105300000I0J-250000D01*
G01*
X110975000Y-105800000D01*
G75*
G02*
X110725000Y-106050000I-250000J0D01*
G01*
X109775000Y-106050000D01*
G75*
G02*
X109525000Y-105800000I0J250000D01*
G01*
X109525000Y-105300000D01*
G75*
G02*
X109775000Y-105050000I250000J0D01*
G01*
G37*
G04 #@! TD.AperFunction*
D12*
X76300000Y-109500000D03*
X78080000Y-108480000D03*
X76300000Y-107470000D03*
X78080000Y-106450000D03*
X76300000Y-105440000D03*
X78080000Y-104420000D03*
X76300000Y-103410000D03*
X78080000Y-102390000D03*
D13*
X77190000Y-97820000D03*
X77190000Y-114080000D03*
D14*
X81800389Y-106893592D03*
X83320389Y-103833592D03*
X83320389Y-107913592D03*
X83320389Y-109953592D03*
X81800389Y-108933592D03*
X81800389Y-102813592D03*
X81800389Y-104853592D03*
X83320389Y-105873592D03*
D15*
X139115000Y-115205000D03*
X141915000Y-102505000D03*
D16*
X107105000Y-91080000D03*
D17*
X135105000Y-91080000D03*
D16*
X135105000Y-75880000D03*
X107105000Y-83480000D03*
D18*
X132345000Y-118990000D03*
X127265000Y-118990000D03*
D19*
X122185000Y-118990000D03*
D18*
X122185000Y-124070000D03*
X127265000Y-124070000D03*
X132345000Y-124070000D03*
D20*
X133815000Y-100195000D03*
X133815000Y-105275000D03*
D21*
X133815000Y-110355000D03*
D22*
X75960000Y-82920000D03*
X78500000Y-82920000D03*
X75960000Y-85460000D03*
X78500000Y-85460000D03*
X75960000Y-88000000D03*
D23*
X78500000Y-88000000D03*
D24*
X141210000Y-105180000D03*
X139110000Y-115180000D03*
D25*
X139765000Y-96870000D03*
X141565000Y-91870000D03*
D26*
X139110000Y-115180000D03*
X141160000Y-107680000D03*
D27*
X122480000Y-102865000D03*
D28*
X105085000Y-111520000D03*
D27*
X110275000Y-92765000D03*
X116185000Y-92765000D03*
X121590000Y-93175000D03*
D28*
X103155000Y-96375000D03*
X102560000Y-115435000D03*
X111110000Y-115675000D03*
D27*
X112240000Y-99280000D03*
X105250000Y-100750000D03*
D28*
X117000000Y-101420000D03*
D27*
X104150000Y-93270000D03*
X100510000Y-87125000D03*
X102875000Y-78605000D03*
D28*
X103500000Y-105750000D03*
D27*
X103680001Y-111110000D03*
D28*
X112850000Y-103215000D03*
X114725000Y-110595000D03*
D27*
X110000000Y-103200000D03*
X103000000Y-102200000D03*
D28*
X109205000Y-110095000D03*
X101748621Y-103600000D03*
X87500000Y-93000000D03*
X82750000Y-89250000D03*
X115338833Y-104432101D03*
X117802653Y-104757653D03*
X126240000Y-105805000D03*
X114075000Y-115790000D03*
X115754142Y-109607629D03*
X118905685Y-115810000D03*
X77100000Y-100400000D03*
X76800000Y-111750000D03*
X85512705Y-111337478D03*
X79769669Y-108030331D03*
X89500000Y-109900000D03*
X85900000Y-103600000D03*
X86600004Y-106300000D03*
D27*
X89852463Y-85717463D03*
D28*
X87500000Y-88500000D03*
X85840000Y-81840006D03*
D27*
X87685000Y-76065000D03*
D28*
X82750000Y-91000000D03*
X91800000Y-103250000D03*
X87400000Y-101800000D03*
X87951171Y-109451171D03*
X83672712Y-101612037D03*
X74000000Y-106900000D03*
X74149990Y-108820197D03*
X81509935Y-94400000D03*
X85000012Y-86750000D03*
X87500000Y-90500000D03*
X85550000Y-108750000D03*
X85203517Y-105000000D03*
X81500000Y-96400000D03*
X83500000Y-112000000D03*
X73800000Y-102250000D03*
X76300000Y-96000000D03*
X73050000Y-97000000D03*
X79250000Y-94250000D03*
X76750000Y-94750000D03*
X78250000Y-93250000D03*
X80102495Y-104552495D03*
X84800000Y-108000000D03*
X90349995Y-109350005D03*
X87400000Y-100600000D03*
X79800000Y-102750010D03*
X108261944Y-107007026D03*
X107400000Y-108270153D03*
X107500000Y-106300000D03*
X126240000Y-115955000D03*
X123375000Y-114420000D03*
D29*
X114000000Y-109870000D02*
X114725000Y-110595000D01*
X114000000Y-106000000D02*
X114000000Y-109870000D01*
X112850000Y-104850000D02*
X114000000Y-106000000D01*
X112850000Y-103215000D02*
X112850000Y-104850000D01*
X112850000Y-103215000D02*
X104015000Y-103215000D01*
X103680001Y-111110000D02*
X104750000Y-110040001D01*
X104750000Y-103950000D02*
X103000000Y-102200000D01*
X104015000Y-103215000D02*
X103000000Y-102200000D01*
X104750000Y-110040001D02*
X104750000Y-103950000D01*
D30*
X142510000Y-115180000D02*
X139110000Y-115180000D01*
D31*
X142735000Y-96870000D02*
X139765000Y-96870000D01*
X144585000Y-98720000D02*
X142735000Y-96870000D01*
X142510000Y-115180000D02*
X144585000Y-113105000D01*
X144585000Y-113105000D02*
X144585000Y-98720000D01*
D32*
X109205000Y-110005000D02*
X106210000Y-113000000D01*
X106210000Y-113000000D02*
X103030000Y-113000000D01*
X103030000Y-113000000D02*
X101748621Y-111718621D01*
X101748621Y-111718621D02*
X101748621Y-103600000D01*
D31*
X87500000Y-93000000D02*
X83750000Y-89250000D01*
X83750000Y-89250000D02*
X82750000Y-89250000D01*
D30*
X115664385Y-104757653D02*
X115338833Y-104432101D01*
D31*
X117802653Y-104757653D02*
X115664385Y-104757653D01*
X126240000Y-106370685D02*
X126240000Y-105805000D01*
X126240000Y-108475685D02*
X126240000Y-106370685D01*
X118905685Y-115810000D02*
X126240000Y-108475685D01*
X115738832Y-104832100D02*
X115338833Y-104432101D01*
X115750009Y-104843277D02*
X115738832Y-104832100D01*
X114075000Y-115790000D02*
X115750009Y-114114991D01*
X115750009Y-114114991D02*
X115754142Y-109607629D01*
X115754142Y-109607629D02*
X115750009Y-104843277D01*
D29*
X141210000Y-103210000D02*
X141915000Y-102505000D01*
X141210000Y-105180000D02*
X141210000Y-103210000D01*
X140665001Y-101255001D02*
X138875001Y-101255001D01*
X141915000Y-102505000D02*
X140665001Y-101255001D01*
X137815000Y-100195000D02*
X133815000Y-100195000D01*
X138875001Y-101255001D02*
X137815000Y-100195000D01*
D30*
X77600000Y-101100000D02*
X76300000Y-102400000D01*
X79347470Y-102000000D02*
X78447470Y-101100000D01*
X78447470Y-101100000D02*
X77600000Y-101100000D01*
X80986797Y-102000000D02*
X79347470Y-102000000D01*
X81800389Y-102813592D02*
X80986797Y-102000000D01*
X76300000Y-102400000D02*
X76300000Y-103410000D01*
X77100000Y-100134315D02*
X77100000Y-100400000D01*
X79534315Y-97700000D02*
X77100000Y-100134315D01*
X81400000Y-97700000D02*
X79534315Y-97700000D01*
X82600000Y-98900000D02*
X81400000Y-97700000D01*
X83320389Y-103833592D02*
X83320389Y-102320389D01*
X83320389Y-102320389D02*
X82600000Y-101600000D01*
X82600000Y-101600000D02*
X82600000Y-98900000D01*
D31*
X85512705Y-111337478D02*
X86550000Y-110300183D01*
X86550000Y-110300183D02*
X86550000Y-106250000D01*
X76800000Y-111750000D02*
X79800000Y-108750000D01*
X79800000Y-108060662D02*
X79769669Y-108030331D01*
X79800000Y-108750000D02*
X79800000Y-108060662D01*
D30*
X86212705Y-111337478D02*
X88062522Y-111337478D01*
X88062522Y-111337478D02*
X89500000Y-109900000D01*
D31*
X86550000Y-104250000D02*
X85900000Y-103600000D01*
X86550000Y-106250000D02*
X86550000Y-104250000D01*
D30*
X86212705Y-111337478D02*
X85512705Y-111337478D01*
D31*
X75000000Y-109950000D02*
X76800000Y-111750000D01*
X75000000Y-106740000D02*
X75000000Y-109950000D01*
X76300000Y-105440000D02*
X75000000Y-106740000D01*
X89852463Y-85462463D02*
X89852463Y-85717463D01*
D30*
X80403981Y-106250000D02*
X81800389Y-104853592D01*
X79910000Y-106250000D02*
X80403981Y-106250000D01*
X78080000Y-104420000D02*
X79910000Y-106250000D01*
D31*
X87951171Y-102351171D02*
X87951171Y-109451171D01*
X87400000Y-101800000D02*
X87951171Y-102351171D01*
X83860675Y-101800000D02*
X83672712Y-101612037D01*
X87400000Y-101800000D02*
X83860675Y-101800000D01*
D33*
X74000000Y-106900000D02*
X74000000Y-108670207D01*
X74000000Y-108670207D02*
X74149990Y-108820197D01*
D30*
X80550000Y-109317865D02*
X81482135Y-110250000D01*
X80550000Y-107750000D02*
X80550000Y-109317865D01*
X80050000Y-107250000D02*
X80550000Y-107750000D01*
X83023981Y-110250000D02*
X83320389Y-109953592D01*
X79310000Y-107250000D02*
X80050000Y-107250000D01*
X81482135Y-110250000D02*
X83023981Y-110250000D01*
X78080000Y-108480000D02*
X79310000Y-107250000D01*
D31*
X85000012Y-88000012D02*
X87500000Y-90500000D01*
X85000012Y-86750000D02*
X85000012Y-88000012D01*
D30*
X85550000Y-108750000D02*
X85550000Y-105346483D01*
X85550000Y-105346483D02*
X85203517Y-105000000D01*
X81509935Y-94400000D02*
X81509935Y-96390065D01*
X81509935Y-96390065D02*
X81500000Y-96400000D01*
X83320389Y-109953592D02*
X83320389Y-111820389D01*
X83320389Y-111820389D02*
X83500000Y-112000000D01*
X71550000Y-98500000D02*
X73050000Y-97000000D01*
X71550000Y-100565685D02*
X71550000Y-98500000D01*
X73234315Y-102250000D02*
X71550000Y-100565685D01*
X73800000Y-102250000D02*
X73234315Y-102250000D01*
X79250000Y-94350000D02*
X79250000Y-94250000D01*
X77600000Y-96000000D02*
X79250000Y-94350000D01*
X77000000Y-96000000D02*
X77600000Y-96000000D01*
X77000000Y-96000000D02*
X76300000Y-96000000D01*
D33*
X76750000Y-94750000D02*
X78250000Y-93250000D01*
X83320389Y-105873592D02*
X84800000Y-107353203D01*
X84800000Y-107353203D02*
X84800000Y-108000000D01*
D30*
X90349995Y-103549995D02*
X87400000Y-100600000D01*
X90349995Y-109350005D02*
X90349995Y-103549995D01*
D33*
X80102495Y-103052505D02*
X79800000Y-102750010D01*
X80102495Y-104552495D02*
X80102495Y-103052505D01*
D30*
X110250000Y-107500000D02*
X109757026Y-107007026D01*
X108827629Y-107007026D02*
X108261944Y-107007026D01*
X109757026Y-107007026D02*
X108827629Y-107007026D01*
D32*
X108261944Y-107007026D02*
X107400000Y-107868970D01*
X107400000Y-107868970D02*
X107400000Y-108270153D01*
X106250000Y-108626654D02*
X106250000Y-107550000D01*
X106250000Y-107550000D02*
X107500000Y-106300000D01*
X106993345Y-109369999D02*
X106250000Y-108626654D01*
X111000000Y-109550000D02*
X110819999Y-109369999D01*
X110819999Y-109369999D02*
X106993345Y-109369999D01*
D31*
X124910000Y-115955000D02*
X123375000Y-114420000D01*
X126240000Y-115955000D02*
X124910000Y-115955000D01*
D34*
X132909911Y-74706701D02*
X132723190Y-75157486D01*
X132628000Y-75636037D01*
X132628000Y-76123963D01*
X132723190Y-76602514D01*
X132909911Y-77053299D01*
X133180989Y-77458995D01*
X133526005Y-77804011D01*
X133931701Y-78075089D01*
X134382486Y-78261810D01*
X134861037Y-78357000D01*
X135348963Y-78357000D01*
X135827514Y-78261810D01*
X136278299Y-78075089D01*
X136683995Y-77804011D01*
X137029011Y-77458995D01*
X137300089Y-77053299D01*
X137486810Y-76602514D01*
X137582000Y-76123963D01*
X137582000Y-75636037D01*
X137486810Y-75157486D01*
X137300089Y-74706701D01*
X137049721Y-74332000D01*
X142162394Y-74332000D01*
X142928000Y-75097606D01*
X142928000Y-90224967D01*
X142920884Y-90217851D01*
X142572512Y-89985077D01*
X142185423Y-89824739D01*
X141774491Y-89743000D01*
X141355509Y-89743000D01*
X140944577Y-89824739D01*
X140557488Y-89985077D01*
X140209116Y-90217851D01*
X139912851Y-90514116D01*
X139680077Y-90862488D01*
X139519739Y-91249577D01*
X139438000Y-91660509D01*
X139438000Y-92079491D01*
X139519739Y-92490423D01*
X139680077Y-92877512D01*
X139912851Y-93225884D01*
X140209116Y-93522149D01*
X140488000Y-93708493D01*
X140488000Y-94867228D01*
X140385423Y-94824739D01*
X139974491Y-94743000D01*
X139555509Y-94743000D01*
X139144577Y-94824739D01*
X138757488Y-94985077D01*
X138409116Y-95217851D01*
X138112851Y-95514116D01*
X137880077Y-95862488D01*
X137719739Y-96249577D01*
X137638000Y-96660509D01*
X137638000Y-97079491D01*
X137719739Y-97490423D01*
X137791566Y-97663828D01*
X137772394Y-97683000D01*
X129830000Y-97683000D01*
X129805224Y-97685440D01*
X129781399Y-97692667D01*
X129759443Y-97704403D01*
X129740197Y-97720197D01*
X127895197Y-99565197D01*
X127879403Y-99584443D01*
X127867667Y-99606399D01*
X127860440Y-99630224D01*
X127858000Y-99655000D01*
X127858000Y-114350000D01*
X127860440Y-114374776D01*
X127867667Y-114398601D01*
X127879403Y-114420557D01*
X127895197Y-114439803D01*
X128748000Y-115292606D01*
X128748000Y-126030000D01*
X128750440Y-126054776D01*
X128757667Y-126078601D01*
X128760553Y-126084000D01*
X127933376Y-126084000D01*
X128058285Y-126017235D01*
X128274660Y-125839660D01*
X128452235Y-125623285D01*
X128584184Y-125376424D01*
X128665439Y-125108565D01*
X128686000Y-124899804D01*
X128686000Y-123240196D01*
X128665439Y-123031435D01*
X128584184Y-122763576D01*
X128452235Y-122516715D01*
X128274659Y-122300340D01*
X128058284Y-122122765D01*
X127811423Y-121990816D01*
X127543564Y-121909561D01*
X127265000Y-121882125D01*
X126986435Y-121909561D01*
X126718576Y-121990816D01*
X126471715Y-122122765D01*
X126255340Y-122300341D01*
X126077765Y-122516716D01*
X125945816Y-122763577D01*
X125864561Y-123031436D01*
X125844000Y-123240197D01*
X125844000Y-124899804D01*
X125864561Y-125108565D01*
X125945817Y-125376424D01*
X126077766Y-125623285D01*
X126255341Y-125839660D01*
X126471716Y-126017235D01*
X126596625Y-126084000D01*
X122853376Y-126084000D01*
X122978285Y-126017235D01*
X123194660Y-125839660D01*
X123372235Y-125623285D01*
X123504184Y-125376424D01*
X123585439Y-125108565D01*
X123606000Y-124899804D01*
X123606000Y-123240196D01*
X123585439Y-123031435D01*
X123504184Y-122763576D01*
X123372235Y-122516715D01*
X123194659Y-122300340D01*
X122978284Y-122122765D01*
X122731423Y-121990816D01*
X122463564Y-121909561D01*
X122185000Y-121882125D01*
X121906435Y-121909561D01*
X121638576Y-121990816D01*
X121391715Y-122122765D01*
X121175340Y-122300341D01*
X120997765Y-122516716D01*
X120865816Y-122763577D01*
X120784561Y-123031436D01*
X120764000Y-123240197D01*
X120764000Y-124899804D01*
X120784561Y-125108565D01*
X120865817Y-125376424D01*
X120997766Y-125623285D01*
X121175341Y-125839660D01*
X121391716Y-126017235D01*
X121516625Y-126084000D01*
X118721000Y-126084000D01*
X118721000Y-117190000D01*
X120762157Y-117190000D01*
X120762157Y-120790000D01*
X120769513Y-120864689D01*
X120791299Y-120936508D01*
X120826678Y-121002696D01*
X120874289Y-121060711D01*
X120932304Y-121108322D01*
X120998492Y-121143701D01*
X121070311Y-121165487D01*
X121145000Y-121172843D01*
X123225000Y-121172843D01*
X123299689Y-121165487D01*
X123371508Y-121143701D01*
X123437696Y-121108322D01*
X123495711Y-121060711D01*
X123543322Y-121002696D01*
X123578701Y-120936508D01*
X123600487Y-120864689D01*
X123607843Y-120790000D01*
X123607843Y-118160197D01*
X125844000Y-118160197D01*
X125844000Y-119819804D01*
X125864561Y-120028565D01*
X125945817Y-120296424D01*
X126077766Y-120543285D01*
X126255341Y-120759660D01*
X126471716Y-120937235D01*
X126718577Y-121069184D01*
X126986436Y-121150439D01*
X127265000Y-121177875D01*
X127543565Y-121150439D01*
X127811424Y-121069184D01*
X128058285Y-120937235D01*
X128274660Y-120759660D01*
X128452235Y-120543285D01*
X128584184Y-120296424D01*
X128665439Y-120028565D01*
X128686000Y-119819804D01*
X128686000Y-118160196D01*
X128665439Y-117951435D01*
X128584184Y-117683576D01*
X128452235Y-117436715D01*
X128274659Y-117220340D01*
X128058284Y-117042765D01*
X127811423Y-116910816D01*
X127543564Y-116829561D01*
X127265000Y-116802125D01*
X126986435Y-116829561D01*
X126718576Y-116910816D01*
X126471715Y-117042765D01*
X126255340Y-117220341D01*
X126077765Y-117436716D01*
X125945816Y-117683577D01*
X125864561Y-117951436D01*
X125844000Y-118160197D01*
X123607843Y-118160197D01*
X123607843Y-117190000D01*
X123600487Y-117115311D01*
X123578701Y-117043492D01*
X123543322Y-116977304D01*
X123495711Y-116919289D01*
X123437696Y-116871678D01*
X123371508Y-116836299D01*
X123299689Y-116814513D01*
X123225000Y-116807157D01*
X121145000Y-116807157D01*
X121070311Y-116814513D01*
X120998492Y-116836299D01*
X120932304Y-116871678D01*
X120874289Y-116919289D01*
X120826678Y-116977304D01*
X120791299Y-117043492D01*
X120769513Y-117115311D01*
X120762157Y-117190000D01*
X118721000Y-117190000D01*
X118721000Y-116592399D01*
X118723206Y-116570004D01*
X118828763Y-116591000D01*
X118982607Y-116591000D01*
X119133494Y-116560987D01*
X119275627Y-116502113D01*
X119403544Y-116416642D01*
X119512327Y-116307859D01*
X119597798Y-116179942D01*
X119656672Y-116037809D01*
X119678132Y-115929921D01*
X121264975Y-114343078D01*
X122594000Y-114343078D01*
X122594000Y-114496922D01*
X122624013Y-114647809D01*
X122682887Y-114789942D01*
X122768358Y-114917859D01*
X122877141Y-115026642D01*
X123005058Y-115112113D01*
X123147191Y-115170987D01*
X123255079Y-115192447D01*
X124441899Y-116379268D01*
X124461657Y-116403343D01*
X124485732Y-116423101D01*
X124485734Y-116423103D01*
X124521992Y-116452859D01*
X124557739Y-116482196D01*
X124667358Y-116540789D01*
X124786302Y-116576870D01*
X124879002Y-116586000D01*
X124879009Y-116586000D01*
X124910000Y-116589052D01*
X124940990Y-116586000D01*
X125778595Y-116586000D01*
X125870058Y-116647113D01*
X126012191Y-116705987D01*
X126163078Y-116736000D01*
X126316922Y-116736000D01*
X126467809Y-116705987D01*
X126609942Y-116647113D01*
X126737859Y-116561642D01*
X126846642Y-116452859D01*
X126932113Y-116324942D01*
X126990987Y-116182809D01*
X127021000Y-116031922D01*
X127021000Y-115878078D01*
X126990987Y-115727191D01*
X126932113Y-115585058D01*
X126846642Y-115457141D01*
X126737859Y-115348358D01*
X126609942Y-115262887D01*
X126467809Y-115204013D01*
X126316922Y-115174000D01*
X126163078Y-115174000D01*
X126012191Y-115204013D01*
X125870058Y-115262887D01*
X125778595Y-115324000D01*
X125171369Y-115324000D01*
X124147447Y-114300079D01*
X124125987Y-114192191D01*
X124067113Y-114050058D01*
X123981642Y-113922141D01*
X123872859Y-113813358D01*
X123744942Y-113727887D01*
X123602809Y-113669013D01*
X123451922Y-113639000D01*
X123298078Y-113639000D01*
X123147191Y-113669013D01*
X123005058Y-113727887D01*
X122877141Y-113813358D01*
X122768358Y-113922141D01*
X122682887Y-114050058D01*
X122624013Y-114192191D01*
X122594000Y-114343078D01*
X121264975Y-114343078D01*
X126664269Y-108943785D01*
X126688343Y-108924028D01*
X126727107Y-108876795D01*
X126767196Y-108827946D01*
X126825789Y-108718327D01*
X126861870Y-108599383D01*
X126868953Y-108527462D01*
X126871000Y-108506683D01*
X126871000Y-108506676D01*
X126874052Y-108475685D01*
X126871000Y-108444695D01*
X126871000Y-106266405D01*
X126932113Y-106174942D01*
X126990987Y-106032809D01*
X127021000Y-105881922D01*
X127021000Y-105728078D01*
X126990987Y-105577191D01*
X126932113Y-105435058D01*
X126846642Y-105307141D01*
X126737859Y-105198358D01*
X126609942Y-105112887D01*
X126467809Y-105054013D01*
X126316922Y-105024000D01*
X126163078Y-105024000D01*
X126012191Y-105054013D01*
X125870058Y-105112887D01*
X125742141Y-105198358D01*
X125633358Y-105307141D01*
X125547887Y-105435058D01*
X125489013Y-105577191D01*
X125459000Y-105728078D01*
X125459000Y-105881922D01*
X125489013Y-106032809D01*
X125547887Y-106174942D01*
X125609000Y-106266405D01*
X125609000Y-106401682D01*
X125609001Y-106401692D01*
X125609000Y-108214316D01*
X118785764Y-115037553D01*
X118677876Y-115059013D01*
X118535743Y-115117887D01*
X118407826Y-115203358D01*
X118299043Y-115312141D01*
X118213572Y-115440058D01*
X118154698Y-115582191D01*
X118124685Y-115733078D01*
X118124685Y-115886922D01*
X118154698Y-116037809D01*
X118186258Y-116114000D01*
X114786143Y-116114000D01*
X114825987Y-116017809D01*
X114847447Y-115909921D01*
X116174074Y-114583294D01*
X116197940Y-114563744D01*
X116217902Y-114539466D01*
X116218111Y-114539257D01*
X116237994Y-114515030D01*
X116276881Y-114467735D01*
X116277017Y-114467480D01*
X116277204Y-114467253D01*
X116306303Y-114412812D01*
X116335575Y-114358170D01*
X116335661Y-114357887D01*
X116335797Y-114357633D01*
X116353594Y-114298966D01*
X116371765Y-114239259D01*
X116371794Y-114238967D01*
X116371878Y-114238690D01*
X116377884Y-114177708D01*
X116380980Y-114146567D01*
X116380980Y-114146272D01*
X116384061Y-114114992D01*
X116381037Y-114084289D01*
X116384718Y-110069667D01*
X116446255Y-109977571D01*
X116505129Y-109835438D01*
X116535142Y-109684551D01*
X116535142Y-109530707D01*
X116505129Y-109379820D01*
X116446255Y-109237687D01*
X116384741Y-109145624D01*
X116381481Y-105388653D01*
X117341248Y-105388653D01*
X117432711Y-105449766D01*
X117574844Y-105508640D01*
X117725731Y-105538653D01*
X117879575Y-105538653D01*
X118030462Y-105508640D01*
X118172595Y-105449766D01*
X118300512Y-105364295D01*
X118409295Y-105255512D01*
X118494766Y-105127595D01*
X118553640Y-104985462D01*
X118583653Y-104834575D01*
X118583653Y-104680731D01*
X118553640Y-104529844D01*
X118494766Y-104387711D01*
X118409295Y-104259794D01*
X118300512Y-104151011D01*
X118172595Y-104065540D01*
X118030462Y-104006666D01*
X117879575Y-103976653D01*
X117725731Y-103976653D01*
X117574844Y-104006666D01*
X117432711Y-104065540D01*
X117341248Y-104126653D01*
X116057661Y-104126653D01*
X116030946Y-104062159D01*
X115945475Y-103934242D01*
X115836692Y-103825459D01*
X115708775Y-103739988D01*
X115566642Y-103681114D01*
X115415755Y-103651101D01*
X115261911Y-103651101D01*
X115111024Y-103681114D01*
X114968891Y-103739988D01*
X114840974Y-103825459D01*
X114732191Y-103934242D01*
X114646720Y-104062159D01*
X114587846Y-104204292D01*
X114557833Y-104355179D01*
X114557833Y-104509023D01*
X114587846Y-104659910D01*
X114646720Y-104802043D01*
X114732191Y-104929960D01*
X114840974Y-105038743D01*
X114968891Y-105124214D01*
X115111024Y-105183088D01*
X115119306Y-105184735D01*
X115122743Y-109146822D01*
X115062029Y-109237687D01*
X115003155Y-109379820D01*
X114973142Y-109530707D01*
X114973142Y-109597221D01*
X114881000Y-109505079D01*
X114881000Y-106043270D01*
X114885262Y-106000000D01*
X114878373Y-105930058D01*
X114868252Y-105827294D01*
X114817875Y-105661225D01*
X114772958Y-105577191D01*
X114736068Y-105508174D01*
X114676063Y-105435058D01*
X114625975Y-105374025D01*
X114592362Y-105346440D01*
X113731000Y-104485079D01*
X113731000Y-103258273D01*
X113735262Y-103215000D01*
X113718252Y-103042294D01*
X113667875Y-102876225D01*
X113586068Y-102723175D01*
X113475975Y-102589025D01*
X113341825Y-102478932D01*
X113188775Y-102397125D01*
X113022706Y-102346748D01*
X112893273Y-102334000D01*
X112850000Y-102329738D01*
X112806727Y-102334000D01*
X110469693Y-102334000D01*
X110464678Y-102330649D01*
X110286147Y-102256699D01*
X110096620Y-102219000D01*
X109903380Y-102219000D01*
X109713853Y-102256699D01*
X109535322Y-102330649D01*
X109530307Y-102334000D01*
X104379922Y-102334000D01*
X103931653Y-101885731D01*
X103869351Y-101735322D01*
X103761993Y-101574649D01*
X103625351Y-101438007D01*
X103464678Y-101330649D01*
X103286147Y-101256699D01*
X103096620Y-101219000D01*
X102903380Y-101219000D01*
X102713853Y-101256699D01*
X102535322Y-101330649D01*
X102374649Y-101438007D01*
X102238007Y-101574649D01*
X102130649Y-101735322D01*
X102056699Y-101913853D01*
X102019000Y-102103380D01*
X102019000Y-102296620D01*
X102056699Y-102486147D01*
X102130649Y-102664678D01*
X102238007Y-102825351D01*
X102374649Y-102961993D01*
X102535322Y-103069351D01*
X102685731Y-103131653D01*
X103235193Y-103681114D01*
X103361437Y-103807358D01*
X103389025Y-103840975D01*
X103422637Y-103868559D01*
X103869001Y-104314923D01*
X103869000Y-109675079D01*
X103365732Y-110178347D01*
X103215323Y-110240649D01*
X103054650Y-110348007D01*
X102918008Y-110484649D01*
X102810650Y-110645322D01*
X102736700Y-110823853D01*
X102699001Y-111013380D01*
X102699001Y-111206620D01*
X102736700Y-111396147D01*
X102810650Y-111574678D01*
X102918008Y-111735351D01*
X103054650Y-111871993D01*
X103215323Y-111979351D01*
X103393854Y-112053301D01*
X103583381Y-112091000D01*
X103776621Y-112091000D01*
X103966148Y-112053301D01*
X104144679Y-111979351D01*
X104305352Y-111871993D01*
X104441994Y-111735351D01*
X104549352Y-111574678D01*
X104611654Y-111424269D01*
X105342362Y-110693561D01*
X105375975Y-110665976D01*
X105451036Y-110574513D01*
X105486068Y-110531827D01*
X105523197Y-110462362D01*
X105567875Y-110378776D01*
X105618252Y-110212707D01*
X105631000Y-110083274D01*
X105631000Y-110083272D01*
X105635262Y-110040002D01*
X105631000Y-109996732D01*
X105631000Y-105050000D01*
X109142157Y-105050000D01*
X109144000Y-105327750D01*
X109239250Y-105423000D01*
X110123000Y-105423000D01*
X110123000Y-104764250D01*
X110377000Y-104764250D01*
X110377000Y-105423000D01*
X111260750Y-105423000D01*
X111356000Y-105327750D01*
X111357843Y-105050000D01*
X111350487Y-104975311D01*
X111328701Y-104903492D01*
X111293322Y-104837304D01*
X111245711Y-104779289D01*
X111187696Y-104731678D01*
X111121508Y-104696299D01*
X111049689Y-104674513D01*
X110975000Y-104667157D01*
X110472250Y-104669000D01*
X110377000Y-104764250D01*
X110123000Y-104764250D01*
X110027750Y-104669000D01*
X109525000Y-104667157D01*
X109450311Y-104674513D01*
X109378492Y-104696299D01*
X109312304Y-104731678D01*
X109254289Y-104779289D01*
X109206678Y-104837304D01*
X109171299Y-104903492D01*
X109149513Y-104975311D01*
X109142157Y-105050000D01*
X105631000Y-105050000D01*
X105631000Y-104096000D01*
X109599658Y-104096000D01*
X109713853Y-104143301D01*
X109903380Y-104181000D01*
X110096620Y-104181000D01*
X110286147Y-104143301D01*
X110400342Y-104096000D01*
X111969001Y-104096000D01*
X111969001Y-104806720D01*
X111964738Y-104850000D01*
X111981749Y-105022705D01*
X112032125Y-105188774D01*
X112113932Y-105341825D01*
X112180551Y-105423000D01*
X112224026Y-105475975D01*
X112257640Y-105503561D01*
X113119000Y-106364922D01*
X113119001Y-109826720D01*
X113114738Y-109870000D01*
X113130216Y-110027137D01*
X113131749Y-110042706D01*
X113144055Y-110083273D01*
X113182125Y-110208774D01*
X113263932Y-110361825D01*
X113285930Y-110388629D01*
X113374026Y-110495975D01*
X113407640Y-110523561D01*
X114132637Y-111248559D01*
X114233174Y-111331068D01*
X114386225Y-111412875D01*
X114552294Y-111463251D01*
X114725000Y-111480262D01*
X114897705Y-111463251D01*
X115063774Y-111412875D01*
X115121515Y-111382012D01*
X115119249Y-113853383D01*
X113955079Y-115017553D01*
X113847191Y-115039013D01*
X113705058Y-115097887D01*
X113577141Y-115183358D01*
X113468358Y-115292141D01*
X113382887Y-115420058D01*
X113324013Y-115562191D01*
X113294000Y-115713078D01*
X113294000Y-115866922D01*
X113324013Y-116017809D01*
X113363857Y-116114000D01*
X102293606Y-116114000D01*
X101397000Y-115217394D01*
X101397000Y-112084636D01*
X101408406Y-112093997D01*
X102654628Y-113340220D01*
X102670473Y-113359527D01*
X102747521Y-113422759D01*
X102835425Y-113469745D01*
X102930807Y-113498678D01*
X103030000Y-113508448D01*
X103054854Y-113506000D01*
X106185154Y-113506000D01*
X106210000Y-113508447D01*
X106234846Y-113506000D01*
X106234854Y-113506000D01*
X106309193Y-113498678D01*
X106404575Y-113469745D01*
X106492479Y-113422759D01*
X106569527Y-113359527D01*
X106585376Y-113340215D01*
X107975591Y-111950000D01*
X109642157Y-111950000D01*
X109649513Y-112024689D01*
X109671299Y-112096508D01*
X109706678Y-112162696D01*
X109754289Y-112220711D01*
X109812304Y-112268322D01*
X109878492Y-112303701D01*
X109950311Y-112325487D01*
X110025000Y-112332843D01*
X110527750Y-112331000D01*
X110623000Y-112235750D01*
X110623000Y-111577000D01*
X110877000Y-111577000D01*
X110877000Y-112235750D01*
X110972250Y-112331000D01*
X111475000Y-112332843D01*
X111549689Y-112325487D01*
X111621508Y-112303701D01*
X111687696Y-112268322D01*
X111745711Y-112220711D01*
X111793322Y-112162696D01*
X111828701Y-112096508D01*
X111850487Y-112024689D01*
X111857843Y-111950000D01*
X111856000Y-111672250D01*
X111760750Y-111577000D01*
X110877000Y-111577000D01*
X110623000Y-111577000D01*
X109739250Y-111577000D01*
X109644000Y-111672250D01*
X109642157Y-111950000D01*
X107975591Y-111950000D01*
X108975591Y-110950000D01*
X109642157Y-110950000D01*
X109644000Y-111227750D01*
X109739250Y-111323000D01*
X110623000Y-111323000D01*
X110623000Y-110664250D01*
X110877000Y-110664250D01*
X110877000Y-111323000D01*
X111760750Y-111323000D01*
X111856000Y-111227750D01*
X111857843Y-110950000D01*
X111850487Y-110875311D01*
X111828701Y-110803492D01*
X111793322Y-110737304D01*
X111745711Y-110679289D01*
X111687696Y-110631678D01*
X111621508Y-110596299D01*
X111549689Y-110574513D01*
X111475000Y-110567157D01*
X110972250Y-110569000D01*
X110877000Y-110664250D01*
X110623000Y-110664250D01*
X110527750Y-110569000D01*
X110025000Y-110567157D01*
X109950311Y-110574513D01*
X109878492Y-110596299D01*
X109812304Y-110631678D01*
X109754289Y-110679289D01*
X109706678Y-110737304D01*
X109671299Y-110803492D01*
X109649513Y-110875311D01*
X109642157Y-110950000D01*
X108975591Y-110950000D01*
X109062613Y-110862978D01*
X109128078Y-110876000D01*
X109281922Y-110876000D01*
X109432809Y-110845987D01*
X109574942Y-110787113D01*
X109702859Y-110701642D01*
X109811642Y-110592859D01*
X109897113Y-110464942D01*
X109948935Y-110339833D01*
X110032821Y-110384671D01*
X110151538Y-110420683D01*
X110275000Y-110432843D01*
X111225000Y-110432843D01*
X111348462Y-110420683D01*
X111467179Y-110384671D01*
X111576589Y-110326190D01*
X111672488Y-110247488D01*
X111751190Y-110151589D01*
X111809671Y-110042179D01*
X111845683Y-109923462D01*
X111857843Y-109800000D01*
X111857843Y-109300000D01*
X111845683Y-109176538D01*
X111809671Y-109057821D01*
X111751190Y-108948411D01*
X111672488Y-108852512D01*
X111576589Y-108773810D01*
X111467179Y-108715329D01*
X111348462Y-108679317D01*
X111225000Y-108667157D01*
X110275000Y-108667157D01*
X110151538Y-108679317D01*
X110032821Y-108715329D01*
X109923411Y-108773810D01*
X109827512Y-108852512D01*
X109818085Y-108863999D01*
X107910655Y-108863999D01*
X108006642Y-108768012D01*
X108092113Y-108640095D01*
X108150987Y-108497962D01*
X108181000Y-108347075D01*
X108181000Y-108193231D01*
X108150987Y-108042344D01*
X108092113Y-107900211D01*
X108089004Y-107895558D01*
X108196536Y-107788026D01*
X108338866Y-107788026D01*
X108489753Y-107758013D01*
X108631886Y-107699139D01*
X108759803Y-107613668D01*
X108835445Y-107538026D01*
X109142157Y-107538026D01*
X109142157Y-107700000D01*
X109154317Y-107823462D01*
X109190329Y-107942179D01*
X109248810Y-108051589D01*
X109327512Y-108147488D01*
X109423411Y-108226190D01*
X109532821Y-108284671D01*
X109651538Y-108320683D01*
X109775000Y-108332843D01*
X110725000Y-108332843D01*
X110848462Y-108320683D01*
X110967179Y-108284671D01*
X111076589Y-108226190D01*
X111172488Y-108147488D01*
X111251190Y-108051589D01*
X111309671Y-107942179D01*
X111345683Y-107823462D01*
X111357843Y-107700000D01*
X111357843Y-107200000D01*
X111345683Y-107076538D01*
X111309671Y-106957821D01*
X111251190Y-106848411D01*
X111172488Y-106752512D01*
X111076589Y-106673810D01*
X110967179Y-106615329D01*
X110848462Y-106579317D01*
X110725000Y-106567157D01*
X110058063Y-106567157D01*
X110053461Y-106563380D01*
X109961214Y-106514073D01*
X109861120Y-106483709D01*
X109783110Y-106476026D01*
X109783100Y-106476026D01*
X109757026Y-106473458D01*
X109730952Y-106476026D01*
X108835445Y-106476026D01*
X108759803Y-106400384D01*
X108631886Y-106314913D01*
X108489753Y-106256039D01*
X108338866Y-106226026D01*
X108281000Y-106226026D01*
X108281000Y-106223078D01*
X108250987Y-106072191D01*
X108241796Y-106050000D01*
X109142157Y-106050000D01*
X109149513Y-106124689D01*
X109171299Y-106196508D01*
X109206678Y-106262696D01*
X109254289Y-106320711D01*
X109312304Y-106368322D01*
X109378492Y-106403701D01*
X109450311Y-106425487D01*
X109525000Y-106432843D01*
X110027750Y-106431000D01*
X110123000Y-106335750D01*
X110123000Y-105677000D01*
X110377000Y-105677000D01*
X110377000Y-106335750D01*
X110472250Y-106431000D01*
X110975000Y-106432843D01*
X111049689Y-106425487D01*
X111121508Y-106403701D01*
X111187696Y-106368322D01*
X111245711Y-106320711D01*
X111293322Y-106262696D01*
X111328701Y-106196508D01*
X111350487Y-106124689D01*
X111357843Y-106050000D01*
X111356000Y-105772250D01*
X111260750Y-105677000D01*
X110377000Y-105677000D01*
X110123000Y-105677000D01*
X109239250Y-105677000D01*
X109144000Y-105772250D01*
X109142157Y-106050000D01*
X108241796Y-106050000D01*
X108192113Y-105930058D01*
X108106642Y-105802141D01*
X107997859Y-105693358D01*
X107869942Y-105607887D01*
X107727809Y-105549013D01*
X107576922Y-105519000D01*
X107423078Y-105519000D01*
X107272191Y-105549013D01*
X107130058Y-105607887D01*
X107002141Y-105693358D01*
X106893358Y-105802141D01*
X106807887Y-105930058D01*
X106749013Y-106072191D01*
X106719000Y-106223078D01*
X106719000Y-106365408D01*
X105909780Y-107174629D01*
X105890474Y-107190473D01*
X105827242Y-107267521D01*
X105812120Y-107295812D01*
X105780255Y-107355426D01*
X105751322Y-107450808D01*
X105741553Y-107550000D01*
X105744001Y-107574856D01*
X105744000Y-108601807D01*
X105741553Y-108626654D01*
X105744000Y-108651500D01*
X105744000Y-108651507D01*
X105751322Y-108725846D01*
X105780255Y-108821228D01*
X105827241Y-108909133D01*
X105890473Y-108986181D01*
X105909785Y-109002030D01*
X106617973Y-109710219D01*
X106633818Y-109729526D01*
X106710866Y-109792758D01*
X106790714Y-109835438D01*
X106798770Y-109839744D01*
X106894152Y-109868677D01*
X106993345Y-109878447D01*
X107018199Y-109875999D01*
X108452261Y-109875999D01*
X108424000Y-110018078D01*
X108424000Y-110070408D01*
X106000409Y-112494000D01*
X103239592Y-112494000D01*
X102254621Y-111509030D01*
X102254621Y-104198501D01*
X102355263Y-104097859D01*
X102440734Y-103969942D01*
X102499608Y-103827809D01*
X102529621Y-103676922D01*
X102529621Y-103523078D01*
X102499608Y-103372191D01*
X102440734Y-103230058D01*
X102355263Y-103102141D01*
X102246480Y-102993358D01*
X102118563Y-102907887D01*
X101976430Y-102849013D01*
X101825543Y-102819000D01*
X101671699Y-102819000D01*
X101520812Y-102849013D01*
X101397000Y-102900298D01*
X101397000Y-101060000D01*
X101394560Y-101035224D01*
X101387333Y-101011399D01*
X101375597Y-100989443D01*
X101359803Y-100970197D01*
X97867000Y-97477394D01*
X97867000Y-92186310D01*
X106178295Y-92186310D01*
X106306578Y-92394999D01*
X106578463Y-92525496D01*
X106870583Y-92600444D01*
X107171711Y-92616961D01*
X107470275Y-92574414D01*
X107754802Y-92474438D01*
X107903422Y-92394999D01*
X108031705Y-92186310D01*
X107105000Y-91259605D01*
X106178295Y-92186310D01*
X97867000Y-92186310D01*
X97867000Y-91146711D01*
X105568039Y-91146711D01*
X105610586Y-91445275D01*
X105710562Y-91729802D01*
X105790001Y-91878422D01*
X105998690Y-92006705D01*
X106925395Y-91080000D01*
X107284605Y-91080000D01*
X108211310Y-92006705D01*
X108419999Y-91878422D01*
X108550496Y-91606537D01*
X108625444Y-91314417D01*
X108641961Y-91013289D01*
X108599414Y-90714725D01*
X108499438Y-90430198D01*
X108419999Y-90281578D01*
X108211310Y-90153295D01*
X107284605Y-91080000D01*
X106925395Y-91080000D01*
X105998690Y-90153295D01*
X105790001Y-90281578D01*
X105659504Y-90553463D01*
X105584556Y-90845583D01*
X105568039Y-91146711D01*
X97867000Y-91146711D01*
X97867000Y-90317606D01*
X98210916Y-89973690D01*
X106178295Y-89973690D01*
X107105000Y-90900395D01*
X107925395Y-90080000D01*
X133572157Y-90080000D01*
X133572157Y-92080000D01*
X133579513Y-92154689D01*
X133601299Y-92226508D01*
X133636678Y-92292696D01*
X133684289Y-92350711D01*
X133742304Y-92398322D01*
X133808492Y-92433701D01*
X133880311Y-92455487D01*
X133955000Y-92462843D01*
X136255000Y-92462843D01*
X136329689Y-92455487D01*
X136401508Y-92433701D01*
X136467696Y-92398322D01*
X136525711Y-92350711D01*
X136573322Y-92292696D01*
X136608701Y-92226508D01*
X136630487Y-92154689D01*
X136637843Y-92080000D01*
X136637843Y-90080000D01*
X136630487Y-90005311D01*
X136608701Y-89933492D01*
X136573322Y-89867304D01*
X136525711Y-89809289D01*
X136467696Y-89761678D01*
X136401508Y-89726299D01*
X136329689Y-89704513D01*
X136255000Y-89697157D01*
X133955000Y-89697157D01*
X133880311Y-89704513D01*
X133808492Y-89726299D01*
X133742304Y-89761678D01*
X133684289Y-89809289D01*
X133636678Y-89867304D01*
X133601299Y-89933492D01*
X133579513Y-90005311D01*
X133572157Y-90080000D01*
X107925395Y-90080000D01*
X108031705Y-89973690D01*
X107903422Y-89765001D01*
X107631537Y-89634504D01*
X107339417Y-89559556D01*
X107038289Y-89543039D01*
X106739725Y-89585586D01*
X106455198Y-89685562D01*
X106306578Y-89765001D01*
X106178295Y-89973690D01*
X98210916Y-89973690D01*
X98779803Y-89404803D01*
X98795597Y-89385557D01*
X98807333Y-89363601D01*
X98814560Y-89339776D01*
X98817000Y-89315000D01*
X98817000Y-83236037D01*
X104628000Y-83236037D01*
X104628000Y-83723963D01*
X104723190Y-84202514D01*
X104909911Y-84653299D01*
X105180989Y-85058995D01*
X105526005Y-85404011D01*
X105931701Y-85675089D01*
X106382486Y-85861810D01*
X106861037Y-85957000D01*
X107348963Y-85957000D01*
X107827514Y-85861810D01*
X108278299Y-85675089D01*
X108683995Y-85404011D01*
X109029011Y-85058995D01*
X109300089Y-84653299D01*
X109486810Y-84202514D01*
X109582000Y-83723963D01*
X109582000Y-83236037D01*
X109486810Y-82757486D01*
X109300089Y-82306701D01*
X109029011Y-81901005D01*
X108683995Y-81555989D01*
X108278299Y-81284911D01*
X107827514Y-81098190D01*
X107348963Y-81003000D01*
X106861037Y-81003000D01*
X106382486Y-81098190D01*
X105931701Y-81284911D01*
X105526005Y-81555989D01*
X105180989Y-81901005D01*
X104909911Y-82306701D01*
X104723190Y-82757486D01*
X104628000Y-83236037D01*
X98817000Y-83236037D01*
X98817000Y-78957771D01*
X120497258Y-78957771D01*
X120497258Y-79538229D01*
X120610500Y-80107533D01*
X120832631Y-80643806D01*
X121155116Y-81126439D01*
X121565561Y-81536884D01*
X122048194Y-81859369D01*
X122584467Y-82081500D01*
X123153771Y-82194742D01*
X123734229Y-82194742D01*
X124303533Y-82081500D01*
X124839806Y-81859369D01*
X125322439Y-81536884D01*
X125732884Y-81126439D01*
X126055369Y-80643806D01*
X126277500Y-80107533D01*
X126390742Y-79538229D01*
X126390742Y-78957771D01*
X126277500Y-78388467D01*
X126055369Y-77852194D01*
X125732884Y-77369561D01*
X125322439Y-76959116D01*
X124839806Y-76636631D01*
X124303533Y-76414500D01*
X123734229Y-76301258D01*
X123153771Y-76301258D01*
X122584467Y-76414500D01*
X122048194Y-76636631D01*
X121565561Y-76959116D01*
X121155116Y-77369561D01*
X120832631Y-77852194D01*
X120610500Y-78388467D01*
X120497258Y-78957771D01*
X98817000Y-78957771D01*
X98817000Y-75157606D01*
X99642606Y-74332000D01*
X133160279Y-74332000D01*
X132909911Y-74706701D01*
G04 #@! TA.AperFunction,Conductor*
D35*
G36*
X132909911Y-74706701D02*
G01*
X132723190Y-75157486D01*
X132628000Y-75636037D01*
X132628000Y-76123963D01*
X132723190Y-76602514D01*
X132909911Y-77053299D01*
X133180989Y-77458995D01*
X133526005Y-77804011D01*
X133931701Y-78075089D01*
X134382486Y-78261810D01*
X134861037Y-78357000D01*
X135348963Y-78357000D01*
X135827514Y-78261810D01*
X136278299Y-78075089D01*
X136683995Y-77804011D01*
X137029011Y-77458995D01*
X137300089Y-77053299D01*
X137486810Y-76602514D01*
X137582000Y-76123963D01*
X137582000Y-75636037D01*
X137486810Y-75157486D01*
X137300089Y-74706701D01*
X137049721Y-74332000D01*
X142162394Y-74332000D01*
X142928000Y-75097606D01*
X142928000Y-90224967D01*
X142920884Y-90217851D01*
X142572512Y-89985077D01*
X142185423Y-89824739D01*
X141774491Y-89743000D01*
X141355509Y-89743000D01*
X140944577Y-89824739D01*
X140557488Y-89985077D01*
X140209116Y-90217851D01*
X139912851Y-90514116D01*
X139680077Y-90862488D01*
X139519739Y-91249577D01*
X139438000Y-91660509D01*
X139438000Y-92079491D01*
X139519739Y-92490423D01*
X139680077Y-92877512D01*
X139912851Y-93225884D01*
X140209116Y-93522149D01*
X140488000Y-93708493D01*
X140488000Y-94867228D01*
X140385423Y-94824739D01*
X139974491Y-94743000D01*
X139555509Y-94743000D01*
X139144577Y-94824739D01*
X138757488Y-94985077D01*
X138409116Y-95217851D01*
X138112851Y-95514116D01*
X137880077Y-95862488D01*
X137719739Y-96249577D01*
X137638000Y-96660509D01*
X137638000Y-97079491D01*
X137719739Y-97490423D01*
X137791566Y-97663828D01*
X137772394Y-97683000D01*
X129830000Y-97683000D01*
X129805224Y-97685440D01*
X129781399Y-97692667D01*
X129759443Y-97704403D01*
X129740197Y-97720197D01*
X127895197Y-99565197D01*
X127879403Y-99584443D01*
X127867667Y-99606399D01*
X127860440Y-99630224D01*
X127858000Y-99655000D01*
X127858000Y-114350000D01*
X127860440Y-114374776D01*
X127867667Y-114398601D01*
X127879403Y-114420557D01*
X127895197Y-114439803D01*
X128748000Y-115292606D01*
X128748000Y-126030000D01*
X128750440Y-126054776D01*
X128757667Y-126078601D01*
X128760553Y-126084000D01*
X127933376Y-126084000D01*
X128058285Y-126017235D01*
X128274660Y-125839660D01*
X128452235Y-125623285D01*
X128584184Y-125376424D01*
X128665439Y-125108565D01*
X128686000Y-124899804D01*
X128686000Y-123240196D01*
X128665439Y-123031435D01*
X128584184Y-122763576D01*
X128452235Y-122516715D01*
X128274659Y-122300340D01*
X128058284Y-122122765D01*
X127811423Y-121990816D01*
X127543564Y-121909561D01*
X127265000Y-121882125D01*
X126986435Y-121909561D01*
X126718576Y-121990816D01*
X126471715Y-122122765D01*
X126255340Y-122300341D01*
X126077765Y-122516716D01*
X125945816Y-122763577D01*
X125864561Y-123031436D01*
X125844000Y-123240197D01*
X125844000Y-124899804D01*
X125864561Y-125108565D01*
X125945817Y-125376424D01*
X126077766Y-125623285D01*
X126255341Y-125839660D01*
X126471716Y-126017235D01*
X126596625Y-126084000D01*
X122853376Y-126084000D01*
X122978285Y-126017235D01*
X123194660Y-125839660D01*
X123372235Y-125623285D01*
X123504184Y-125376424D01*
X123585439Y-125108565D01*
X123606000Y-124899804D01*
X123606000Y-123240196D01*
X123585439Y-123031435D01*
X123504184Y-122763576D01*
X123372235Y-122516715D01*
X123194659Y-122300340D01*
X122978284Y-122122765D01*
X122731423Y-121990816D01*
X122463564Y-121909561D01*
X122185000Y-121882125D01*
X121906435Y-121909561D01*
X121638576Y-121990816D01*
X121391715Y-122122765D01*
X121175340Y-122300341D01*
X120997765Y-122516716D01*
X120865816Y-122763577D01*
X120784561Y-123031436D01*
X120764000Y-123240197D01*
X120764000Y-124899804D01*
X120784561Y-125108565D01*
X120865817Y-125376424D01*
X120997766Y-125623285D01*
X121175341Y-125839660D01*
X121391716Y-126017235D01*
X121516625Y-126084000D01*
X118721000Y-126084000D01*
X118721000Y-117190000D01*
X120762157Y-117190000D01*
X120762157Y-120790000D01*
X120769513Y-120864689D01*
X120791299Y-120936508D01*
X120826678Y-121002696D01*
X120874289Y-121060711D01*
X120932304Y-121108322D01*
X120998492Y-121143701D01*
X121070311Y-121165487D01*
X121145000Y-121172843D01*
X123225000Y-121172843D01*
X123299689Y-121165487D01*
X123371508Y-121143701D01*
X123437696Y-121108322D01*
X123495711Y-121060711D01*
X123543322Y-121002696D01*
X123578701Y-120936508D01*
X123600487Y-120864689D01*
X123607843Y-120790000D01*
X123607843Y-118160197D01*
X125844000Y-118160197D01*
X125844000Y-119819804D01*
X125864561Y-120028565D01*
X125945817Y-120296424D01*
X126077766Y-120543285D01*
X126255341Y-120759660D01*
X126471716Y-120937235D01*
X126718577Y-121069184D01*
X126986436Y-121150439D01*
X127265000Y-121177875D01*
X127543565Y-121150439D01*
X127811424Y-121069184D01*
X128058285Y-120937235D01*
X128274660Y-120759660D01*
X128452235Y-120543285D01*
X128584184Y-120296424D01*
X128665439Y-120028565D01*
X128686000Y-119819804D01*
X128686000Y-118160196D01*
X128665439Y-117951435D01*
X128584184Y-117683576D01*
X128452235Y-117436715D01*
X128274659Y-117220340D01*
X128058284Y-117042765D01*
X127811423Y-116910816D01*
X127543564Y-116829561D01*
X127265000Y-116802125D01*
X126986435Y-116829561D01*
X126718576Y-116910816D01*
X126471715Y-117042765D01*
X126255340Y-117220341D01*
X126077765Y-117436716D01*
X125945816Y-117683577D01*
X125864561Y-117951436D01*
X125844000Y-118160197D01*
X123607843Y-118160197D01*
X123607843Y-117190000D01*
X123600487Y-117115311D01*
X123578701Y-117043492D01*
X123543322Y-116977304D01*
X123495711Y-116919289D01*
X123437696Y-116871678D01*
X123371508Y-116836299D01*
X123299689Y-116814513D01*
X123225000Y-116807157D01*
X121145000Y-116807157D01*
X121070311Y-116814513D01*
X120998492Y-116836299D01*
X120932304Y-116871678D01*
X120874289Y-116919289D01*
X120826678Y-116977304D01*
X120791299Y-117043492D01*
X120769513Y-117115311D01*
X120762157Y-117190000D01*
X118721000Y-117190000D01*
X118721000Y-116592399D01*
X118723206Y-116570004D01*
X118828763Y-116591000D01*
X118982607Y-116591000D01*
X119133494Y-116560987D01*
X119275627Y-116502113D01*
X119403544Y-116416642D01*
X119512327Y-116307859D01*
X119597798Y-116179942D01*
X119656672Y-116037809D01*
X119678132Y-115929921D01*
X121264975Y-114343078D01*
X122594000Y-114343078D01*
X122594000Y-114496922D01*
X122624013Y-114647809D01*
X122682887Y-114789942D01*
X122768358Y-114917859D01*
X122877141Y-115026642D01*
X123005058Y-115112113D01*
X123147191Y-115170987D01*
X123255079Y-115192447D01*
X124441899Y-116379268D01*
X124461657Y-116403343D01*
X124485732Y-116423101D01*
X124485734Y-116423103D01*
X124521992Y-116452859D01*
X124557739Y-116482196D01*
X124667358Y-116540789D01*
X124786302Y-116576870D01*
X124879002Y-116586000D01*
X124879009Y-116586000D01*
X124910000Y-116589052D01*
X124940990Y-116586000D01*
X125778595Y-116586000D01*
X125870058Y-116647113D01*
X126012191Y-116705987D01*
X126163078Y-116736000D01*
X126316922Y-116736000D01*
X126467809Y-116705987D01*
X126609942Y-116647113D01*
X126737859Y-116561642D01*
X126846642Y-116452859D01*
X126932113Y-116324942D01*
X126990987Y-116182809D01*
X127021000Y-116031922D01*
X127021000Y-115878078D01*
X126990987Y-115727191D01*
X126932113Y-115585058D01*
X126846642Y-115457141D01*
X126737859Y-115348358D01*
X126609942Y-115262887D01*
X126467809Y-115204013D01*
X126316922Y-115174000D01*
X126163078Y-115174000D01*
X126012191Y-115204013D01*
X125870058Y-115262887D01*
X125778595Y-115324000D01*
X125171369Y-115324000D01*
X124147447Y-114300079D01*
X124125987Y-114192191D01*
X124067113Y-114050058D01*
X123981642Y-113922141D01*
X123872859Y-113813358D01*
X123744942Y-113727887D01*
X123602809Y-113669013D01*
X123451922Y-113639000D01*
X123298078Y-113639000D01*
X123147191Y-113669013D01*
X123005058Y-113727887D01*
X122877141Y-113813358D01*
X122768358Y-113922141D01*
X122682887Y-114050058D01*
X122624013Y-114192191D01*
X122594000Y-114343078D01*
X121264975Y-114343078D01*
X126664269Y-108943785D01*
X126688343Y-108924028D01*
X126727107Y-108876795D01*
X126767196Y-108827946D01*
X126825789Y-108718327D01*
X126861870Y-108599383D01*
X126868953Y-108527462D01*
X126871000Y-108506683D01*
X126871000Y-108506676D01*
X126874052Y-108475685D01*
X126871000Y-108444695D01*
X126871000Y-106266405D01*
X126932113Y-106174942D01*
X126990987Y-106032809D01*
X127021000Y-105881922D01*
X127021000Y-105728078D01*
X126990987Y-105577191D01*
X126932113Y-105435058D01*
X126846642Y-105307141D01*
X126737859Y-105198358D01*
X126609942Y-105112887D01*
X126467809Y-105054013D01*
X126316922Y-105024000D01*
X126163078Y-105024000D01*
X126012191Y-105054013D01*
X125870058Y-105112887D01*
X125742141Y-105198358D01*
X125633358Y-105307141D01*
X125547887Y-105435058D01*
X125489013Y-105577191D01*
X125459000Y-105728078D01*
X125459000Y-105881922D01*
X125489013Y-106032809D01*
X125547887Y-106174942D01*
X125609000Y-106266405D01*
X125609000Y-106401682D01*
X125609001Y-106401692D01*
X125609000Y-108214316D01*
X118785764Y-115037553D01*
X118677876Y-115059013D01*
X118535743Y-115117887D01*
X118407826Y-115203358D01*
X118299043Y-115312141D01*
X118213572Y-115440058D01*
X118154698Y-115582191D01*
X118124685Y-115733078D01*
X118124685Y-115886922D01*
X118154698Y-116037809D01*
X118186258Y-116114000D01*
X114786143Y-116114000D01*
X114825987Y-116017809D01*
X114847447Y-115909921D01*
X116174074Y-114583294D01*
X116197940Y-114563744D01*
X116217902Y-114539466D01*
X116218111Y-114539257D01*
X116237994Y-114515030D01*
X116276881Y-114467735D01*
X116277017Y-114467480D01*
X116277204Y-114467253D01*
X116306303Y-114412812D01*
X116335575Y-114358170D01*
X116335661Y-114357887D01*
X116335797Y-114357633D01*
X116353594Y-114298966D01*
X116371765Y-114239259D01*
X116371794Y-114238967D01*
X116371878Y-114238690D01*
X116377884Y-114177708D01*
X116380980Y-114146567D01*
X116380980Y-114146272D01*
X116384061Y-114114992D01*
X116381037Y-114084289D01*
X116384718Y-110069667D01*
X116446255Y-109977571D01*
X116505129Y-109835438D01*
X116535142Y-109684551D01*
X116535142Y-109530707D01*
X116505129Y-109379820D01*
X116446255Y-109237687D01*
X116384741Y-109145624D01*
X116381481Y-105388653D01*
X117341248Y-105388653D01*
X117432711Y-105449766D01*
X117574844Y-105508640D01*
X117725731Y-105538653D01*
X117879575Y-105538653D01*
X118030462Y-105508640D01*
X118172595Y-105449766D01*
X118300512Y-105364295D01*
X118409295Y-105255512D01*
X118494766Y-105127595D01*
X118553640Y-104985462D01*
X118583653Y-104834575D01*
X118583653Y-104680731D01*
X118553640Y-104529844D01*
X118494766Y-104387711D01*
X118409295Y-104259794D01*
X118300512Y-104151011D01*
X118172595Y-104065540D01*
X118030462Y-104006666D01*
X117879575Y-103976653D01*
X117725731Y-103976653D01*
X117574844Y-104006666D01*
X117432711Y-104065540D01*
X117341248Y-104126653D01*
X116057661Y-104126653D01*
X116030946Y-104062159D01*
X115945475Y-103934242D01*
X115836692Y-103825459D01*
X115708775Y-103739988D01*
X115566642Y-103681114D01*
X115415755Y-103651101D01*
X115261911Y-103651101D01*
X115111024Y-103681114D01*
X114968891Y-103739988D01*
X114840974Y-103825459D01*
X114732191Y-103934242D01*
X114646720Y-104062159D01*
X114587846Y-104204292D01*
X114557833Y-104355179D01*
X114557833Y-104509023D01*
X114587846Y-104659910D01*
X114646720Y-104802043D01*
X114732191Y-104929960D01*
X114840974Y-105038743D01*
X114968891Y-105124214D01*
X115111024Y-105183088D01*
X115119306Y-105184735D01*
X115122743Y-109146822D01*
X115062029Y-109237687D01*
X115003155Y-109379820D01*
X114973142Y-109530707D01*
X114973142Y-109597221D01*
X114881000Y-109505079D01*
X114881000Y-106043270D01*
X114885262Y-106000000D01*
X114878373Y-105930058D01*
X114868252Y-105827294D01*
X114817875Y-105661225D01*
X114772958Y-105577191D01*
X114736068Y-105508174D01*
X114676063Y-105435058D01*
X114625975Y-105374025D01*
X114592362Y-105346440D01*
X113731000Y-104485079D01*
X113731000Y-103258273D01*
X113735262Y-103215000D01*
X113718252Y-103042294D01*
X113667875Y-102876225D01*
X113586068Y-102723175D01*
X113475975Y-102589025D01*
X113341825Y-102478932D01*
X113188775Y-102397125D01*
X113022706Y-102346748D01*
X112893273Y-102334000D01*
X112850000Y-102329738D01*
X112806727Y-102334000D01*
X110469693Y-102334000D01*
X110464678Y-102330649D01*
X110286147Y-102256699D01*
X110096620Y-102219000D01*
X109903380Y-102219000D01*
X109713853Y-102256699D01*
X109535322Y-102330649D01*
X109530307Y-102334000D01*
X104379922Y-102334000D01*
X103931653Y-101885731D01*
X103869351Y-101735322D01*
X103761993Y-101574649D01*
X103625351Y-101438007D01*
X103464678Y-101330649D01*
X103286147Y-101256699D01*
X103096620Y-101219000D01*
X102903380Y-101219000D01*
X102713853Y-101256699D01*
X102535322Y-101330649D01*
X102374649Y-101438007D01*
X102238007Y-101574649D01*
X102130649Y-101735322D01*
X102056699Y-101913853D01*
X102019000Y-102103380D01*
X102019000Y-102296620D01*
X102056699Y-102486147D01*
X102130649Y-102664678D01*
X102238007Y-102825351D01*
X102374649Y-102961993D01*
X102535322Y-103069351D01*
X102685731Y-103131653D01*
X103235193Y-103681114D01*
X103361437Y-103807358D01*
X103389025Y-103840975D01*
X103422637Y-103868559D01*
X103869001Y-104314923D01*
X103869000Y-109675079D01*
X103365732Y-110178347D01*
X103215323Y-110240649D01*
X103054650Y-110348007D01*
X102918008Y-110484649D01*
X102810650Y-110645322D01*
X102736700Y-110823853D01*
X102699001Y-111013380D01*
X102699001Y-111206620D01*
X102736700Y-111396147D01*
X102810650Y-111574678D01*
X102918008Y-111735351D01*
X103054650Y-111871993D01*
X103215323Y-111979351D01*
X103393854Y-112053301D01*
X103583381Y-112091000D01*
X103776621Y-112091000D01*
X103966148Y-112053301D01*
X104144679Y-111979351D01*
X104305352Y-111871993D01*
X104441994Y-111735351D01*
X104549352Y-111574678D01*
X104611654Y-111424269D01*
X105342362Y-110693561D01*
X105375975Y-110665976D01*
X105451036Y-110574513D01*
X105486068Y-110531827D01*
X105523197Y-110462362D01*
X105567875Y-110378776D01*
X105618252Y-110212707D01*
X105631000Y-110083274D01*
X105631000Y-110083272D01*
X105635262Y-110040002D01*
X105631000Y-109996732D01*
X105631000Y-105050000D01*
X109142157Y-105050000D01*
X109144000Y-105327750D01*
X109239250Y-105423000D01*
X110123000Y-105423000D01*
X110123000Y-104764250D01*
X110377000Y-104764250D01*
X110377000Y-105423000D01*
X111260750Y-105423000D01*
X111356000Y-105327750D01*
X111357843Y-105050000D01*
X111350487Y-104975311D01*
X111328701Y-104903492D01*
X111293322Y-104837304D01*
X111245711Y-104779289D01*
X111187696Y-104731678D01*
X111121508Y-104696299D01*
X111049689Y-104674513D01*
X110975000Y-104667157D01*
X110472250Y-104669000D01*
X110377000Y-104764250D01*
X110123000Y-104764250D01*
X110027750Y-104669000D01*
X109525000Y-104667157D01*
X109450311Y-104674513D01*
X109378492Y-104696299D01*
X109312304Y-104731678D01*
X109254289Y-104779289D01*
X109206678Y-104837304D01*
X109171299Y-104903492D01*
X109149513Y-104975311D01*
X109142157Y-105050000D01*
X105631000Y-105050000D01*
X105631000Y-104096000D01*
X109599658Y-104096000D01*
X109713853Y-104143301D01*
X109903380Y-104181000D01*
X110096620Y-104181000D01*
X110286147Y-104143301D01*
X110400342Y-104096000D01*
X111969001Y-104096000D01*
X111969001Y-104806720D01*
X111964738Y-104850000D01*
X111981749Y-105022705D01*
X112032125Y-105188774D01*
X112113932Y-105341825D01*
X112180551Y-105423000D01*
X112224026Y-105475975D01*
X112257640Y-105503561D01*
X113119000Y-106364922D01*
X113119001Y-109826720D01*
X113114738Y-109870000D01*
X113130216Y-110027137D01*
X113131749Y-110042706D01*
X113144055Y-110083273D01*
X113182125Y-110208774D01*
X113263932Y-110361825D01*
X113285930Y-110388629D01*
X113374026Y-110495975D01*
X113407640Y-110523561D01*
X114132637Y-111248559D01*
X114233174Y-111331068D01*
X114386225Y-111412875D01*
X114552294Y-111463251D01*
X114725000Y-111480262D01*
X114897705Y-111463251D01*
X115063774Y-111412875D01*
X115121515Y-111382012D01*
X115119249Y-113853383D01*
X113955079Y-115017553D01*
X113847191Y-115039013D01*
X113705058Y-115097887D01*
X113577141Y-115183358D01*
X113468358Y-115292141D01*
X113382887Y-115420058D01*
X113324013Y-115562191D01*
X113294000Y-115713078D01*
X113294000Y-115866922D01*
X113324013Y-116017809D01*
X113363857Y-116114000D01*
X102293606Y-116114000D01*
X101397000Y-115217394D01*
X101397000Y-112084636D01*
X101408406Y-112093997D01*
X102654628Y-113340220D01*
X102670473Y-113359527D01*
X102747521Y-113422759D01*
X102835425Y-113469745D01*
X102930807Y-113498678D01*
X103030000Y-113508448D01*
X103054854Y-113506000D01*
X106185154Y-113506000D01*
X106210000Y-113508447D01*
X106234846Y-113506000D01*
X106234854Y-113506000D01*
X106309193Y-113498678D01*
X106404575Y-113469745D01*
X106492479Y-113422759D01*
X106569527Y-113359527D01*
X106585376Y-113340215D01*
X107975591Y-111950000D01*
X109642157Y-111950000D01*
X109649513Y-112024689D01*
X109671299Y-112096508D01*
X109706678Y-112162696D01*
X109754289Y-112220711D01*
X109812304Y-112268322D01*
X109878492Y-112303701D01*
X109950311Y-112325487D01*
X110025000Y-112332843D01*
X110527750Y-112331000D01*
X110623000Y-112235750D01*
X110623000Y-111577000D01*
X110877000Y-111577000D01*
X110877000Y-112235750D01*
X110972250Y-112331000D01*
X111475000Y-112332843D01*
X111549689Y-112325487D01*
X111621508Y-112303701D01*
X111687696Y-112268322D01*
X111745711Y-112220711D01*
X111793322Y-112162696D01*
X111828701Y-112096508D01*
X111850487Y-112024689D01*
X111857843Y-111950000D01*
X111856000Y-111672250D01*
X111760750Y-111577000D01*
X110877000Y-111577000D01*
X110623000Y-111577000D01*
X109739250Y-111577000D01*
X109644000Y-111672250D01*
X109642157Y-111950000D01*
X107975591Y-111950000D01*
X108975591Y-110950000D01*
X109642157Y-110950000D01*
X109644000Y-111227750D01*
X109739250Y-111323000D01*
X110623000Y-111323000D01*
X110623000Y-110664250D01*
X110877000Y-110664250D01*
X110877000Y-111323000D01*
X111760750Y-111323000D01*
X111856000Y-111227750D01*
X111857843Y-110950000D01*
X111850487Y-110875311D01*
X111828701Y-110803492D01*
X111793322Y-110737304D01*
X111745711Y-110679289D01*
X111687696Y-110631678D01*
X111621508Y-110596299D01*
X111549689Y-110574513D01*
X111475000Y-110567157D01*
X110972250Y-110569000D01*
X110877000Y-110664250D01*
X110623000Y-110664250D01*
X110527750Y-110569000D01*
X110025000Y-110567157D01*
X109950311Y-110574513D01*
X109878492Y-110596299D01*
X109812304Y-110631678D01*
X109754289Y-110679289D01*
X109706678Y-110737304D01*
X109671299Y-110803492D01*
X109649513Y-110875311D01*
X109642157Y-110950000D01*
X108975591Y-110950000D01*
X109062613Y-110862978D01*
X109128078Y-110876000D01*
X109281922Y-110876000D01*
X109432809Y-110845987D01*
X109574942Y-110787113D01*
X109702859Y-110701642D01*
X109811642Y-110592859D01*
X109897113Y-110464942D01*
X109948935Y-110339833D01*
X110032821Y-110384671D01*
X110151538Y-110420683D01*
X110275000Y-110432843D01*
X111225000Y-110432843D01*
X111348462Y-110420683D01*
X111467179Y-110384671D01*
X111576589Y-110326190D01*
X111672488Y-110247488D01*
X111751190Y-110151589D01*
X111809671Y-110042179D01*
X111845683Y-109923462D01*
X111857843Y-109800000D01*
X111857843Y-109300000D01*
X111845683Y-109176538D01*
X111809671Y-109057821D01*
X111751190Y-108948411D01*
X111672488Y-108852512D01*
X111576589Y-108773810D01*
X111467179Y-108715329D01*
X111348462Y-108679317D01*
X111225000Y-108667157D01*
X110275000Y-108667157D01*
X110151538Y-108679317D01*
X110032821Y-108715329D01*
X109923411Y-108773810D01*
X109827512Y-108852512D01*
X109818085Y-108863999D01*
X107910655Y-108863999D01*
X108006642Y-108768012D01*
X108092113Y-108640095D01*
X108150987Y-108497962D01*
X108181000Y-108347075D01*
X108181000Y-108193231D01*
X108150987Y-108042344D01*
X108092113Y-107900211D01*
X108089004Y-107895558D01*
X108196536Y-107788026D01*
X108338866Y-107788026D01*
X108489753Y-107758013D01*
X108631886Y-107699139D01*
X108759803Y-107613668D01*
X108835445Y-107538026D01*
X109142157Y-107538026D01*
X109142157Y-107700000D01*
X109154317Y-107823462D01*
X109190329Y-107942179D01*
X109248810Y-108051589D01*
X109327512Y-108147488D01*
X109423411Y-108226190D01*
X109532821Y-108284671D01*
X109651538Y-108320683D01*
X109775000Y-108332843D01*
X110725000Y-108332843D01*
X110848462Y-108320683D01*
X110967179Y-108284671D01*
X111076589Y-108226190D01*
X111172488Y-108147488D01*
X111251190Y-108051589D01*
X111309671Y-107942179D01*
X111345683Y-107823462D01*
X111357843Y-107700000D01*
X111357843Y-107200000D01*
X111345683Y-107076538D01*
X111309671Y-106957821D01*
X111251190Y-106848411D01*
X111172488Y-106752512D01*
X111076589Y-106673810D01*
X110967179Y-106615329D01*
X110848462Y-106579317D01*
X110725000Y-106567157D01*
X110058063Y-106567157D01*
X110053461Y-106563380D01*
X109961214Y-106514073D01*
X109861120Y-106483709D01*
X109783110Y-106476026D01*
X109783100Y-106476026D01*
X109757026Y-106473458D01*
X109730952Y-106476026D01*
X108835445Y-106476026D01*
X108759803Y-106400384D01*
X108631886Y-106314913D01*
X108489753Y-106256039D01*
X108338866Y-106226026D01*
X108281000Y-106226026D01*
X108281000Y-106223078D01*
X108250987Y-106072191D01*
X108241796Y-106050000D01*
X109142157Y-106050000D01*
X109149513Y-106124689D01*
X109171299Y-106196508D01*
X109206678Y-106262696D01*
X109254289Y-106320711D01*
X109312304Y-106368322D01*
X109378492Y-106403701D01*
X109450311Y-106425487D01*
X109525000Y-106432843D01*
X110027750Y-106431000D01*
X110123000Y-106335750D01*
X110123000Y-105677000D01*
X110377000Y-105677000D01*
X110377000Y-106335750D01*
X110472250Y-106431000D01*
X110975000Y-106432843D01*
X111049689Y-106425487D01*
X111121508Y-106403701D01*
X111187696Y-106368322D01*
X111245711Y-106320711D01*
X111293322Y-106262696D01*
X111328701Y-106196508D01*
X111350487Y-106124689D01*
X111357843Y-106050000D01*
X111356000Y-105772250D01*
X111260750Y-105677000D01*
X110377000Y-105677000D01*
X110123000Y-105677000D01*
X109239250Y-105677000D01*
X109144000Y-105772250D01*
X109142157Y-106050000D01*
X108241796Y-106050000D01*
X108192113Y-105930058D01*
X108106642Y-105802141D01*
X107997859Y-105693358D01*
X107869942Y-105607887D01*
X107727809Y-105549013D01*
X107576922Y-105519000D01*
X107423078Y-105519000D01*
X107272191Y-105549013D01*
X107130058Y-105607887D01*
X107002141Y-105693358D01*
X106893358Y-105802141D01*
X106807887Y-105930058D01*
X106749013Y-106072191D01*
X106719000Y-106223078D01*
X106719000Y-106365408D01*
X105909780Y-107174629D01*
X105890474Y-107190473D01*
X105827242Y-107267521D01*
X105812120Y-107295812D01*
X105780255Y-107355426D01*
X105751322Y-107450808D01*
X105741553Y-107550000D01*
X105744001Y-107574856D01*
X105744000Y-108601807D01*
X105741553Y-108626654D01*
X105744000Y-108651500D01*
X105744000Y-108651507D01*
X105751322Y-108725846D01*
X105780255Y-108821228D01*
X105827241Y-108909133D01*
X105890473Y-108986181D01*
X105909785Y-109002030D01*
X106617973Y-109710219D01*
X106633818Y-109729526D01*
X106710866Y-109792758D01*
X106790714Y-109835438D01*
X106798770Y-109839744D01*
X106894152Y-109868677D01*
X106993345Y-109878447D01*
X107018199Y-109875999D01*
X108452261Y-109875999D01*
X108424000Y-110018078D01*
X108424000Y-110070408D01*
X106000409Y-112494000D01*
X103239592Y-112494000D01*
X102254621Y-111509030D01*
X102254621Y-104198501D01*
X102355263Y-104097859D01*
X102440734Y-103969942D01*
X102499608Y-103827809D01*
X102529621Y-103676922D01*
X102529621Y-103523078D01*
X102499608Y-103372191D01*
X102440734Y-103230058D01*
X102355263Y-103102141D01*
X102246480Y-102993358D01*
X102118563Y-102907887D01*
X101976430Y-102849013D01*
X101825543Y-102819000D01*
X101671699Y-102819000D01*
X101520812Y-102849013D01*
X101397000Y-102900298D01*
X101397000Y-101060000D01*
X101394560Y-101035224D01*
X101387333Y-101011399D01*
X101375597Y-100989443D01*
X101359803Y-100970197D01*
X97867000Y-97477394D01*
X97867000Y-92186310D01*
X106178295Y-92186310D01*
X106306578Y-92394999D01*
X106578463Y-92525496D01*
X106870583Y-92600444D01*
X107171711Y-92616961D01*
X107470275Y-92574414D01*
X107754802Y-92474438D01*
X107903422Y-92394999D01*
X108031705Y-92186310D01*
X107105000Y-91259605D01*
X106178295Y-92186310D01*
X97867000Y-92186310D01*
X97867000Y-91146711D01*
X105568039Y-91146711D01*
X105610586Y-91445275D01*
X105710562Y-91729802D01*
X105790001Y-91878422D01*
X105998690Y-92006705D01*
X106925395Y-91080000D01*
X107284605Y-91080000D01*
X108211310Y-92006705D01*
X108419999Y-91878422D01*
X108550496Y-91606537D01*
X108625444Y-91314417D01*
X108641961Y-91013289D01*
X108599414Y-90714725D01*
X108499438Y-90430198D01*
X108419999Y-90281578D01*
X108211310Y-90153295D01*
X107284605Y-91080000D01*
X106925395Y-91080000D01*
X105998690Y-90153295D01*
X105790001Y-90281578D01*
X105659504Y-90553463D01*
X105584556Y-90845583D01*
X105568039Y-91146711D01*
X97867000Y-91146711D01*
X97867000Y-90317606D01*
X98210916Y-89973690D01*
X106178295Y-89973690D01*
X107105000Y-90900395D01*
X107925395Y-90080000D01*
X133572157Y-90080000D01*
X133572157Y-92080000D01*
X133579513Y-92154689D01*
X133601299Y-92226508D01*
X133636678Y-92292696D01*
X133684289Y-92350711D01*
X133742304Y-92398322D01*
X133808492Y-92433701D01*
X133880311Y-92455487D01*
X133955000Y-92462843D01*
X136255000Y-92462843D01*
X136329689Y-92455487D01*
X136401508Y-92433701D01*
X136467696Y-92398322D01*
X136525711Y-92350711D01*
X136573322Y-92292696D01*
X136608701Y-92226508D01*
X136630487Y-92154689D01*
X136637843Y-92080000D01*
X136637843Y-90080000D01*
X136630487Y-90005311D01*
X136608701Y-89933492D01*
X136573322Y-89867304D01*
X136525711Y-89809289D01*
X136467696Y-89761678D01*
X136401508Y-89726299D01*
X136329689Y-89704513D01*
X136255000Y-89697157D01*
X133955000Y-89697157D01*
X133880311Y-89704513D01*
X133808492Y-89726299D01*
X133742304Y-89761678D01*
X133684289Y-89809289D01*
X133636678Y-89867304D01*
X133601299Y-89933492D01*
X133579513Y-90005311D01*
X133572157Y-90080000D01*
X107925395Y-90080000D01*
X108031705Y-89973690D01*
X107903422Y-89765001D01*
X107631537Y-89634504D01*
X107339417Y-89559556D01*
X107038289Y-89543039D01*
X106739725Y-89585586D01*
X106455198Y-89685562D01*
X106306578Y-89765001D01*
X106178295Y-89973690D01*
X98210916Y-89973690D01*
X98779803Y-89404803D01*
X98795597Y-89385557D01*
X98807333Y-89363601D01*
X98814560Y-89339776D01*
X98817000Y-89315000D01*
X98817000Y-83236037D01*
X104628000Y-83236037D01*
X104628000Y-83723963D01*
X104723190Y-84202514D01*
X104909911Y-84653299D01*
X105180989Y-85058995D01*
X105526005Y-85404011D01*
X105931701Y-85675089D01*
X106382486Y-85861810D01*
X106861037Y-85957000D01*
X107348963Y-85957000D01*
X107827514Y-85861810D01*
X108278299Y-85675089D01*
X108683995Y-85404011D01*
X109029011Y-85058995D01*
X109300089Y-84653299D01*
X109486810Y-84202514D01*
X109582000Y-83723963D01*
X109582000Y-83236037D01*
X109486810Y-82757486D01*
X109300089Y-82306701D01*
X109029011Y-81901005D01*
X108683995Y-81555989D01*
X108278299Y-81284911D01*
X107827514Y-81098190D01*
X107348963Y-81003000D01*
X106861037Y-81003000D01*
X106382486Y-81098190D01*
X105931701Y-81284911D01*
X105526005Y-81555989D01*
X105180989Y-81901005D01*
X104909911Y-82306701D01*
X104723190Y-82757486D01*
X104628000Y-83236037D01*
X98817000Y-83236037D01*
X98817000Y-78957771D01*
X120497258Y-78957771D01*
X120497258Y-79538229D01*
X120610500Y-80107533D01*
X120832631Y-80643806D01*
X121155116Y-81126439D01*
X121565561Y-81536884D01*
X122048194Y-81859369D01*
X122584467Y-82081500D01*
X123153771Y-82194742D01*
X123734229Y-82194742D01*
X124303533Y-82081500D01*
X124839806Y-81859369D01*
X125322439Y-81536884D01*
X125732884Y-81126439D01*
X126055369Y-80643806D01*
X126277500Y-80107533D01*
X126390742Y-79538229D01*
X126390742Y-78957771D01*
X126277500Y-78388467D01*
X126055369Y-77852194D01*
X125732884Y-77369561D01*
X125322439Y-76959116D01*
X124839806Y-76636631D01*
X124303533Y-76414500D01*
X123734229Y-76301258D01*
X123153771Y-76301258D01*
X122584467Y-76414500D01*
X122048194Y-76636631D01*
X121565561Y-76959116D01*
X121155116Y-77369561D01*
X120832631Y-77852194D01*
X120610500Y-78388467D01*
X120497258Y-78957771D01*
X98817000Y-78957771D01*
X98817000Y-75157606D01*
X99642606Y-74332000D01*
X133160279Y-74332000D01*
X132909911Y-74706701D01*
G37*
G04 #@! TD.AperFunction*
D34*
X91113000Y-74669898D02*
X91113000Y-85717394D01*
X89965197Y-86865197D01*
X89949403Y-86884443D01*
X89937667Y-86906399D01*
X89930440Y-86930224D01*
X89928000Y-86955000D01*
X89928000Y-100650000D01*
X89930440Y-100674776D01*
X89937667Y-100698601D01*
X89949403Y-100720557D01*
X89965197Y-100739803D01*
X93533000Y-104307606D01*
X93533000Y-115402394D01*
X92821394Y-116114000D01*
X72505568Y-116114000D01*
X71627000Y-115437503D01*
X71627000Y-115232666D01*
X76216939Y-115232666D01*
X76353062Y-115448012D01*
X76636030Y-115585005D01*
X76940286Y-115664160D01*
X77254138Y-115682438D01*
X77565525Y-115639134D01*
X77862482Y-115535915D01*
X78026938Y-115448012D01*
X78163061Y-115232666D01*
X77190000Y-114259605D01*
X76216939Y-115232666D01*
X71627000Y-115232666D01*
X71627000Y-112099964D01*
X71729000Y-112099964D01*
X71729000Y-112500036D01*
X71807050Y-112892421D01*
X71960151Y-113262039D01*
X72182419Y-113594687D01*
X72465313Y-113877581D01*
X72797961Y-114099849D01*
X73167579Y-114252950D01*
X73559964Y-114331000D01*
X73960036Y-114331000D01*
X74352421Y-114252950D01*
X74615116Y-114144138D01*
X75587562Y-114144138D01*
X75630866Y-114455525D01*
X75734085Y-114752482D01*
X75821988Y-114916938D01*
X76037334Y-115053061D01*
X77010395Y-114080000D01*
X77369605Y-114080000D01*
X78342666Y-115053061D01*
X78558012Y-114916938D01*
X78695005Y-114633970D01*
X78774160Y-114329714D01*
X78792438Y-114015862D01*
X78749134Y-113704475D01*
X78645915Y-113407518D01*
X78558012Y-113243062D01*
X78342666Y-113106939D01*
X77369605Y-114080000D01*
X77010395Y-114080000D01*
X76037334Y-113106939D01*
X75821988Y-113243062D01*
X75684995Y-113526030D01*
X75605840Y-113830286D01*
X75587562Y-114144138D01*
X74615116Y-114144138D01*
X74722039Y-114099849D01*
X75054687Y-113877581D01*
X75337581Y-113594687D01*
X75559849Y-113262039D01*
X75712950Y-112892421D01*
X75791000Y-112500036D01*
X75791000Y-112099964D01*
X75712950Y-111707579D01*
X75605285Y-111447653D01*
X76027553Y-111869921D01*
X76049013Y-111977809D01*
X76107887Y-112119942D01*
X76193358Y-112247859D01*
X76302141Y-112356642D01*
X76430058Y-112442113D01*
X76572191Y-112500987D01*
X76723078Y-112531000D01*
X76785320Y-112531000D01*
X76517518Y-112624085D01*
X76353062Y-112711988D01*
X76216939Y-112927334D01*
X77190000Y-113900395D01*
X78163061Y-112927334D01*
X78026938Y-112711988D01*
X77743970Y-112574995D01*
X77439714Y-112495840D01*
X77125862Y-112477562D01*
X77063386Y-112486250D01*
X77169942Y-112442113D01*
X77297859Y-112356642D01*
X77406642Y-112247859D01*
X77492113Y-112119942D01*
X77550987Y-111977809D01*
X77572447Y-111869921D01*
X78469971Y-110972397D01*
X78351479Y-111258463D01*
X78274389Y-111646018D01*
X78274389Y-112041166D01*
X78351479Y-112428721D01*
X78502695Y-112793789D01*
X78722227Y-113122342D01*
X79001639Y-113401754D01*
X79330192Y-113621286D01*
X79695260Y-113772502D01*
X80082815Y-113849592D01*
X80477963Y-113849592D01*
X80865518Y-113772502D01*
X81230586Y-113621286D01*
X81559139Y-113401754D01*
X81838551Y-113122342D01*
X82058083Y-112793789D01*
X82209299Y-112428721D01*
X82286389Y-112041166D01*
X82286389Y-111646018D01*
X82209299Y-111258463D01*
X82058083Y-110893395D01*
X81982983Y-110781000D01*
X82541958Y-110781000D01*
X82596550Y-110835592D01*
X82782528Y-110959859D01*
X82789390Y-110962701D01*
X82789390Y-111674713D01*
X82749013Y-111772191D01*
X82719000Y-111923078D01*
X82719000Y-112076922D01*
X82749013Y-112227809D01*
X82807887Y-112369942D01*
X82893358Y-112497859D01*
X83002141Y-112606642D01*
X83130058Y-112692113D01*
X83272191Y-112750987D01*
X83423078Y-112781000D01*
X83576922Y-112781000D01*
X83727809Y-112750987D01*
X83869942Y-112692113D01*
X83997859Y-112606642D01*
X84106642Y-112497859D01*
X84192113Y-112369942D01*
X84250987Y-112227809D01*
X84281000Y-112076922D01*
X84281000Y-111923078D01*
X84250987Y-111772191D01*
X84192113Y-111630058D01*
X84106642Y-111502141D01*
X83997859Y-111393358D01*
X83869942Y-111307887D01*
X83851389Y-111300202D01*
X83851389Y-110962701D01*
X83858250Y-110959859D01*
X84044228Y-110835592D01*
X84202389Y-110677431D01*
X84326656Y-110491453D01*
X84412252Y-110284805D01*
X84455889Y-110065429D01*
X84455889Y-109841755D01*
X84412252Y-109622379D01*
X84326656Y-109415731D01*
X84202389Y-109229753D01*
X84044228Y-109071592D01*
X83858250Y-108947325D01*
X83825095Y-108933592D01*
X83858250Y-108919859D01*
X84044228Y-108795592D01*
X84202389Y-108637431D01*
X84254677Y-108559178D01*
X84302141Y-108606642D01*
X84430058Y-108692113D01*
X84572191Y-108750987D01*
X84723078Y-108781000D01*
X84769000Y-108781000D01*
X84769000Y-108826922D01*
X84799013Y-108977809D01*
X84857887Y-109119942D01*
X84943358Y-109247859D01*
X85052141Y-109356642D01*
X85180058Y-109442113D01*
X85322191Y-109500987D01*
X85473078Y-109531000D01*
X85626922Y-109531000D01*
X85777809Y-109500987D01*
X85919000Y-109442503D01*
X85919000Y-110038814D01*
X85392784Y-110565031D01*
X85284896Y-110586491D01*
X85142763Y-110645365D01*
X85014846Y-110730836D01*
X84906063Y-110839619D01*
X84820592Y-110967536D01*
X84761718Y-111109669D01*
X84731705Y-111260556D01*
X84731705Y-111414400D01*
X84761718Y-111565287D01*
X84820592Y-111707420D01*
X84906063Y-111835337D01*
X85014846Y-111944120D01*
X85142763Y-112029591D01*
X85284896Y-112088465D01*
X85435783Y-112118478D01*
X85589627Y-112118478D01*
X85740514Y-112088465D01*
X85882647Y-112029591D01*
X86010564Y-111944120D01*
X86086206Y-111868478D01*
X88036448Y-111868478D01*
X88062522Y-111871046D01*
X88088596Y-111868478D01*
X88088606Y-111868478D01*
X88166616Y-111860795D01*
X88266710Y-111830431D01*
X88358957Y-111781124D01*
X88439812Y-111714768D01*
X88456443Y-111694503D01*
X89469947Y-110681000D01*
X89576922Y-110681000D01*
X89727809Y-110650987D01*
X89869942Y-110592113D01*
X89997859Y-110506642D01*
X90106642Y-110397859D01*
X90192113Y-110269942D01*
X90250987Y-110127809D01*
X90251216Y-110126657D01*
X90273073Y-110131005D01*
X90426917Y-110131005D01*
X90577804Y-110100992D01*
X90719937Y-110042118D01*
X90847854Y-109956647D01*
X90956637Y-109847864D01*
X91042108Y-109719947D01*
X91100982Y-109577814D01*
X91130995Y-109426927D01*
X91130995Y-109273083D01*
X91100982Y-109122196D01*
X91042108Y-108980063D01*
X90956637Y-108852146D01*
X90880995Y-108776504D01*
X90880995Y-103576069D01*
X90883563Y-103549995D01*
X90880995Y-103523921D01*
X90880995Y-103523911D01*
X90873312Y-103445901D01*
X90842948Y-103345807D01*
X90795607Y-103257238D01*
X90793641Y-103253559D01*
X90743912Y-103192965D01*
X90727285Y-103172705D01*
X90707025Y-103156078D01*
X88181000Y-100630054D01*
X88181000Y-100523078D01*
X88150987Y-100372191D01*
X88092113Y-100230058D01*
X88006642Y-100102141D01*
X87897859Y-99993358D01*
X87769942Y-99907887D01*
X87627809Y-99849013D01*
X87476922Y-99819000D01*
X87323078Y-99819000D01*
X87172191Y-99849013D01*
X87030058Y-99907887D01*
X86902141Y-99993358D01*
X86793358Y-100102141D01*
X86707887Y-100230058D01*
X86649013Y-100372191D01*
X86619000Y-100523078D01*
X86619000Y-100676922D01*
X86649013Y-100827809D01*
X86707887Y-100969942D01*
X86793358Y-101097859D01*
X86902141Y-101206642D01*
X87030058Y-101292113D01*
X87172191Y-101350987D01*
X87323078Y-101381000D01*
X87430054Y-101381000D01*
X89818996Y-103769943D01*
X89818995Y-108776504D01*
X89743353Y-108852146D01*
X89657882Y-108980063D01*
X89599008Y-109122196D01*
X89598779Y-109123348D01*
X89576922Y-109119000D01*
X89423078Y-109119000D01*
X89272191Y-109149013D01*
X89130058Y-109207887D01*
X89002141Y-109293358D01*
X88893358Y-109402141D01*
X88807887Y-109530058D01*
X88749013Y-109672191D01*
X88719000Y-109823078D01*
X88719000Y-109930053D01*
X87842576Y-110806478D01*
X86936074Y-110806478D01*
X86974269Y-110768283D01*
X86998343Y-110748526D01*
X87077196Y-110652444D01*
X87135789Y-110542825D01*
X87171870Y-110423881D01*
X87181000Y-110331181D01*
X87181000Y-110331174D01*
X87184052Y-110300183D01*
X87181000Y-110269193D01*
X87181000Y-106823505D01*
X87206646Y-106797859D01*
X87292117Y-106669942D01*
X87350991Y-106527809D01*
X87381004Y-106376922D01*
X87381004Y-106223078D01*
X87350991Y-106072191D01*
X87292117Y-105930058D01*
X87206646Y-105802141D01*
X87181000Y-105776495D01*
X87181000Y-104280990D01*
X87184052Y-104250000D01*
X87181000Y-104219009D01*
X87181000Y-104219002D01*
X87171870Y-104126302D01*
X87135789Y-104007358D01*
X87077196Y-103897739D01*
X87045958Y-103859676D01*
X87018103Y-103825734D01*
X87018101Y-103825732D01*
X86998343Y-103801657D01*
X86974268Y-103781899D01*
X86672447Y-103480078D01*
X86650987Y-103372191D01*
X86592113Y-103230058D01*
X86506642Y-103102141D01*
X86397859Y-102993358D01*
X86269942Y-102907887D01*
X86127809Y-102849013D01*
X85976922Y-102819000D01*
X85823078Y-102819000D01*
X85672191Y-102849013D01*
X85530058Y-102907887D01*
X85402141Y-102993358D01*
X85293358Y-103102141D01*
X85207887Y-103230058D01*
X85149013Y-103372191D01*
X85119000Y-103523078D01*
X85119000Y-103676922D01*
X85149013Y-103827809D01*
X85207887Y-103969942D01*
X85293358Y-104097859D01*
X85402141Y-104206642D01*
X85521382Y-104286316D01*
X85431326Y-104249013D01*
X85280439Y-104219000D01*
X85126595Y-104219000D01*
X84975708Y-104249013D01*
X84833575Y-104307887D01*
X84705658Y-104393358D01*
X84596875Y-104502141D01*
X84511404Y-104630058D01*
X84452530Y-104772191D01*
X84422517Y-104923078D01*
X84422517Y-105076922D01*
X84452530Y-105227809D01*
X84511404Y-105369942D01*
X84596875Y-105497859D01*
X84705658Y-105606642D01*
X84833575Y-105692113D01*
X84975708Y-105750987D01*
X85019001Y-105759598D01*
X85019001Y-106785902D01*
X84416508Y-106183409D01*
X84455889Y-105985429D01*
X84455889Y-105761755D01*
X84412252Y-105542379D01*
X84326656Y-105335731D01*
X84202389Y-105149753D01*
X84044228Y-104991592D01*
X83858250Y-104867325D01*
X83825095Y-104853592D01*
X83858250Y-104839859D01*
X84044228Y-104715592D01*
X84202389Y-104557431D01*
X84326656Y-104371453D01*
X84412252Y-104164805D01*
X84455889Y-103945429D01*
X84455889Y-103721755D01*
X84412252Y-103502379D01*
X84326656Y-103295731D01*
X84202389Y-103109753D01*
X84044228Y-102951592D01*
X83858250Y-102827325D01*
X83851389Y-102824483D01*
X83851389Y-102346463D01*
X83853957Y-102320389D01*
X83851389Y-102294315D01*
X83851389Y-102294305D01*
X83843706Y-102216295D01*
X83813342Y-102116201D01*
X83782178Y-102057897D01*
X83764035Y-102023953D01*
X83714306Y-101963359D01*
X83697679Y-101943099D01*
X83677419Y-101926472D01*
X83131000Y-101380054D01*
X83131000Y-98926073D01*
X83133568Y-98899999D01*
X83131000Y-98873925D01*
X83131000Y-98873916D01*
X83123317Y-98795906D01*
X83092953Y-98695812D01*
X83055019Y-98624842D01*
X83043646Y-98603564D01*
X82993917Y-98542970D01*
X82977290Y-98522710D01*
X82957030Y-98506083D01*
X81793921Y-97342975D01*
X81777290Y-97322710D01*
X81696435Y-97256354D01*
X81604188Y-97207047D01*
X81518325Y-97181000D01*
X81576922Y-97181000D01*
X81727809Y-97150987D01*
X81869942Y-97092113D01*
X81997859Y-97006642D01*
X82106642Y-96897859D01*
X82192113Y-96769942D01*
X82250987Y-96627809D01*
X82281000Y-96476922D01*
X82281000Y-96323078D01*
X82250987Y-96172191D01*
X82192113Y-96030058D01*
X82106642Y-95902141D01*
X82040935Y-95836434D01*
X82040935Y-94973501D01*
X82116577Y-94897859D01*
X82202048Y-94769942D01*
X82260922Y-94627809D01*
X82290935Y-94476922D01*
X82290935Y-94323078D01*
X82260922Y-94172191D01*
X82202048Y-94030058D01*
X82116577Y-93902141D01*
X82007794Y-93793358D01*
X81879877Y-93707887D01*
X81737744Y-93649013D01*
X81586857Y-93619000D01*
X81433013Y-93619000D01*
X81282126Y-93649013D01*
X81139993Y-93707887D01*
X81012076Y-93793358D01*
X80903293Y-93902141D01*
X80817822Y-94030058D01*
X80758948Y-94172191D01*
X80728935Y-94323078D01*
X80728935Y-94476922D01*
X80758948Y-94627809D01*
X80817822Y-94769942D01*
X80903293Y-94897859D01*
X80978935Y-94973501D01*
X80978936Y-95816563D01*
X80893358Y-95902141D01*
X80807887Y-96030058D01*
X80749013Y-96172191D01*
X80719000Y-96323078D01*
X80719000Y-96476922D01*
X80749013Y-96627809D01*
X80807887Y-96769942D01*
X80893358Y-96897859D01*
X81002141Y-97006642D01*
X81130058Y-97092113D01*
X81272191Y-97150987D01*
X81362749Y-97169000D01*
X79560388Y-97169000D01*
X79534314Y-97166432D01*
X79508240Y-97169000D01*
X79508231Y-97169000D01*
X79430221Y-97176683D01*
X79330127Y-97207047D01*
X79270011Y-97239179D01*
X79237879Y-97256354D01*
X79189040Y-97296436D01*
X79157025Y-97322710D01*
X79140398Y-97342970D01*
X78784511Y-97698858D01*
X78749134Y-97444475D01*
X78645915Y-97147518D01*
X78558012Y-96983062D01*
X78342666Y-96846939D01*
X77369605Y-97820000D01*
X77383748Y-97834143D01*
X77204143Y-98013748D01*
X77190000Y-97999605D01*
X76216939Y-98972666D01*
X76353062Y-99188012D01*
X76636030Y-99325005D01*
X76940286Y-99404160D01*
X77071564Y-99411805D01*
X76807602Y-99675767D01*
X76730058Y-99707887D01*
X76602141Y-99793358D01*
X76493358Y-99902141D01*
X76407887Y-100030058D01*
X76349013Y-100172191D01*
X76319000Y-100323078D01*
X76319000Y-100476922D01*
X76349013Y-100627809D01*
X76407887Y-100769942D01*
X76493358Y-100897859D01*
X76602141Y-101006642D01*
X76730058Y-101092113D01*
X76819777Y-101129276D01*
X75942975Y-102006079D01*
X75922710Y-102022710D01*
X75856354Y-102103565D01*
X75807047Y-102195813D01*
X75776683Y-102295907D01*
X75769000Y-102373917D01*
X75769000Y-102373926D01*
X75766432Y-102400000D01*
X75769000Y-102426075D01*
X75769000Y-102427413D01*
X75591142Y-102546254D01*
X75436254Y-102701142D01*
X75314559Y-102883271D01*
X75230734Y-103085642D01*
X75188000Y-103300478D01*
X75188000Y-103519522D01*
X75230734Y-103734358D01*
X75314559Y-103936729D01*
X75436254Y-104118858D01*
X75591142Y-104273746D01*
X75773271Y-104395441D01*
X75844633Y-104425000D01*
X75773271Y-104454559D01*
X75591142Y-104576254D01*
X75436254Y-104731142D01*
X75314559Y-104913271D01*
X75230734Y-105115642D01*
X75188000Y-105330478D01*
X75188000Y-105549522D01*
X75206269Y-105641363D01*
X74575737Y-106271895D01*
X74551657Y-106291657D01*
X74526641Y-106322140D01*
X74497859Y-106293358D01*
X74369942Y-106207887D01*
X74227809Y-106149013D01*
X74076922Y-106119000D01*
X73923078Y-106119000D01*
X73772191Y-106149013D01*
X73630058Y-106207887D01*
X73502141Y-106293358D01*
X73393358Y-106402141D01*
X73307887Y-106530058D01*
X73249013Y-106672191D01*
X73219000Y-106823078D01*
X73219000Y-106976922D01*
X73249013Y-107127809D01*
X73307887Y-107269942D01*
X73393358Y-107397859D01*
X73444000Y-107448501D01*
X73444001Y-108483755D01*
X73399003Y-108592388D01*
X73368990Y-108743275D01*
X73368990Y-108897119D01*
X73399003Y-109048006D01*
X73457877Y-109190139D01*
X73543348Y-109318056D01*
X73652131Y-109426839D01*
X73780048Y-109512310D01*
X73922181Y-109571184D01*
X74073068Y-109601197D01*
X74226912Y-109601197D01*
X74369001Y-109572934D01*
X74369001Y-109919000D01*
X74365948Y-109950000D01*
X74378130Y-110073697D01*
X74414211Y-110192641D01*
X74472804Y-110302260D01*
X74531897Y-110374265D01*
X74531900Y-110374268D01*
X74551658Y-110398343D01*
X74575733Y-110418101D01*
X74612347Y-110454715D01*
X74352421Y-110347050D01*
X73960036Y-110269000D01*
X73559964Y-110269000D01*
X73167579Y-110347050D01*
X72797961Y-110500151D01*
X72465313Y-110722419D01*
X72182419Y-111005313D01*
X71960151Y-111337961D01*
X71807050Y-111707579D01*
X71729000Y-112099964D01*
X71627000Y-112099964D01*
X71627000Y-101393631D01*
X72840398Y-102607030D01*
X72857025Y-102627290D01*
X72877285Y-102643917D01*
X72937879Y-102693646D01*
X72976532Y-102714306D01*
X73030127Y-102742953D01*
X73130221Y-102773317D01*
X73208231Y-102781000D01*
X73208240Y-102781000D01*
X73228494Y-102782995D01*
X73302141Y-102856642D01*
X73430058Y-102942113D01*
X73572191Y-103000987D01*
X73723078Y-103031000D01*
X73876922Y-103031000D01*
X74027809Y-103000987D01*
X74169942Y-102942113D01*
X74297859Y-102856642D01*
X74406642Y-102747859D01*
X74492113Y-102619942D01*
X74550987Y-102477809D01*
X74581000Y-102326922D01*
X74581000Y-102173078D01*
X74550987Y-102022191D01*
X74492113Y-101880058D01*
X74406642Y-101752141D01*
X74297859Y-101643358D01*
X74206109Y-101582053D01*
X74352421Y-101552950D01*
X74722039Y-101399849D01*
X75054687Y-101177581D01*
X75337581Y-100894687D01*
X75559849Y-100562039D01*
X75712950Y-100192421D01*
X75791000Y-99800036D01*
X75791000Y-99399964D01*
X75712950Y-99007579D01*
X75559849Y-98637961D01*
X75337581Y-98305313D01*
X75054687Y-98022419D01*
X74722039Y-97800151D01*
X74352421Y-97647050D01*
X73960036Y-97569000D01*
X73585501Y-97569000D01*
X73656642Y-97497859D01*
X73742113Y-97369942D01*
X73800987Y-97227809D01*
X73831000Y-97076922D01*
X73831000Y-96923078D01*
X73800987Y-96772191D01*
X73742113Y-96630058D01*
X73656642Y-96502141D01*
X73547859Y-96393358D01*
X73419942Y-96307887D01*
X73277809Y-96249013D01*
X73126922Y-96219000D01*
X72973078Y-96219000D01*
X72822191Y-96249013D01*
X72680058Y-96307887D01*
X72552141Y-96393358D01*
X72443358Y-96502141D01*
X72357887Y-96630058D01*
X72299013Y-96772191D01*
X72269000Y-96923078D01*
X72269000Y-97030053D01*
X71627000Y-97672054D01*
X71627000Y-95923078D01*
X75519000Y-95923078D01*
X75519000Y-96076922D01*
X75549013Y-96227809D01*
X75607887Y-96369942D01*
X75693358Y-96497859D01*
X75802141Y-96606642D01*
X75930058Y-96692113D01*
X76015399Y-96727463D01*
X75966627Y-96776235D01*
X76037332Y-96846940D01*
X75821988Y-96983062D01*
X75684995Y-97266030D01*
X75605840Y-97570286D01*
X75587562Y-97884138D01*
X75630866Y-98195525D01*
X75734085Y-98492482D01*
X75821988Y-98656938D01*
X76037334Y-98793061D01*
X77010395Y-97820000D01*
X76996253Y-97805858D01*
X77175858Y-97626253D01*
X77190000Y-97640395D01*
X78163061Y-96667334D01*
X78026938Y-96451988D01*
X77938463Y-96409155D01*
X77977290Y-96377290D01*
X77993921Y-96357025D01*
X79319947Y-95031000D01*
X79326922Y-95031000D01*
X79477809Y-95000987D01*
X79619942Y-94942113D01*
X79747859Y-94856642D01*
X79856642Y-94747859D01*
X79942113Y-94619942D01*
X80000987Y-94477809D01*
X80031000Y-94326922D01*
X80031000Y-94173078D01*
X80000987Y-94022191D01*
X79942113Y-93880058D01*
X79856642Y-93752141D01*
X79747859Y-93643358D01*
X79619942Y-93557887D01*
X79477809Y-93499013D01*
X79326922Y-93469000D01*
X79173078Y-93469000D01*
X79022191Y-93499013D01*
X78985993Y-93514007D01*
X79000987Y-93477809D01*
X79031000Y-93326922D01*
X79031000Y-93173078D01*
X79000987Y-93022191D01*
X78942113Y-92880058D01*
X78856642Y-92752141D01*
X78747859Y-92643358D01*
X78619942Y-92557887D01*
X78477809Y-92499013D01*
X78326922Y-92469000D01*
X78173078Y-92469000D01*
X78022191Y-92499013D01*
X77880058Y-92557887D01*
X77752141Y-92643358D01*
X77643358Y-92752141D01*
X77557887Y-92880058D01*
X77499013Y-93022191D01*
X77469000Y-93173078D01*
X77469000Y-93244698D01*
X76744698Y-93969000D01*
X76673078Y-93969000D01*
X76522191Y-93999013D01*
X76380058Y-94057887D01*
X76252141Y-94143358D01*
X76143358Y-94252141D01*
X76057887Y-94380058D01*
X75999013Y-94522191D01*
X75969000Y-94673078D01*
X75969000Y-94826922D01*
X75999013Y-94977809D01*
X76057887Y-95119942D01*
X76135690Y-95236382D01*
X76072191Y-95249013D01*
X75930058Y-95307887D01*
X75802141Y-95393358D01*
X75693358Y-95502141D01*
X75607887Y-95630058D01*
X75549013Y-95772191D01*
X75519000Y-95923078D01*
X71627000Y-95923078D01*
X71627000Y-88316980D01*
X74770511Y-88316980D01*
X74794866Y-88397288D01*
X74894761Y-88616961D01*
X75035592Y-88812924D01*
X75211948Y-88977647D01*
X75417051Y-89104799D01*
X75643019Y-89189495D01*
X75833000Y-89129187D01*
X75833000Y-88127000D01*
X76087000Y-88127000D01*
X76087000Y-89129187D01*
X76276981Y-89189495D01*
X76502949Y-89104799D01*
X76708052Y-88977647D01*
X76884408Y-88812924D01*
X77025239Y-88616961D01*
X77125134Y-88397288D01*
X77149489Y-88316980D01*
X77088627Y-88127000D01*
X76087000Y-88127000D01*
X75833000Y-88127000D01*
X74831373Y-88127000D01*
X74770511Y-88316980D01*
X71627000Y-88316980D01*
X71627000Y-87683020D01*
X74770511Y-87683020D01*
X74831373Y-87873000D01*
X75833000Y-87873000D01*
X75833000Y-86870813D01*
X76087000Y-86870813D01*
X76087000Y-87873000D01*
X77088627Y-87873000D01*
X77149489Y-87683020D01*
X77125134Y-87602712D01*
X77025239Y-87383039D01*
X76884408Y-87187076D01*
X76844714Y-87150000D01*
X77267157Y-87150000D01*
X77267157Y-88850000D01*
X77274513Y-88924689D01*
X77296299Y-88996508D01*
X77331678Y-89062696D01*
X77379289Y-89120711D01*
X77437304Y-89168322D01*
X77503492Y-89203701D01*
X77575311Y-89225487D01*
X77650000Y-89232843D01*
X79350000Y-89232843D01*
X79424689Y-89225487D01*
X79496508Y-89203701D01*
X79553798Y-89173078D01*
X81969000Y-89173078D01*
X81969000Y-89326922D01*
X81999013Y-89477809D01*
X82057887Y-89619942D01*
X82143358Y-89747859D01*
X82252141Y-89856642D01*
X82380058Y-89942113D01*
X82522191Y-90000987D01*
X82673078Y-90031000D01*
X82826922Y-90031000D01*
X82977809Y-90000987D01*
X83119942Y-89942113D01*
X83211405Y-89881000D01*
X83488632Y-89881000D01*
X86727553Y-93119922D01*
X86749013Y-93227809D01*
X86807887Y-93369942D01*
X86893358Y-93497859D01*
X87002141Y-93606642D01*
X87130058Y-93692113D01*
X87272191Y-93750987D01*
X87423078Y-93781000D01*
X87576922Y-93781000D01*
X87727809Y-93750987D01*
X87869942Y-93692113D01*
X87997859Y-93606642D01*
X88106642Y-93497859D01*
X88192113Y-93369942D01*
X88250987Y-93227809D01*
X88281000Y-93076922D01*
X88281000Y-92923078D01*
X88250987Y-92772191D01*
X88192113Y-92630058D01*
X88106642Y-92502141D01*
X87997859Y-92393358D01*
X87869942Y-92307887D01*
X87727809Y-92249013D01*
X87619922Y-92227553D01*
X84218105Y-88825737D01*
X84198343Y-88801657D01*
X84102261Y-88722804D01*
X83992642Y-88664211D01*
X83873698Y-88628130D01*
X83780998Y-88619000D01*
X83780990Y-88619000D01*
X83750000Y-88615948D01*
X83719010Y-88619000D01*
X83211405Y-88619000D01*
X83119942Y-88557887D01*
X82977809Y-88499013D01*
X82826922Y-88469000D01*
X82673078Y-88469000D01*
X82522191Y-88499013D01*
X82380058Y-88557887D01*
X82252141Y-88643358D01*
X82143358Y-88752141D01*
X82057887Y-88880058D01*
X81999013Y-89022191D01*
X81969000Y-89173078D01*
X79553798Y-89173078D01*
X79562696Y-89168322D01*
X79620711Y-89120711D01*
X79668322Y-89062696D01*
X79703701Y-88996508D01*
X79725487Y-88924689D01*
X79732843Y-88850000D01*
X79732843Y-87150000D01*
X79725487Y-87075311D01*
X79703701Y-87003492D01*
X79668322Y-86937304D01*
X79620711Y-86879289D01*
X79562696Y-86831678D01*
X79496508Y-86796299D01*
X79424689Y-86774513D01*
X79350000Y-86767157D01*
X77650000Y-86767157D01*
X77575311Y-86774513D01*
X77503492Y-86796299D01*
X77437304Y-86831678D01*
X77379289Y-86879289D01*
X77331678Y-86937304D01*
X77296299Y-87003492D01*
X77274513Y-87075311D01*
X77267157Y-87150000D01*
X76844714Y-87150000D01*
X76708052Y-87022353D01*
X76502949Y-86895201D01*
X76276981Y-86810505D01*
X76087000Y-86870813D01*
X75833000Y-86870813D01*
X75643019Y-86810505D01*
X75417051Y-86895201D01*
X75211948Y-87022353D01*
X75035592Y-87187076D01*
X74894761Y-87383039D01*
X74794866Y-87602712D01*
X74770511Y-87683020D01*
X71627000Y-87683020D01*
X71627000Y-85338757D01*
X74729000Y-85338757D01*
X74729000Y-85581243D01*
X74776307Y-85819069D01*
X74869102Y-86043097D01*
X75003820Y-86244717D01*
X75175283Y-86416180D01*
X75376903Y-86550898D01*
X75600931Y-86643693D01*
X75838757Y-86691000D01*
X76081243Y-86691000D01*
X76319069Y-86643693D01*
X76543097Y-86550898D01*
X76744717Y-86416180D01*
X76916180Y-86244717D01*
X77050898Y-86043097D01*
X77143693Y-85819069D01*
X77191000Y-85581243D01*
X77191000Y-85338757D01*
X77269000Y-85338757D01*
X77269000Y-85581243D01*
X77316307Y-85819069D01*
X77409102Y-86043097D01*
X77543820Y-86244717D01*
X77715283Y-86416180D01*
X77916903Y-86550898D01*
X78140931Y-86643693D01*
X78378757Y-86691000D01*
X78621243Y-86691000D01*
X78711342Y-86673078D01*
X84219012Y-86673078D01*
X84219012Y-86826922D01*
X84249025Y-86977809D01*
X84307899Y-87119942D01*
X84369012Y-87211405D01*
X84369013Y-87969012D01*
X84365960Y-88000012D01*
X84378142Y-88123709D01*
X84414223Y-88242653D01*
X84472816Y-88352272D01*
X84531909Y-88424277D01*
X84531912Y-88424280D01*
X84551670Y-88448355D01*
X84575745Y-88468113D01*
X86727553Y-90619922D01*
X86749013Y-90727809D01*
X86807887Y-90869942D01*
X86893358Y-90997859D01*
X87002141Y-91106642D01*
X87130058Y-91192113D01*
X87272191Y-91250987D01*
X87423078Y-91281000D01*
X87576922Y-91281000D01*
X87727809Y-91250987D01*
X87869942Y-91192113D01*
X87997859Y-91106642D01*
X88106642Y-90997859D01*
X88192113Y-90869942D01*
X88250987Y-90727809D01*
X88281000Y-90576922D01*
X88281000Y-90423078D01*
X88250987Y-90272191D01*
X88192113Y-90130058D01*
X88106642Y-90002141D01*
X87997859Y-89893358D01*
X87869942Y-89807887D01*
X87727809Y-89749013D01*
X87619922Y-89727553D01*
X85631012Y-87738644D01*
X85631012Y-87211405D01*
X85692125Y-87119942D01*
X85750999Y-86977809D01*
X85781012Y-86826922D01*
X85781012Y-86673078D01*
X85750999Y-86522191D01*
X85692125Y-86380058D01*
X85606654Y-86252141D01*
X85497871Y-86143358D01*
X85369954Y-86057887D01*
X85227821Y-85999013D01*
X85076934Y-85969000D01*
X84923090Y-85969000D01*
X84772203Y-85999013D01*
X84630070Y-86057887D01*
X84502153Y-86143358D01*
X84393370Y-86252141D01*
X84307899Y-86380058D01*
X84249025Y-86522191D01*
X84219012Y-86673078D01*
X78711342Y-86673078D01*
X78859069Y-86643693D01*
X79083097Y-86550898D01*
X79284717Y-86416180D01*
X79456180Y-86244717D01*
X79590898Y-86043097D01*
X79683693Y-85819069D01*
X79731000Y-85581243D01*
X79731000Y-85338757D01*
X79683693Y-85100931D01*
X79590898Y-84876903D01*
X79456180Y-84675283D01*
X79284717Y-84503820D01*
X79083097Y-84369102D01*
X78859069Y-84276307D01*
X78621243Y-84229000D01*
X78378757Y-84229000D01*
X78140931Y-84276307D01*
X77916903Y-84369102D01*
X77715283Y-84503820D01*
X77543820Y-84675283D01*
X77409102Y-84876903D01*
X77316307Y-85100931D01*
X77269000Y-85338757D01*
X77191000Y-85338757D01*
X77143693Y-85100931D01*
X77050898Y-84876903D01*
X76916180Y-84675283D01*
X76744717Y-84503820D01*
X76543097Y-84369102D01*
X76319069Y-84276307D01*
X76081243Y-84229000D01*
X75838757Y-84229000D01*
X75600931Y-84276307D01*
X75376903Y-84369102D01*
X75175283Y-84503820D01*
X75003820Y-84675283D01*
X74869102Y-84876903D01*
X74776307Y-85100931D01*
X74729000Y-85338757D01*
X71627000Y-85338757D01*
X71627000Y-82798757D01*
X74729000Y-82798757D01*
X74729000Y-83041243D01*
X74776307Y-83279069D01*
X74869102Y-83503097D01*
X75003820Y-83704717D01*
X75175283Y-83876180D01*
X75376903Y-84010898D01*
X75600931Y-84103693D01*
X75838757Y-84151000D01*
X76081243Y-84151000D01*
X76319069Y-84103693D01*
X76543097Y-84010898D01*
X76744717Y-83876180D01*
X76916180Y-83704717D01*
X77050898Y-83503097D01*
X77143693Y-83279069D01*
X77191000Y-83041243D01*
X77191000Y-82798757D01*
X77269000Y-82798757D01*
X77269000Y-83041243D01*
X77316307Y-83279069D01*
X77409102Y-83503097D01*
X77543820Y-83704717D01*
X77715283Y-83876180D01*
X77916903Y-84010898D01*
X78140931Y-84103693D01*
X78378757Y-84151000D01*
X78621243Y-84151000D01*
X78859069Y-84103693D01*
X79083097Y-84010898D01*
X79284717Y-83876180D01*
X79456180Y-83704717D01*
X79590898Y-83503097D01*
X79683693Y-83279069D01*
X79731000Y-83041243D01*
X79731000Y-82798757D01*
X79683693Y-82560931D01*
X79590898Y-82336903D01*
X79456180Y-82135283D01*
X79284717Y-81963820D01*
X79083097Y-81829102D01*
X78859069Y-81736307D01*
X78621243Y-81689000D01*
X78378757Y-81689000D01*
X78140931Y-81736307D01*
X77916903Y-81829102D01*
X77715283Y-81963820D01*
X77543820Y-82135283D01*
X77409102Y-82336903D01*
X77316307Y-82560931D01*
X77269000Y-82798757D01*
X77191000Y-82798757D01*
X77143693Y-82560931D01*
X77050898Y-82336903D01*
X76916180Y-82135283D01*
X76744717Y-81963820D01*
X76543097Y-81829102D01*
X76319069Y-81736307D01*
X76081243Y-81689000D01*
X75838757Y-81689000D01*
X75600931Y-81736307D01*
X75376903Y-81829102D01*
X75175283Y-81963820D01*
X75003820Y-82135283D01*
X74869102Y-82336903D01*
X74776307Y-82560931D01*
X74729000Y-82798757D01*
X71627000Y-82798757D01*
X71627000Y-75067968D01*
X73038452Y-74127000D01*
X90454403Y-74127000D01*
X91113000Y-74669898D01*
G04 #@! TA.AperFunction,Conductor*
D35*
G36*
X91113000Y-74669898D02*
G01*
X91113000Y-85717394D01*
X89965197Y-86865197D01*
X89949403Y-86884443D01*
X89937667Y-86906399D01*
X89930440Y-86930224D01*
X89928000Y-86955000D01*
X89928000Y-100650000D01*
X89930440Y-100674776D01*
X89937667Y-100698601D01*
X89949403Y-100720557D01*
X89965197Y-100739803D01*
X93533000Y-104307606D01*
X93533000Y-115402394D01*
X92821394Y-116114000D01*
X72505568Y-116114000D01*
X71627000Y-115437503D01*
X71627000Y-115232666D01*
X76216939Y-115232666D01*
X76353062Y-115448012D01*
X76636030Y-115585005D01*
X76940286Y-115664160D01*
X77254138Y-115682438D01*
X77565525Y-115639134D01*
X77862482Y-115535915D01*
X78026938Y-115448012D01*
X78163061Y-115232666D01*
X77190000Y-114259605D01*
X76216939Y-115232666D01*
X71627000Y-115232666D01*
X71627000Y-112099964D01*
X71729000Y-112099964D01*
X71729000Y-112500036D01*
X71807050Y-112892421D01*
X71960151Y-113262039D01*
X72182419Y-113594687D01*
X72465313Y-113877581D01*
X72797961Y-114099849D01*
X73167579Y-114252950D01*
X73559964Y-114331000D01*
X73960036Y-114331000D01*
X74352421Y-114252950D01*
X74615116Y-114144138D01*
X75587562Y-114144138D01*
X75630866Y-114455525D01*
X75734085Y-114752482D01*
X75821988Y-114916938D01*
X76037334Y-115053061D01*
X77010395Y-114080000D01*
X77369605Y-114080000D01*
X78342666Y-115053061D01*
X78558012Y-114916938D01*
X78695005Y-114633970D01*
X78774160Y-114329714D01*
X78792438Y-114015862D01*
X78749134Y-113704475D01*
X78645915Y-113407518D01*
X78558012Y-113243062D01*
X78342666Y-113106939D01*
X77369605Y-114080000D01*
X77010395Y-114080000D01*
X76037334Y-113106939D01*
X75821988Y-113243062D01*
X75684995Y-113526030D01*
X75605840Y-113830286D01*
X75587562Y-114144138D01*
X74615116Y-114144138D01*
X74722039Y-114099849D01*
X75054687Y-113877581D01*
X75337581Y-113594687D01*
X75559849Y-113262039D01*
X75712950Y-112892421D01*
X75791000Y-112500036D01*
X75791000Y-112099964D01*
X75712950Y-111707579D01*
X75605285Y-111447653D01*
X76027553Y-111869921D01*
X76049013Y-111977809D01*
X76107887Y-112119942D01*
X76193358Y-112247859D01*
X76302141Y-112356642D01*
X76430058Y-112442113D01*
X76572191Y-112500987D01*
X76723078Y-112531000D01*
X76785320Y-112531000D01*
X76517518Y-112624085D01*
X76353062Y-112711988D01*
X76216939Y-112927334D01*
X77190000Y-113900395D01*
X78163061Y-112927334D01*
X78026938Y-112711988D01*
X77743970Y-112574995D01*
X77439714Y-112495840D01*
X77125862Y-112477562D01*
X77063386Y-112486250D01*
X77169942Y-112442113D01*
X77297859Y-112356642D01*
X77406642Y-112247859D01*
X77492113Y-112119942D01*
X77550987Y-111977809D01*
X77572447Y-111869921D01*
X78469971Y-110972397D01*
X78351479Y-111258463D01*
X78274389Y-111646018D01*
X78274389Y-112041166D01*
X78351479Y-112428721D01*
X78502695Y-112793789D01*
X78722227Y-113122342D01*
X79001639Y-113401754D01*
X79330192Y-113621286D01*
X79695260Y-113772502D01*
X80082815Y-113849592D01*
X80477963Y-113849592D01*
X80865518Y-113772502D01*
X81230586Y-113621286D01*
X81559139Y-113401754D01*
X81838551Y-113122342D01*
X82058083Y-112793789D01*
X82209299Y-112428721D01*
X82286389Y-112041166D01*
X82286389Y-111646018D01*
X82209299Y-111258463D01*
X82058083Y-110893395D01*
X81982983Y-110781000D01*
X82541958Y-110781000D01*
X82596550Y-110835592D01*
X82782528Y-110959859D01*
X82789390Y-110962701D01*
X82789390Y-111674713D01*
X82749013Y-111772191D01*
X82719000Y-111923078D01*
X82719000Y-112076922D01*
X82749013Y-112227809D01*
X82807887Y-112369942D01*
X82893358Y-112497859D01*
X83002141Y-112606642D01*
X83130058Y-112692113D01*
X83272191Y-112750987D01*
X83423078Y-112781000D01*
X83576922Y-112781000D01*
X83727809Y-112750987D01*
X83869942Y-112692113D01*
X83997859Y-112606642D01*
X84106642Y-112497859D01*
X84192113Y-112369942D01*
X84250987Y-112227809D01*
X84281000Y-112076922D01*
X84281000Y-111923078D01*
X84250987Y-111772191D01*
X84192113Y-111630058D01*
X84106642Y-111502141D01*
X83997859Y-111393358D01*
X83869942Y-111307887D01*
X83851389Y-111300202D01*
X83851389Y-110962701D01*
X83858250Y-110959859D01*
X84044228Y-110835592D01*
X84202389Y-110677431D01*
X84326656Y-110491453D01*
X84412252Y-110284805D01*
X84455889Y-110065429D01*
X84455889Y-109841755D01*
X84412252Y-109622379D01*
X84326656Y-109415731D01*
X84202389Y-109229753D01*
X84044228Y-109071592D01*
X83858250Y-108947325D01*
X83825095Y-108933592D01*
X83858250Y-108919859D01*
X84044228Y-108795592D01*
X84202389Y-108637431D01*
X84254677Y-108559178D01*
X84302141Y-108606642D01*
X84430058Y-108692113D01*
X84572191Y-108750987D01*
X84723078Y-108781000D01*
X84769000Y-108781000D01*
X84769000Y-108826922D01*
X84799013Y-108977809D01*
X84857887Y-109119942D01*
X84943358Y-109247859D01*
X85052141Y-109356642D01*
X85180058Y-109442113D01*
X85322191Y-109500987D01*
X85473078Y-109531000D01*
X85626922Y-109531000D01*
X85777809Y-109500987D01*
X85919000Y-109442503D01*
X85919000Y-110038814D01*
X85392784Y-110565031D01*
X85284896Y-110586491D01*
X85142763Y-110645365D01*
X85014846Y-110730836D01*
X84906063Y-110839619D01*
X84820592Y-110967536D01*
X84761718Y-111109669D01*
X84731705Y-111260556D01*
X84731705Y-111414400D01*
X84761718Y-111565287D01*
X84820592Y-111707420D01*
X84906063Y-111835337D01*
X85014846Y-111944120D01*
X85142763Y-112029591D01*
X85284896Y-112088465D01*
X85435783Y-112118478D01*
X85589627Y-112118478D01*
X85740514Y-112088465D01*
X85882647Y-112029591D01*
X86010564Y-111944120D01*
X86086206Y-111868478D01*
X88036448Y-111868478D01*
X88062522Y-111871046D01*
X88088596Y-111868478D01*
X88088606Y-111868478D01*
X88166616Y-111860795D01*
X88266710Y-111830431D01*
X88358957Y-111781124D01*
X88439812Y-111714768D01*
X88456443Y-111694503D01*
X89469947Y-110681000D01*
X89576922Y-110681000D01*
X89727809Y-110650987D01*
X89869942Y-110592113D01*
X89997859Y-110506642D01*
X90106642Y-110397859D01*
X90192113Y-110269942D01*
X90250987Y-110127809D01*
X90251216Y-110126657D01*
X90273073Y-110131005D01*
X90426917Y-110131005D01*
X90577804Y-110100992D01*
X90719937Y-110042118D01*
X90847854Y-109956647D01*
X90956637Y-109847864D01*
X91042108Y-109719947D01*
X91100982Y-109577814D01*
X91130995Y-109426927D01*
X91130995Y-109273083D01*
X91100982Y-109122196D01*
X91042108Y-108980063D01*
X90956637Y-108852146D01*
X90880995Y-108776504D01*
X90880995Y-103576069D01*
X90883563Y-103549995D01*
X90880995Y-103523921D01*
X90880995Y-103523911D01*
X90873312Y-103445901D01*
X90842948Y-103345807D01*
X90795607Y-103257238D01*
X90793641Y-103253559D01*
X90743912Y-103192965D01*
X90727285Y-103172705D01*
X90707025Y-103156078D01*
X88181000Y-100630054D01*
X88181000Y-100523078D01*
X88150987Y-100372191D01*
X88092113Y-100230058D01*
X88006642Y-100102141D01*
X87897859Y-99993358D01*
X87769942Y-99907887D01*
X87627809Y-99849013D01*
X87476922Y-99819000D01*
X87323078Y-99819000D01*
X87172191Y-99849013D01*
X87030058Y-99907887D01*
X86902141Y-99993358D01*
X86793358Y-100102141D01*
X86707887Y-100230058D01*
X86649013Y-100372191D01*
X86619000Y-100523078D01*
X86619000Y-100676922D01*
X86649013Y-100827809D01*
X86707887Y-100969942D01*
X86793358Y-101097859D01*
X86902141Y-101206642D01*
X87030058Y-101292113D01*
X87172191Y-101350987D01*
X87323078Y-101381000D01*
X87430054Y-101381000D01*
X89818996Y-103769943D01*
X89818995Y-108776504D01*
X89743353Y-108852146D01*
X89657882Y-108980063D01*
X89599008Y-109122196D01*
X89598779Y-109123348D01*
X89576922Y-109119000D01*
X89423078Y-109119000D01*
X89272191Y-109149013D01*
X89130058Y-109207887D01*
X89002141Y-109293358D01*
X88893358Y-109402141D01*
X88807887Y-109530058D01*
X88749013Y-109672191D01*
X88719000Y-109823078D01*
X88719000Y-109930053D01*
X87842576Y-110806478D01*
X86936074Y-110806478D01*
X86974269Y-110768283D01*
X86998343Y-110748526D01*
X87077196Y-110652444D01*
X87135789Y-110542825D01*
X87171870Y-110423881D01*
X87181000Y-110331181D01*
X87181000Y-110331174D01*
X87184052Y-110300183D01*
X87181000Y-110269193D01*
X87181000Y-106823505D01*
X87206646Y-106797859D01*
X87292117Y-106669942D01*
X87350991Y-106527809D01*
X87381004Y-106376922D01*
X87381004Y-106223078D01*
X87350991Y-106072191D01*
X87292117Y-105930058D01*
X87206646Y-105802141D01*
X87181000Y-105776495D01*
X87181000Y-104280990D01*
X87184052Y-104250000D01*
X87181000Y-104219009D01*
X87181000Y-104219002D01*
X87171870Y-104126302D01*
X87135789Y-104007358D01*
X87077196Y-103897739D01*
X87045958Y-103859676D01*
X87018103Y-103825734D01*
X87018101Y-103825732D01*
X86998343Y-103801657D01*
X86974268Y-103781899D01*
X86672447Y-103480078D01*
X86650987Y-103372191D01*
X86592113Y-103230058D01*
X86506642Y-103102141D01*
X86397859Y-102993358D01*
X86269942Y-102907887D01*
X86127809Y-102849013D01*
X85976922Y-102819000D01*
X85823078Y-102819000D01*
X85672191Y-102849013D01*
X85530058Y-102907887D01*
X85402141Y-102993358D01*
X85293358Y-103102141D01*
X85207887Y-103230058D01*
X85149013Y-103372191D01*
X85119000Y-103523078D01*
X85119000Y-103676922D01*
X85149013Y-103827809D01*
X85207887Y-103969942D01*
X85293358Y-104097859D01*
X85402141Y-104206642D01*
X85521382Y-104286316D01*
X85431326Y-104249013D01*
X85280439Y-104219000D01*
X85126595Y-104219000D01*
X84975708Y-104249013D01*
X84833575Y-104307887D01*
X84705658Y-104393358D01*
X84596875Y-104502141D01*
X84511404Y-104630058D01*
X84452530Y-104772191D01*
X84422517Y-104923078D01*
X84422517Y-105076922D01*
X84452530Y-105227809D01*
X84511404Y-105369942D01*
X84596875Y-105497859D01*
X84705658Y-105606642D01*
X84833575Y-105692113D01*
X84975708Y-105750987D01*
X85019001Y-105759598D01*
X85019001Y-106785902D01*
X84416508Y-106183409D01*
X84455889Y-105985429D01*
X84455889Y-105761755D01*
X84412252Y-105542379D01*
X84326656Y-105335731D01*
X84202389Y-105149753D01*
X84044228Y-104991592D01*
X83858250Y-104867325D01*
X83825095Y-104853592D01*
X83858250Y-104839859D01*
X84044228Y-104715592D01*
X84202389Y-104557431D01*
X84326656Y-104371453D01*
X84412252Y-104164805D01*
X84455889Y-103945429D01*
X84455889Y-103721755D01*
X84412252Y-103502379D01*
X84326656Y-103295731D01*
X84202389Y-103109753D01*
X84044228Y-102951592D01*
X83858250Y-102827325D01*
X83851389Y-102824483D01*
X83851389Y-102346463D01*
X83853957Y-102320389D01*
X83851389Y-102294315D01*
X83851389Y-102294305D01*
X83843706Y-102216295D01*
X83813342Y-102116201D01*
X83782178Y-102057897D01*
X83764035Y-102023953D01*
X83714306Y-101963359D01*
X83697679Y-101943099D01*
X83677419Y-101926472D01*
X83131000Y-101380054D01*
X83131000Y-98926073D01*
X83133568Y-98899999D01*
X83131000Y-98873925D01*
X83131000Y-98873916D01*
X83123317Y-98795906D01*
X83092953Y-98695812D01*
X83055019Y-98624842D01*
X83043646Y-98603564D01*
X82993917Y-98542970D01*
X82977290Y-98522710D01*
X82957030Y-98506083D01*
X81793921Y-97342975D01*
X81777290Y-97322710D01*
X81696435Y-97256354D01*
X81604188Y-97207047D01*
X81518325Y-97181000D01*
X81576922Y-97181000D01*
X81727809Y-97150987D01*
X81869942Y-97092113D01*
X81997859Y-97006642D01*
X82106642Y-96897859D01*
X82192113Y-96769942D01*
X82250987Y-96627809D01*
X82281000Y-96476922D01*
X82281000Y-96323078D01*
X82250987Y-96172191D01*
X82192113Y-96030058D01*
X82106642Y-95902141D01*
X82040935Y-95836434D01*
X82040935Y-94973501D01*
X82116577Y-94897859D01*
X82202048Y-94769942D01*
X82260922Y-94627809D01*
X82290935Y-94476922D01*
X82290935Y-94323078D01*
X82260922Y-94172191D01*
X82202048Y-94030058D01*
X82116577Y-93902141D01*
X82007794Y-93793358D01*
X81879877Y-93707887D01*
X81737744Y-93649013D01*
X81586857Y-93619000D01*
X81433013Y-93619000D01*
X81282126Y-93649013D01*
X81139993Y-93707887D01*
X81012076Y-93793358D01*
X80903293Y-93902141D01*
X80817822Y-94030058D01*
X80758948Y-94172191D01*
X80728935Y-94323078D01*
X80728935Y-94476922D01*
X80758948Y-94627809D01*
X80817822Y-94769942D01*
X80903293Y-94897859D01*
X80978935Y-94973501D01*
X80978936Y-95816563D01*
X80893358Y-95902141D01*
X80807887Y-96030058D01*
X80749013Y-96172191D01*
X80719000Y-96323078D01*
X80719000Y-96476922D01*
X80749013Y-96627809D01*
X80807887Y-96769942D01*
X80893358Y-96897859D01*
X81002141Y-97006642D01*
X81130058Y-97092113D01*
X81272191Y-97150987D01*
X81362749Y-97169000D01*
X79560388Y-97169000D01*
X79534314Y-97166432D01*
X79508240Y-97169000D01*
X79508231Y-97169000D01*
X79430221Y-97176683D01*
X79330127Y-97207047D01*
X79270011Y-97239179D01*
X79237879Y-97256354D01*
X79189040Y-97296436D01*
X79157025Y-97322710D01*
X79140398Y-97342970D01*
X78784511Y-97698858D01*
X78749134Y-97444475D01*
X78645915Y-97147518D01*
X78558012Y-96983062D01*
X78342666Y-96846939D01*
X77369605Y-97820000D01*
X77383748Y-97834143D01*
X77204143Y-98013748D01*
X77190000Y-97999605D01*
X76216939Y-98972666D01*
X76353062Y-99188012D01*
X76636030Y-99325005D01*
X76940286Y-99404160D01*
X77071564Y-99411805D01*
X76807602Y-99675767D01*
X76730058Y-99707887D01*
X76602141Y-99793358D01*
X76493358Y-99902141D01*
X76407887Y-100030058D01*
X76349013Y-100172191D01*
X76319000Y-100323078D01*
X76319000Y-100476922D01*
X76349013Y-100627809D01*
X76407887Y-100769942D01*
X76493358Y-100897859D01*
X76602141Y-101006642D01*
X76730058Y-101092113D01*
X76819777Y-101129276D01*
X75942975Y-102006079D01*
X75922710Y-102022710D01*
X75856354Y-102103565D01*
X75807047Y-102195813D01*
X75776683Y-102295907D01*
X75769000Y-102373917D01*
X75769000Y-102373926D01*
X75766432Y-102400000D01*
X75769000Y-102426075D01*
X75769000Y-102427413D01*
X75591142Y-102546254D01*
X75436254Y-102701142D01*
X75314559Y-102883271D01*
X75230734Y-103085642D01*
X75188000Y-103300478D01*
X75188000Y-103519522D01*
X75230734Y-103734358D01*
X75314559Y-103936729D01*
X75436254Y-104118858D01*
X75591142Y-104273746D01*
X75773271Y-104395441D01*
X75844633Y-104425000D01*
X75773271Y-104454559D01*
X75591142Y-104576254D01*
X75436254Y-104731142D01*
X75314559Y-104913271D01*
X75230734Y-105115642D01*
X75188000Y-105330478D01*
X75188000Y-105549522D01*
X75206269Y-105641363D01*
X74575737Y-106271895D01*
X74551657Y-106291657D01*
X74526641Y-106322140D01*
X74497859Y-106293358D01*
X74369942Y-106207887D01*
X74227809Y-106149013D01*
X74076922Y-106119000D01*
X73923078Y-106119000D01*
X73772191Y-106149013D01*
X73630058Y-106207887D01*
X73502141Y-106293358D01*
X73393358Y-106402141D01*
X73307887Y-106530058D01*
X73249013Y-106672191D01*
X73219000Y-106823078D01*
X73219000Y-106976922D01*
X73249013Y-107127809D01*
X73307887Y-107269942D01*
X73393358Y-107397859D01*
X73444000Y-107448501D01*
X73444001Y-108483755D01*
X73399003Y-108592388D01*
X73368990Y-108743275D01*
X73368990Y-108897119D01*
X73399003Y-109048006D01*
X73457877Y-109190139D01*
X73543348Y-109318056D01*
X73652131Y-109426839D01*
X73780048Y-109512310D01*
X73922181Y-109571184D01*
X74073068Y-109601197D01*
X74226912Y-109601197D01*
X74369001Y-109572934D01*
X74369001Y-109919000D01*
X74365948Y-109950000D01*
X74378130Y-110073697D01*
X74414211Y-110192641D01*
X74472804Y-110302260D01*
X74531897Y-110374265D01*
X74531900Y-110374268D01*
X74551658Y-110398343D01*
X74575733Y-110418101D01*
X74612347Y-110454715D01*
X74352421Y-110347050D01*
X73960036Y-110269000D01*
X73559964Y-110269000D01*
X73167579Y-110347050D01*
X72797961Y-110500151D01*
X72465313Y-110722419D01*
X72182419Y-111005313D01*
X71960151Y-111337961D01*
X71807050Y-111707579D01*
X71729000Y-112099964D01*
X71627000Y-112099964D01*
X71627000Y-101393631D01*
X72840398Y-102607030D01*
X72857025Y-102627290D01*
X72877285Y-102643917D01*
X72937879Y-102693646D01*
X72976532Y-102714306D01*
X73030127Y-102742953D01*
X73130221Y-102773317D01*
X73208231Y-102781000D01*
X73208240Y-102781000D01*
X73228494Y-102782995D01*
X73302141Y-102856642D01*
X73430058Y-102942113D01*
X73572191Y-103000987D01*
X73723078Y-103031000D01*
X73876922Y-103031000D01*
X74027809Y-103000987D01*
X74169942Y-102942113D01*
X74297859Y-102856642D01*
X74406642Y-102747859D01*
X74492113Y-102619942D01*
X74550987Y-102477809D01*
X74581000Y-102326922D01*
X74581000Y-102173078D01*
X74550987Y-102022191D01*
X74492113Y-101880058D01*
X74406642Y-101752141D01*
X74297859Y-101643358D01*
X74206109Y-101582053D01*
X74352421Y-101552950D01*
X74722039Y-101399849D01*
X75054687Y-101177581D01*
X75337581Y-100894687D01*
X75559849Y-100562039D01*
X75712950Y-100192421D01*
X75791000Y-99800036D01*
X75791000Y-99399964D01*
X75712950Y-99007579D01*
X75559849Y-98637961D01*
X75337581Y-98305313D01*
X75054687Y-98022419D01*
X74722039Y-97800151D01*
X74352421Y-97647050D01*
X73960036Y-97569000D01*
X73585501Y-97569000D01*
X73656642Y-97497859D01*
X73742113Y-97369942D01*
X73800987Y-97227809D01*
X73831000Y-97076922D01*
X73831000Y-96923078D01*
X73800987Y-96772191D01*
X73742113Y-96630058D01*
X73656642Y-96502141D01*
X73547859Y-96393358D01*
X73419942Y-96307887D01*
X73277809Y-96249013D01*
X73126922Y-96219000D01*
X72973078Y-96219000D01*
X72822191Y-96249013D01*
X72680058Y-96307887D01*
X72552141Y-96393358D01*
X72443358Y-96502141D01*
X72357887Y-96630058D01*
X72299013Y-96772191D01*
X72269000Y-96923078D01*
X72269000Y-97030053D01*
X71627000Y-97672054D01*
X71627000Y-95923078D01*
X75519000Y-95923078D01*
X75519000Y-96076922D01*
X75549013Y-96227809D01*
X75607887Y-96369942D01*
X75693358Y-96497859D01*
X75802141Y-96606642D01*
X75930058Y-96692113D01*
X76015399Y-96727463D01*
X75966627Y-96776235D01*
X76037332Y-96846940D01*
X75821988Y-96983062D01*
X75684995Y-97266030D01*
X75605840Y-97570286D01*
X75587562Y-97884138D01*
X75630866Y-98195525D01*
X75734085Y-98492482D01*
X75821988Y-98656938D01*
X76037334Y-98793061D01*
X77010395Y-97820000D01*
X76996253Y-97805858D01*
X77175858Y-97626253D01*
X77190000Y-97640395D01*
X78163061Y-96667334D01*
X78026938Y-96451988D01*
X77938463Y-96409155D01*
X77977290Y-96377290D01*
X77993921Y-96357025D01*
X79319947Y-95031000D01*
X79326922Y-95031000D01*
X79477809Y-95000987D01*
X79619942Y-94942113D01*
X79747859Y-94856642D01*
X79856642Y-94747859D01*
X79942113Y-94619942D01*
X80000987Y-94477809D01*
X80031000Y-94326922D01*
X80031000Y-94173078D01*
X80000987Y-94022191D01*
X79942113Y-93880058D01*
X79856642Y-93752141D01*
X79747859Y-93643358D01*
X79619942Y-93557887D01*
X79477809Y-93499013D01*
X79326922Y-93469000D01*
X79173078Y-93469000D01*
X79022191Y-93499013D01*
X78985993Y-93514007D01*
X79000987Y-93477809D01*
X79031000Y-93326922D01*
X79031000Y-93173078D01*
X79000987Y-93022191D01*
X78942113Y-92880058D01*
X78856642Y-92752141D01*
X78747859Y-92643358D01*
X78619942Y-92557887D01*
X78477809Y-92499013D01*
X78326922Y-92469000D01*
X78173078Y-92469000D01*
X78022191Y-92499013D01*
X77880058Y-92557887D01*
X77752141Y-92643358D01*
X77643358Y-92752141D01*
X77557887Y-92880058D01*
X77499013Y-93022191D01*
X77469000Y-93173078D01*
X77469000Y-93244698D01*
X76744698Y-93969000D01*
X76673078Y-93969000D01*
X76522191Y-93999013D01*
X76380058Y-94057887D01*
X76252141Y-94143358D01*
X76143358Y-94252141D01*
X76057887Y-94380058D01*
X75999013Y-94522191D01*
X75969000Y-94673078D01*
X75969000Y-94826922D01*
X75999013Y-94977809D01*
X76057887Y-95119942D01*
X76135690Y-95236382D01*
X76072191Y-95249013D01*
X75930058Y-95307887D01*
X75802141Y-95393358D01*
X75693358Y-95502141D01*
X75607887Y-95630058D01*
X75549013Y-95772191D01*
X75519000Y-95923078D01*
X71627000Y-95923078D01*
X71627000Y-88316980D01*
X74770511Y-88316980D01*
X74794866Y-88397288D01*
X74894761Y-88616961D01*
X75035592Y-88812924D01*
X75211948Y-88977647D01*
X75417051Y-89104799D01*
X75643019Y-89189495D01*
X75833000Y-89129187D01*
X75833000Y-88127000D01*
X76087000Y-88127000D01*
X76087000Y-89129187D01*
X76276981Y-89189495D01*
X76502949Y-89104799D01*
X76708052Y-88977647D01*
X76884408Y-88812924D01*
X77025239Y-88616961D01*
X77125134Y-88397288D01*
X77149489Y-88316980D01*
X77088627Y-88127000D01*
X76087000Y-88127000D01*
X75833000Y-88127000D01*
X74831373Y-88127000D01*
X74770511Y-88316980D01*
X71627000Y-88316980D01*
X71627000Y-87683020D01*
X74770511Y-87683020D01*
X74831373Y-87873000D01*
X75833000Y-87873000D01*
X75833000Y-86870813D01*
X76087000Y-86870813D01*
X76087000Y-87873000D01*
X77088627Y-87873000D01*
X77149489Y-87683020D01*
X77125134Y-87602712D01*
X77025239Y-87383039D01*
X76884408Y-87187076D01*
X76844714Y-87150000D01*
X77267157Y-87150000D01*
X77267157Y-88850000D01*
X77274513Y-88924689D01*
X77296299Y-88996508D01*
X77331678Y-89062696D01*
X77379289Y-89120711D01*
X77437304Y-89168322D01*
X77503492Y-89203701D01*
X77575311Y-89225487D01*
X77650000Y-89232843D01*
X79350000Y-89232843D01*
X79424689Y-89225487D01*
X79496508Y-89203701D01*
X79553798Y-89173078D01*
X81969000Y-89173078D01*
X81969000Y-89326922D01*
X81999013Y-89477809D01*
X82057887Y-89619942D01*
X82143358Y-89747859D01*
X82252141Y-89856642D01*
X82380058Y-89942113D01*
X82522191Y-90000987D01*
X82673078Y-90031000D01*
X82826922Y-90031000D01*
X82977809Y-90000987D01*
X83119942Y-89942113D01*
X83211405Y-89881000D01*
X83488632Y-89881000D01*
X86727553Y-93119922D01*
X86749013Y-93227809D01*
X86807887Y-93369942D01*
X86893358Y-93497859D01*
X87002141Y-93606642D01*
X87130058Y-93692113D01*
X87272191Y-93750987D01*
X87423078Y-93781000D01*
X87576922Y-93781000D01*
X87727809Y-93750987D01*
X87869942Y-93692113D01*
X87997859Y-93606642D01*
X88106642Y-93497859D01*
X88192113Y-93369942D01*
X88250987Y-93227809D01*
X88281000Y-93076922D01*
X88281000Y-92923078D01*
X88250987Y-92772191D01*
X88192113Y-92630058D01*
X88106642Y-92502141D01*
X87997859Y-92393358D01*
X87869942Y-92307887D01*
X87727809Y-92249013D01*
X87619922Y-92227553D01*
X84218105Y-88825737D01*
X84198343Y-88801657D01*
X84102261Y-88722804D01*
X83992642Y-88664211D01*
X83873698Y-88628130D01*
X83780998Y-88619000D01*
X83780990Y-88619000D01*
X83750000Y-88615948D01*
X83719010Y-88619000D01*
X83211405Y-88619000D01*
X83119942Y-88557887D01*
X82977809Y-88499013D01*
X82826922Y-88469000D01*
X82673078Y-88469000D01*
X82522191Y-88499013D01*
X82380058Y-88557887D01*
X82252141Y-88643358D01*
X82143358Y-88752141D01*
X82057887Y-88880058D01*
X81999013Y-89022191D01*
X81969000Y-89173078D01*
X79553798Y-89173078D01*
X79562696Y-89168322D01*
X79620711Y-89120711D01*
X79668322Y-89062696D01*
X79703701Y-88996508D01*
X79725487Y-88924689D01*
X79732843Y-88850000D01*
X79732843Y-87150000D01*
X79725487Y-87075311D01*
X79703701Y-87003492D01*
X79668322Y-86937304D01*
X79620711Y-86879289D01*
X79562696Y-86831678D01*
X79496508Y-86796299D01*
X79424689Y-86774513D01*
X79350000Y-86767157D01*
X77650000Y-86767157D01*
X77575311Y-86774513D01*
X77503492Y-86796299D01*
X77437304Y-86831678D01*
X77379289Y-86879289D01*
X77331678Y-86937304D01*
X77296299Y-87003492D01*
X77274513Y-87075311D01*
X77267157Y-87150000D01*
X76844714Y-87150000D01*
X76708052Y-87022353D01*
X76502949Y-86895201D01*
X76276981Y-86810505D01*
X76087000Y-86870813D01*
X75833000Y-86870813D01*
X75643019Y-86810505D01*
X75417051Y-86895201D01*
X75211948Y-87022353D01*
X75035592Y-87187076D01*
X74894761Y-87383039D01*
X74794866Y-87602712D01*
X74770511Y-87683020D01*
X71627000Y-87683020D01*
X71627000Y-85338757D01*
X74729000Y-85338757D01*
X74729000Y-85581243D01*
X74776307Y-85819069D01*
X74869102Y-86043097D01*
X75003820Y-86244717D01*
X75175283Y-86416180D01*
X75376903Y-86550898D01*
X75600931Y-86643693D01*
X75838757Y-86691000D01*
X76081243Y-86691000D01*
X76319069Y-86643693D01*
X76543097Y-86550898D01*
X76744717Y-86416180D01*
X76916180Y-86244717D01*
X77050898Y-86043097D01*
X77143693Y-85819069D01*
X77191000Y-85581243D01*
X77191000Y-85338757D01*
X77269000Y-85338757D01*
X77269000Y-85581243D01*
X77316307Y-85819069D01*
X77409102Y-86043097D01*
X77543820Y-86244717D01*
X77715283Y-86416180D01*
X77916903Y-86550898D01*
X78140931Y-86643693D01*
X78378757Y-86691000D01*
X78621243Y-86691000D01*
X78711342Y-86673078D01*
X84219012Y-86673078D01*
X84219012Y-86826922D01*
X84249025Y-86977809D01*
X84307899Y-87119942D01*
X84369012Y-87211405D01*
X84369013Y-87969012D01*
X84365960Y-88000012D01*
X84378142Y-88123709D01*
X84414223Y-88242653D01*
X84472816Y-88352272D01*
X84531909Y-88424277D01*
X84531912Y-88424280D01*
X84551670Y-88448355D01*
X84575745Y-88468113D01*
X86727553Y-90619922D01*
X86749013Y-90727809D01*
X86807887Y-90869942D01*
X86893358Y-90997859D01*
X87002141Y-91106642D01*
X87130058Y-91192113D01*
X87272191Y-91250987D01*
X87423078Y-91281000D01*
X87576922Y-91281000D01*
X87727809Y-91250987D01*
X87869942Y-91192113D01*
X87997859Y-91106642D01*
X88106642Y-90997859D01*
X88192113Y-90869942D01*
X88250987Y-90727809D01*
X88281000Y-90576922D01*
X88281000Y-90423078D01*
X88250987Y-90272191D01*
X88192113Y-90130058D01*
X88106642Y-90002141D01*
X87997859Y-89893358D01*
X87869942Y-89807887D01*
X87727809Y-89749013D01*
X87619922Y-89727553D01*
X85631012Y-87738644D01*
X85631012Y-87211405D01*
X85692125Y-87119942D01*
X85750999Y-86977809D01*
X85781012Y-86826922D01*
X85781012Y-86673078D01*
X85750999Y-86522191D01*
X85692125Y-86380058D01*
X85606654Y-86252141D01*
X85497871Y-86143358D01*
X85369954Y-86057887D01*
X85227821Y-85999013D01*
X85076934Y-85969000D01*
X84923090Y-85969000D01*
X84772203Y-85999013D01*
X84630070Y-86057887D01*
X84502153Y-86143358D01*
X84393370Y-86252141D01*
X84307899Y-86380058D01*
X84249025Y-86522191D01*
X84219012Y-86673078D01*
X78711342Y-86673078D01*
X78859069Y-86643693D01*
X79083097Y-86550898D01*
X79284717Y-86416180D01*
X79456180Y-86244717D01*
X79590898Y-86043097D01*
X79683693Y-85819069D01*
X79731000Y-85581243D01*
X79731000Y-85338757D01*
X79683693Y-85100931D01*
X79590898Y-84876903D01*
X79456180Y-84675283D01*
X79284717Y-84503820D01*
X79083097Y-84369102D01*
X78859069Y-84276307D01*
X78621243Y-84229000D01*
X78378757Y-84229000D01*
X78140931Y-84276307D01*
X77916903Y-84369102D01*
X77715283Y-84503820D01*
X77543820Y-84675283D01*
X77409102Y-84876903D01*
X77316307Y-85100931D01*
X77269000Y-85338757D01*
X77191000Y-85338757D01*
X77143693Y-85100931D01*
X77050898Y-84876903D01*
X76916180Y-84675283D01*
X76744717Y-84503820D01*
X76543097Y-84369102D01*
X76319069Y-84276307D01*
X76081243Y-84229000D01*
X75838757Y-84229000D01*
X75600931Y-84276307D01*
X75376903Y-84369102D01*
X75175283Y-84503820D01*
X75003820Y-84675283D01*
X74869102Y-84876903D01*
X74776307Y-85100931D01*
X74729000Y-85338757D01*
X71627000Y-85338757D01*
X71627000Y-82798757D01*
X74729000Y-82798757D01*
X74729000Y-83041243D01*
X74776307Y-83279069D01*
X74869102Y-83503097D01*
X75003820Y-83704717D01*
X75175283Y-83876180D01*
X75376903Y-84010898D01*
X75600931Y-84103693D01*
X75838757Y-84151000D01*
X76081243Y-84151000D01*
X76319069Y-84103693D01*
X76543097Y-84010898D01*
X76744717Y-83876180D01*
X76916180Y-83704717D01*
X77050898Y-83503097D01*
X77143693Y-83279069D01*
X77191000Y-83041243D01*
X77191000Y-82798757D01*
X77269000Y-82798757D01*
X77269000Y-83041243D01*
X77316307Y-83279069D01*
X77409102Y-83503097D01*
X77543820Y-83704717D01*
X77715283Y-83876180D01*
X77916903Y-84010898D01*
X78140931Y-84103693D01*
X78378757Y-84151000D01*
X78621243Y-84151000D01*
X78859069Y-84103693D01*
X79083097Y-84010898D01*
X79284717Y-83876180D01*
X79456180Y-83704717D01*
X79590898Y-83503097D01*
X79683693Y-83279069D01*
X79731000Y-83041243D01*
X79731000Y-82798757D01*
X79683693Y-82560931D01*
X79590898Y-82336903D01*
X79456180Y-82135283D01*
X79284717Y-81963820D01*
X79083097Y-81829102D01*
X78859069Y-81736307D01*
X78621243Y-81689000D01*
X78378757Y-81689000D01*
X78140931Y-81736307D01*
X77916903Y-81829102D01*
X77715283Y-81963820D01*
X77543820Y-82135283D01*
X77409102Y-82336903D01*
X77316307Y-82560931D01*
X77269000Y-82798757D01*
X77191000Y-82798757D01*
X77143693Y-82560931D01*
X77050898Y-82336903D01*
X76916180Y-82135283D01*
X76744717Y-81963820D01*
X76543097Y-81829102D01*
X76319069Y-81736307D01*
X76081243Y-81689000D01*
X75838757Y-81689000D01*
X75600931Y-81736307D01*
X75376903Y-81829102D01*
X75175283Y-81963820D01*
X75003820Y-82135283D01*
X74869102Y-82336903D01*
X74776307Y-82560931D01*
X74729000Y-82798757D01*
X71627000Y-82798757D01*
X71627000Y-75067968D01*
X73038452Y-74127000D01*
X90454403Y-74127000D01*
X91113000Y-74669898D01*
G37*
G04 #@! TD.AperFunction*
D34*
X80664889Y-102701755D02*
X80664889Y-102925429D01*
X80708526Y-103144805D01*
X80794122Y-103351453D01*
X80918389Y-103537431D01*
X81076550Y-103695592D01*
X81262528Y-103819859D01*
X81292530Y-103832286D01*
X81288775Y-103833729D01*
X81236642Y-103861595D01*
X81156212Y-104029810D01*
X81800389Y-104673987D01*
X81814532Y-104659845D01*
X81994137Y-104839450D01*
X81979994Y-104853592D01*
X81994137Y-104867735D01*
X81814532Y-105047340D01*
X81800389Y-105033197D01*
X81156212Y-105677374D01*
X81236642Y-105845589D01*
X81297703Y-105872755D01*
X81262528Y-105887325D01*
X81076550Y-106011592D01*
X80918389Y-106169753D01*
X80794122Y-106355731D01*
X80708526Y-106562379D01*
X80664889Y-106781755D01*
X80664889Y-107005429D01*
X80691833Y-107140886D01*
X80443921Y-106892975D01*
X80427290Y-106872710D01*
X80346435Y-106806354D01*
X80254188Y-106757047D01*
X80154094Y-106726683D01*
X80076084Y-106719000D01*
X80076074Y-106719000D01*
X80050000Y-106716432D01*
X80023926Y-106719000D01*
X79336074Y-106719000D01*
X79310000Y-106716432D01*
X79283926Y-106719000D01*
X79283916Y-106719000D01*
X79205906Y-106726683D01*
X79155721Y-106741907D01*
X79192000Y-106559522D01*
X79192000Y-106340478D01*
X79149266Y-106125642D01*
X79065441Y-105923271D01*
X78943746Y-105741142D01*
X78788858Y-105586254D01*
X78606729Y-105464559D01*
X78536797Y-105435592D01*
X78583388Y-105417566D01*
X78629778Y-105392770D01*
X78707352Y-105226957D01*
X78080000Y-104599605D01*
X78065858Y-104613748D01*
X77886253Y-104434143D01*
X77900395Y-104420000D01*
X78259605Y-104420000D01*
X78886957Y-105047352D01*
X79052770Y-104969778D01*
X79141335Y-104769437D01*
X79189113Y-104555666D01*
X79194269Y-104336682D01*
X79156605Y-104120900D01*
X79077566Y-103916612D01*
X79052770Y-103870222D01*
X78886957Y-103792648D01*
X78259605Y-104420000D01*
X77900395Y-104420000D01*
X77886253Y-104405858D01*
X78065858Y-104226253D01*
X78080000Y-104240395D01*
X78707352Y-103613043D01*
X78629778Y-103447230D01*
X78534791Y-103405239D01*
X78606729Y-103375441D01*
X78788858Y-103253746D01*
X78943746Y-103098858D01*
X79043418Y-102949689D01*
X79049013Y-102977819D01*
X79107887Y-103119952D01*
X79193358Y-103247869D01*
X79302141Y-103356652D01*
X79430058Y-103442123D01*
X79546496Y-103490354D01*
X79546495Y-104003994D01*
X79495853Y-104054636D01*
X79410382Y-104182553D01*
X79351508Y-104324686D01*
X79321495Y-104475573D01*
X79321495Y-104629417D01*
X79351508Y-104780304D01*
X79410382Y-104922437D01*
X79495853Y-105050354D01*
X79604636Y-105159137D01*
X79732553Y-105244608D01*
X79874686Y-105303482D01*
X80025573Y-105333495D01*
X80179417Y-105333495D01*
X80330304Y-105303482D01*
X80472437Y-105244608D01*
X80600354Y-105159137D01*
X80686035Y-105073456D01*
X80700312Y-105156410D01*
X80780526Y-105365206D01*
X80808392Y-105417339D01*
X80976607Y-105497769D01*
X81620784Y-104853592D01*
X80976607Y-104209415D01*
X80833982Y-104277609D01*
X80794608Y-104182553D01*
X80709137Y-104054636D01*
X80658495Y-104003994D01*
X80658495Y-103079810D01*
X80661184Y-103052505D01*
X80658495Y-103025200D01*
X80658495Y-103025193D01*
X80650450Y-102943510D01*
X80639644Y-102907887D01*
X80618657Y-102838703D01*
X80585831Y-102777290D01*
X80581000Y-102768251D01*
X80581000Y-102673088D01*
X80552737Y-102531000D01*
X80698855Y-102531000D01*
X80664889Y-102701755D01*
G04 #@! TA.AperFunction,Conductor*
D35*
G36*
X80664889Y-102701755D02*
G01*
X80664889Y-102925429D01*
X80708526Y-103144805D01*
X80794122Y-103351453D01*
X80918389Y-103537431D01*
X81076550Y-103695592D01*
X81262528Y-103819859D01*
X81292530Y-103832286D01*
X81288775Y-103833729D01*
X81236642Y-103861595D01*
X81156212Y-104029810D01*
X81800389Y-104673987D01*
X81814532Y-104659845D01*
X81994137Y-104839450D01*
X81979994Y-104853592D01*
X81994137Y-104867735D01*
X81814532Y-105047340D01*
X81800389Y-105033197D01*
X81156212Y-105677374D01*
X81236642Y-105845589D01*
X81297703Y-105872755D01*
X81262528Y-105887325D01*
X81076550Y-106011592D01*
X80918389Y-106169753D01*
X80794122Y-106355731D01*
X80708526Y-106562379D01*
X80664889Y-106781755D01*
X80664889Y-107005429D01*
X80691833Y-107140886D01*
X80443921Y-106892975D01*
X80427290Y-106872710D01*
X80346435Y-106806354D01*
X80254188Y-106757047D01*
X80154094Y-106726683D01*
X80076084Y-106719000D01*
X80076074Y-106719000D01*
X80050000Y-106716432D01*
X80023926Y-106719000D01*
X79336074Y-106719000D01*
X79310000Y-106716432D01*
X79283926Y-106719000D01*
X79283916Y-106719000D01*
X79205906Y-106726683D01*
X79155721Y-106741907D01*
X79192000Y-106559522D01*
X79192000Y-106340478D01*
X79149266Y-106125642D01*
X79065441Y-105923271D01*
X78943746Y-105741142D01*
X78788858Y-105586254D01*
X78606729Y-105464559D01*
X78536797Y-105435592D01*
X78583388Y-105417566D01*
X78629778Y-105392770D01*
X78707352Y-105226957D01*
X78080000Y-104599605D01*
X78065858Y-104613748D01*
X77886253Y-104434143D01*
X77900395Y-104420000D01*
X78259605Y-104420000D01*
X78886957Y-105047352D01*
X79052770Y-104969778D01*
X79141335Y-104769437D01*
X79189113Y-104555666D01*
X79194269Y-104336682D01*
X79156605Y-104120900D01*
X79077566Y-103916612D01*
X79052770Y-103870222D01*
X78886957Y-103792648D01*
X78259605Y-104420000D01*
X77900395Y-104420000D01*
X77886253Y-104405858D01*
X78065858Y-104226253D01*
X78080000Y-104240395D01*
X78707352Y-103613043D01*
X78629778Y-103447230D01*
X78534791Y-103405239D01*
X78606729Y-103375441D01*
X78788858Y-103253746D01*
X78943746Y-103098858D01*
X79043418Y-102949689D01*
X79049013Y-102977819D01*
X79107887Y-103119952D01*
X79193358Y-103247869D01*
X79302141Y-103356652D01*
X79430058Y-103442123D01*
X79546496Y-103490354D01*
X79546495Y-104003994D01*
X79495853Y-104054636D01*
X79410382Y-104182553D01*
X79351508Y-104324686D01*
X79321495Y-104475573D01*
X79321495Y-104629417D01*
X79351508Y-104780304D01*
X79410382Y-104922437D01*
X79495853Y-105050354D01*
X79604636Y-105159137D01*
X79732553Y-105244608D01*
X79874686Y-105303482D01*
X80025573Y-105333495D01*
X80179417Y-105333495D01*
X80330304Y-105303482D01*
X80472437Y-105244608D01*
X80600354Y-105159137D01*
X80686035Y-105073456D01*
X80700312Y-105156410D01*
X80780526Y-105365206D01*
X80808392Y-105417339D01*
X80976607Y-105497769D01*
X81620784Y-104853592D01*
X80976607Y-104209415D01*
X80833982Y-104277609D01*
X80794608Y-104182553D01*
X80709137Y-104054636D01*
X80658495Y-104003994D01*
X80658495Y-103079810D01*
X80661184Y-103052505D01*
X80658495Y-103025200D01*
X80658495Y-103025193D01*
X80650450Y-102943510D01*
X80639644Y-102907887D01*
X80618657Y-102838703D01*
X80585831Y-102777290D01*
X80581000Y-102768251D01*
X80581000Y-102673088D01*
X80552737Y-102531000D01*
X80698855Y-102531000D01*
X80664889Y-102701755D01*
G37*
G04 #@! TD.AperFunction*
D34*
X137698000Y-109877606D02*
X137698000Y-112130000D01*
X137700440Y-112154776D01*
X137707667Y-112178601D01*
X137719403Y-112200557D01*
X137735197Y-112219803D01*
X138595197Y-113079803D01*
X138614443Y-113095597D01*
X138636399Y-113107333D01*
X138660224Y-113114560D01*
X138685000Y-113117000D01*
X139887394Y-113117000D01*
X140535197Y-113764803D01*
X140554443Y-113780597D01*
X140576399Y-113792333D01*
X140600224Y-113799560D01*
X140625000Y-113802000D01*
X142287394Y-113802000D01*
X142928000Y-114442606D01*
X142928000Y-122544000D01*
X136322399Y-122544000D01*
X136300000Y-122541794D01*
X136277601Y-122544000D01*
X136210608Y-122550598D01*
X136124652Y-122576673D01*
X136045434Y-122619016D01*
X135975999Y-122675999D01*
X135919016Y-122745434D01*
X135876673Y-122824652D01*
X135850598Y-122910608D01*
X135841794Y-123000000D01*
X135844000Y-123022399D01*
X135844001Y-126084000D01*
X133024338Y-126084000D01*
X133028869Y-126082075D01*
X133259996Y-125924601D01*
X133455961Y-125725062D01*
X133609232Y-125491126D01*
X133713919Y-125231783D01*
X133766000Y-124957000D01*
X133766000Y-124197000D01*
X132472000Y-124197000D01*
X132472000Y-124217000D01*
X132218000Y-124217000D01*
X132218000Y-124197000D01*
X130924000Y-124197000D01*
X130924000Y-124957000D01*
X130976081Y-125231783D01*
X131080768Y-125491126D01*
X131234039Y-125725062D01*
X131430004Y-125924601D01*
X131661131Y-126082075D01*
X131665662Y-126084000D01*
X131093606Y-126084000D01*
X130342000Y-125332394D01*
X130342000Y-123183000D01*
X130924000Y-123183000D01*
X130924000Y-123943000D01*
X132218000Y-123943000D01*
X132218000Y-121990347D01*
X132472000Y-121990347D01*
X132472000Y-123943000D01*
X133766000Y-123943000D01*
X133766000Y-123183000D01*
X133713919Y-122908217D01*
X133609232Y-122648874D01*
X133455961Y-122414938D01*
X133259996Y-122215399D01*
X133028869Y-122057925D01*
X132771461Y-121948567D01*
X132691840Y-121931979D01*
X132472000Y-121990347D01*
X132218000Y-121990347D01*
X131998160Y-121931979D01*
X131918539Y-121948567D01*
X131661131Y-122057925D01*
X131430004Y-122215399D01*
X131234039Y-122414938D01*
X131080768Y-122648874D01*
X130976081Y-122908217D01*
X130924000Y-123183000D01*
X130342000Y-123183000D01*
X130342000Y-119117000D01*
X130924000Y-119117000D01*
X130924000Y-119877000D01*
X130976081Y-120151783D01*
X131080768Y-120411126D01*
X131234039Y-120645062D01*
X131430004Y-120844601D01*
X131661131Y-121002075D01*
X131918539Y-121111433D01*
X131998160Y-121128021D01*
X132218000Y-121069653D01*
X132218000Y-119117000D01*
X132472000Y-119117000D01*
X132472000Y-121069653D01*
X132691840Y-121128021D01*
X132771461Y-121111433D01*
X133028869Y-121002075D01*
X133259996Y-120844601D01*
X133455961Y-120645062D01*
X133609232Y-120411126D01*
X133713919Y-120151783D01*
X133766000Y-119877000D01*
X133766000Y-119117000D01*
X132472000Y-119117000D01*
X132218000Y-119117000D01*
X130924000Y-119117000D01*
X130342000Y-119117000D01*
X130342000Y-118103000D01*
X130924000Y-118103000D01*
X130924000Y-118863000D01*
X132218000Y-118863000D01*
X132218000Y-116910347D01*
X132472000Y-116910347D01*
X132472000Y-118863000D01*
X133766000Y-118863000D01*
X133766000Y-118103000D01*
X133713919Y-117828217D01*
X133609232Y-117568874D01*
X133455961Y-117334938D01*
X133259996Y-117135399D01*
X133028869Y-116977925D01*
X132771461Y-116868567D01*
X132691840Y-116851979D01*
X132472000Y-116910347D01*
X132218000Y-116910347D01*
X131998160Y-116851979D01*
X131918539Y-116868567D01*
X131661131Y-116977925D01*
X131430004Y-117135399D01*
X131234039Y-117334938D01*
X131080768Y-117568874D01*
X130976081Y-117828217D01*
X130924000Y-118103000D01*
X130342000Y-118103000D01*
X130342000Y-116382622D01*
X138116983Y-116382622D01*
X138257325Y-116601554D01*
X138546259Y-116742043D01*
X138857050Y-116823465D01*
X139177753Y-116842690D01*
X139496044Y-116798980D01*
X139799693Y-116694014D01*
X139972675Y-116601554D01*
X140113017Y-116382622D01*
X139922402Y-116192007D01*
X139929662Y-116179267D01*
X139110000Y-115359605D01*
X138290338Y-116179267D01*
X138301228Y-116198377D01*
X138116983Y-116382622D01*
X130342000Y-116382622D01*
X130342000Y-115267753D01*
X137477310Y-115267753D01*
X137521020Y-115586044D01*
X137625986Y-115889693D01*
X137718446Y-116062675D01*
X137937378Y-116203017D01*
X138935395Y-115205000D01*
X138920395Y-115190000D01*
X138930395Y-115180000D01*
X139289605Y-115180000D01*
X139304605Y-115195000D01*
X139294605Y-115205000D01*
X140292622Y-116203017D01*
X140511554Y-116062675D01*
X140652043Y-115773741D01*
X140733465Y-115462950D01*
X140752690Y-115142247D01*
X140708980Y-114823956D01*
X140604014Y-114520307D01*
X140511554Y-114347325D01*
X140292622Y-114206983D01*
X140128377Y-114371228D01*
X140109267Y-114360338D01*
X139289605Y-115180000D01*
X138930395Y-115180000D01*
X138110733Y-114360338D01*
X138097993Y-114367598D01*
X137937378Y-114206983D01*
X137718446Y-114347325D01*
X137577957Y-114636259D01*
X137496535Y-114947050D01*
X137477310Y-115267753D01*
X130342000Y-115267753D01*
X130342000Y-114027378D01*
X138116983Y-114027378D01*
X139115000Y-115025395D01*
X140113017Y-114027378D01*
X139972675Y-113808446D01*
X139683741Y-113667957D01*
X139372950Y-113586535D01*
X139052247Y-113567310D01*
X138733956Y-113611020D01*
X138430307Y-113715986D01*
X138257325Y-113808446D01*
X138116983Y-114027378D01*
X130342000Y-114027378D01*
X130342000Y-111395000D01*
X131632157Y-111395000D01*
X131639513Y-111469689D01*
X131661299Y-111541508D01*
X131696678Y-111607696D01*
X131744289Y-111665711D01*
X131802304Y-111713322D01*
X131868492Y-111748701D01*
X131940311Y-111770487D01*
X132015000Y-111777843D01*
X133592750Y-111776000D01*
X133688000Y-111680750D01*
X133688000Y-110482000D01*
X133942000Y-110482000D01*
X133942000Y-111680750D01*
X134037250Y-111776000D01*
X135615000Y-111777843D01*
X135689689Y-111770487D01*
X135761508Y-111748701D01*
X135827696Y-111713322D01*
X135885711Y-111665711D01*
X135933322Y-111607696D01*
X135968701Y-111541508D01*
X135990487Y-111469689D01*
X135997843Y-111395000D01*
X135996000Y-110577250D01*
X135900750Y-110482000D01*
X133942000Y-110482000D01*
X133688000Y-110482000D01*
X131729250Y-110482000D01*
X131634000Y-110577250D01*
X131632157Y-111395000D01*
X130342000Y-111395000D01*
X130342000Y-109315000D01*
X131632157Y-109315000D01*
X131634000Y-110132750D01*
X131729250Y-110228000D01*
X133688000Y-110228000D01*
X133688000Y-109029250D01*
X133942000Y-109029250D01*
X133942000Y-110228000D01*
X135900750Y-110228000D01*
X135996000Y-110132750D01*
X135997843Y-109315000D01*
X135990487Y-109240311D01*
X135968701Y-109168492D01*
X135933322Y-109102304D01*
X135885711Y-109044289D01*
X135827696Y-108996678D01*
X135761508Y-108961299D01*
X135689689Y-108939513D01*
X135615000Y-108932157D01*
X134037250Y-108934000D01*
X133942000Y-109029250D01*
X133688000Y-109029250D01*
X133592750Y-108934000D01*
X132015000Y-108932157D01*
X131940311Y-108939513D01*
X131868492Y-108961299D01*
X131802304Y-108996678D01*
X131744289Y-109044289D01*
X131696678Y-109102304D01*
X131661299Y-109168492D01*
X131639513Y-109240311D01*
X131632157Y-109315000D01*
X130342000Y-109315000D01*
X130342000Y-109292606D01*
X131072606Y-108562000D01*
X136382394Y-108562000D01*
X137698000Y-109877606D01*
G04 #@! TA.AperFunction,Conductor*
D35*
G36*
X137698000Y-109877606D02*
G01*
X137698000Y-112130000D01*
X137700440Y-112154776D01*
X137707667Y-112178601D01*
X137719403Y-112200557D01*
X137735197Y-112219803D01*
X138595197Y-113079803D01*
X138614443Y-113095597D01*
X138636399Y-113107333D01*
X138660224Y-113114560D01*
X138685000Y-113117000D01*
X139887394Y-113117000D01*
X140535197Y-113764803D01*
X140554443Y-113780597D01*
X140576399Y-113792333D01*
X140600224Y-113799560D01*
X140625000Y-113802000D01*
X142287394Y-113802000D01*
X142928000Y-114442606D01*
X142928000Y-122544000D01*
X136322399Y-122544000D01*
X136300000Y-122541794D01*
X136277601Y-122544000D01*
X136210608Y-122550598D01*
X136124652Y-122576673D01*
X136045434Y-122619016D01*
X135975999Y-122675999D01*
X135919016Y-122745434D01*
X135876673Y-122824652D01*
X135850598Y-122910608D01*
X135841794Y-123000000D01*
X135844000Y-123022399D01*
X135844001Y-126084000D01*
X133024338Y-126084000D01*
X133028869Y-126082075D01*
X133259996Y-125924601D01*
X133455961Y-125725062D01*
X133609232Y-125491126D01*
X133713919Y-125231783D01*
X133766000Y-124957000D01*
X133766000Y-124197000D01*
X132472000Y-124197000D01*
X132472000Y-124217000D01*
X132218000Y-124217000D01*
X132218000Y-124197000D01*
X130924000Y-124197000D01*
X130924000Y-124957000D01*
X130976081Y-125231783D01*
X131080768Y-125491126D01*
X131234039Y-125725062D01*
X131430004Y-125924601D01*
X131661131Y-126082075D01*
X131665662Y-126084000D01*
X131093606Y-126084000D01*
X130342000Y-125332394D01*
X130342000Y-123183000D01*
X130924000Y-123183000D01*
X130924000Y-123943000D01*
X132218000Y-123943000D01*
X132218000Y-121990347D01*
X132472000Y-121990347D01*
X132472000Y-123943000D01*
X133766000Y-123943000D01*
X133766000Y-123183000D01*
X133713919Y-122908217D01*
X133609232Y-122648874D01*
X133455961Y-122414938D01*
X133259996Y-122215399D01*
X133028869Y-122057925D01*
X132771461Y-121948567D01*
X132691840Y-121931979D01*
X132472000Y-121990347D01*
X132218000Y-121990347D01*
X131998160Y-121931979D01*
X131918539Y-121948567D01*
X131661131Y-122057925D01*
X131430004Y-122215399D01*
X131234039Y-122414938D01*
X131080768Y-122648874D01*
X130976081Y-122908217D01*
X130924000Y-123183000D01*
X130342000Y-123183000D01*
X130342000Y-119117000D01*
X130924000Y-119117000D01*
X130924000Y-119877000D01*
X130976081Y-120151783D01*
X131080768Y-120411126D01*
X131234039Y-120645062D01*
X131430004Y-120844601D01*
X131661131Y-121002075D01*
X131918539Y-121111433D01*
X131998160Y-121128021D01*
X132218000Y-121069653D01*
X132218000Y-119117000D01*
X132472000Y-119117000D01*
X132472000Y-121069653D01*
X132691840Y-121128021D01*
X132771461Y-121111433D01*
X133028869Y-121002075D01*
X133259996Y-120844601D01*
X133455961Y-120645062D01*
X133609232Y-120411126D01*
X133713919Y-120151783D01*
X133766000Y-119877000D01*
X133766000Y-119117000D01*
X132472000Y-119117000D01*
X132218000Y-119117000D01*
X130924000Y-119117000D01*
X130342000Y-119117000D01*
X130342000Y-118103000D01*
X130924000Y-118103000D01*
X130924000Y-118863000D01*
X132218000Y-118863000D01*
X132218000Y-116910347D01*
X132472000Y-116910347D01*
X132472000Y-118863000D01*
X133766000Y-118863000D01*
X133766000Y-118103000D01*
X133713919Y-117828217D01*
X133609232Y-117568874D01*
X133455961Y-117334938D01*
X133259996Y-117135399D01*
X133028869Y-116977925D01*
X132771461Y-116868567D01*
X132691840Y-116851979D01*
X132472000Y-116910347D01*
X132218000Y-116910347D01*
X131998160Y-116851979D01*
X131918539Y-116868567D01*
X131661131Y-116977925D01*
X131430004Y-117135399D01*
X131234039Y-117334938D01*
X131080768Y-117568874D01*
X130976081Y-117828217D01*
X130924000Y-118103000D01*
X130342000Y-118103000D01*
X130342000Y-116382622D01*
X138116983Y-116382622D01*
X138257325Y-116601554D01*
X138546259Y-116742043D01*
X138857050Y-116823465D01*
X139177753Y-116842690D01*
X139496044Y-116798980D01*
X139799693Y-116694014D01*
X139972675Y-116601554D01*
X140113017Y-116382622D01*
X139922402Y-116192007D01*
X139929662Y-116179267D01*
X139110000Y-115359605D01*
X138290338Y-116179267D01*
X138301228Y-116198377D01*
X138116983Y-116382622D01*
X130342000Y-116382622D01*
X130342000Y-115267753D01*
X137477310Y-115267753D01*
X137521020Y-115586044D01*
X137625986Y-115889693D01*
X137718446Y-116062675D01*
X137937378Y-116203017D01*
X138935395Y-115205000D01*
X138920395Y-115190000D01*
X138930395Y-115180000D01*
X139289605Y-115180000D01*
X139304605Y-115195000D01*
X139294605Y-115205000D01*
X140292622Y-116203017D01*
X140511554Y-116062675D01*
X140652043Y-115773741D01*
X140733465Y-115462950D01*
X140752690Y-115142247D01*
X140708980Y-114823956D01*
X140604014Y-114520307D01*
X140511554Y-114347325D01*
X140292622Y-114206983D01*
X140128377Y-114371228D01*
X140109267Y-114360338D01*
X139289605Y-115180000D01*
X138930395Y-115180000D01*
X138110733Y-114360338D01*
X138097993Y-114367598D01*
X137937378Y-114206983D01*
X137718446Y-114347325D01*
X137577957Y-114636259D01*
X137496535Y-114947050D01*
X137477310Y-115267753D01*
X130342000Y-115267753D01*
X130342000Y-114027378D01*
X138116983Y-114027378D01*
X139115000Y-115025395D01*
X140113017Y-114027378D01*
X139972675Y-113808446D01*
X139683741Y-113667957D01*
X139372950Y-113586535D01*
X139052247Y-113567310D01*
X138733956Y-113611020D01*
X138430307Y-113715986D01*
X138257325Y-113808446D01*
X138116983Y-114027378D01*
X130342000Y-114027378D01*
X130342000Y-111395000D01*
X131632157Y-111395000D01*
X131639513Y-111469689D01*
X131661299Y-111541508D01*
X131696678Y-111607696D01*
X131744289Y-111665711D01*
X131802304Y-111713322D01*
X131868492Y-111748701D01*
X131940311Y-111770487D01*
X132015000Y-111777843D01*
X133592750Y-111776000D01*
X133688000Y-111680750D01*
X133688000Y-110482000D01*
X133942000Y-110482000D01*
X133942000Y-111680750D01*
X134037250Y-111776000D01*
X135615000Y-111777843D01*
X135689689Y-111770487D01*
X135761508Y-111748701D01*
X135827696Y-111713322D01*
X135885711Y-111665711D01*
X135933322Y-111607696D01*
X135968701Y-111541508D01*
X135990487Y-111469689D01*
X135997843Y-111395000D01*
X135996000Y-110577250D01*
X135900750Y-110482000D01*
X133942000Y-110482000D01*
X133688000Y-110482000D01*
X131729250Y-110482000D01*
X131634000Y-110577250D01*
X131632157Y-111395000D01*
X130342000Y-111395000D01*
X130342000Y-109315000D01*
X131632157Y-109315000D01*
X131634000Y-110132750D01*
X131729250Y-110228000D01*
X133688000Y-110228000D01*
X133688000Y-109029250D01*
X133942000Y-109029250D01*
X133942000Y-110228000D01*
X135900750Y-110228000D01*
X135996000Y-110132750D01*
X135997843Y-109315000D01*
X135990487Y-109240311D01*
X135968701Y-109168492D01*
X135933322Y-109102304D01*
X135885711Y-109044289D01*
X135827696Y-108996678D01*
X135761508Y-108961299D01*
X135689689Y-108939513D01*
X135615000Y-108932157D01*
X134037250Y-108934000D01*
X133942000Y-109029250D01*
X133688000Y-109029250D01*
X133592750Y-108934000D01*
X132015000Y-108932157D01*
X131940311Y-108939513D01*
X131868492Y-108961299D01*
X131802304Y-108996678D01*
X131744289Y-109044289D01*
X131696678Y-109102304D01*
X131661299Y-109168492D01*
X131639513Y-109240311D01*
X131632157Y-109315000D01*
X130342000Y-109315000D01*
X130342000Y-109292606D01*
X131072606Y-108562000D01*
X136382394Y-108562000D01*
X137698000Y-109877606D01*
G37*
G04 #@! TD.AperFunction*
D34*
X140679260Y-101423866D02*
X140666759Y-101436367D01*
X140737376Y-101506984D01*
X140518446Y-101647325D01*
X140377957Y-101936259D01*
X140296535Y-102247050D01*
X140277310Y-102567753D01*
X140321020Y-102886044D01*
X140425986Y-103189693D01*
X140518446Y-103362675D01*
X140737378Y-103503017D01*
X141735395Y-102505000D01*
X141721253Y-102490858D01*
X141733752Y-102478358D01*
X141941642Y-102686248D01*
X141929143Y-102698748D01*
X141915000Y-102684605D01*
X140916983Y-103682622D01*
X141001712Y-103814798D01*
X140868393Y-103835023D01*
X140612565Y-103927510D01*
X140500510Y-103987404D01*
X140390338Y-104180733D01*
X141210000Y-105000395D01*
X142029662Y-104180733D01*
X142005789Y-104138840D01*
X142296044Y-104098980D01*
X142599693Y-103994014D01*
X142772675Y-103901554D01*
X142913016Y-103682624D01*
X142983633Y-103753241D01*
X142996134Y-103740740D01*
X143008000Y-103752606D01*
X143008000Y-110237394D01*
X141827394Y-111418000D01*
X140427606Y-111418000D01*
X139672000Y-110662394D01*
X139672000Y-108965000D01*
X139669560Y-108940224D01*
X139662333Y-108916399D01*
X139650597Y-108894443D01*
X139634803Y-108875197D01*
X139367445Y-108607839D01*
X140411766Y-108607839D01*
X140509840Y-108790933D01*
X140739065Y-108896427D01*
X140984466Y-108955174D01*
X141236614Y-108964916D01*
X141485816Y-108925280D01*
X141722498Y-108837788D01*
X141810160Y-108790933D01*
X141908234Y-108607839D01*
X141160000Y-107859605D01*
X140411766Y-108607839D01*
X139367445Y-108607839D01*
X138516220Y-107756614D01*
X139875084Y-107756614D01*
X139914720Y-108005816D01*
X140002212Y-108242498D01*
X140049067Y-108330160D01*
X140232161Y-108428234D01*
X140980395Y-107680000D01*
X141339605Y-107680000D01*
X142087839Y-108428234D01*
X142270933Y-108330160D01*
X142376427Y-108100935D01*
X142435174Y-107855534D01*
X142444916Y-107603386D01*
X142405280Y-107354184D01*
X142317788Y-107117502D01*
X142270933Y-107029840D01*
X142087839Y-106931766D01*
X141339605Y-107680000D01*
X140980395Y-107680000D01*
X140232161Y-106931766D01*
X140049067Y-107029840D01*
X139943573Y-107259065D01*
X139884826Y-107504466D01*
X139875084Y-107756614D01*
X138516220Y-107756614D01*
X137569803Y-106810197D01*
X137550557Y-106794403D01*
X137528601Y-106782667D01*
X137504776Y-106775440D01*
X137480000Y-106773000D01*
X131092606Y-106773000D01*
X130092000Y-105772394D01*
X130092000Y-105621840D01*
X131676979Y-105621840D01*
X131693567Y-105701461D01*
X131802925Y-105958869D01*
X131960399Y-106189996D01*
X132159938Y-106385961D01*
X132393874Y-106539232D01*
X132653217Y-106643919D01*
X132928000Y-106696000D01*
X133688000Y-106696000D01*
X133688000Y-105402000D01*
X133942000Y-105402000D01*
X133942000Y-106696000D01*
X134702000Y-106696000D01*
X134976783Y-106643919D01*
X135236126Y-106539232D01*
X135470062Y-106385961D01*
X135669601Y-106189996D01*
X135676911Y-106179267D01*
X140390338Y-106179267D01*
X140500510Y-106372596D01*
X140721675Y-106476310D01*
X140597502Y-106522212D01*
X140509840Y-106569067D01*
X140411766Y-106752161D01*
X141160000Y-107500395D01*
X141908234Y-106752161D01*
X141810160Y-106569067D01*
X141642757Y-106492025D01*
X141807435Y-106432490D01*
X141919490Y-106372596D01*
X142029662Y-106179267D01*
X141210000Y-105359605D01*
X140390338Y-106179267D01*
X135676911Y-106179267D01*
X135827075Y-105958869D01*
X135936433Y-105701461D01*
X135953021Y-105621840D01*
X135894653Y-105402000D01*
X133942000Y-105402000D01*
X133688000Y-105402000D01*
X131735347Y-105402000D01*
X131676979Y-105621840D01*
X130092000Y-105621840D01*
X130092000Y-105252651D01*
X139824222Y-105252651D01*
X139865023Y-105521607D01*
X139957510Y-105777435D01*
X140017404Y-105889490D01*
X140210733Y-105999662D01*
X141030395Y-105180000D01*
X141389605Y-105180000D01*
X142209267Y-105999662D01*
X142402596Y-105889490D01*
X142518095Y-105643194D01*
X142583324Y-105379097D01*
X142595778Y-105107349D01*
X142554977Y-104838393D01*
X142462490Y-104582565D01*
X142402596Y-104470510D01*
X142209267Y-104360338D01*
X141389605Y-105180000D01*
X141030395Y-105180000D01*
X140210733Y-104360338D01*
X140017404Y-104470510D01*
X139901905Y-104716806D01*
X139836676Y-104980903D01*
X139824222Y-105252651D01*
X130092000Y-105252651D01*
X130092000Y-104928160D01*
X131676979Y-104928160D01*
X131735347Y-105148000D01*
X133688000Y-105148000D01*
X133688000Y-103854000D01*
X133942000Y-103854000D01*
X133942000Y-105148000D01*
X135894653Y-105148000D01*
X135953021Y-104928160D01*
X135936433Y-104848539D01*
X135827075Y-104591131D01*
X135669601Y-104360004D01*
X135470062Y-104164039D01*
X135236126Y-104010768D01*
X134976783Y-103906081D01*
X134702000Y-103854000D01*
X133942000Y-103854000D01*
X133688000Y-103854000D01*
X132928000Y-103854000D01*
X132653217Y-103906081D01*
X132393874Y-104010768D01*
X132159938Y-104164039D01*
X131960399Y-104360004D01*
X131802925Y-104591131D01*
X131693567Y-104848539D01*
X131676979Y-104928160D01*
X130092000Y-104928160D01*
X130092000Y-100541840D01*
X131676979Y-100541840D01*
X131693567Y-100621461D01*
X131802925Y-100878869D01*
X131960399Y-101109996D01*
X132159938Y-101305961D01*
X132393874Y-101459232D01*
X132653217Y-101563919D01*
X132928000Y-101616000D01*
X133688000Y-101616000D01*
X133688000Y-100322000D01*
X133942000Y-100322000D01*
X133942000Y-101616000D01*
X134702000Y-101616000D01*
X134976783Y-101563919D01*
X135236126Y-101459232D01*
X135470062Y-101305961D01*
X135669601Y-101109996D01*
X135827075Y-100878869D01*
X135936433Y-100621461D01*
X135953021Y-100541840D01*
X135894653Y-100322000D01*
X133942000Y-100322000D01*
X133688000Y-100322000D01*
X131735347Y-100322000D01*
X131676979Y-100541840D01*
X130092000Y-100541840D01*
X130092000Y-100007606D01*
X130251446Y-99848160D01*
X131676979Y-99848160D01*
X131735347Y-100068000D01*
X133688000Y-100068000D01*
X133688000Y-98774000D01*
X133942000Y-98774000D01*
X133942000Y-100068000D01*
X135894653Y-100068000D01*
X135953021Y-99848160D01*
X135936433Y-99768539D01*
X135827075Y-99511131D01*
X135669601Y-99280004D01*
X135470062Y-99084039D01*
X135236126Y-98930768D01*
X134976783Y-98826081D01*
X134702000Y-98774000D01*
X133942000Y-98774000D01*
X133688000Y-98774000D01*
X132928000Y-98774000D01*
X132653217Y-98826081D01*
X132393874Y-98930768D01*
X132159938Y-99084039D01*
X131960399Y-99280004D01*
X131802925Y-99511131D01*
X131693567Y-99768539D01*
X131676979Y-99848160D01*
X130251446Y-99848160D01*
X131877606Y-98222000D01*
X137477394Y-98222000D01*
X140679260Y-101423866D01*
G04 #@! TA.AperFunction,Conductor*
D35*
G36*
X140679260Y-101423866D02*
G01*
X140666759Y-101436367D01*
X140737376Y-101506984D01*
X140518446Y-101647325D01*
X140377957Y-101936259D01*
X140296535Y-102247050D01*
X140277310Y-102567753D01*
X140321020Y-102886044D01*
X140425986Y-103189693D01*
X140518446Y-103362675D01*
X140737378Y-103503017D01*
X141735395Y-102505000D01*
X141721253Y-102490858D01*
X141733752Y-102478358D01*
X141941642Y-102686248D01*
X141929143Y-102698748D01*
X141915000Y-102684605D01*
X140916983Y-103682622D01*
X141001712Y-103814798D01*
X140868393Y-103835023D01*
X140612565Y-103927510D01*
X140500510Y-103987404D01*
X140390338Y-104180733D01*
X141210000Y-105000395D01*
X142029662Y-104180733D01*
X142005789Y-104138840D01*
X142296044Y-104098980D01*
X142599693Y-103994014D01*
X142772675Y-103901554D01*
X142913016Y-103682624D01*
X142983633Y-103753241D01*
X142996134Y-103740740D01*
X143008000Y-103752606D01*
X143008000Y-110237394D01*
X141827394Y-111418000D01*
X140427606Y-111418000D01*
X139672000Y-110662394D01*
X139672000Y-108965000D01*
X139669560Y-108940224D01*
X139662333Y-108916399D01*
X139650597Y-108894443D01*
X139634803Y-108875197D01*
X139367445Y-108607839D01*
X140411766Y-108607839D01*
X140509840Y-108790933D01*
X140739065Y-108896427D01*
X140984466Y-108955174D01*
X141236614Y-108964916D01*
X141485816Y-108925280D01*
X141722498Y-108837788D01*
X141810160Y-108790933D01*
X141908234Y-108607839D01*
X141160000Y-107859605D01*
X140411766Y-108607839D01*
X139367445Y-108607839D01*
X138516220Y-107756614D01*
X139875084Y-107756614D01*
X139914720Y-108005816D01*
X140002212Y-108242498D01*
X140049067Y-108330160D01*
X140232161Y-108428234D01*
X140980395Y-107680000D01*
X141339605Y-107680000D01*
X142087839Y-108428234D01*
X142270933Y-108330160D01*
X142376427Y-108100935D01*
X142435174Y-107855534D01*
X142444916Y-107603386D01*
X142405280Y-107354184D01*
X142317788Y-107117502D01*
X142270933Y-107029840D01*
X142087839Y-106931766D01*
X141339605Y-107680000D01*
X140980395Y-107680000D01*
X140232161Y-106931766D01*
X140049067Y-107029840D01*
X139943573Y-107259065D01*
X139884826Y-107504466D01*
X139875084Y-107756614D01*
X138516220Y-107756614D01*
X137569803Y-106810197D01*
X137550557Y-106794403D01*
X137528601Y-106782667D01*
X137504776Y-106775440D01*
X137480000Y-106773000D01*
X131092606Y-106773000D01*
X130092000Y-105772394D01*
X130092000Y-105621840D01*
X131676979Y-105621840D01*
X131693567Y-105701461D01*
X131802925Y-105958869D01*
X131960399Y-106189996D01*
X132159938Y-106385961D01*
X132393874Y-106539232D01*
X132653217Y-106643919D01*
X132928000Y-106696000D01*
X133688000Y-106696000D01*
X133688000Y-105402000D01*
X133942000Y-105402000D01*
X133942000Y-106696000D01*
X134702000Y-106696000D01*
X134976783Y-106643919D01*
X135236126Y-106539232D01*
X135470062Y-106385961D01*
X135669601Y-106189996D01*
X135676911Y-106179267D01*
X140390338Y-106179267D01*
X140500510Y-106372596D01*
X140721675Y-106476310D01*
X140597502Y-106522212D01*
X140509840Y-106569067D01*
X140411766Y-106752161D01*
X141160000Y-107500395D01*
X141908234Y-106752161D01*
X141810160Y-106569067D01*
X141642757Y-106492025D01*
X141807435Y-106432490D01*
X141919490Y-106372596D01*
X142029662Y-106179267D01*
X141210000Y-105359605D01*
X140390338Y-106179267D01*
X135676911Y-106179267D01*
X135827075Y-105958869D01*
X135936433Y-105701461D01*
X135953021Y-105621840D01*
X135894653Y-105402000D01*
X133942000Y-105402000D01*
X133688000Y-105402000D01*
X131735347Y-105402000D01*
X131676979Y-105621840D01*
X130092000Y-105621840D01*
X130092000Y-105252651D01*
X139824222Y-105252651D01*
X139865023Y-105521607D01*
X139957510Y-105777435D01*
X140017404Y-105889490D01*
X140210733Y-105999662D01*
X141030395Y-105180000D01*
X141389605Y-105180000D01*
X142209267Y-105999662D01*
X142402596Y-105889490D01*
X142518095Y-105643194D01*
X142583324Y-105379097D01*
X142595778Y-105107349D01*
X142554977Y-104838393D01*
X142462490Y-104582565D01*
X142402596Y-104470510D01*
X142209267Y-104360338D01*
X141389605Y-105180000D01*
X141030395Y-105180000D01*
X140210733Y-104360338D01*
X140017404Y-104470510D01*
X139901905Y-104716806D01*
X139836676Y-104980903D01*
X139824222Y-105252651D01*
X130092000Y-105252651D01*
X130092000Y-104928160D01*
X131676979Y-104928160D01*
X131735347Y-105148000D01*
X133688000Y-105148000D01*
X133688000Y-103854000D01*
X133942000Y-103854000D01*
X133942000Y-105148000D01*
X135894653Y-105148000D01*
X135953021Y-104928160D01*
X135936433Y-104848539D01*
X135827075Y-104591131D01*
X135669601Y-104360004D01*
X135470062Y-104164039D01*
X135236126Y-104010768D01*
X134976783Y-103906081D01*
X134702000Y-103854000D01*
X133942000Y-103854000D01*
X133688000Y-103854000D01*
X132928000Y-103854000D01*
X132653217Y-103906081D01*
X132393874Y-104010768D01*
X132159938Y-104164039D01*
X131960399Y-104360004D01*
X131802925Y-104591131D01*
X131693567Y-104848539D01*
X131676979Y-104928160D01*
X130092000Y-104928160D01*
X130092000Y-100541840D01*
X131676979Y-100541840D01*
X131693567Y-100621461D01*
X131802925Y-100878869D01*
X131960399Y-101109996D01*
X132159938Y-101305961D01*
X132393874Y-101459232D01*
X132653217Y-101563919D01*
X132928000Y-101616000D01*
X133688000Y-101616000D01*
X133688000Y-100322000D01*
X133942000Y-100322000D01*
X133942000Y-101616000D01*
X134702000Y-101616000D01*
X134976783Y-101563919D01*
X135236126Y-101459232D01*
X135470062Y-101305961D01*
X135669601Y-101109996D01*
X135827075Y-100878869D01*
X135936433Y-100621461D01*
X135953021Y-100541840D01*
X135894653Y-100322000D01*
X133942000Y-100322000D01*
X133688000Y-100322000D01*
X131735347Y-100322000D01*
X131676979Y-100541840D01*
X130092000Y-100541840D01*
X130092000Y-100007606D01*
X130251446Y-99848160D01*
X131676979Y-99848160D01*
X131735347Y-100068000D01*
X133688000Y-100068000D01*
X133688000Y-98774000D01*
X133942000Y-98774000D01*
X133942000Y-100068000D01*
X135894653Y-100068000D01*
X135953021Y-99848160D01*
X135936433Y-99768539D01*
X135827075Y-99511131D01*
X135669601Y-99280004D01*
X135470062Y-99084039D01*
X135236126Y-98930768D01*
X134976783Y-98826081D01*
X134702000Y-98774000D01*
X133942000Y-98774000D01*
X133688000Y-98774000D01*
X132928000Y-98774000D01*
X132653217Y-98826081D01*
X132393874Y-98930768D01*
X132159938Y-99084039D01*
X131960399Y-99280004D01*
X131802925Y-99511131D01*
X131693567Y-99768539D01*
X131676979Y-99848160D01*
X130251446Y-99848160D01*
X131877606Y-98222000D01*
X137477394Y-98222000D01*
X140679260Y-101423866D01*
G37*
G04 #@! TD.AperFunction*
D34*
X142017975Y-100622581D02*
X141862294Y-100611611D01*
X141493925Y-100658275D01*
X141141738Y-100775906D01*
X140906914Y-100901423D01*
X140781000Y-101191395D01*
X141915000Y-102325395D01*
X141929143Y-102311253D01*
X142108748Y-102490858D01*
X142094605Y-102505000D01*
X142108748Y-102519143D01*
X141929143Y-102698748D01*
X141915000Y-102684605D01*
X141900858Y-102698748D01*
X141721253Y-102519143D01*
X141735395Y-102505000D01*
X140601395Y-101371000D01*
X140311423Y-101496914D01*
X140145567Y-101829126D01*
X140047710Y-102187312D01*
X140029885Y-102440279D01*
X139217000Y-101627394D01*
X139217000Y-99967000D01*
X141362394Y-99967000D01*
X142017975Y-100622581D01*
G04 #@! TA.AperFunction,Conductor*
D35*
G36*
X142017975Y-100622581D02*
G01*
X141862294Y-100611611D01*
X141493925Y-100658275D01*
X141141738Y-100775906D01*
X140906914Y-100901423D01*
X140781000Y-101191395D01*
X141915000Y-102325395D01*
X141929143Y-102311253D01*
X142108748Y-102490858D01*
X142094605Y-102505000D01*
X142108748Y-102519143D01*
X141929143Y-102698748D01*
X141915000Y-102684605D01*
X141900858Y-102698748D01*
X141721253Y-102519143D01*
X141735395Y-102505000D01*
X140601395Y-101371000D01*
X140311423Y-101496914D01*
X140145567Y-101829126D01*
X140047710Y-102187312D01*
X140029885Y-102440279D01*
X139217000Y-101627394D01*
X139217000Y-99967000D01*
X141362394Y-99967000D01*
X142017975Y-100622581D01*
G37*
G04 #@! TD.AperFunction*
D34*
X91073000Y-73252606D02*
X91073000Y-74473000D01*
X72600000Y-74473000D01*
X72575224Y-74475440D01*
X72551399Y-74482667D01*
X72529443Y-74494403D01*
X72510197Y-74510197D01*
X72494403Y-74529443D01*
X72482667Y-74551399D01*
X72475440Y-74575224D01*
X72473000Y-74600000D01*
X72473000Y-96472499D01*
X72443358Y-96502141D01*
X72357887Y-96630058D01*
X72299013Y-96772191D01*
X72269000Y-96923078D01*
X72269000Y-97030053D01*
X71192971Y-98106083D01*
X71172711Y-98122710D01*
X71156084Y-98142970D01*
X71156083Y-98142971D01*
X71106354Y-98203565D01*
X71057047Y-98295813D01*
X71041996Y-98345430D01*
X71032516Y-98376683D01*
X71026684Y-98395907D01*
X71016432Y-98500000D01*
X71019001Y-98526084D01*
X71019000Y-100539611D01*
X71016432Y-100565685D01*
X71019000Y-100591759D01*
X71019000Y-100591768D01*
X71026683Y-100669778D01*
X71057047Y-100769872D01*
X71106354Y-100862120D01*
X71172710Y-100942975D01*
X71192975Y-100959606D01*
X72473000Y-102239632D01*
X72473000Y-110717283D01*
X72465313Y-110722419D01*
X72182419Y-111005313D01*
X71960151Y-111337961D01*
X71807050Y-111707579D01*
X71729000Y-112099964D01*
X71729000Y-112500036D01*
X71807050Y-112892421D01*
X71960151Y-113262039D01*
X72182419Y-113594687D01*
X72465313Y-113877581D01*
X72473000Y-113882717D01*
X72473000Y-116114000D01*
X67493606Y-116114000D01*
X66427000Y-115047394D01*
X66427000Y-111234323D01*
X66701561Y-111508884D01*
X67184194Y-111831369D01*
X67720467Y-112053500D01*
X68289771Y-112166742D01*
X68870229Y-112166742D01*
X69439533Y-112053500D01*
X69975806Y-111831369D01*
X70458439Y-111508884D01*
X70868884Y-111098439D01*
X71191369Y-110615806D01*
X71413500Y-110079533D01*
X71526742Y-109510229D01*
X71526742Y-108929771D01*
X71413500Y-108360467D01*
X71191369Y-107824194D01*
X70868884Y-107341561D01*
X70458439Y-106931116D01*
X69975806Y-106608631D01*
X69439533Y-106386500D01*
X68870229Y-106273258D01*
X68289771Y-106273258D01*
X67720467Y-106386500D01*
X67184194Y-106608631D01*
X66701561Y-106931116D01*
X66427000Y-107205677D01*
X66427000Y-81262323D01*
X66701561Y-81536884D01*
X67184194Y-81859369D01*
X67720467Y-82081500D01*
X68289771Y-82194742D01*
X68870229Y-82194742D01*
X69439533Y-82081500D01*
X69975806Y-81859369D01*
X70458439Y-81536884D01*
X70868884Y-81126439D01*
X71191369Y-80643806D01*
X71413500Y-80107533D01*
X71526742Y-79538229D01*
X71526742Y-78957771D01*
X71413500Y-78388467D01*
X71191369Y-77852194D01*
X70868884Y-77369561D01*
X70458439Y-76959116D01*
X69975806Y-76636631D01*
X69439533Y-76414500D01*
X68870229Y-76301258D01*
X68289771Y-76301258D01*
X67720467Y-76414500D01*
X67184194Y-76636631D01*
X66701561Y-76959116D01*
X66427000Y-77233677D01*
X66427000Y-73152606D01*
X67152606Y-72427000D01*
X90247394Y-72427000D01*
X91073000Y-73252606D01*
G04 #@! TA.AperFunction,Conductor*
D35*
G36*
X91073000Y-73252606D02*
G01*
X91073000Y-74473000D01*
X72600000Y-74473000D01*
X72575224Y-74475440D01*
X72551399Y-74482667D01*
X72529443Y-74494403D01*
X72510197Y-74510197D01*
X72494403Y-74529443D01*
X72482667Y-74551399D01*
X72475440Y-74575224D01*
X72473000Y-74600000D01*
X72473000Y-96472499D01*
X72443358Y-96502141D01*
X72357887Y-96630058D01*
X72299013Y-96772191D01*
X72269000Y-96923078D01*
X72269000Y-97030053D01*
X71192971Y-98106083D01*
X71172711Y-98122710D01*
X71156084Y-98142970D01*
X71156083Y-98142971D01*
X71106354Y-98203565D01*
X71057047Y-98295813D01*
X71041996Y-98345430D01*
X71032516Y-98376683D01*
X71026684Y-98395907D01*
X71016432Y-98500000D01*
X71019001Y-98526084D01*
X71019000Y-100539611D01*
X71016432Y-100565685D01*
X71019000Y-100591759D01*
X71019000Y-100591768D01*
X71026683Y-100669778D01*
X71057047Y-100769872D01*
X71106354Y-100862120D01*
X71172710Y-100942975D01*
X71192975Y-100959606D01*
X72473000Y-102239632D01*
X72473000Y-110717283D01*
X72465313Y-110722419D01*
X72182419Y-111005313D01*
X71960151Y-111337961D01*
X71807050Y-111707579D01*
X71729000Y-112099964D01*
X71729000Y-112500036D01*
X71807050Y-112892421D01*
X71960151Y-113262039D01*
X72182419Y-113594687D01*
X72465313Y-113877581D01*
X72473000Y-113882717D01*
X72473000Y-116114000D01*
X67493606Y-116114000D01*
X66427000Y-115047394D01*
X66427000Y-111234323D01*
X66701561Y-111508884D01*
X67184194Y-111831369D01*
X67720467Y-112053500D01*
X68289771Y-112166742D01*
X68870229Y-112166742D01*
X69439533Y-112053500D01*
X69975806Y-111831369D01*
X70458439Y-111508884D01*
X70868884Y-111098439D01*
X71191369Y-110615806D01*
X71413500Y-110079533D01*
X71526742Y-109510229D01*
X71526742Y-108929771D01*
X71413500Y-108360467D01*
X71191369Y-107824194D01*
X70868884Y-107341561D01*
X70458439Y-106931116D01*
X69975806Y-106608631D01*
X69439533Y-106386500D01*
X68870229Y-106273258D01*
X68289771Y-106273258D01*
X67720467Y-106386500D01*
X67184194Y-106608631D01*
X66701561Y-106931116D01*
X66427000Y-107205677D01*
X66427000Y-81262323D01*
X66701561Y-81536884D01*
X67184194Y-81859369D01*
X67720467Y-82081500D01*
X68289771Y-82194742D01*
X68870229Y-82194742D01*
X69439533Y-82081500D01*
X69975806Y-81859369D01*
X70458439Y-81536884D01*
X70868884Y-81126439D01*
X71191369Y-80643806D01*
X71413500Y-80107533D01*
X71526742Y-79538229D01*
X71526742Y-78957771D01*
X71413500Y-78388467D01*
X71191369Y-77852194D01*
X70868884Y-77369561D01*
X70458439Y-76959116D01*
X69975806Y-76636631D01*
X69439533Y-76414500D01*
X68870229Y-76301258D01*
X68289771Y-76301258D01*
X67720467Y-76414500D01*
X67184194Y-76636631D01*
X66701561Y-76959116D01*
X66427000Y-77233677D01*
X66427000Y-73152606D01*
X67152606Y-72427000D01*
X90247394Y-72427000D01*
X91073000Y-73252606D01*
G37*
G04 #@! TD.AperFunction*
M02*
