G04 #@! TF.GenerationSoftware,KiCad,Pcbnew,(5.1.9)-1*
G04 #@! TF.CreationDate,2022-09-19T13:39:08+02:00*
G04 #@! TF.ProjectId,Zusatzplatine,5a757361-747a-4706-9c61-74696e652e6b,1.0*
G04 #@! TF.SameCoordinates,Original*
G04 #@! TF.FileFunction,Soldermask,Bot*
G04 #@! TF.FilePolarity,Negative*
%FSLAX46Y46*%
G04 Gerber Fmt 4.6, Leading zero omitted, Abs format (unit mm)*
G04 Created by KiCad (PCBNEW (5.1.9)-1) date 2022-09-19 13:39:08*
%MOMM*%
%LPD*%
G01*
G04 APERTURE LIST*
%ADD10C,3.000000*%
%ADD11C,1.862000*%
%ADD12C,2.830000*%
%ADD13C,3.700000*%
%ADD14C,3.650000*%
%ADD15C,1.909000*%
%ADD16C,2.900000*%
%ADD17C,2.700000*%
%ADD18O,2.480000X4.000000*%
%ADD19O,4.000000X2.480000*%
%ADD20O,2.100000X2.100000*%
%ADD21C,2.400000*%
%ADD22C,2.000000*%
%ADD23C,2.200000*%
%ADD24C,0.200000*%
G04 APERTURE END LIST*
D10*
X68580000Y-109220000D03*
X123444000Y-79248000D03*
X68580000Y-79248000D03*
G36*
G01*
X111325000Y-110250000D02*
X110175000Y-110250000D01*
G75*
G02*
X109825000Y-109900000I0J350000D01*
G01*
X109825000Y-109200000D01*
G75*
G02*
X110175000Y-108850000I350000J0D01*
G01*
X111325000Y-108850000D01*
G75*
G02*
X111675000Y-109200000I0J-350000D01*
G01*
X111675000Y-109900000D01*
G75*
G02*
X111325000Y-110250000I-350000J0D01*
G01*
G37*
G36*
G01*
X111325000Y-112150000D02*
X110175000Y-112150000D01*
G75*
G02*
X109825000Y-111800000I0J350000D01*
G01*
X109825000Y-111100000D01*
G75*
G02*
X110175000Y-110750000I350000J0D01*
G01*
X111325000Y-110750000D01*
G75*
G02*
X111675000Y-111100000I0J-350000D01*
G01*
X111675000Y-111800000D01*
G75*
G02*
X111325000Y-112150000I-350000J0D01*
G01*
G37*
G36*
G01*
X109675000Y-106750000D02*
X110825000Y-106750000D01*
G75*
G02*
X111175000Y-107100000I0J-350000D01*
G01*
X111175000Y-107800000D01*
G75*
G02*
X110825000Y-108150000I-350000J0D01*
G01*
X109675000Y-108150000D01*
G75*
G02*
X109325000Y-107800000I0J350000D01*
G01*
X109325000Y-107100000D01*
G75*
G02*
X109675000Y-106750000I350000J0D01*
G01*
G37*
G36*
G01*
X109675000Y-104850000D02*
X110825000Y-104850000D01*
G75*
G02*
X111175000Y-105200000I0J-350000D01*
G01*
X111175000Y-105900000D01*
G75*
G02*
X110825000Y-106250000I-350000J0D01*
G01*
X109675000Y-106250000D01*
G75*
G02*
X109325000Y-105900000I0J350000D01*
G01*
X109325000Y-105200000D01*
G75*
G02*
X109675000Y-104850000I350000J0D01*
G01*
G37*
D11*
X76300000Y-109500000D03*
X78080000Y-108480000D03*
X76300000Y-107470000D03*
X78080000Y-106450000D03*
X76300000Y-105440000D03*
X78080000Y-104420000D03*
X76300000Y-103410000D03*
X78080000Y-102390000D03*
D12*
X77190000Y-97820000D03*
X77190000Y-114080000D03*
D13*
X73760000Y-112300000D03*
X73760000Y-99600000D03*
D14*
X80280389Y-99903592D03*
X80280389Y-111843592D03*
D15*
X81800389Y-106893592D03*
X83320389Y-103833592D03*
X83320389Y-107913592D03*
X83320389Y-109953592D03*
X81800389Y-108933592D03*
X81800389Y-102813592D03*
X81800389Y-104853592D03*
X83320389Y-105873592D03*
D16*
X139115000Y-115205000D03*
X141915000Y-102505000D03*
D17*
X107105000Y-91080000D03*
G36*
G01*
X136455000Y-90080000D02*
X136455000Y-92080000D01*
G75*
G02*
X136255000Y-92280000I-200000J0D01*
G01*
X133955000Y-92280000D01*
G75*
G02*
X133755000Y-92080000I0J200000D01*
G01*
X133755000Y-90080000D01*
G75*
G02*
X133955000Y-89880000I200000J0D01*
G01*
X136255000Y-89880000D01*
G75*
G02*
X136455000Y-90080000I0J-200000D01*
G01*
G37*
X135105000Y-75880000D03*
X107105000Y-83480000D03*
D18*
X132345000Y-118990000D03*
X127265000Y-118990000D03*
G36*
G01*
X120945000Y-120790000D02*
X120945000Y-117190000D01*
G75*
G02*
X121145000Y-116990000I200000J0D01*
G01*
X123225000Y-116990000D01*
G75*
G02*
X123425000Y-117190000I0J-200000D01*
G01*
X123425000Y-120790000D01*
G75*
G02*
X123225000Y-120990000I-200000J0D01*
G01*
X121145000Y-120990000D01*
G75*
G02*
X120945000Y-120790000I0J200000D01*
G01*
G37*
X122185000Y-124070000D03*
X127265000Y-124070000D03*
X132345000Y-124070000D03*
D19*
X133815000Y-100195000D03*
X133815000Y-105275000D03*
G36*
G01*
X135615000Y-111595000D02*
X132015000Y-111595000D01*
G75*
G02*
X131815000Y-111395000I0J200000D01*
G01*
X131815000Y-109315000D01*
G75*
G02*
X132015000Y-109115000I200000J0D01*
G01*
X135615000Y-109115000D01*
G75*
G02*
X135815000Y-109315000I0J-200000D01*
G01*
X135815000Y-111395000D01*
G75*
G02*
X135615000Y-111595000I-200000J0D01*
G01*
G37*
D20*
X75960000Y-82920000D03*
X78500000Y-82920000D03*
X75960000Y-85460000D03*
X78500000Y-85460000D03*
X75960000Y-88000000D03*
G36*
G01*
X79550000Y-87150000D02*
X79550000Y-88850000D01*
G75*
G02*
X79350000Y-89050000I-200000J0D01*
G01*
X77650000Y-89050000D01*
G75*
G02*
X77450000Y-88850000I0J200000D01*
G01*
X77450000Y-87150000D01*
G75*
G02*
X77650000Y-86950000I200000J0D01*
G01*
X79350000Y-86950000D01*
G75*
G02*
X79550000Y-87150000I0J-200000D01*
G01*
G37*
D21*
X141210000Y-105180000D03*
X139110000Y-115180000D03*
D22*
X139765000Y-96870000D03*
X141565000Y-91870000D03*
D23*
X139110000Y-115180000D03*
X141160000Y-107680000D03*
D24*
G36*
X109826990Y-111799804D02*
G01*
X109833695Y-111867887D01*
X109853499Y-111933170D01*
X109885657Y-111993334D01*
X109928934Y-112046066D01*
X109981666Y-112089343D01*
X110041830Y-112121501D01*
X110107113Y-112141305D01*
X110175196Y-112148010D01*
X110176822Y-112149175D01*
X110176626Y-112151165D01*
X110175000Y-112152000D01*
X110118640Y-112152000D01*
X110118444Y-112151990D01*
X110056332Y-112145873D01*
X110055947Y-112145797D01*
X110002131Y-112129472D01*
X110001769Y-112129322D01*
X109952166Y-112102808D01*
X109951840Y-112102590D01*
X109908365Y-112066912D01*
X109908088Y-112066635D01*
X109872410Y-112023160D01*
X109872192Y-112022834D01*
X109845678Y-111973231D01*
X109845528Y-111972869D01*
X109829203Y-111919053D01*
X109829127Y-111918668D01*
X109823010Y-111856556D01*
X109823000Y-111856360D01*
X109823000Y-111800000D01*
X109824000Y-111798268D01*
X109826000Y-111798268D01*
X109826990Y-111799804D01*
G37*
G36*
X111676165Y-111798374D02*
G01*
X111677000Y-111800000D01*
X111677000Y-111856360D01*
X111676990Y-111856556D01*
X111670873Y-111918668D01*
X111670797Y-111919053D01*
X111654472Y-111972869D01*
X111654322Y-111973231D01*
X111627808Y-112022834D01*
X111627590Y-112023160D01*
X111591912Y-112066635D01*
X111591635Y-112066912D01*
X111548160Y-112102590D01*
X111547834Y-112102808D01*
X111498231Y-112129322D01*
X111497869Y-112129472D01*
X111444053Y-112145797D01*
X111443668Y-112145873D01*
X111381556Y-112151990D01*
X111381360Y-112152000D01*
X111325000Y-112152000D01*
X111323268Y-112151000D01*
X111323268Y-112149000D01*
X111324804Y-112148010D01*
X111392887Y-112141305D01*
X111458170Y-112121501D01*
X111518334Y-112089343D01*
X111571066Y-112046066D01*
X111614343Y-111993334D01*
X111646501Y-111933170D01*
X111666305Y-111867887D01*
X111673010Y-111799804D01*
X111674175Y-111798178D01*
X111676165Y-111798374D01*
G37*
G36*
X110176732Y-110749000D02*
G01*
X110176732Y-110751000D01*
X110175196Y-110751990D01*
X110107113Y-110758695D01*
X110041830Y-110778499D01*
X109981666Y-110810657D01*
X109928934Y-110853934D01*
X109885657Y-110906666D01*
X109853499Y-110966830D01*
X109833695Y-111032113D01*
X109826990Y-111100196D01*
X109825825Y-111101822D01*
X109823835Y-111101626D01*
X109823000Y-111100000D01*
X109823000Y-111043640D01*
X109823010Y-111043444D01*
X109829127Y-110981332D01*
X109829203Y-110980947D01*
X109845528Y-110927131D01*
X109845678Y-110926769D01*
X109872192Y-110877166D01*
X109872410Y-110876840D01*
X109908088Y-110833365D01*
X109908365Y-110833088D01*
X109951840Y-110797410D01*
X109952166Y-110797192D01*
X110001769Y-110770678D01*
X110002131Y-110770528D01*
X110055947Y-110754203D01*
X110056332Y-110754127D01*
X110118444Y-110748010D01*
X110118640Y-110748000D01*
X110175000Y-110748000D01*
X110176732Y-110749000D01*
G37*
G36*
X111381556Y-110748010D02*
G01*
X111443668Y-110754127D01*
X111444053Y-110754203D01*
X111497869Y-110770528D01*
X111498231Y-110770678D01*
X111547834Y-110797192D01*
X111548160Y-110797410D01*
X111591635Y-110833088D01*
X111591912Y-110833365D01*
X111627590Y-110876840D01*
X111627808Y-110877166D01*
X111654322Y-110926769D01*
X111654472Y-110927131D01*
X111670797Y-110980947D01*
X111670873Y-110981332D01*
X111676990Y-111043444D01*
X111677000Y-111043640D01*
X111677000Y-111100000D01*
X111676000Y-111101732D01*
X111674000Y-111101732D01*
X111673010Y-111100196D01*
X111666305Y-111032113D01*
X111646501Y-110966830D01*
X111614343Y-110906666D01*
X111571066Y-110853934D01*
X111518334Y-110810657D01*
X111458170Y-110778499D01*
X111392887Y-110758695D01*
X111324804Y-110751990D01*
X111323178Y-110750825D01*
X111323374Y-110748835D01*
X111325000Y-110748000D01*
X111381360Y-110748000D01*
X111381556Y-110748010D01*
G37*
G36*
X111676165Y-109898374D02*
G01*
X111677000Y-109900000D01*
X111677000Y-109956360D01*
X111676990Y-109956556D01*
X111670873Y-110018668D01*
X111670797Y-110019053D01*
X111654472Y-110072869D01*
X111654322Y-110073231D01*
X111627808Y-110122834D01*
X111627590Y-110123160D01*
X111591912Y-110166635D01*
X111591635Y-110166912D01*
X111548160Y-110202590D01*
X111547834Y-110202808D01*
X111498231Y-110229322D01*
X111497869Y-110229472D01*
X111444053Y-110245797D01*
X111443668Y-110245873D01*
X111381556Y-110251990D01*
X111381360Y-110252000D01*
X111325000Y-110252000D01*
X111323268Y-110251000D01*
X111323268Y-110249000D01*
X111324804Y-110248010D01*
X111392887Y-110241305D01*
X111458170Y-110221501D01*
X111518334Y-110189343D01*
X111571066Y-110146066D01*
X111614343Y-110093334D01*
X111646501Y-110033170D01*
X111666305Y-109967887D01*
X111673010Y-109899804D01*
X111674175Y-109898178D01*
X111676165Y-109898374D01*
G37*
G36*
X109826990Y-109899804D02*
G01*
X109833695Y-109967887D01*
X109853499Y-110033170D01*
X109885657Y-110093334D01*
X109928934Y-110146066D01*
X109981666Y-110189343D01*
X110041830Y-110221501D01*
X110107113Y-110241305D01*
X110175196Y-110248010D01*
X110176822Y-110249175D01*
X110176626Y-110251165D01*
X110175000Y-110252000D01*
X110118640Y-110252000D01*
X110118444Y-110251990D01*
X110056332Y-110245873D01*
X110055947Y-110245797D01*
X110002131Y-110229472D01*
X110001769Y-110229322D01*
X109952166Y-110202808D01*
X109951840Y-110202590D01*
X109908365Y-110166912D01*
X109908088Y-110166635D01*
X109872410Y-110123160D01*
X109872192Y-110122834D01*
X109845678Y-110073231D01*
X109845528Y-110072869D01*
X109829203Y-110019053D01*
X109829127Y-110018668D01*
X109823010Y-109956556D01*
X109823000Y-109956360D01*
X109823000Y-109900000D01*
X109824000Y-109898268D01*
X109826000Y-109898268D01*
X109826990Y-109899804D01*
G37*
G36*
X82413275Y-109665486D02*
G01*
X82413191Y-109666769D01*
X82408913Y-109677097D01*
X82372485Y-109860234D01*
X82372485Y-109905680D01*
X82371485Y-109907412D01*
X82369485Y-109907412D01*
X82368495Y-109905876D01*
X82366715Y-109887801D01*
X82359715Y-109864726D01*
X82348350Y-109843462D01*
X82333055Y-109824825D01*
X82314418Y-109809530D01*
X82293154Y-109798165D01*
X82270079Y-109791165D01*
X82246088Y-109788802D01*
X82222097Y-109791165D01*
X82204715Y-109796438D01*
X82202767Y-109795984D01*
X82202186Y-109794070D01*
X82203369Y-109792676D01*
X82249390Y-109773613D01*
X82404643Y-109669876D01*
X82409929Y-109664590D01*
X82411861Y-109664072D01*
X82413275Y-109665486D01*
G37*
G36*
X77192116Y-108752337D02*
G01*
X77260704Y-108917923D01*
X77361881Y-109069346D01*
X77396395Y-109103860D01*
X77396913Y-109105792D01*
X77395499Y-109107206D01*
X77393712Y-109106820D01*
X77379674Y-109095299D01*
X77358410Y-109083934D01*
X77335335Y-109076934D01*
X77311344Y-109074571D01*
X77287353Y-109076934D01*
X77264278Y-109083934D01*
X77243014Y-109095299D01*
X77224377Y-109110594D01*
X77209082Y-109129231D01*
X77197717Y-109150495D01*
X77190717Y-109173570D01*
X77188354Y-109197561D01*
X77190727Y-109221646D01*
X77191694Y-109226508D01*
X77191051Y-109228402D01*
X77189089Y-109228792D01*
X77187884Y-109227663D01*
X77119296Y-109062077D01*
X77018119Y-108910654D01*
X76983605Y-108876140D01*
X76983087Y-108874208D01*
X76984501Y-108872794D01*
X76986288Y-108873180D01*
X77000326Y-108884701D01*
X77021590Y-108896066D01*
X77044665Y-108903066D01*
X77068656Y-108905429D01*
X77092647Y-108903066D01*
X77115722Y-108896066D01*
X77136986Y-108884701D01*
X77155623Y-108869406D01*
X77170918Y-108850769D01*
X77182283Y-108829505D01*
X77189283Y-108806430D01*
X77191646Y-108782439D01*
X77189273Y-108758354D01*
X77188306Y-108753492D01*
X77188949Y-108751598D01*
X77190911Y-108751208D01*
X77192116Y-108752337D01*
G37*
G36*
X82752283Y-108981308D02*
G01*
X82754063Y-108999383D01*
X82761063Y-109022458D01*
X82772428Y-109043722D01*
X82787723Y-109062359D01*
X82806360Y-109077654D01*
X82827624Y-109089019D01*
X82850699Y-109096019D01*
X82874690Y-109098382D01*
X82898681Y-109096019D01*
X82916063Y-109090746D01*
X82918011Y-109091200D01*
X82918592Y-109093114D01*
X82917409Y-109094508D01*
X82871388Y-109113571D01*
X82716135Y-109217308D01*
X82710849Y-109222594D01*
X82708917Y-109223112D01*
X82707503Y-109221698D01*
X82707587Y-109220415D01*
X82711865Y-109210087D01*
X82748293Y-109026950D01*
X82748293Y-108981504D01*
X82749293Y-108979772D01*
X82751293Y-108979772D01*
X82752283Y-108981308D01*
G37*
G36*
X110176732Y-108849000D02*
G01*
X110176732Y-108851000D01*
X110175196Y-108851990D01*
X110107113Y-108858695D01*
X110041830Y-108878499D01*
X109981666Y-108910657D01*
X109928934Y-108953934D01*
X109885657Y-109006666D01*
X109853499Y-109066830D01*
X109833695Y-109132113D01*
X109826990Y-109200196D01*
X109825825Y-109201822D01*
X109823835Y-109201626D01*
X109823000Y-109200000D01*
X109823000Y-109143640D01*
X109823010Y-109143444D01*
X109829127Y-109081332D01*
X109829203Y-109080947D01*
X109845528Y-109027131D01*
X109845678Y-109026769D01*
X109872192Y-108977166D01*
X109872410Y-108976840D01*
X109908088Y-108933365D01*
X109908365Y-108933088D01*
X109951840Y-108897410D01*
X109952166Y-108897192D01*
X110001769Y-108870678D01*
X110002131Y-108870528D01*
X110055947Y-108854203D01*
X110056332Y-108854127D01*
X110118444Y-108848010D01*
X110118640Y-108848000D01*
X110175000Y-108848000D01*
X110176732Y-108849000D01*
G37*
G36*
X111381556Y-108848010D02*
G01*
X111443668Y-108854127D01*
X111444053Y-108854203D01*
X111497869Y-108870528D01*
X111498231Y-108870678D01*
X111547834Y-108897192D01*
X111548160Y-108897410D01*
X111591635Y-108933088D01*
X111591912Y-108933365D01*
X111627590Y-108976840D01*
X111627808Y-108977166D01*
X111654322Y-109026769D01*
X111654472Y-109027131D01*
X111670797Y-109080947D01*
X111670873Y-109081332D01*
X111676990Y-109143444D01*
X111677000Y-109143640D01*
X111677000Y-109200000D01*
X111676000Y-109201732D01*
X111674000Y-109201732D01*
X111673010Y-109200196D01*
X111666305Y-109132113D01*
X111646501Y-109066830D01*
X111614343Y-109006666D01*
X111571066Y-108953934D01*
X111518334Y-108910657D01*
X111458170Y-108878499D01*
X111392887Y-108858695D01*
X111324804Y-108851990D01*
X111323178Y-108850825D01*
X111323374Y-108848835D01*
X111325000Y-108848000D01*
X111381360Y-108848000D01*
X111381556Y-108848010D01*
G37*
G36*
X83613134Y-108819420D02*
G01*
X83613899Y-108821268D01*
X83612859Y-108822771D01*
X83596844Y-108831330D01*
X83578207Y-108846625D01*
X83562912Y-108865262D01*
X83551547Y-108886526D01*
X83544547Y-108909601D01*
X83542184Y-108933592D01*
X83544547Y-108957583D01*
X83551547Y-108980658D01*
X83562912Y-109001922D01*
X83578207Y-109020559D01*
X83596844Y-109035854D01*
X83612859Y-109044413D01*
X83613915Y-109046111D01*
X83612972Y-109047875D01*
X83611151Y-109048025D01*
X83596884Y-109042116D01*
X83413747Y-109005688D01*
X83227031Y-109005688D01*
X83043894Y-109042116D01*
X83029627Y-109048025D01*
X83027644Y-109047764D01*
X83026879Y-109045916D01*
X83027919Y-109044413D01*
X83043934Y-109035854D01*
X83062571Y-109020559D01*
X83077866Y-109001922D01*
X83089231Y-108980658D01*
X83096231Y-108957583D01*
X83098594Y-108933592D01*
X83096231Y-108909601D01*
X83089231Y-108886526D01*
X83077866Y-108865262D01*
X83062571Y-108846625D01*
X83043934Y-108831330D01*
X83027919Y-108822771D01*
X83026863Y-108821073D01*
X83027806Y-108819309D01*
X83029627Y-108819159D01*
X83043894Y-108825068D01*
X83227031Y-108861496D01*
X83413747Y-108861496D01*
X83596884Y-108825068D01*
X83611151Y-108819159D01*
X83613134Y-108819420D01*
G37*
G36*
X82710849Y-108644590D02*
G01*
X82716135Y-108649876D01*
X82871388Y-108753613D01*
X82917409Y-108772676D01*
X82918627Y-108774263D01*
X82917862Y-108776111D01*
X82916063Y-108776438D01*
X82898681Y-108771165D01*
X82874690Y-108768802D01*
X82850699Y-108771165D01*
X82827624Y-108778165D01*
X82806360Y-108789530D01*
X82787723Y-108804825D01*
X82772428Y-108823462D01*
X82761063Y-108844726D01*
X82754063Y-108867801D01*
X82752283Y-108885876D01*
X82751118Y-108887502D01*
X82749128Y-108887306D01*
X82748293Y-108885680D01*
X82748293Y-108840234D01*
X82711865Y-108657097D01*
X82707587Y-108646769D01*
X82707848Y-108644787D01*
X82709696Y-108644021D01*
X82710849Y-108644590D01*
G37*
G36*
X76555305Y-108362865D02*
G01*
X76555695Y-108364827D01*
X76554382Y-108366098D01*
X76536992Y-108371373D01*
X76515728Y-108382738D01*
X76497091Y-108398034D01*
X76481796Y-108416671D01*
X76470431Y-108437934D01*
X76463431Y-108461009D01*
X76461068Y-108485000D01*
X76463431Y-108508991D01*
X76470431Y-108532066D01*
X76481796Y-108553330D01*
X76497092Y-108571967D01*
X76515729Y-108587262D01*
X76536992Y-108598627D01*
X76554382Y-108603902D01*
X76555749Y-108605362D01*
X76555168Y-108607276D01*
X76553411Y-108607778D01*
X76391055Y-108575483D01*
X76208945Y-108575483D01*
X76046589Y-108607778D01*
X76044695Y-108607135D01*
X76044305Y-108605173D01*
X76045618Y-108603902D01*
X76063008Y-108598627D01*
X76084272Y-108587262D01*
X76102909Y-108571966D01*
X76118204Y-108553329D01*
X76129569Y-108532066D01*
X76136569Y-108508991D01*
X76138932Y-108485000D01*
X76136569Y-108461009D01*
X76129569Y-108437934D01*
X76118204Y-108416670D01*
X76102908Y-108398033D01*
X76084271Y-108382738D01*
X76063008Y-108371373D01*
X76045618Y-108366098D01*
X76044251Y-108364638D01*
X76044832Y-108362724D01*
X76046589Y-108362222D01*
X76208945Y-108394517D01*
X76391055Y-108394517D01*
X76553411Y-108362222D01*
X76555305Y-108362865D01*
G37*
G36*
X77192311Y-107739488D02*
G01*
X77192714Y-107740902D01*
X77190837Y-107759956D01*
X77193200Y-107783947D01*
X77200200Y-107807022D01*
X77211565Y-107828286D01*
X77226860Y-107846923D01*
X77245497Y-107862218D01*
X77266761Y-107873583D01*
X77289836Y-107880583D01*
X77313827Y-107882946D01*
X77337818Y-107880583D01*
X77360893Y-107873583D01*
X77382157Y-107862218D01*
X77396195Y-107850697D01*
X77398169Y-107850371D01*
X77399437Y-107851917D01*
X77398878Y-107853657D01*
X77361881Y-107890654D01*
X77260704Y-108042077D01*
X77191124Y-108210059D01*
X77189537Y-108211277D01*
X77187689Y-108210512D01*
X77187286Y-108209098D01*
X77189163Y-108190044D01*
X77186800Y-108166053D01*
X77179800Y-108142978D01*
X77168435Y-108121714D01*
X77153140Y-108103077D01*
X77134503Y-108087782D01*
X77113239Y-108076417D01*
X77090164Y-108069417D01*
X77066173Y-108067054D01*
X77042182Y-108069417D01*
X77019107Y-108076417D01*
X76997843Y-108087782D01*
X76983805Y-108099303D01*
X76981831Y-108099629D01*
X76980563Y-108098083D01*
X76981122Y-108096343D01*
X77018119Y-108059346D01*
X77119296Y-107907923D01*
X77188876Y-107739941D01*
X77190463Y-107738723D01*
X77192311Y-107739488D01*
G37*
G36*
X82371650Y-107959878D02*
G01*
X82372485Y-107961504D01*
X82372485Y-108006950D01*
X82408913Y-108190087D01*
X82413191Y-108200415D01*
X82412930Y-108202397D01*
X82411082Y-108203163D01*
X82409929Y-108202594D01*
X82404643Y-108197308D01*
X82249390Y-108093571D01*
X82203369Y-108074508D01*
X82202151Y-108072921D01*
X82202916Y-108071073D01*
X82204715Y-108070746D01*
X82222097Y-108076019D01*
X82246088Y-108078382D01*
X82270079Y-108076019D01*
X82293154Y-108069019D01*
X82314418Y-108057654D01*
X82333055Y-108042359D01*
X82348350Y-108023722D01*
X82359715Y-108002458D01*
X82366715Y-107979383D01*
X82368495Y-107961308D01*
X82369660Y-107959682D01*
X82371650Y-107959878D01*
G37*
G36*
X111176165Y-107798374D02*
G01*
X111177000Y-107800000D01*
X111177000Y-107856360D01*
X111176990Y-107856556D01*
X111170873Y-107918668D01*
X111170797Y-107919053D01*
X111154472Y-107972869D01*
X111154322Y-107973231D01*
X111127808Y-108022834D01*
X111127590Y-108023160D01*
X111091912Y-108066635D01*
X111091635Y-108066912D01*
X111048160Y-108102590D01*
X111047834Y-108102808D01*
X110998231Y-108129322D01*
X110997869Y-108129472D01*
X110944053Y-108145797D01*
X110943668Y-108145873D01*
X110881556Y-108151990D01*
X110881360Y-108152000D01*
X110825000Y-108152000D01*
X110823268Y-108151000D01*
X110823268Y-108149000D01*
X110824804Y-108148010D01*
X110892887Y-108141305D01*
X110958170Y-108121501D01*
X111018334Y-108089343D01*
X111071066Y-108046066D01*
X111114343Y-107993334D01*
X111146501Y-107933170D01*
X111166305Y-107867887D01*
X111173010Y-107799804D01*
X111174175Y-107798178D01*
X111176165Y-107798374D01*
G37*
G36*
X109326990Y-107799804D02*
G01*
X109333695Y-107867887D01*
X109353499Y-107933170D01*
X109385657Y-107993334D01*
X109428934Y-108046066D01*
X109481666Y-108089343D01*
X109541830Y-108121501D01*
X109607113Y-108141305D01*
X109675196Y-108148010D01*
X109676822Y-108149175D01*
X109676626Y-108151165D01*
X109675000Y-108152000D01*
X109618640Y-108152000D01*
X109618444Y-108151990D01*
X109556332Y-108145873D01*
X109555947Y-108145797D01*
X109502131Y-108129472D01*
X109501769Y-108129322D01*
X109452166Y-108102808D01*
X109451840Y-108102590D01*
X109408365Y-108066912D01*
X109408088Y-108066635D01*
X109372410Y-108023160D01*
X109372192Y-108022834D01*
X109345678Y-107973231D01*
X109345528Y-107972869D01*
X109329203Y-107919053D01*
X109329127Y-107918668D01*
X109323010Y-107856556D01*
X109323000Y-107856360D01*
X109323000Y-107800000D01*
X109324000Y-107798268D01*
X109326000Y-107798268D01*
X109326990Y-107799804D01*
G37*
G36*
X82093134Y-107799420D02*
G01*
X82093899Y-107801268D01*
X82092859Y-107802771D01*
X82076844Y-107811330D01*
X82058207Y-107826625D01*
X82042912Y-107845262D01*
X82031547Y-107866526D01*
X82024547Y-107889601D01*
X82022184Y-107913592D01*
X82024547Y-107937583D01*
X82031547Y-107960658D01*
X82042912Y-107981922D01*
X82058207Y-108000559D01*
X82076844Y-108015854D01*
X82092859Y-108024413D01*
X82093915Y-108026111D01*
X82092972Y-108027875D01*
X82091151Y-108028025D01*
X82076884Y-108022116D01*
X81893747Y-107985688D01*
X81707031Y-107985688D01*
X81523894Y-108022116D01*
X81509627Y-108028025D01*
X81507644Y-108027764D01*
X81506879Y-108025916D01*
X81507919Y-108024413D01*
X81523934Y-108015854D01*
X81542571Y-108000559D01*
X81557866Y-107981922D01*
X81569231Y-107960658D01*
X81576231Y-107937583D01*
X81578594Y-107913592D01*
X81576231Y-107889601D01*
X81569231Y-107866526D01*
X81557866Y-107845262D01*
X81542571Y-107826625D01*
X81523934Y-107811330D01*
X81507919Y-107802771D01*
X81506863Y-107801073D01*
X81507806Y-107799309D01*
X81509627Y-107799159D01*
X81523894Y-107805068D01*
X81707031Y-107841496D01*
X81893747Y-107841496D01*
X82076884Y-107805068D01*
X82091151Y-107799159D01*
X82093134Y-107799420D01*
G37*
G36*
X82413275Y-107625486D02*
G01*
X82413191Y-107626769D01*
X82408913Y-107637097D01*
X82372485Y-107820234D01*
X82372485Y-107865680D01*
X82371485Y-107867412D01*
X82369485Y-107867412D01*
X82368495Y-107865876D01*
X82366715Y-107847801D01*
X82359715Y-107824726D01*
X82348350Y-107803462D01*
X82333055Y-107784825D01*
X82314418Y-107769530D01*
X82293154Y-107758165D01*
X82270079Y-107751165D01*
X82246088Y-107748802D01*
X82222097Y-107751165D01*
X82204715Y-107756438D01*
X82202767Y-107755984D01*
X82202186Y-107754070D01*
X82203369Y-107752676D01*
X82249390Y-107733613D01*
X82404643Y-107629876D01*
X82409929Y-107624590D01*
X82411861Y-107624072D01*
X82413275Y-107625486D01*
G37*
G36*
X78335305Y-107342865D02*
G01*
X78335695Y-107344827D01*
X78334382Y-107346098D01*
X78316992Y-107351373D01*
X78295728Y-107362738D01*
X78277091Y-107378034D01*
X78261796Y-107396671D01*
X78250431Y-107417934D01*
X78243431Y-107441009D01*
X78241068Y-107465000D01*
X78243431Y-107488991D01*
X78250431Y-107512066D01*
X78261796Y-107533330D01*
X78277092Y-107551967D01*
X78295729Y-107567262D01*
X78316992Y-107578627D01*
X78334382Y-107583902D01*
X78335749Y-107585362D01*
X78335168Y-107587276D01*
X78333411Y-107587778D01*
X78171055Y-107555483D01*
X77988945Y-107555483D01*
X77826589Y-107587778D01*
X77824695Y-107587135D01*
X77824305Y-107585173D01*
X77825618Y-107583902D01*
X77843008Y-107578627D01*
X77864272Y-107567262D01*
X77882909Y-107551966D01*
X77898204Y-107533329D01*
X77909569Y-107512066D01*
X77916569Y-107488991D01*
X77918932Y-107465000D01*
X77916569Y-107441009D01*
X77909569Y-107417934D01*
X77898204Y-107396670D01*
X77882908Y-107378033D01*
X77864271Y-107362738D01*
X77843008Y-107351373D01*
X77825618Y-107346098D01*
X77824251Y-107344638D01*
X77824832Y-107342724D01*
X77826589Y-107342222D01*
X77988945Y-107374517D01*
X78171055Y-107374517D01*
X78333411Y-107342222D01*
X78335305Y-107342865D01*
G37*
G36*
X77192116Y-106722337D02*
G01*
X77260704Y-106887923D01*
X77361881Y-107039346D01*
X77396395Y-107073860D01*
X77396913Y-107075792D01*
X77395499Y-107077206D01*
X77393712Y-107076820D01*
X77379674Y-107065299D01*
X77358410Y-107053934D01*
X77335335Y-107046934D01*
X77311344Y-107044571D01*
X77287353Y-107046934D01*
X77264278Y-107053934D01*
X77243014Y-107065299D01*
X77224377Y-107080594D01*
X77209082Y-107099231D01*
X77197717Y-107120495D01*
X77190717Y-107143570D01*
X77188354Y-107167561D01*
X77190727Y-107191646D01*
X77191694Y-107196508D01*
X77191051Y-107198402D01*
X77189089Y-107198792D01*
X77187884Y-107197663D01*
X77119296Y-107032077D01*
X77018119Y-106880654D01*
X76983605Y-106846140D01*
X76983087Y-106844208D01*
X76984501Y-106842794D01*
X76986288Y-106843180D01*
X77000326Y-106854701D01*
X77021590Y-106866066D01*
X77044665Y-106873066D01*
X77068656Y-106875429D01*
X77092647Y-106873066D01*
X77115722Y-106866066D01*
X77136986Y-106854701D01*
X77155623Y-106839406D01*
X77170918Y-106820769D01*
X77182283Y-106799505D01*
X77189283Y-106776430D01*
X77191646Y-106752439D01*
X77189273Y-106728354D01*
X77188306Y-106723492D01*
X77188949Y-106721598D01*
X77190911Y-106721208D01*
X77192116Y-106722337D01*
G37*
G36*
X82752283Y-106941308D02*
G01*
X82754063Y-106959383D01*
X82761063Y-106982458D01*
X82772428Y-107003722D01*
X82787723Y-107022359D01*
X82806360Y-107037654D01*
X82827624Y-107049019D01*
X82850699Y-107056019D01*
X82874690Y-107058382D01*
X82898681Y-107056019D01*
X82916063Y-107050746D01*
X82918011Y-107051200D01*
X82918592Y-107053114D01*
X82917409Y-107054508D01*
X82871388Y-107073571D01*
X82716135Y-107177308D01*
X82710849Y-107182594D01*
X82708917Y-107183112D01*
X82707503Y-107181698D01*
X82707587Y-107180415D01*
X82711865Y-107170087D01*
X82748293Y-106986950D01*
X82748293Y-106941504D01*
X82749293Y-106939772D01*
X82751293Y-106939772D01*
X82752283Y-106941308D01*
G37*
G36*
X109676732Y-106749000D02*
G01*
X109676732Y-106751000D01*
X109675196Y-106751990D01*
X109607113Y-106758695D01*
X109541830Y-106778499D01*
X109481666Y-106810657D01*
X109428934Y-106853934D01*
X109385657Y-106906666D01*
X109353499Y-106966830D01*
X109333695Y-107032113D01*
X109326990Y-107100196D01*
X109325825Y-107101822D01*
X109323835Y-107101626D01*
X109323000Y-107100000D01*
X109323000Y-107043640D01*
X109323010Y-107043444D01*
X109329127Y-106981332D01*
X109329203Y-106980947D01*
X109345528Y-106927131D01*
X109345678Y-106926769D01*
X109372192Y-106877166D01*
X109372410Y-106876840D01*
X109408088Y-106833365D01*
X109408365Y-106833088D01*
X109451840Y-106797410D01*
X109452166Y-106797192D01*
X109501769Y-106770678D01*
X109502131Y-106770528D01*
X109555947Y-106754203D01*
X109556332Y-106754127D01*
X109618444Y-106748010D01*
X109618640Y-106748000D01*
X109675000Y-106748000D01*
X109676732Y-106749000D01*
G37*
G36*
X110881556Y-106748010D02*
G01*
X110943668Y-106754127D01*
X110944053Y-106754203D01*
X110997869Y-106770528D01*
X110998231Y-106770678D01*
X111047834Y-106797192D01*
X111048160Y-106797410D01*
X111091635Y-106833088D01*
X111091912Y-106833365D01*
X111127590Y-106876840D01*
X111127808Y-106877166D01*
X111154322Y-106926769D01*
X111154472Y-106927131D01*
X111170797Y-106980947D01*
X111170873Y-106981332D01*
X111176990Y-107043444D01*
X111177000Y-107043640D01*
X111177000Y-107100000D01*
X111176000Y-107101732D01*
X111174000Y-107101732D01*
X111173010Y-107100196D01*
X111166305Y-107032113D01*
X111146501Y-106966830D01*
X111114343Y-106906666D01*
X111071066Y-106853934D01*
X111018334Y-106810657D01*
X110958170Y-106778499D01*
X110892887Y-106758695D01*
X110824804Y-106751990D01*
X110823178Y-106750825D01*
X110823374Y-106748835D01*
X110825000Y-106748000D01*
X110881360Y-106748000D01*
X110881556Y-106748010D01*
G37*
G36*
X83613134Y-106779420D02*
G01*
X83613899Y-106781268D01*
X83612859Y-106782771D01*
X83596844Y-106791330D01*
X83578207Y-106806625D01*
X83562912Y-106825262D01*
X83551547Y-106846526D01*
X83544547Y-106869601D01*
X83542184Y-106893592D01*
X83544547Y-106917583D01*
X83551547Y-106940658D01*
X83562912Y-106961922D01*
X83578207Y-106980559D01*
X83596844Y-106995854D01*
X83612859Y-107004413D01*
X83613915Y-107006111D01*
X83612972Y-107007875D01*
X83611151Y-107008025D01*
X83596884Y-107002116D01*
X83413747Y-106965688D01*
X83227031Y-106965688D01*
X83043894Y-107002116D01*
X83029627Y-107008025D01*
X83027644Y-107007764D01*
X83026879Y-107005916D01*
X83027919Y-107004413D01*
X83043934Y-106995854D01*
X83062571Y-106980559D01*
X83077866Y-106961922D01*
X83089231Y-106940658D01*
X83096231Y-106917583D01*
X83098594Y-106893592D01*
X83096231Y-106869601D01*
X83089231Y-106846526D01*
X83077866Y-106825262D01*
X83062571Y-106806625D01*
X83043934Y-106791330D01*
X83027919Y-106782771D01*
X83026863Y-106781073D01*
X83027806Y-106779309D01*
X83029627Y-106779159D01*
X83043894Y-106785068D01*
X83227031Y-106821496D01*
X83413747Y-106821496D01*
X83596884Y-106785068D01*
X83611151Y-106779159D01*
X83613134Y-106779420D01*
G37*
G36*
X82710849Y-106604590D02*
G01*
X82716135Y-106609876D01*
X82871388Y-106713613D01*
X82917409Y-106732676D01*
X82918627Y-106734263D01*
X82917862Y-106736111D01*
X82916063Y-106736438D01*
X82898681Y-106731165D01*
X82874690Y-106728802D01*
X82850699Y-106731165D01*
X82827624Y-106738165D01*
X82806360Y-106749530D01*
X82787723Y-106764825D01*
X82772428Y-106783462D01*
X82761063Y-106804726D01*
X82754063Y-106827801D01*
X82752283Y-106845876D01*
X82751118Y-106847502D01*
X82749128Y-106847306D01*
X82748293Y-106845680D01*
X82748293Y-106800234D01*
X82711865Y-106617097D01*
X82707587Y-106606769D01*
X82707848Y-106604787D01*
X82709696Y-106604021D01*
X82710849Y-106604590D01*
G37*
G36*
X141092578Y-106372222D02*
G01*
X141327422Y-106372222D01*
X141374133Y-106362931D01*
X141376027Y-106363574D01*
X141376417Y-106365536D01*
X141375103Y-106366807D01*
X141357720Y-106372079D01*
X141336455Y-106383445D01*
X141317818Y-106398740D01*
X141302523Y-106417377D01*
X141291158Y-106438641D01*
X141284158Y-106461716D01*
X141281795Y-106485707D01*
X141284158Y-106509698D01*
X141291158Y-106532773D01*
X141302523Y-106554037D01*
X141317818Y-106572674D01*
X141336455Y-106587969D01*
X141357719Y-106599334D01*
X141375107Y-106604608D01*
X141376474Y-106606068D01*
X141375893Y-106607982D01*
X141374136Y-106608484D01*
X141267620Y-106587297D01*
X141052380Y-106587297D01*
X140995861Y-106598539D01*
X140993967Y-106597896D01*
X140993577Y-106595934D01*
X140994890Y-106594663D01*
X141012281Y-106589388D01*
X141033545Y-106578023D01*
X141052182Y-106562727D01*
X141067477Y-106544091D01*
X141078842Y-106522827D01*
X141085842Y-106499752D01*
X141088205Y-106475761D01*
X141085842Y-106451770D01*
X141078842Y-106428695D01*
X141067477Y-106407431D01*
X141052181Y-106388794D01*
X141033545Y-106373499D01*
X141012281Y-106362134D01*
X140994899Y-106356861D01*
X140993532Y-106355401D01*
X140994113Y-106353487D01*
X140995870Y-106352985D01*
X141092578Y-106372222D01*
G37*
G36*
X76555305Y-106332865D02*
G01*
X76555695Y-106334827D01*
X76554382Y-106336098D01*
X76536992Y-106341373D01*
X76515728Y-106352738D01*
X76497091Y-106368034D01*
X76481796Y-106386671D01*
X76470431Y-106407934D01*
X76463431Y-106431009D01*
X76461068Y-106455000D01*
X76463431Y-106478991D01*
X76470431Y-106502066D01*
X76481796Y-106523330D01*
X76497092Y-106541967D01*
X76515729Y-106557262D01*
X76536992Y-106568627D01*
X76554382Y-106573902D01*
X76555749Y-106575362D01*
X76555168Y-106577276D01*
X76553411Y-106577778D01*
X76391055Y-106545483D01*
X76208945Y-106545483D01*
X76046589Y-106577778D01*
X76044695Y-106577135D01*
X76044305Y-106575173D01*
X76045618Y-106573902D01*
X76063008Y-106568627D01*
X76084272Y-106557262D01*
X76102909Y-106541966D01*
X76118204Y-106523329D01*
X76129569Y-106502066D01*
X76136569Y-106478991D01*
X76138932Y-106455000D01*
X76136569Y-106431009D01*
X76129569Y-106407934D01*
X76118204Y-106386670D01*
X76102908Y-106368033D01*
X76084271Y-106352738D01*
X76063008Y-106341373D01*
X76045618Y-106336098D01*
X76044251Y-106334638D01*
X76044832Y-106332724D01*
X76046589Y-106332222D01*
X76208945Y-106364517D01*
X76391055Y-106364517D01*
X76553411Y-106332222D01*
X76555305Y-106332865D01*
G37*
G36*
X111176165Y-105898374D02*
G01*
X111177000Y-105900000D01*
X111177000Y-105956360D01*
X111176990Y-105956556D01*
X111170873Y-106018668D01*
X111170797Y-106019053D01*
X111154472Y-106072869D01*
X111154322Y-106073231D01*
X111127808Y-106122834D01*
X111127590Y-106123160D01*
X111091912Y-106166635D01*
X111091635Y-106166912D01*
X111048160Y-106202590D01*
X111047834Y-106202808D01*
X110998231Y-106229322D01*
X110997869Y-106229472D01*
X110944053Y-106245797D01*
X110943668Y-106245873D01*
X110881556Y-106251990D01*
X110881360Y-106252000D01*
X110825000Y-106252000D01*
X110823268Y-106251000D01*
X110823268Y-106249000D01*
X110824804Y-106248010D01*
X110892887Y-106241305D01*
X110958170Y-106221501D01*
X111018334Y-106189343D01*
X111071066Y-106146066D01*
X111114343Y-106093334D01*
X111146501Y-106033170D01*
X111166305Y-105967887D01*
X111173010Y-105899804D01*
X111174175Y-105898178D01*
X111176165Y-105898374D01*
G37*
G36*
X109326990Y-105899804D02*
G01*
X109333695Y-105967887D01*
X109353499Y-106033170D01*
X109385657Y-106093334D01*
X109428934Y-106146066D01*
X109481666Y-106189343D01*
X109541830Y-106221501D01*
X109607113Y-106241305D01*
X109675196Y-106248010D01*
X109676822Y-106249175D01*
X109676626Y-106251165D01*
X109675000Y-106252000D01*
X109618640Y-106252000D01*
X109618444Y-106251990D01*
X109556332Y-106245873D01*
X109555947Y-106245797D01*
X109502131Y-106229472D01*
X109501769Y-106229322D01*
X109452166Y-106202808D01*
X109451840Y-106202590D01*
X109408365Y-106166912D01*
X109408088Y-106166635D01*
X109372410Y-106123160D01*
X109372192Y-106122834D01*
X109345678Y-106073231D01*
X109345528Y-106072869D01*
X109329203Y-106019053D01*
X109329127Y-106018668D01*
X109323010Y-105956556D01*
X109323000Y-105956360D01*
X109323000Y-105900000D01*
X109324000Y-105898268D01*
X109326000Y-105898268D01*
X109326990Y-105899804D01*
G37*
G36*
X77192311Y-105709488D02*
G01*
X77192714Y-105710902D01*
X77190837Y-105729956D01*
X77193200Y-105753947D01*
X77200200Y-105777022D01*
X77211565Y-105798286D01*
X77226860Y-105816923D01*
X77245497Y-105832218D01*
X77266761Y-105843583D01*
X77289836Y-105850583D01*
X77313827Y-105852946D01*
X77337818Y-105850583D01*
X77360893Y-105843583D01*
X77382157Y-105832218D01*
X77396195Y-105820697D01*
X77398169Y-105820371D01*
X77399437Y-105821917D01*
X77398878Y-105823657D01*
X77361881Y-105860654D01*
X77260704Y-106012077D01*
X77191124Y-106180059D01*
X77189537Y-106181277D01*
X77187689Y-106180512D01*
X77187286Y-106179098D01*
X77189163Y-106160044D01*
X77186800Y-106136053D01*
X77179800Y-106112978D01*
X77168435Y-106091714D01*
X77153140Y-106073077D01*
X77134503Y-106057782D01*
X77113239Y-106046417D01*
X77090164Y-106039417D01*
X77066173Y-106037054D01*
X77042182Y-106039417D01*
X77019107Y-106046417D01*
X76997843Y-106057782D01*
X76983805Y-106069303D01*
X76981831Y-106069629D01*
X76980563Y-106068083D01*
X76981122Y-106066343D01*
X77018119Y-106029346D01*
X77119296Y-105877923D01*
X77188876Y-105709941D01*
X77190463Y-105708723D01*
X77192311Y-105709488D01*
G37*
G36*
X82371650Y-105919878D02*
G01*
X82372485Y-105921504D01*
X82372485Y-105966950D01*
X82408913Y-106150087D01*
X82413191Y-106160415D01*
X82412930Y-106162397D01*
X82411082Y-106163163D01*
X82409929Y-106162594D01*
X82404643Y-106157308D01*
X82249390Y-106053571D01*
X82203369Y-106034508D01*
X82202151Y-106032921D01*
X82202916Y-106031073D01*
X82204715Y-106030746D01*
X82222097Y-106036019D01*
X82246088Y-106038382D01*
X82270079Y-106036019D01*
X82293154Y-106029019D01*
X82314418Y-106017654D01*
X82333055Y-106002359D01*
X82348350Y-105983722D01*
X82359715Y-105962458D01*
X82366715Y-105939383D01*
X82368495Y-105921308D01*
X82369660Y-105919682D01*
X82371650Y-105919878D01*
G37*
G36*
X82093134Y-105759420D02*
G01*
X82093899Y-105761268D01*
X82092859Y-105762771D01*
X82076844Y-105771330D01*
X82058207Y-105786625D01*
X82042912Y-105805262D01*
X82031547Y-105826526D01*
X82024547Y-105849601D01*
X82022184Y-105873592D01*
X82024547Y-105897583D01*
X82031547Y-105920658D01*
X82042912Y-105941922D01*
X82058207Y-105960559D01*
X82076844Y-105975854D01*
X82092859Y-105984413D01*
X82093915Y-105986111D01*
X82092972Y-105987875D01*
X82091151Y-105988025D01*
X82076884Y-105982116D01*
X81893747Y-105945688D01*
X81707031Y-105945688D01*
X81523894Y-105982116D01*
X81509627Y-105988025D01*
X81507644Y-105987764D01*
X81506879Y-105985916D01*
X81507919Y-105984413D01*
X81523934Y-105975854D01*
X81542571Y-105960559D01*
X81557866Y-105941922D01*
X81569231Y-105920658D01*
X81576231Y-105897583D01*
X81578594Y-105873592D01*
X81576231Y-105849601D01*
X81569231Y-105826526D01*
X81557866Y-105805262D01*
X81542571Y-105786625D01*
X81523934Y-105771330D01*
X81507919Y-105762771D01*
X81506863Y-105761073D01*
X81507806Y-105759309D01*
X81509627Y-105759159D01*
X81523894Y-105765068D01*
X81707031Y-105801496D01*
X81893747Y-105801496D01*
X82076884Y-105765068D01*
X82091151Y-105759159D01*
X82093134Y-105759420D01*
G37*
G36*
X82413275Y-105585486D02*
G01*
X82413191Y-105586769D01*
X82408913Y-105597097D01*
X82372485Y-105780234D01*
X82372485Y-105825680D01*
X82371485Y-105827412D01*
X82369485Y-105827412D01*
X82368495Y-105825876D01*
X82366715Y-105807801D01*
X82359715Y-105784726D01*
X82348350Y-105763462D01*
X82333055Y-105744825D01*
X82314418Y-105729530D01*
X82293154Y-105718165D01*
X82270079Y-105711165D01*
X82246088Y-105708802D01*
X82222097Y-105711165D01*
X82204715Y-105716438D01*
X82202767Y-105715984D01*
X82202186Y-105714070D01*
X82203369Y-105712676D01*
X82249390Y-105693613D01*
X82404643Y-105589876D01*
X82409929Y-105584590D01*
X82411861Y-105584072D01*
X82413275Y-105585486D01*
G37*
G36*
X78335305Y-105312865D02*
G01*
X78335695Y-105314827D01*
X78334382Y-105316098D01*
X78316992Y-105321373D01*
X78295728Y-105332738D01*
X78277091Y-105348034D01*
X78261796Y-105366671D01*
X78250431Y-105387934D01*
X78243431Y-105411009D01*
X78241068Y-105435000D01*
X78243431Y-105458991D01*
X78250431Y-105482066D01*
X78261796Y-105503330D01*
X78277092Y-105521967D01*
X78295729Y-105537262D01*
X78316992Y-105548627D01*
X78334382Y-105553902D01*
X78335749Y-105555362D01*
X78335168Y-105557276D01*
X78333411Y-105557778D01*
X78171055Y-105525483D01*
X77988945Y-105525483D01*
X77826589Y-105557778D01*
X77824695Y-105557135D01*
X77824305Y-105555173D01*
X77825618Y-105553902D01*
X77843008Y-105548627D01*
X77864272Y-105537262D01*
X77882909Y-105521966D01*
X77898204Y-105503329D01*
X77909569Y-105482066D01*
X77916569Y-105458991D01*
X77918932Y-105435000D01*
X77916569Y-105411009D01*
X77909569Y-105387934D01*
X77898204Y-105366670D01*
X77882908Y-105348033D01*
X77864271Y-105332738D01*
X77843008Y-105321373D01*
X77825618Y-105316098D01*
X77824251Y-105314638D01*
X77824832Y-105312724D01*
X77826589Y-105312222D01*
X77988945Y-105344517D01*
X78171055Y-105344517D01*
X78333411Y-105312222D01*
X78335305Y-105312865D01*
G37*
G36*
X109676732Y-104849000D02*
G01*
X109676732Y-104851000D01*
X109675196Y-104851990D01*
X109607113Y-104858695D01*
X109541830Y-104878499D01*
X109481666Y-104910657D01*
X109428934Y-104953934D01*
X109385657Y-105006666D01*
X109353499Y-105066830D01*
X109333695Y-105132113D01*
X109326990Y-105200196D01*
X109325825Y-105201822D01*
X109323835Y-105201626D01*
X109323000Y-105200000D01*
X109323000Y-105143640D01*
X109323010Y-105143444D01*
X109329127Y-105081332D01*
X109329203Y-105080947D01*
X109345528Y-105027131D01*
X109345678Y-105026769D01*
X109372192Y-104977166D01*
X109372410Y-104976840D01*
X109408088Y-104933365D01*
X109408365Y-104933088D01*
X109451840Y-104897410D01*
X109452166Y-104897192D01*
X109501769Y-104870678D01*
X109502131Y-104870528D01*
X109555947Y-104854203D01*
X109556332Y-104854127D01*
X109618444Y-104848010D01*
X109618640Y-104848000D01*
X109675000Y-104848000D01*
X109676732Y-104849000D01*
G37*
G36*
X110881556Y-104848010D02*
G01*
X110943668Y-104854127D01*
X110944053Y-104854203D01*
X110997869Y-104870528D01*
X110998231Y-104870678D01*
X111047834Y-104897192D01*
X111048160Y-104897410D01*
X111091635Y-104933088D01*
X111091912Y-104933365D01*
X111127590Y-104976840D01*
X111127808Y-104977166D01*
X111154322Y-105026769D01*
X111154472Y-105027131D01*
X111170797Y-105080947D01*
X111170873Y-105081332D01*
X111176990Y-105143444D01*
X111177000Y-105143640D01*
X111177000Y-105200000D01*
X111176000Y-105201732D01*
X111174000Y-105201732D01*
X111173010Y-105200196D01*
X111166305Y-105132113D01*
X111146501Y-105066830D01*
X111114343Y-105006666D01*
X111071066Y-104953934D01*
X111018334Y-104910657D01*
X110958170Y-104878499D01*
X110892887Y-104858695D01*
X110824804Y-104851990D01*
X110823178Y-104850825D01*
X110823374Y-104848835D01*
X110825000Y-104848000D01*
X110881360Y-104848000D01*
X110881556Y-104848010D01*
G37*
G36*
X77192116Y-104692337D02*
G01*
X77260704Y-104857923D01*
X77361881Y-105009346D01*
X77396395Y-105043860D01*
X77396913Y-105045792D01*
X77395499Y-105047206D01*
X77393712Y-105046820D01*
X77379674Y-105035299D01*
X77358410Y-105023934D01*
X77335335Y-105016934D01*
X77311344Y-105014571D01*
X77287353Y-105016934D01*
X77264278Y-105023934D01*
X77243014Y-105035299D01*
X77224377Y-105050594D01*
X77209082Y-105069231D01*
X77197717Y-105090495D01*
X77190717Y-105113570D01*
X77188354Y-105137561D01*
X77190727Y-105161646D01*
X77191694Y-105166508D01*
X77191051Y-105168402D01*
X77189089Y-105168792D01*
X77187884Y-105167663D01*
X77119296Y-105002077D01*
X77018119Y-104850654D01*
X76983605Y-104816140D01*
X76983087Y-104814208D01*
X76984501Y-104812794D01*
X76986288Y-104813180D01*
X77000326Y-104824701D01*
X77021590Y-104836066D01*
X77044665Y-104843066D01*
X77068656Y-104845429D01*
X77092647Y-104843066D01*
X77115722Y-104836066D01*
X77136986Y-104824701D01*
X77155623Y-104809406D01*
X77170918Y-104790769D01*
X77182283Y-104769505D01*
X77189283Y-104746430D01*
X77191646Y-104722439D01*
X77189273Y-104698354D01*
X77188306Y-104693492D01*
X77188949Y-104691598D01*
X77190911Y-104691208D01*
X77192116Y-104692337D01*
G37*
G36*
X82752283Y-104901308D02*
G01*
X82754063Y-104919383D01*
X82761063Y-104942458D01*
X82772428Y-104963722D01*
X82787723Y-104982359D01*
X82806360Y-104997654D01*
X82827624Y-105009019D01*
X82850699Y-105016019D01*
X82874690Y-105018382D01*
X82898681Y-105016019D01*
X82916063Y-105010746D01*
X82918011Y-105011200D01*
X82918592Y-105013114D01*
X82917409Y-105014508D01*
X82871388Y-105033571D01*
X82716135Y-105137308D01*
X82710849Y-105142594D01*
X82708917Y-105143112D01*
X82707503Y-105141698D01*
X82707587Y-105140415D01*
X82711865Y-105130087D01*
X82748293Y-104946950D01*
X82748293Y-104901504D01*
X82749293Y-104899772D01*
X82751293Y-104899772D01*
X82752283Y-104901308D01*
G37*
G36*
X83613134Y-104739420D02*
G01*
X83613899Y-104741268D01*
X83612859Y-104742771D01*
X83596844Y-104751330D01*
X83578207Y-104766625D01*
X83562912Y-104785262D01*
X83551547Y-104806526D01*
X83544547Y-104829601D01*
X83542184Y-104853592D01*
X83544547Y-104877583D01*
X83551547Y-104900658D01*
X83562912Y-104921922D01*
X83578207Y-104940559D01*
X83596844Y-104955854D01*
X83612859Y-104964413D01*
X83613915Y-104966111D01*
X83612972Y-104967875D01*
X83611151Y-104968025D01*
X83596884Y-104962116D01*
X83413747Y-104925688D01*
X83227031Y-104925688D01*
X83043894Y-104962116D01*
X83029627Y-104968025D01*
X83027644Y-104967764D01*
X83026879Y-104965916D01*
X83027919Y-104964413D01*
X83043934Y-104955854D01*
X83062571Y-104940559D01*
X83077866Y-104921922D01*
X83089231Y-104900658D01*
X83096231Y-104877583D01*
X83098594Y-104853592D01*
X83096231Y-104829601D01*
X83089231Y-104806526D01*
X83077866Y-104785262D01*
X83062571Y-104766625D01*
X83043934Y-104751330D01*
X83027919Y-104742771D01*
X83026863Y-104741073D01*
X83027806Y-104739309D01*
X83029627Y-104739159D01*
X83043894Y-104745068D01*
X83227031Y-104781496D01*
X83413747Y-104781496D01*
X83596884Y-104745068D01*
X83611151Y-104739159D01*
X83613134Y-104739420D01*
G37*
G36*
X82710849Y-104564590D02*
G01*
X82716135Y-104569876D01*
X82871388Y-104673613D01*
X82917409Y-104692676D01*
X82918627Y-104694263D01*
X82917862Y-104696111D01*
X82916063Y-104696438D01*
X82898681Y-104691165D01*
X82874690Y-104688802D01*
X82850699Y-104691165D01*
X82827624Y-104698165D01*
X82806360Y-104709530D01*
X82787723Y-104724825D01*
X82772428Y-104743462D01*
X82761063Y-104764726D01*
X82754063Y-104787801D01*
X82752283Y-104805876D01*
X82751118Y-104807502D01*
X82749128Y-104807306D01*
X82748293Y-104805680D01*
X82748293Y-104760234D01*
X82711865Y-104577097D01*
X82707587Y-104566769D01*
X82707848Y-104564787D01*
X82709696Y-104564021D01*
X82710849Y-104564590D01*
G37*
G36*
X76555305Y-104302865D02*
G01*
X76555695Y-104304827D01*
X76554382Y-104306098D01*
X76536992Y-104311373D01*
X76515728Y-104322738D01*
X76497091Y-104338034D01*
X76481796Y-104356671D01*
X76470431Y-104377934D01*
X76463431Y-104401009D01*
X76461068Y-104425000D01*
X76463431Y-104448991D01*
X76470431Y-104472066D01*
X76481796Y-104493330D01*
X76497092Y-104511967D01*
X76515729Y-104527262D01*
X76536992Y-104538627D01*
X76554382Y-104543902D01*
X76555749Y-104545362D01*
X76555168Y-104547276D01*
X76553411Y-104547778D01*
X76391055Y-104515483D01*
X76208945Y-104515483D01*
X76046589Y-104547778D01*
X76044695Y-104547135D01*
X76044305Y-104545173D01*
X76045618Y-104543902D01*
X76063008Y-104538627D01*
X76084272Y-104527262D01*
X76102909Y-104511966D01*
X76118204Y-104493329D01*
X76129569Y-104472066D01*
X76136569Y-104448991D01*
X76138932Y-104425000D01*
X76136569Y-104401009D01*
X76129569Y-104377934D01*
X76118204Y-104356670D01*
X76102908Y-104338033D01*
X76084271Y-104322738D01*
X76063008Y-104311373D01*
X76045618Y-104306098D01*
X76044251Y-104304638D01*
X76044832Y-104302724D01*
X76046589Y-104302222D01*
X76208945Y-104334517D01*
X76391055Y-104334517D01*
X76553411Y-104302222D01*
X76555305Y-104302865D01*
G37*
G36*
X141199001Y-103759682D02*
G01*
X141232422Y-103782013D01*
X141494669Y-103890639D01*
X141773074Y-103946018D01*
X141919721Y-103946018D01*
X141921453Y-103947018D01*
X141921453Y-103949018D01*
X141919917Y-103950008D01*
X141901842Y-103951788D01*
X141878767Y-103958788D01*
X141857503Y-103970153D01*
X141838866Y-103985448D01*
X141823571Y-104004085D01*
X141812206Y-104025349D01*
X141805206Y-104048424D01*
X141802843Y-104072415D01*
X141805206Y-104096406D01*
X141812206Y-104119481D01*
X141823571Y-104140745D01*
X141838866Y-104159382D01*
X141852904Y-104170902D01*
X141853608Y-104172774D01*
X141852340Y-104174320D01*
X141850524Y-104174111D01*
X141774729Y-104123467D01*
X141557760Y-104033596D01*
X141327422Y-103987778D01*
X141129808Y-103987778D01*
X141128076Y-103986778D01*
X141128076Y-103984778D01*
X141129612Y-103983788D01*
X141147687Y-103982008D01*
X141170762Y-103975008D01*
X141192026Y-103963643D01*
X141210663Y-103948348D01*
X141225958Y-103929711D01*
X141237323Y-103908447D01*
X141244323Y-103885372D01*
X141246686Y-103861381D01*
X141244323Y-103837390D01*
X141237323Y-103814315D01*
X141225958Y-103793051D01*
X141210663Y-103774414D01*
X141196621Y-103762891D01*
X141195917Y-103761019D01*
X141197185Y-103759473D01*
X141199001Y-103759682D01*
G37*
G36*
X77192311Y-103679488D02*
G01*
X77192714Y-103680902D01*
X77190837Y-103699956D01*
X77193200Y-103723947D01*
X77200200Y-103747022D01*
X77211565Y-103768286D01*
X77226860Y-103786923D01*
X77245497Y-103802218D01*
X77266761Y-103813583D01*
X77289836Y-103820583D01*
X77313827Y-103822946D01*
X77337818Y-103820583D01*
X77360893Y-103813583D01*
X77382157Y-103802218D01*
X77396195Y-103790697D01*
X77398169Y-103790371D01*
X77399437Y-103791917D01*
X77398878Y-103793657D01*
X77361881Y-103830654D01*
X77260704Y-103982077D01*
X77191124Y-104150059D01*
X77189537Y-104151277D01*
X77187689Y-104150512D01*
X77187286Y-104149098D01*
X77189163Y-104130044D01*
X77186800Y-104106053D01*
X77179800Y-104082978D01*
X77168435Y-104061714D01*
X77153140Y-104043077D01*
X77134503Y-104027782D01*
X77113239Y-104016417D01*
X77090164Y-104009417D01*
X77066173Y-104007054D01*
X77042182Y-104009417D01*
X77019107Y-104016417D01*
X76997843Y-104027782D01*
X76983805Y-104039303D01*
X76981831Y-104039629D01*
X76980563Y-104038083D01*
X76981122Y-104036343D01*
X77018119Y-103999346D01*
X77119296Y-103847923D01*
X77188876Y-103679941D01*
X77190463Y-103678723D01*
X77192311Y-103679488D01*
G37*
G36*
X82371650Y-103879878D02*
G01*
X82372485Y-103881504D01*
X82372485Y-103926950D01*
X82408913Y-104110087D01*
X82413191Y-104120415D01*
X82412930Y-104122397D01*
X82411082Y-104123163D01*
X82409929Y-104122594D01*
X82404643Y-104117308D01*
X82249390Y-104013571D01*
X82203369Y-103994508D01*
X82202151Y-103992921D01*
X82202916Y-103991073D01*
X82204715Y-103990746D01*
X82222097Y-103996019D01*
X82246088Y-103998382D01*
X82270079Y-103996019D01*
X82293154Y-103989019D01*
X82314418Y-103977654D01*
X82333055Y-103962359D01*
X82348350Y-103943722D01*
X82359715Y-103922458D01*
X82366715Y-103899383D01*
X82368495Y-103881308D01*
X82369660Y-103879682D01*
X82371650Y-103879878D01*
G37*
G36*
X82093134Y-103719420D02*
G01*
X82093899Y-103721268D01*
X82092859Y-103722771D01*
X82076844Y-103731330D01*
X82058207Y-103746625D01*
X82042912Y-103765262D01*
X82031547Y-103786526D01*
X82024547Y-103809601D01*
X82022184Y-103833592D01*
X82024547Y-103857583D01*
X82031547Y-103880658D01*
X82042912Y-103901922D01*
X82058207Y-103920559D01*
X82076844Y-103935854D01*
X82092859Y-103944413D01*
X82093915Y-103946111D01*
X82092972Y-103947875D01*
X82091151Y-103948025D01*
X82076884Y-103942116D01*
X81893747Y-103905688D01*
X81707031Y-103905688D01*
X81523894Y-103942116D01*
X81509627Y-103948025D01*
X81507644Y-103947764D01*
X81506879Y-103945916D01*
X81507919Y-103944413D01*
X81523934Y-103935854D01*
X81542571Y-103920559D01*
X81557866Y-103901922D01*
X81569231Y-103880658D01*
X81576231Y-103857583D01*
X81578594Y-103833592D01*
X81576231Y-103809601D01*
X81569231Y-103786526D01*
X81557866Y-103765262D01*
X81542571Y-103746625D01*
X81523934Y-103731330D01*
X81507919Y-103722771D01*
X81506863Y-103721073D01*
X81507806Y-103719309D01*
X81509627Y-103719159D01*
X81523894Y-103725068D01*
X81707031Y-103761496D01*
X81893747Y-103761496D01*
X82076884Y-103725068D01*
X82091151Y-103719159D01*
X82093134Y-103719420D01*
G37*
G36*
X82413275Y-103545486D02*
G01*
X82413191Y-103546769D01*
X82408913Y-103557097D01*
X82372485Y-103740234D01*
X82372485Y-103785680D01*
X82371485Y-103787412D01*
X82369485Y-103787412D01*
X82368495Y-103785876D01*
X82366715Y-103767801D01*
X82359715Y-103744726D01*
X82348350Y-103723462D01*
X82333055Y-103704825D01*
X82314418Y-103689530D01*
X82293154Y-103678165D01*
X82270079Y-103671165D01*
X82246088Y-103668802D01*
X82222097Y-103671165D01*
X82204715Y-103676438D01*
X82202767Y-103675984D01*
X82202186Y-103674070D01*
X82203369Y-103672676D01*
X82249390Y-103653613D01*
X82404643Y-103549876D01*
X82409929Y-103544590D01*
X82411861Y-103544072D01*
X82413275Y-103545486D01*
G37*
G36*
X78335305Y-103282865D02*
G01*
X78335695Y-103284827D01*
X78334382Y-103286098D01*
X78316992Y-103291373D01*
X78295728Y-103302738D01*
X78277091Y-103318034D01*
X78261796Y-103336671D01*
X78250431Y-103357934D01*
X78243431Y-103381009D01*
X78241068Y-103405000D01*
X78243431Y-103428991D01*
X78250431Y-103452066D01*
X78261796Y-103473330D01*
X78277092Y-103491967D01*
X78295729Y-103507262D01*
X78316992Y-103518627D01*
X78334382Y-103523902D01*
X78335749Y-103525362D01*
X78335168Y-103527276D01*
X78333411Y-103527778D01*
X78171055Y-103495483D01*
X77988945Y-103495483D01*
X77826589Y-103527778D01*
X77824695Y-103527135D01*
X77824305Y-103525173D01*
X77825618Y-103523902D01*
X77843008Y-103518627D01*
X77864272Y-103507262D01*
X77882909Y-103491966D01*
X77898204Y-103473329D01*
X77909569Y-103452066D01*
X77916569Y-103428991D01*
X77918932Y-103405000D01*
X77916569Y-103381009D01*
X77909569Y-103357934D01*
X77898204Y-103336670D01*
X77882908Y-103318033D01*
X77864271Y-103302738D01*
X77843008Y-103291373D01*
X77825618Y-103286098D01*
X77824251Y-103284638D01*
X77824832Y-103282724D01*
X77826589Y-103282222D01*
X77988945Y-103314517D01*
X78171055Y-103314517D01*
X78333411Y-103282222D01*
X78335305Y-103282865D01*
G37*
G36*
X77192116Y-102662337D02*
G01*
X77260704Y-102827923D01*
X77361881Y-102979346D01*
X77396395Y-103013860D01*
X77396913Y-103015792D01*
X77395499Y-103017206D01*
X77393712Y-103016820D01*
X77379674Y-103005299D01*
X77358410Y-102993934D01*
X77335335Y-102986934D01*
X77311344Y-102984571D01*
X77287353Y-102986934D01*
X77264278Y-102993934D01*
X77243014Y-103005299D01*
X77224377Y-103020594D01*
X77209082Y-103039231D01*
X77197717Y-103060495D01*
X77190717Y-103083570D01*
X77188354Y-103107561D01*
X77190727Y-103131646D01*
X77191694Y-103136508D01*
X77191051Y-103138402D01*
X77189089Y-103138792D01*
X77187884Y-103137663D01*
X77119296Y-102972077D01*
X77018119Y-102820654D01*
X76983605Y-102786140D01*
X76983087Y-102784208D01*
X76984501Y-102782794D01*
X76986288Y-102783180D01*
X77000326Y-102794701D01*
X77021590Y-102806066D01*
X77044665Y-102813066D01*
X77068656Y-102815429D01*
X77092647Y-102813066D01*
X77115722Y-102806066D01*
X77136986Y-102794701D01*
X77155623Y-102779406D01*
X77170918Y-102760769D01*
X77182283Y-102739505D01*
X77189283Y-102716430D01*
X77191646Y-102692439D01*
X77189273Y-102668354D01*
X77188306Y-102663492D01*
X77188949Y-102661598D01*
X77190911Y-102661208D01*
X77192116Y-102662337D01*
G37*
G36*
X82752283Y-102861308D02*
G01*
X82754063Y-102879383D01*
X82761063Y-102902458D01*
X82772428Y-102923722D01*
X82787723Y-102942359D01*
X82806360Y-102957654D01*
X82827624Y-102969019D01*
X82850699Y-102976019D01*
X82874690Y-102978382D01*
X82898681Y-102976019D01*
X82916063Y-102970746D01*
X82918011Y-102971200D01*
X82918592Y-102973114D01*
X82917409Y-102974508D01*
X82871388Y-102993571D01*
X82716135Y-103097308D01*
X82710849Y-103102594D01*
X82708917Y-103103112D01*
X82707503Y-103101698D01*
X82707587Y-103100415D01*
X82711865Y-103090087D01*
X82748293Y-102906950D01*
X82748293Y-102861504D01*
X82749293Y-102859772D01*
X82751293Y-102859772D01*
X82752283Y-102861308D01*
G37*
M02*
