G04 #@! TF.GenerationSoftware,KiCad,Pcbnew,(5.1.9)-1*
G04 #@! TF.CreationDate,2022-09-19T13:39:08+02:00*
G04 #@! TF.ProjectId,Zusatzplatine,5a757361-747a-4706-9c61-74696e652e6b,1.0*
G04 #@! TF.SameCoordinates,Original*
G04 #@! TF.FileFunction,Legend,Bot*
G04 #@! TF.FilePolarity,Positive*
%FSLAX46Y46*%
G04 Gerber Fmt 4.6, Leading zero omitted, Abs format (unit mm)*
G04 Created by KiCad (PCBNEW (5.1.9)-1) date 2022-09-19 13:39:08*
%MOMM*%
%LPD*%
G01*
G04 APERTURE LIST*
%ADD10C,0.120000*%
%ADD11C,0.150000*%
%ADD12C,3.000000*%
%ADD13C,1.862000*%
%ADD14C,2.830000*%
%ADD15C,3.700000*%
%ADD16C,3.650000*%
%ADD17C,1.909000*%
%ADD18C,2.900000*%
%ADD19C,2.700000*%
%ADD20O,2.480000X4.000000*%
%ADD21O,4.000000X2.480000*%
%ADD22O,2.100000X2.100000*%
%ADD23C,2.400000*%
%ADD24C,2.000000*%
%ADD25C,2.200000*%
G04 APERTURE END LIST*
D10*
X110015000Y-110761252D02*
X110015000Y-110238748D01*
X111485000Y-110761252D02*
X111485000Y-110238748D01*
X110985000Y-106238748D02*
X110985000Y-106761252D01*
X109515000Y-106238748D02*
X109515000Y-106761252D01*
D11*
X112787142Y-109857142D02*
X112834761Y-109809523D01*
X112882380Y-109666666D01*
X112882380Y-109571428D01*
X112834761Y-109428571D01*
X112739523Y-109333333D01*
X112644285Y-109285714D01*
X112453809Y-109238095D01*
X112310952Y-109238095D01*
X112120476Y-109285714D01*
X112025238Y-109333333D01*
X111930000Y-109428571D01*
X111882380Y-109571428D01*
X111882380Y-109666666D01*
X111930000Y-109809523D01*
X111977619Y-109857142D01*
X111977619Y-110238095D02*
X111930000Y-110285714D01*
X111882380Y-110380952D01*
X111882380Y-110619047D01*
X111930000Y-110714285D01*
X111977619Y-110761904D01*
X112072857Y-110809523D01*
X112168095Y-110809523D01*
X112310952Y-110761904D01*
X112882380Y-110190476D01*
X112882380Y-110809523D01*
X112215714Y-111666666D02*
X112882380Y-111666666D01*
X111834761Y-111428571D02*
X112549047Y-111190476D01*
X112549047Y-111809523D01*
X108927142Y-105857142D02*
X108974761Y-105809523D01*
X109022380Y-105666666D01*
X109022380Y-105571428D01*
X108974761Y-105428571D01*
X108879523Y-105333333D01*
X108784285Y-105285714D01*
X108593809Y-105238095D01*
X108450952Y-105238095D01*
X108260476Y-105285714D01*
X108165238Y-105333333D01*
X108070000Y-105428571D01*
X108022380Y-105571428D01*
X108022380Y-105666666D01*
X108070000Y-105809523D01*
X108117619Y-105857142D01*
X108117619Y-106238095D02*
X108070000Y-106285714D01*
X108022380Y-106380952D01*
X108022380Y-106619047D01*
X108070000Y-106714285D01*
X108117619Y-106761904D01*
X108212857Y-106809523D01*
X108308095Y-106809523D01*
X108450952Y-106761904D01*
X109022380Y-106190476D01*
X109022380Y-106809523D01*
X108022380Y-107142857D02*
X108022380Y-107761904D01*
X108403333Y-107428571D01*
X108403333Y-107571428D01*
X108450952Y-107666666D01*
X108498571Y-107714285D01*
X108593809Y-107761904D01*
X108831904Y-107761904D01*
X108927142Y-107714285D01*
X108974761Y-107666666D01*
X109022380Y-107571428D01*
X109022380Y-107285714D01*
X108974761Y-107190476D01*
X108927142Y-107142857D01*
%LPC*%
D12*
X68580000Y-109220000D03*
X123444000Y-79248000D03*
X68580000Y-79248000D03*
G36*
G01*
X111325000Y-110250000D02*
X110175000Y-110250000D01*
G75*
G02*
X109825000Y-109900000I0J350000D01*
G01*
X109825000Y-109200000D01*
G75*
G02*
X110175000Y-108850000I350000J0D01*
G01*
X111325000Y-108850000D01*
G75*
G02*
X111675000Y-109200000I0J-350000D01*
G01*
X111675000Y-109900000D01*
G75*
G02*
X111325000Y-110250000I-350000J0D01*
G01*
G37*
G36*
G01*
X111325000Y-112150000D02*
X110175000Y-112150000D01*
G75*
G02*
X109825000Y-111800000I0J350000D01*
G01*
X109825000Y-111100000D01*
G75*
G02*
X110175000Y-110750000I350000J0D01*
G01*
X111325000Y-110750000D01*
G75*
G02*
X111675000Y-111100000I0J-350000D01*
G01*
X111675000Y-111800000D01*
G75*
G02*
X111325000Y-112150000I-350000J0D01*
G01*
G37*
G36*
G01*
X109675000Y-106750000D02*
X110825000Y-106750000D01*
G75*
G02*
X111175000Y-107100000I0J-350000D01*
G01*
X111175000Y-107800000D01*
G75*
G02*
X110825000Y-108150000I-350000J0D01*
G01*
X109675000Y-108150000D01*
G75*
G02*
X109325000Y-107800000I0J350000D01*
G01*
X109325000Y-107100000D01*
G75*
G02*
X109675000Y-106750000I350000J0D01*
G01*
G37*
G36*
G01*
X109675000Y-104850000D02*
X110825000Y-104850000D01*
G75*
G02*
X111175000Y-105200000I0J-350000D01*
G01*
X111175000Y-105900000D01*
G75*
G02*
X110825000Y-106250000I-350000J0D01*
G01*
X109675000Y-106250000D01*
G75*
G02*
X109325000Y-105900000I0J350000D01*
G01*
X109325000Y-105200000D01*
G75*
G02*
X109675000Y-104850000I350000J0D01*
G01*
G37*
D13*
X76300000Y-109500000D03*
X78080000Y-108480000D03*
X76300000Y-107470000D03*
X78080000Y-106450000D03*
X76300000Y-105440000D03*
X78080000Y-104420000D03*
X76300000Y-103410000D03*
X78080000Y-102390000D03*
D14*
X77190000Y-97820000D03*
X77190000Y-114080000D03*
D15*
X73760000Y-112300000D03*
X73760000Y-99600000D03*
D16*
X80280389Y-99903592D03*
X80280389Y-111843592D03*
D17*
X81800389Y-106893592D03*
X83320389Y-103833592D03*
X83320389Y-107913592D03*
X83320389Y-109953592D03*
X81800389Y-108933592D03*
X81800389Y-102813592D03*
X81800389Y-104853592D03*
X83320389Y-105873592D03*
D18*
X139115000Y-115205000D03*
X141915000Y-102505000D03*
D19*
X107105000Y-91080000D03*
G36*
G01*
X136455000Y-90080000D02*
X136455000Y-92080000D01*
G75*
G02*
X136255000Y-92280000I-200000J0D01*
G01*
X133955000Y-92280000D01*
G75*
G02*
X133755000Y-92080000I0J200000D01*
G01*
X133755000Y-90080000D01*
G75*
G02*
X133955000Y-89880000I200000J0D01*
G01*
X136255000Y-89880000D01*
G75*
G02*
X136455000Y-90080000I0J-200000D01*
G01*
G37*
X135105000Y-75880000D03*
X107105000Y-83480000D03*
D20*
X132345000Y-118990000D03*
X127265000Y-118990000D03*
G36*
G01*
X120945000Y-120790000D02*
X120945000Y-117190000D01*
G75*
G02*
X121145000Y-116990000I200000J0D01*
G01*
X123225000Y-116990000D01*
G75*
G02*
X123425000Y-117190000I0J-200000D01*
G01*
X123425000Y-120790000D01*
G75*
G02*
X123225000Y-120990000I-200000J0D01*
G01*
X121145000Y-120990000D01*
G75*
G02*
X120945000Y-120790000I0J200000D01*
G01*
G37*
X122185000Y-124070000D03*
X127265000Y-124070000D03*
X132345000Y-124070000D03*
D21*
X133815000Y-100195000D03*
X133815000Y-105275000D03*
G36*
G01*
X135615000Y-111595000D02*
X132015000Y-111595000D01*
G75*
G02*
X131815000Y-111395000I0J200000D01*
G01*
X131815000Y-109315000D01*
G75*
G02*
X132015000Y-109115000I200000J0D01*
G01*
X135615000Y-109115000D01*
G75*
G02*
X135815000Y-109315000I0J-200000D01*
G01*
X135815000Y-111395000D01*
G75*
G02*
X135615000Y-111595000I-200000J0D01*
G01*
G37*
D22*
X75960000Y-82920000D03*
X78500000Y-82920000D03*
X75960000Y-85460000D03*
X78500000Y-85460000D03*
X75960000Y-88000000D03*
G36*
G01*
X79550000Y-87150000D02*
X79550000Y-88850000D01*
G75*
G02*
X79350000Y-89050000I-200000J0D01*
G01*
X77650000Y-89050000D01*
G75*
G02*
X77450000Y-88850000I0J200000D01*
G01*
X77450000Y-87150000D01*
G75*
G02*
X77650000Y-86950000I200000J0D01*
G01*
X79350000Y-86950000D01*
G75*
G02*
X79550000Y-87150000I0J-200000D01*
G01*
G37*
D23*
X141210000Y-105180000D03*
X139110000Y-115180000D03*
D24*
X139765000Y-96870000D03*
X141565000Y-91870000D03*
D25*
X139110000Y-115180000D03*
X141160000Y-107680000D03*
M02*
