G04 #@! TF.GenerationSoftware,KiCad,Pcbnew,(5.1.9)-1*
G04 #@! TF.CreationDate,2022-09-19T13:39:08+02:00*
G04 #@! TF.ProjectId,Zusatzplatine,5a757361-747a-4706-9c61-74696e652e6b,1.0*
G04 #@! TF.SameCoordinates,Original*
G04 #@! TF.FileFunction,Legend,Top*
G04 #@! TF.FilePolarity,Positive*
%FSLAX46Y46*%
G04 Gerber Fmt 4.6, Leading zero omitted, Abs format (unit mm)*
G04 Created by KiCad (PCBNEW (5.1.9)-1) date 2022-09-19 13:39:08*
%MOMM*%
%LPD*%
G01*
G04 APERTURE LIST*
%ADD10C,0.300000*%
%ADD11C,0.010000*%
%ADD12C,0.120000*%
%ADD13C,0.200000*%
%ADD14C,0.100000*%
%ADD15C,0.150000*%
%ADD16C,0.152400*%
%ADD17C,0.254000*%
%ADD18C,3.000000*%
%ADD19C,1.862000*%
%ADD20C,2.830000*%
%ADD21C,3.700000*%
%ADD22C,3.650000*%
%ADD23C,1.909000*%
%ADD24C,2.900000*%
%ADD25C,2.700000*%
%ADD26O,2.480000X4.000000*%
%ADD27O,4.000000X2.480000*%
%ADD28O,2.100000X2.100000*%
%ADD29C,2.400000*%
%ADD30C,2.000000*%
%ADD31C,2.200000*%
G04 APERTURE END LIST*
D10*
X143428571Y-103535714D02*
X144928571Y-103035714D01*
X143428571Y-102535714D01*
X144857142Y-101464285D02*
X144928571Y-101607142D01*
X144928571Y-101892857D01*
X144857142Y-102035714D01*
X144714285Y-102107142D01*
X144142857Y-102107142D01*
X144000000Y-102035714D01*
X143928571Y-101892857D01*
X143928571Y-101607142D01*
X144000000Y-101464285D01*
X144142857Y-101392857D01*
X144285714Y-101392857D01*
X144428571Y-102107142D01*
X144928571Y-100750000D02*
X143928571Y-100750000D01*
X144214285Y-100750000D02*
X144071428Y-100678571D01*
X144000000Y-100607142D01*
X143928571Y-100464285D01*
X143928571Y-100321428D01*
X144857142Y-99892857D02*
X144928571Y-99750000D01*
X144928571Y-99464285D01*
X144857142Y-99321428D01*
X144714285Y-99250000D01*
X144642857Y-99250000D01*
X144500000Y-99321428D01*
X144428571Y-99464285D01*
X144428571Y-99678571D01*
X144357142Y-99821428D01*
X144214285Y-99892857D01*
X144142857Y-99892857D01*
X144000000Y-99821428D01*
X143928571Y-99678571D01*
X143928571Y-99464285D01*
X144000000Y-99321428D01*
X144928571Y-98607142D02*
X143928571Y-98607142D01*
X143428571Y-98607142D02*
X143500000Y-98678571D01*
X143571428Y-98607142D01*
X143500000Y-98535714D01*
X143428571Y-98607142D01*
X143571428Y-98607142D01*
X144928571Y-97678571D02*
X144857142Y-97821428D01*
X144785714Y-97892857D01*
X144642857Y-97964285D01*
X144214285Y-97964285D01*
X144071428Y-97892857D01*
X144000000Y-97821428D01*
X143928571Y-97678571D01*
X143928571Y-97464285D01*
X144000000Y-97321428D01*
X144071428Y-97250000D01*
X144214285Y-97178571D01*
X144642857Y-97178571D01*
X144785714Y-97250000D01*
X144857142Y-97321428D01*
X144928571Y-97464285D01*
X144928571Y-97678571D01*
X143928571Y-96535714D02*
X144928571Y-96535714D01*
X144071428Y-96535714D02*
X144000000Y-96464285D01*
X143928571Y-96321428D01*
X143928571Y-96107142D01*
X144000000Y-95964285D01*
X144142857Y-95892857D01*
X144928571Y-95892857D01*
X144928571Y-93250000D02*
X144928571Y-94107142D01*
X144928571Y-93678571D02*
X143428571Y-93678571D01*
X143642857Y-93821428D01*
X143785714Y-93964285D01*
X143857142Y-94107142D01*
X144785714Y-92607142D02*
X144857142Y-92535714D01*
X144928571Y-92607142D01*
X144857142Y-92678571D01*
X144785714Y-92607142D01*
X144928571Y-92607142D01*
X143428571Y-91607142D02*
X143428571Y-91464285D01*
X143500000Y-91321428D01*
X143571428Y-91250000D01*
X143714285Y-91178571D01*
X144000000Y-91107142D01*
X144357142Y-91107142D01*
X144642857Y-91178571D01*
X144785714Y-91250000D01*
X144857142Y-91321428D01*
X144928571Y-91464285D01*
X144928571Y-91607142D01*
X144857142Y-91750000D01*
X144785714Y-91821428D01*
X144642857Y-91892857D01*
X144357142Y-91964285D01*
X144000000Y-91964285D01*
X143714285Y-91892857D01*
X143571428Y-91821428D01*
X143500000Y-91750000D01*
X143428571Y-91607142D01*
D11*
G36*
X143220328Y-72431438D02*
G01*
X143243548Y-72364346D01*
X143278000Y-72344125D01*
X143317865Y-72372543D01*
X143335671Y-72431438D01*
X143333829Y-72495505D01*
X143299390Y-72517593D01*
X143278000Y-72518750D01*
X143229677Y-72506871D01*
X143218032Y-72459189D01*
X143220328Y-72431438D01*
G37*
X143220328Y-72431438D02*
X143243548Y-72364346D01*
X143278000Y-72344125D01*
X143317865Y-72372543D01*
X143335671Y-72431438D01*
X143333829Y-72495505D01*
X143299390Y-72517593D01*
X143278000Y-72518750D01*
X143229677Y-72506871D01*
X143218032Y-72459189D01*
X143220328Y-72431438D01*
G36*
X142013248Y-75911420D02*
G01*
X142039735Y-75871674D01*
X142094894Y-75855209D01*
X142184026Y-75852079D01*
X142275285Y-75852500D01*
X142542570Y-75852500D01*
X142616484Y-75971563D01*
X142660442Y-76060945D01*
X142686845Y-76168073D01*
X142700700Y-76314334D01*
X142701770Y-76335808D01*
X142706207Y-76461037D01*
X142702158Y-76541543D01*
X142684989Y-76595988D01*
X142650067Y-76643032D01*
X142617014Y-76677121D01*
X142507810Y-76754270D01*
X142390930Y-76769915D01*
X142279814Y-76736607D01*
X142202104Y-76685012D01*
X142142970Y-76603984D01*
X142097240Y-76482887D01*
X142059740Y-76311082D01*
X142052787Y-76269790D01*
X142025077Y-76100534D01*
X142010129Y-75984392D01*
X142013248Y-75911420D01*
G37*
X142013248Y-75911420D02*
X142039735Y-75871674D01*
X142094894Y-75855209D01*
X142184026Y-75852079D01*
X142275285Y-75852500D01*
X142542570Y-75852500D01*
X142616484Y-75971563D01*
X142660442Y-76060945D01*
X142686845Y-76168073D01*
X142700700Y-76314334D01*
X142701770Y-76335808D01*
X142706207Y-76461037D01*
X142702158Y-76541543D01*
X142684989Y-76595988D01*
X142650067Y-76643032D01*
X142617014Y-76677121D01*
X142507810Y-76754270D01*
X142390930Y-76769915D01*
X142279814Y-76736607D01*
X142202104Y-76685012D01*
X142142970Y-76603984D01*
X142097240Y-76482887D01*
X142059740Y-76311082D01*
X142052787Y-76269790D01*
X142025077Y-76100534D01*
X142010129Y-75984392D01*
X142013248Y-75911420D01*
G36*
X141172261Y-81456612D02*
G01*
X141239495Y-81318928D01*
X141357553Y-81212528D01*
X141411441Y-81181265D01*
X141487932Y-81147223D01*
X141573513Y-81124289D01*
X141684594Y-81109660D01*
X141837586Y-81100532D01*
X141896875Y-81098355D01*
X142053088Y-81094167D01*
X142163053Y-81095614D01*
X142243948Y-81105251D01*
X142312949Y-81125634D01*
X142387234Y-81159320D01*
X142420750Y-81176309D01*
X142554008Y-81259947D01*
X142636422Y-81351091D01*
X142650888Y-81377000D01*
X142695385Y-81524242D01*
X142701221Y-81690277D01*
X142668225Y-81844540D01*
X142653697Y-81878073D01*
X142567640Y-81998407D01*
X142441938Y-82085391D01*
X142271880Y-82140700D01*
X142052755Y-82166008D01*
X141843776Y-82165962D01*
X141603170Y-82141109D01*
X141416515Y-82085337D01*
X141281242Y-81996674D01*
X141194786Y-81873152D01*
X141154581Y-81712800D01*
X141150868Y-81634243D01*
X141172261Y-81456612D01*
G37*
X141172261Y-81456612D02*
X141239495Y-81318928D01*
X141357553Y-81212528D01*
X141411441Y-81181265D01*
X141487932Y-81147223D01*
X141573513Y-81124289D01*
X141684594Y-81109660D01*
X141837586Y-81100532D01*
X141896875Y-81098355D01*
X142053088Y-81094167D01*
X142163053Y-81095614D01*
X142243948Y-81105251D01*
X142312949Y-81125634D01*
X142387234Y-81159320D01*
X142420750Y-81176309D01*
X142554008Y-81259947D01*
X142636422Y-81351091D01*
X142650888Y-81377000D01*
X142695385Y-81524242D01*
X142701221Y-81690277D01*
X142668225Y-81844540D01*
X142653697Y-81878073D01*
X142567640Y-81998407D01*
X142441938Y-82085391D01*
X142271880Y-82140700D01*
X142052755Y-82166008D01*
X141843776Y-82165962D01*
X141603170Y-82141109D01*
X141416515Y-82085337D01*
X141281242Y-81996674D01*
X141194786Y-81873152D01*
X141154581Y-81712800D01*
X141150868Y-81634243D01*
X141172261Y-81456612D01*
G36*
X143995399Y-76922223D02*
G01*
X144050302Y-76845205D01*
X144135920Y-76806760D01*
X144161562Y-76805000D01*
X144195818Y-76809191D01*
X144216339Y-76830352D01*
X144226621Y-76881363D01*
X144230159Y-76975107D01*
X144230500Y-77059000D01*
X144228389Y-77188584D01*
X144220562Y-77266366D01*
X144204773Y-77303950D01*
X144181358Y-77313000D01*
X144128187Y-77291181D01*
X144062768Y-77237773D01*
X144054358Y-77228989D01*
X143993490Y-77129688D01*
X143975150Y-77022242D01*
X143995399Y-76922223D01*
G37*
X143995399Y-76922223D02*
X144050302Y-76845205D01*
X144135920Y-76806760D01*
X144161562Y-76805000D01*
X144195818Y-76809191D01*
X144216339Y-76830352D01*
X144226621Y-76881363D01*
X144230159Y-76975107D01*
X144230500Y-77059000D01*
X144228389Y-77188584D01*
X144220562Y-77266366D01*
X144204773Y-77303950D01*
X144181358Y-77313000D01*
X144128187Y-77291181D01*
X144062768Y-77237773D01*
X144054358Y-77228989D01*
X143993490Y-77129688D01*
X143975150Y-77022242D01*
X143995399Y-76922223D01*
G36*
X143107571Y-72328194D02*
G01*
X143182272Y-72232017D01*
X143264680Y-72182262D01*
X143349527Y-72154678D01*
X143420554Y-72159901D01*
X143481819Y-72182262D01*
X143564152Y-72229791D01*
X143621084Y-72285644D01*
X143624694Y-72291725D01*
X143652180Y-72385197D01*
X143654951Y-72495026D01*
X143633625Y-72589829D01*
X143618302Y-72616752D01*
X143515834Y-72704512D01*
X143394660Y-72736484D01*
X143371424Y-72731837D01*
X143371424Y-72582250D01*
X143473639Y-72577471D01*
X143543018Y-72564965D01*
X143563750Y-72550500D01*
X143536578Y-72526633D01*
X143484375Y-72518750D01*
X143420271Y-72501994D01*
X143405000Y-72470445D01*
X143431072Y-72422850D01*
X143484375Y-72385973D01*
X143540189Y-72350302D01*
X143563046Y-72317542D01*
X143548205Y-72302419D01*
X143508187Y-72312025D01*
X143438932Y-72339990D01*
X143412937Y-72350568D01*
X143377414Y-72344400D01*
X143373250Y-72329538D01*
X143345901Y-72304646D01*
X143285937Y-72302329D01*
X143230030Y-72315908D01*
X143202335Y-72352172D01*
X143190187Y-72430037D01*
X143188861Y-72447313D01*
X143179098Y-72582250D01*
X143371424Y-72582250D01*
X143371424Y-72731837D01*
X143268781Y-72711308D01*
X143185186Y-72658803D01*
X143106433Y-72557145D01*
X143081426Y-72441756D01*
X143107571Y-72328194D01*
G37*
X143107571Y-72328194D02*
X143182272Y-72232017D01*
X143264680Y-72182262D01*
X143349527Y-72154678D01*
X143420554Y-72159901D01*
X143481819Y-72182262D01*
X143564152Y-72229791D01*
X143621084Y-72285644D01*
X143624694Y-72291725D01*
X143652180Y-72385197D01*
X143654951Y-72495026D01*
X143633625Y-72589829D01*
X143618302Y-72616752D01*
X143515834Y-72704512D01*
X143394660Y-72736484D01*
X143371424Y-72731837D01*
X143371424Y-72582250D01*
X143473639Y-72577471D01*
X143543018Y-72564965D01*
X143563750Y-72550500D01*
X143536578Y-72526633D01*
X143484375Y-72518750D01*
X143420271Y-72501994D01*
X143405000Y-72470445D01*
X143431072Y-72422850D01*
X143484375Y-72385973D01*
X143540189Y-72350302D01*
X143563046Y-72317542D01*
X143548205Y-72302419D01*
X143508187Y-72312025D01*
X143438932Y-72339990D01*
X143412937Y-72350568D01*
X143377414Y-72344400D01*
X143373250Y-72329538D01*
X143345901Y-72304646D01*
X143285937Y-72302329D01*
X143230030Y-72315908D01*
X143202335Y-72352172D01*
X143190187Y-72430037D01*
X143188861Y-72447313D01*
X143179098Y-72582250D01*
X143371424Y-72582250D01*
X143371424Y-72731837D01*
X143268781Y-72711308D01*
X143185186Y-72658803D01*
X143106433Y-72557145D01*
X143081426Y-72441756D01*
X143107571Y-72328194D01*
G36*
X140634399Y-72106000D02*
G01*
X140649300Y-72336188D01*
X140694667Y-72605202D01*
X140795232Y-72845031D01*
X140896081Y-72994156D01*
X140951970Y-73068351D01*
X140986544Y-73121236D01*
X140991999Y-73134507D01*
X140963279Y-73145048D01*
X140889194Y-73152037D01*
X140817375Y-73153750D01*
X140642750Y-73153750D01*
X140642749Y-73566861D01*
X140642749Y-73979971D01*
X143198625Y-73963375D01*
X143207511Y-73558563D01*
X143216397Y-73153750D01*
X141498428Y-73153750D01*
X141462460Y-73066438D01*
X141444319Y-72991235D01*
X141428761Y-72870322D01*
X141416706Y-72721470D01*
X141409074Y-72562446D01*
X141406787Y-72411021D01*
X141410764Y-72284962D01*
X141418473Y-72217426D01*
X141439377Y-72106000D01*
X142382501Y-72108013D01*
X142678399Y-72109579D01*
X142914147Y-72112871D01*
X143089037Y-72117863D01*
X143202366Y-72124528D01*
X143253426Y-72132842D01*
X143251304Y-72139807D01*
X143139262Y-72216041D01*
X143073541Y-72333462D01*
X143056806Y-72449755D01*
X143082306Y-72585530D01*
X143152400Y-72689011D01*
X143254016Y-72754493D01*
X143374085Y-72776274D01*
X143499535Y-72748649D01*
X143596906Y-72685438D01*
X143674535Y-72578429D01*
X143701663Y-72454147D01*
X143680846Y-72329486D01*
X143614636Y-72221341D01*
X143516125Y-72151088D01*
X143493690Y-72138081D01*
X143495443Y-72127941D01*
X143527309Y-72120305D01*
X143595219Y-72114816D01*
X143705100Y-72111112D01*
X143862880Y-72108834D01*
X144074489Y-72107622D01*
X144238437Y-72107243D01*
X145056000Y-72106000D01*
X145056000Y-90362250D01*
X144671723Y-90362250D01*
X144671723Y-88284650D01*
X144701052Y-88242074D01*
X144741156Y-88150751D01*
X144787668Y-88023605D01*
X144836219Y-87873558D01*
X144882443Y-87713532D01*
X144921970Y-87556449D01*
X144929974Y-87520625D01*
X144967816Y-87272502D01*
X144985528Y-86985329D01*
X144983725Y-86680069D01*
X144963202Y-86380303D01*
X144963202Y-83059750D01*
X144980226Y-83030154D01*
X144987562Y-82948866D01*
X144986077Y-82864045D01*
X144977276Y-82681819D01*
X144977276Y-81821500D01*
X144985156Y-81792585D01*
X144990657Y-81717157D01*
X144992500Y-81622585D01*
X144992500Y-81423669D01*
X144576192Y-81331010D01*
X144418675Y-81293562D01*
X144281756Y-81256550D01*
X144178433Y-81223809D01*
X144121704Y-81199175D01*
X144117064Y-81195530D01*
X144078541Y-81127180D01*
X144051804Y-81028133D01*
X144043707Y-80931002D01*
X144051666Y-80884394D01*
X144076541Y-80844891D01*
X144120410Y-80822976D01*
X144192763Y-80818581D01*
X144303093Y-80831636D01*
X144460892Y-80862073D01*
X144547072Y-80880791D01*
X144695810Y-80913136D01*
X144823083Y-80939642D01*
X144915438Y-80957588D01*
X144959423Y-80964250D01*
X144959545Y-80964250D01*
X144980915Y-80933345D01*
X144988036Y-80840784D01*
X144986077Y-80767948D01*
X144976625Y-80571645D01*
X144579750Y-80483141D01*
X144350673Y-80435085D01*
X144173673Y-80405857D01*
X144040230Y-80395300D01*
X143941824Y-80403255D01*
X143869938Y-80429563D01*
X143820681Y-80469005D01*
X143754250Y-80580401D01*
X143754250Y-79633628D01*
X143857437Y-79616094D01*
X143926394Y-79605187D01*
X144043288Y-79587545D01*
X144193190Y-79565388D01*
X144361172Y-79540939D01*
X144405125Y-79534602D01*
X144611104Y-79505589D01*
X144762810Y-79483394D01*
X144868447Y-79463475D01*
X144936216Y-79441291D01*
X144974321Y-79412301D01*
X144990964Y-79371964D01*
X144994349Y-79315737D01*
X144992677Y-79239080D01*
X144992415Y-79209458D01*
X144992330Y-78979875D01*
X144461065Y-78652826D01*
X144461065Y-77754672D01*
X144640475Y-77743489D01*
X144758611Y-77705737D01*
X144840498Y-77656326D01*
X144902526Y-77587899D01*
X144958889Y-77482719D01*
X144983955Y-77424125D01*
X145002832Y-77338266D01*
X145012271Y-77210249D01*
X145012845Y-77060477D01*
X145005131Y-76909353D01*
X144989704Y-76777279D01*
X144967137Y-76684660D01*
X144962838Y-76674733D01*
X144952812Y-76662190D01*
X144952812Y-75819769D01*
X144977801Y-75794122D01*
X144990451Y-75712781D01*
X144992500Y-75634181D01*
X144992500Y-75447612D01*
X144588298Y-75346388D01*
X144435646Y-75305858D01*
X144305583Y-75266993D01*
X144210480Y-75233804D01*
X144162711Y-75210306D01*
X144160159Y-75207519D01*
X144147849Y-75158134D01*
X144139040Y-75065777D01*
X144135736Y-74957055D01*
X144135250Y-74744235D01*
X144016187Y-74711170D01*
X143932493Y-74691781D01*
X143932493Y-74137051D01*
X143991207Y-74121952D01*
X144008250Y-74074500D01*
X144011115Y-74040566D01*
X144026769Y-74021300D01*
X144065802Y-74016702D01*
X144138802Y-74026773D01*
X144256357Y-74051512D01*
X144357500Y-74074500D01*
X144566320Y-74116979D01*
X144724463Y-74134942D01*
X144840332Y-74127149D01*
X144922331Y-74092361D01*
X144978861Y-74029340D01*
X145003335Y-73979250D01*
X145011398Y-73927270D01*
X145015123Y-73835962D01*
X145014935Y-73724760D01*
X145011258Y-73613097D01*
X145004517Y-73520406D01*
X144995138Y-73466122D01*
X144991990Y-73460344D01*
X144953640Y-73445328D01*
X144877416Y-73426863D01*
X144853213Y-73422108D01*
X144729801Y-73399052D01*
X144750664Y-73510264D01*
X144761917Y-73609494D01*
X144747679Y-73676507D01*
X144701257Y-73713385D01*
X144615959Y-73722216D01*
X144485092Y-73705084D01*
X144301964Y-73664074D01*
X144276976Y-73657852D01*
X144008250Y-73590454D01*
X144008250Y-73407555D01*
X144005497Y-73302577D01*
X143993291Y-73244256D01*
X143965712Y-73215848D01*
X143936812Y-73205512D01*
X143839376Y-73184698D01*
X143784480Y-73194954D01*
X143760116Y-73246676D01*
X143754277Y-73350261D01*
X143754250Y-73363567D01*
X143752890Y-73464250D01*
X143744006Y-73515073D01*
X143720389Y-73529677D01*
X143674833Y-73521700D01*
X143671170Y-73520783D01*
X143573739Y-73498032D01*
X143496545Y-73481622D01*
X143405000Y-73463313D01*
X143405000Y-73849803D01*
X143539937Y-73884344D01*
X143652157Y-73914190D01*
X143716228Y-73937429D01*
X143745635Y-73962735D01*
X143753863Y-73998781D01*
X143754250Y-74022176D01*
X143777376Y-74091772D01*
X143825687Y-74117989D01*
X143932493Y-74137051D01*
X143932493Y-74691781D01*
X143887226Y-74681293D01*
X143806760Y-74679804D01*
X143765525Y-74708698D01*
X143754250Y-74767620D01*
X143768615Y-74847382D01*
X143805317Y-74952244D01*
X143833492Y-75013682D01*
X143877052Y-75100915D01*
X143905891Y-75161294D01*
X143912867Y-75178418D01*
X143886555Y-75178087D01*
X143832010Y-75166633D01*
X143751020Y-75146306D01*
X143760572Y-75348442D01*
X143770125Y-75550578D01*
X144341625Y-75684683D01*
X144525227Y-75727332D01*
X144688720Y-75764492D01*
X144821579Y-75793836D01*
X144913280Y-75813037D01*
X144952812Y-75819769D01*
X144952812Y-76662190D01*
X144913170Y-76612594D01*
X144825648Y-76571498D01*
X144775265Y-76558269D01*
X144687241Y-76540174D01*
X144629771Y-76532230D01*
X144618686Y-76533231D01*
X144624925Y-76564704D01*
X144650597Y-76635165D01*
X144670998Y-76684540D01*
X144732423Y-76903616D01*
X144742937Y-77147756D01*
X144713700Y-77228673D01*
X144649124Y-77307553D01*
X144570248Y-77363031D01*
X144517693Y-77376500D01*
X144492303Y-77373554D01*
X144474567Y-77358291D01*
X144463116Y-77321072D01*
X144456581Y-77252258D01*
X144453590Y-77142213D01*
X144452775Y-76981298D01*
X144452750Y-76919522D01*
X144452704Y-76732253D01*
X144449013Y-76599216D01*
X144436342Y-76511167D01*
X144409356Y-76458862D01*
X144362722Y-76433056D01*
X144291105Y-76424504D01*
X144189171Y-76423961D01*
X144166839Y-76424000D01*
X144047174Y-76429749D01*
X143964781Y-76451838D01*
X143894083Y-76497537D01*
X143886805Y-76503573D01*
X143798935Y-76616248D01*
X143745985Y-76766823D01*
X143727089Y-76940747D01*
X143741378Y-77123464D01*
X143787986Y-77300423D01*
X143866045Y-77457069D01*
X143949597Y-77557092D01*
X144096227Y-77657909D01*
X144273182Y-77724957D01*
X144461065Y-77754672D01*
X144461065Y-78652826D01*
X144399215Y-78614750D01*
X144224707Y-78507577D01*
X144068004Y-78411821D01*
X143937305Y-78332455D01*
X143840811Y-78274450D01*
X143786723Y-78242777D01*
X143778652Y-78238535D01*
X143766291Y-78261686D01*
X143759767Y-78333039D01*
X143760408Y-78437455D01*
X143760664Y-78443556D01*
X143770125Y-78659668D01*
X144150622Y-78873828D01*
X144289919Y-78953846D01*
X144407769Y-79024611D01*
X144493757Y-79079633D01*
X144537462Y-79112424D01*
X144540719Y-79116784D01*
X144515871Y-79131841D01*
X144441279Y-79147830D01*
X144330599Y-79162179D01*
X144271346Y-79167519D01*
X144127831Y-79179841D01*
X143993671Y-79193143D01*
X143892536Y-79205031D01*
X143873312Y-79207787D01*
X143754250Y-79226116D01*
X143754250Y-79633628D01*
X143754250Y-80580401D01*
X143748154Y-80590624D01*
X143730929Y-80739437D01*
X143769217Y-80911065D01*
X143796357Y-80976995D01*
X143839632Y-81074331D01*
X143857077Y-81127571D01*
X143850157Y-81149958D01*
X143820334Y-81154732D01*
X143815993Y-81154750D01*
X143781290Y-81162274D01*
X143762623Y-81194503D01*
X143755244Y-81265928D01*
X143754250Y-81343111D01*
X143757969Y-81453693D01*
X143771805Y-81515918D01*
X143799776Y-81544633D01*
X143809812Y-81548427D01*
X143857699Y-81560937D01*
X143952636Y-81584166D01*
X144082708Y-81615326D01*
X144235997Y-81651630D01*
X144400586Y-81690290D01*
X144564558Y-81728519D01*
X144715996Y-81763529D01*
X144842982Y-81792534D01*
X144933600Y-81812745D01*
X144975933Y-81821375D01*
X144977276Y-81821500D01*
X144977276Y-82681819D01*
X144976625Y-82668339D01*
X144389250Y-82531906D01*
X144204354Y-82489176D01*
X144040809Y-82451791D01*
X143908632Y-82422007D01*
X143817837Y-82402080D01*
X143778440Y-82394266D01*
X143778062Y-82394237D01*
X143765475Y-82422381D01*
X143756844Y-82496753D01*
X143754250Y-82582277D01*
X143754250Y-82771553D01*
X143873312Y-82803498D01*
X143972059Y-82828995D01*
X144105089Y-82861969D01*
X144260117Y-82899531D01*
X144424854Y-82938792D01*
X144587014Y-82976864D01*
X144734311Y-83010857D01*
X144854458Y-83037883D01*
X144935168Y-83055052D01*
X144963202Y-83059750D01*
X144963202Y-86380303D01*
X144963023Y-86377688D01*
X144924040Y-86099149D01*
X144882828Y-85917250D01*
X144837202Y-85765057D01*
X144786861Y-85615881D01*
X144740177Y-85493945D01*
X144723764Y-85456875D01*
X144648542Y-85298125D01*
X144645896Y-86800187D01*
X144645900Y-87128788D01*
X144647064Y-87425947D01*
X144649305Y-87686873D01*
X144652540Y-87906779D01*
X144656685Y-88080873D01*
X144661657Y-88204366D01*
X144667373Y-88272469D01*
X144671723Y-88284650D01*
X144671723Y-90362250D01*
X143913000Y-90362250D01*
X143913000Y-89358131D01*
X144011208Y-89264878D01*
X144074350Y-89197620D01*
X144160395Y-89096377D01*
X144254836Y-88978475D01*
X144296958Y-88923609D01*
X144484500Y-88675592D01*
X144484500Y-84975637D01*
X144381312Y-84819772D01*
X144306778Y-84718055D01*
X144207550Y-84596773D01*
X144104157Y-84480933D01*
X144096668Y-84473016D01*
X143915211Y-84282125D01*
X143914105Y-86820128D01*
X143913000Y-89358131D01*
X143913000Y-90362250D01*
X143079562Y-90362250D01*
X143079562Y-89949419D01*
X143121724Y-89932838D01*
X143201422Y-89889290D01*
X143303931Y-89827878D01*
X143414525Y-89757702D01*
X143518478Y-89687866D01*
X143601066Y-89627472D01*
X143603437Y-89625602D01*
X143722500Y-89531415D01*
X143722500Y-84084951D01*
X143539937Y-83958180D01*
X143500208Y-83931500D01*
X143500208Y-82734801D01*
X143559491Y-82734089D01*
X143587056Y-82696339D01*
X143595047Y-82611197D01*
X143595500Y-82539645D01*
X143595500Y-82337039D01*
X143454440Y-82301520D01*
X143366423Y-82280250D01*
X143307080Y-82267564D01*
X143295690Y-82266000D01*
X143286651Y-82294957D01*
X143280275Y-82370672D01*
X143278000Y-82470883D01*
X143278000Y-82675766D01*
X143397062Y-82708831D01*
X143500208Y-82734801D01*
X143500208Y-83931500D01*
X143417921Y-83876240D01*
X143289364Y-83794194D01*
X143204435Y-83742941D01*
X143051496Y-83654474D01*
X143063239Y-83984175D01*
X143076115Y-84187153D01*
X143100243Y-84345898D01*
X143138593Y-84479134D01*
X143144005Y-84493551D01*
X143216005Y-84745057D01*
X143258421Y-85036125D01*
X143271612Y-85350319D01*
X143255940Y-85671208D01*
X143211768Y-85982358D01*
X143139456Y-86267333D01*
X143102727Y-86370331D01*
X143092258Y-86405435D01*
X143083414Y-86456397D01*
X143076067Y-86528260D01*
X143070088Y-86626069D01*
X143065351Y-86754867D01*
X143061726Y-86919698D01*
X143059086Y-87125605D01*
X143057303Y-87377633D01*
X143056248Y-87680825D01*
X143055793Y-88040224D01*
X143055750Y-88219768D01*
X143056173Y-88544545D01*
X143057392Y-88849450D01*
X143059326Y-89128723D01*
X143061897Y-89376607D01*
X143065025Y-89587343D01*
X143068630Y-89755172D01*
X143072634Y-89874336D01*
X143076958Y-89939075D01*
X143079562Y-89949419D01*
X143079562Y-90362250D01*
X142123892Y-90362250D01*
X142123892Y-90287620D01*
X142127062Y-90286905D01*
X142191207Y-90269646D01*
X142286535Y-90245391D01*
X142325500Y-90235753D01*
X142435465Y-90205657D01*
X142570505Y-90164449D01*
X142666812Y-90132742D01*
X142865250Y-90064757D01*
X142865250Y-86615750D01*
X142865250Y-84015243D01*
X142865250Y-83574645D01*
X142737065Y-83523356D01*
X142643239Y-83489541D01*
X142521577Y-83450674D01*
X142389800Y-83411796D01*
X142265629Y-83377949D01*
X142166786Y-83354172D01*
X142111825Y-83345500D01*
X142086821Y-83370443D01*
X142073932Y-83448902D01*
X142071500Y-83536000D01*
X142071500Y-83726500D01*
X142210383Y-83726500D01*
X142416334Y-83755152D01*
X142617715Y-83835194D01*
X142746187Y-83919756D01*
X142865250Y-84015243D01*
X142865250Y-86615750D01*
X142531875Y-86615750D01*
X142367636Y-86613424D01*
X142260942Y-86602764D01*
X142205898Y-86578248D01*
X142196609Y-86534355D01*
X142227183Y-86465564D01*
X142281563Y-86381251D01*
X142449329Y-86078692D01*
X142562448Y-85748465D01*
X142618254Y-85399382D01*
X142623957Y-85250500D01*
X142620543Y-85097672D01*
X142606601Y-84985093D01*
X142578156Y-84889852D01*
X142550558Y-84827530D01*
X142466930Y-84702171D01*
X142368874Y-84635802D01*
X142261208Y-84629835D01*
X142148753Y-84685679D01*
X142127062Y-84703552D01*
X142117363Y-84714966D01*
X142108859Y-84733727D01*
X142101472Y-84763803D01*
X142095123Y-84809164D01*
X142089735Y-84873778D01*
X142085229Y-84961614D01*
X142081527Y-85076642D01*
X142078552Y-85222830D01*
X142076225Y-85404147D01*
X142074468Y-85624562D01*
X142073203Y-85888045D01*
X142072351Y-86198564D01*
X142071836Y-86560089D01*
X142071579Y-86976587D01*
X142071501Y-87452029D01*
X142071500Y-87527686D01*
X142071550Y-88011453D01*
X142071754Y-88435596D01*
X142072190Y-88803993D01*
X142072935Y-89120519D01*
X142074068Y-89389053D01*
X142075667Y-89613469D01*
X142077809Y-89797646D01*
X142080574Y-89945460D01*
X142084038Y-90060786D01*
X142088280Y-90147503D01*
X142093378Y-90209486D01*
X142099410Y-90250613D01*
X142106455Y-90274760D01*
X142114589Y-90285803D01*
X142123892Y-90287620D01*
X142123892Y-90362250D01*
X141928625Y-90362250D01*
X141928625Y-83011005D01*
X142099901Y-83010743D01*
X142223461Y-83007205D01*
X142315081Y-82997895D01*
X142390538Y-82980321D01*
X142465612Y-82951986D01*
X142551667Y-82912487D01*
X142792714Y-82770931D01*
X142981138Y-82597050D01*
X143122269Y-82384465D01*
X143221441Y-82126802D01*
X143227755Y-82103928D01*
X143255868Y-81949514D01*
X143271467Y-81757090D01*
X143274143Y-81550985D01*
X143263485Y-81355526D01*
X143242798Y-81211876D01*
X143157630Y-80944476D01*
X143023919Y-80716369D01*
X142844642Y-80529729D01*
X142622773Y-80386725D01*
X142361290Y-80289531D01*
X142063169Y-80240317D01*
X141903249Y-80234377D01*
X141600847Y-80261777D01*
X141329347Y-80340868D01*
X141092863Y-80468556D01*
X140895511Y-80641746D01*
X140741405Y-80857345D01*
X140634662Y-81112256D01*
X140609962Y-81207007D01*
X140587613Y-81363435D01*
X140578393Y-81556935D01*
X140581857Y-81762849D01*
X140597565Y-81956517D01*
X140625073Y-82113279D01*
X140626314Y-82118060D01*
X140723122Y-82370117D01*
X140869289Y-82592756D01*
X141056967Y-82776896D01*
X141278311Y-82913461D01*
X141334848Y-82937861D01*
X141421750Y-82968903D01*
X141508176Y-82989780D01*
X141610012Y-83002449D01*
X141743144Y-83008867D01*
X141923458Y-83010991D01*
X141928625Y-83011005D01*
X141928625Y-90362250D01*
X141444748Y-90362250D01*
X141444748Y-90329591D01*
X141591151Y-90328705D01*
X141722748Y-90325582D01*
X141825109Y-90320240D01*
X141883804Y-90312697D01*
X141891583Y-90309334D01*
X141894933Y-90274956D01*
X141898060Y-90182009D01*
X141900925Y-90035423D01*
X141903490Y-89840128D01*
X141905718Y-89601055D01*
X141907569Y-89323133D01*
X141909006Y-89011293D01*
X141909992Y-88670466D01*
X141910487Y-88305581D01*
X141910453Y-87921570D01*
X141910410Y-87872521D01*
X141908071Y-85456875D01*
X141815467Y-85746516D01*
X141708053Y-86021951D01*
X141579101Y-86239952D01*
X141425770Y-86403767D01*
X141245221Y-86516645D01*
X141097653Y-86567980D01*
X140967356Y-86601061D01*
X140967356Y-85414506D01*
X140985027Y-85384570D01*
X141009308Y-85305225D01*
X141041341Y-85178483D01*
X141082273Y-85006354D01*
X141133247Y-84790850D01*
X141133315Y-84790566D01*
X141175109Y-84629255D01*
X141221573Y-84472159D01*
X141266046Y-84340849D01*
X141291885Y-84277005D01*
X141378174Y-84125111D01*
X141488033Y-83984587D01*
X141607551Y-83870345D01*
X141722814Y-83797298D01*
X141748612Y-83787452D01*
X141829981Y-83759812D01*
X141883473Y-83739059D01*
X141888937Y-83736332D01*
X141901254Y-83699959D01*
X141909857Y-83618482D01*
X141912750Y-83520536D01*
X141912750Y-83318320D01*
X141732859Y-83295844D01*
X141647067Y-83290114D01*
X141527199Y-83288457D01*
X141388431Y-83290303D01*
X141245939Y-83295078D01*
X141114897Y-83302211D01*
X141010481Y-83311128D01*
X140947867Y-83321257D01*
X140937576Y-83325840D01*
X140935497Y-83358760D01*
X140934033Y-83447896D01*
X140933196Y-83585969D01*
X140932995Y-83765697D01*
X140933441Y-83979800D01*
X140934543Y-84220998D01*
X140936020Y-84443938D01*
X140938074Y-84752681D01*
X140939869Y-84999950D01*
X140942550Y-85187756D01*
X140947262Y-85318110D01*
X140955149Y-85393023D01*
X140967356Y-85414506D01*
X140967356Y-86601061D01*
X140944375Y-86606896D01*
X140936183Y-88449054D01*
X140927991Y-90291211D01*
X140999683Y-90310422D01*
X141061007Y-90318657D01*
X141165246Y-90324585D01*
X141297970Y-90328224D01*
X141444748Y-90329591D01*
X141444748Y-90362250D01*
X140738000Y-90362250D01*
X140738000Y-90268210D01*
X140738000Y-86620256D01*
X140685942Y-86605099D01*
X140685942Y-85692254D01*
X140706992Y-85667285D01*
X140721430Y-85609971D01*
X140730503Y-85514465D01*
X140735457Y-85374921D01*
X140737538Y-85185493D01*
X140737994Y-84940334D01*
X140738000Y-84846561D01*
X140737744Y-84592946D01*
X140736712Y-84396505D01*
X140734502Y-84250911D01*
X140730712Y-84149841D01*
X140724943Y-84086967D01*
X140716794Y-84055965D01*
X140705863Y-84050509D01*
X140691750Y-84064274D01*
X140688701Y-84068505D01*
X140627147Y-84173526D01*
X140558992Y-84316280D01*
X140494427Y-84473263D01*
X140443642Y-84620968D01*
X140433135Y-84658004D01*
X140397310Y-84853497D01*
X140388601Y-85054890D01*
X140405051Y-85248326D01*
X140444702Y-85419949D01*
X140505598Y-85555902D01*
X140570661Y-85631560D01*
X140619023Y-85668545D01*
X140657035Y-85690726D01*
X140685942Y-85692254D01*
X140685942Y-86605099D01*
X140571312Y-86571723D01*
X140352968Y-86475671D01*
X140162459Y-86324022D01*
X140002177Y-86119362D01*
X139874514Y-85864273D01*
X139846449Y-85788537D01*
X139793208Y-85574751D01*
X139762770Y-85318309D01*
X139754686Y-85035642D01*
X139768505Y-84743183D01*
X139803778Y-84457365D01*
X139860056Y-84194620D01*
X139893047Y-84085514D01*
X139965904Y-83869375D01*
X140351952Y-83860461D01*
X140738000Y-83851546D01*
X140738000Y-83614398D01*
X140736379Y-83492694D01*
X140729275Y-83421365D01*
X140713320Y-83387320D01*
X140685151Y-83377470D01*
X140677029Y-83377250D01*
X140602266Y-83389963D01*
X140484472Y-83424502D01*
X140337983Y-83475473D01*
X140177137Y-83537481D01*
X140016271Y-83605129D01*
X139869721Y-83673022D01*
X139809151Y-83703860D01*
X139658500Y-83783578D01*
X139658500Y-79313250D01*
X143216397Y-79313250D01*
X143207511Y-78908438D01*
X143198625Y-78503625D01*
X142470187Y-78500249D01*
X142470187Y-77596938D01*
X142682812Y-77569662D01*
X142869997Y-77492497D01*
X143027097Y-77371204D01*
X143149468Y-77211544D01*
X143232466Y-77019279D01*
X143271446Y-76800170D01*
X143261765Y-76559978D01*
X143215304Y-76354705D01*
X143166174Y-76224803D01*
X143104038Y-76099056D01*
X143057437Y-76025923D01*
X143002168Y-75948658D01*
X142967392Y-75891962D01*
X142961383Y-75876313D01*
X142988974Y-75861407D01*
X143058981Y-75853111D01*
X143087500Y-75852500D01*
X143214500Y-75852500D01*
X143214500Y-75056253D01*
X142190562Y-75065439D01*
X141885862Y-75068489D01*
X141637579Y-75072566D01*
X141438629Y-75079086D01*
X141281930Y-75089464D01*
X141160400Y-75105118D01*
X141066956Y-75127462D01*
X140994515Y-75157912D01*
X140935995Y-75197884D01*
X140884314Y-75248794D01*
X140832388Y-75312057D01*
X140809711Y-75341468D01*
X140737190Y-75447194D01*
X140682522Y-75557161D01*
X140643569Y-75682088D01*
X140618192Y-75832695D01*
X140604254Y-76019699D01*
X140599617Y-76253820D01*
X140600122Y-76392250D01*
X140604691Y-76611682D01*
X140613800Y-76815976D01*
X140626542Y-76990707D01*
X140642013Y-77121448D01*
X140647927Y-77154250D01*
X140690735Y-77360625D01*
X141000117Y-77369713D01*
X141144103Y-77373887D01*
X141238670Y-77369781D01*
X141290013Y-77347502D01*
X141304328Y-77297155D01*
X141287808Y-77208844D01*
X141246647Y-77072677D01*
X141226426Y-77008225D01*
X141185802Y-76867834D01*
X141162514Y-76751965D01*
X141153406Y-76634169D01*
X141155323Y-76487996D01*
X141157695Y-76432078D01*
X141172537Y-76237047D01*
X141198649Y-76094777D01*
X141239650Y-75994992D01*
X141299158Y-75927416D01*
X141345854Y-75897744D01*
X141421711Y-75862346D01*
X141473030Y-75854650D01*
X141505823Y-75882584D01*
X141526101Y-75954073D01*
X141539876Y-76077045D01*
X141546329Y-76162063D01*
X141585009Y-76527619D01*
X141645256Y-76835272D01*
X141728150Y-77087226D01*
X141834775Y-77285683D01*
X141966210Y-77432845D01*
X142123537Y-77530915D01*
X142236766Y-77568564D01*
X142470187Y-77596938D01*
X142470187Y-78500249D01*
X139658499Y-78487217D01*
X139658499Y-78900234D01*
X139658500Y-79313250D01*
X139658500Y-83783578D01*
X139562928Y-83834152D01*
X139571026Y-86818676D01*
X139579125Y-89803199D01*
X139832003Y-89937896D01*
X140045934Y-90039970D01*
X140287472Y-90136172D01*
X140525701Y-90214796D01*
X140650687Y-90247851D01*
X140738000Y-90268210D01*
X140738000Y-90362250D01*
X137944000Y-90362250D01*
X137947871Y-88750938D01*
X137949285Y-88369205D01*
X137951541Y-88044598D01*
X137954619Y-87778071D01*
X137958497Y-87570582D01*
X137963155Y-87423087D01*
X137968571Y-87336542D01*
X137974724Y-87311904D01*
X137979194Y-87330125D01*
X138066613Y-87737691D01*
X138209249Y-88147533D01*
X138401216Y-88544657D01*
X138554970Y-88796851D01*
X138625183Y-88892711D01*
X138719920Y-89008973D01*
X138830586Y-89136513D01*
X138948584Y-89266206D01*
X139065317Y-89388929D01*
X139172189Y-89495557D01*
X139260604Y-89576966D01*
X139321965Y-89624033D01*
X139341822Y-89632000D01*
X139347626Y-89600480D01*
X139352867Y-89506829D01*
X139357530Y-89352418D01*
X139361600Y-89138613D01*
X139365062Y-88866783D01*
X139367902Y-88538297D01*
X139370104Y-88154522D01*
X139371653Y-87716826D01*
X139372535Y-87226578D01*
X139372750Y-86803946D01*
X139372750Y-83975892D01*
X139285437Y-84043906D01*
X138969416Y-84327493D01*
X138682868Y-84659917D01*
X138434112Y-85030141D01*
X138231464Y-85427128D01*
X138216361Y-85462395D01*
X138154251Y-85630605D01*
X138091160Y-85836838D01*
X138033726Y-86056076D01*
X137988589Y-86263300D01*
X137965082Y-86409375D01*
X137963984Y-86387057D01*
X137962873Y-86304012D01*
X137961756Y-86163014D01*
X137960639Y-85966835D01*
X137959528Y-85718250D01*
X137958429Y-85420031D01*
X137957350Y-85074951D01*
X137956296Y-84685784D01*
X137955273Y-84255304D01*
X137954289Y-83786283D01*
X137953350Y-83281494D01*
X137952461Y-82743712D01*
X137951629Y-82175709D01*
X137950861Y-81580258D01*
X137950163Y-80960133D01*
X137949542Y-80318107D01*
X137949003Y-79656953D01*
X137948757Y-79305313D01*
X137944000Y-72106000D01*
X140634399Y-72106000D01*
G37*
X140634399Y-72106000D02*
X140649300Y-72336188D01*
X140694667Y-72605202D01*
X140795232Y-72845031D01*
X140896081Y-72994156D01*
X140951970Y-73068351D01*
X140986544Y-73121236D01*
X140991999Y-73134507D01*
X140963279Y-73145048D01*
X140889194Y-73152037D01*
X140817375Y-73153750D01*
X140642750Y-73153750D01*
X140642749Y-73566861D01*
X140642749Y-73979971D01*
X143198625Y-73963375D01*
X143207511Y-73558563D01*
X143216397Y-73153750D01*
X141498428Y-73153750D01*
X141462460Y-73066438D01*
X141444319Y-72991235D01*
X141428761Y-72870322D01*
X141416706Y-72721470D01*
X141409074Y-72562446D01*
X141406787Y-72411021D01*
X141410764Y-72284962D01*
X141418473Y-72217426D01*
X141439377Y-72106000D01*
X142382501Y-72108013D01*
X142678399Y-72109579D01*
X142914147Y-72112871D01*
X143089037Y-72117863D01*
X143202366Y-72124528D01*
X143253426Y-72132842D01*
X143251304Y-72139807D01*
X143139262Y-72216041D01*
X143073541Y-72333462D01*
X143056806Y-72449755D01*
X143082306Y-72585530D01*
X143152400Y-72689011D01*
X143254016Y-72754493D01*
X143374085Y-72776274D01*
X143499535Y-72748649D01*
X143596906Y-72685438D01*
X143674535Y-72578429D01*
X143701663Y-72454147D01*
X143680846Y-72329486D01*
X143614636Y-72221341D01*
X143516125Y-72151088D01*
X143493690Y-72138081D01*
X143495443Y-72127941D01*
X143527309Y-72120305D01*
X143595219Y-72114816D01*
X143705100Y-72111112D01*
X143862880Y-72108834D01*
X144074489Y-72107622D01*
X144238437Y-72107243D01*
X145056000Y-72106000D01*
X145056000Y-90362250D01*
X144671723Y-90362250D01*
X144671723Y-88284650D01*
X144701052Y-88242074D01*
X144741156Y-88150751D01*
X144787668Y-88023605D01*
X144836219Y-87873558D01*
X144882443Y-87713532D01*
X144921970Y-87556449D01*
X144929974Y-87520625D01*
X144967816Y-87272502D01*
X144985528Y-86985329D01*
X144983725Y-86680069D01*
X144963202Y-86380303D01*
X144963202Y-83059750D01*
X144980226Y-83030154D01*
X144987562Y-82948866D01*
X144986077Y-82864045D01*
X144977276Y-82681819D01*
X144977276Y-81821500D01*
X144985156Y-81792585D01*
X144990657Y-81717157D01*
X144992500Y-81622585D01*
X144992500Y-81423669D01*
X144576192Y-81331010D01*
X144418675Y-81293562D01*
X144281756Y-81256550D01*
X144178433Y-81223809D01*
X144121704Y-81199175D01*
X144117064Y-81195530D01*
X144078541Y-81127180D01*
X144051804Y-81028133D01*
X144043707Y-80931002D01*
X144051666Y-80884394D01*
X144076541Y-80844891D01*
X144120410Y-80822976D01*
X144192763Y-80818581D01*
X144303093Y-80831636D01*
X144460892Y-80862073D01*
X144547072Y-80880791D01*
X144695810Y-80913136D01*
X144823083Y-80939642D01*
X144915438Y-80957588D01*
X144959423Y-80964250D01*
X144959545Y-80964250D01*
X144980915Y-80933345D01*
X144988036Y-80840784D01*
X144986077Y-80767948D01*
X144976625Y-80571645D01*
X144579750Y-80483141D01*
X144350673Y-80435085D01*
X144173673Y-80405857D01*
X144040230Y-80395300D01*
X143941824Y-80403255D01*
X143869938Y-80429563D01*
X143820681Y-80469005D01*
X143754250Y-80580401D01*
X143754250Y-79633628D01*
X143857437Y-79616094D01*
X143926394Y-79605187D01*
X144043288Y-79587545D01*
X144193190Y-79565388D01*
X144361172Y-79540939D01*
X144405125Y-79534602D01*
X144611104Y-79505589D01*
X144762810Y-79483394D01*
X144868447Y-79463475D01*
X144936216Y-79441291D01*
X144974321Y-79412301D01*
X144990964Y-79371964D01*
X144994349Y-79315737D01*
X144992677Y-79239080D01*
X144992415Y-79209458D01*
X144992330Y-78979875D01*
X144461065Y-78652826D01*
X144461065Y-77754672D01*
X144640475Y-77743489D01*
X144758611Y-77705737D01*
X144840498Y-77656326D01*
X144902526Y-77587899D01*
X144958889Y-77482719D01*
X144983955Y-77424125D01*
X145002832Y-77338266D01*
X145012271Y-77210249D01*
X145012845Y-77060477D01*
X145005131Y-76909353D01*
X144989704Y-76777279D01*
X144967137Y-76684660D01*
X144962838Y-76674733D01*
X144952812Y-76662190D01*
X144952812Y-75819769D01*
X144977801Y-75794122D01*
X144990451Y-75712781D01*
X144992500Y-75634181D01*
X144992500Y-75447612D01*
X144588298Y-75346388D01*
X144435646Y-75305858D01*
X144305583Y-75266993D01*
X144210480Y-75233804D01*
X144162711Y-75210306D01*
X144160159Y-75207519D01*
X144147849Y-75158134D01*
X144139040Y-75065777D01*
X144135736Y-74957055D01*
X144135250Y-74744235D01*
X144016187Y-74711170D01*
X143932493Y-74691781D01*
X143932493Y-74137051D01*
X143991207Y-74121952D01*
X144008250Y-74074500D01*
X144011115Y-74040566D01*
X144026769Y-74021300D01*
X144065802Y-74016702D01*
X144138802Y-74026773D01*
X144256357Y-74051512D01*
X144357500Y-74074500D01*
X144566320Y-74116979D01*
X144724463Y-74134942D01*
X144840332Y-74127149D01*
X144922331Y-74092361D01*
X144978861Y-74029340D01*
X145003335Y-73979250D01*
X145011398Y-73927270D01*
X145015123Y-73835962D01*
X145014935Y-73724760D01*
X145011258Y-73613097D01*
X145004517Y-73520406D01*
X144995138Y-73466122D01*
X144991990Y-73460344D01*
X144953640Y-73445328D01*
X144877416Y-73426863D01*
X144853213Y-73422108D01*
X144729801Y-73399052D01*
X144750664Y-73510264D01*
X144761917Y-73609494D01*
X144747679Y-73676507D01*
X144701257Y-73713385D01*
X144615959Y-73722216D01*
X144485092Y-73705084D01*
X144301964Y-73664074D01*
X144276976Y-73657852D01*
X144008250Y-73590454D01*
X144008250Y-73407555D01*
X144005497Y-73302577D01*
X143993291Y-73244256D01*
X143965712Y-73215848D01*
X143936812Y-73205512D01*
X143839376Y-73184698D01*
X143784480Y-73194954D01*
X143760116Y-73246676D01*
X143754277Y-73350261D01*
X143754250Y-73363567D01*
X143752890Y-73464250D01*
X143744006Y-73515073D01*
X143720389Y-73529677D01*
X143674833Y-73521700D01*
X143671170Y-73520783D01*
X143573739Y-73498032D01*
X143496545Y-73481622D01*
X143405000Y-73463313D01*
X143405000Y-73849803D01*
X143539937Y-73884344D01*
X143652157Y-73914190D01*
X143716228Y-73937429D01*
X143745635Y-73962735D01*
X143753863Y-73998781D01*
X143754250Y-74022176D01*
X143777376Y-74091772D01*
X143825687Y-74117989D01*
X143932493Y-74137051D01*
X143932493Y-74691781D01*
X143887226Y-74681293D01*
X143806760Y-74679804D01*
X143765525Y-74708698D01*
X143754250Y-74767620D01*
X143768615Y-74847382D01*
X143805317Y-74952244D01*
X143833492Y-75013682D01*
X143877052Y-75100915D01*
X143905891Y-75161294D01*
X143912867Y-75178418D01*
X143886555Y-75178087D01*
X143832010Y-75166633D01*
X143751020Y-75146306D01*
X143760572Y-75348442D01*
X143770125Y-75550578D01*
X144341625Y-75684683D01*
X144525227Y-75727332D01*
X144688720Y-75764492D01*
X144821579Y-75793836D01*
X144913280Y-75813037D01*
X144952812Y-75819769D01*
X144952812Y-76662190D01*
X144913170Y-76612594D01*
X144825648Y-76571498D01*
X144775265Y-76558269D01*
X144687241Y-76540174D01*
X144629771Y-76532230D01*
X144618686Y-76533231D01*
X144624925Y-76564704D01*
X144650597Y-76635165D01*
X144670998Y-76684540D01*
X144732423Y-76903616D01*
X144742937Y-77147756D01*
X144713700Y-77228673D01*
X144649124Y-77307553D01*
X144570248Y-77363031D01*
X144517693Y-77376500D01*
X144492303Y-77373554D01*
X144474567Y-77358291D01*
X144463116Y-77321072D01*
X144456581Y-77252258D01*
X144453590Y-77142213D01*
X144452775Y-76981298D01*
X144452750Y-76919522D01*
X144452704Y-76732253D01*
X144449013Y-76599216D01*
X144436342Y-76511167D01*
X144409356Y-76458862D01*
X144362722Y-76433056D01*
X144291105Y-76424504D01*
X144189171Y-76423961D01*
X144166839Y-76424000D01*
X144047174Y-76429749D01*
X143964781Y-76451838D01*
X143894083Y-76497537D01*
X143886805Y-76503573D01*
X143798935Y-76616248D01*
X143745985Y-76766823D01*
X143727089Y-76940747D01*
X143741378Y-77123464D01*
X143787986Y-77300423D01*
X143866045Y-77457069D01*
X143949597Y-77557092D01*
X144096227Y-77657909D01*
X144273182Y-77724957D01*
X144461065Y-77754672D01*
X144461065Y-78652826D01*
X144399215Y-78614750D01*
X144224707Y-78507577D01*
X144068004Y-78411821D01*
X143937305Y-78332455D01*
X143840811Y-78274450D01*
X143786723Y-78242777D01*
X143778652Y-78238535D01*
X143766291Y-78261686D01*
X143759767Y-78333039D01*
X143760408Y-78437455D01*
X143760664Y-78443556D01*
X143770125Y-78659668D01*
X144150622Y-78873828D01*
X144289919Y-78953846D01*
X144407769Y-79024611D01*
X144493757Y-79079633D01*
X144537462Y-79112424D01*
X144540719Y-79116784D01*
X144515871Y-79131841D01*
X144441279Y-79147830D01*
X144330599Y-79162179D01*
X144271346Y-79167519D01*
X144127831Y-79179841D01*
X143993671Y-79193143D01*
X143892536Y-79205031D01*
X143873312Y-79207787D01*
X143754250Y-79226116D01*
X143754250Y-79633628D01*
X143754250Y-80580401D01*
X143748154Y-80590624D01*
X143730929Y-80739437D01*
X143769217Y-80911065D01*
X143796357Y-80976995D01*
X143839632Y-81074331D01*
X143857077Y-81127571D01*
X143850157Y-81149958D01*
X143820334Y-81154732D01*
X143815993Y-81154750D01*
X143781290Y-81162274D01*
X143762623Y-81194503D01*
X143755244Y-81265928D01*
X143754250Y-81343111D01*
X143757969Y-81453693D01*
X143771805Y-81515918D01*
X143799776Y-81544633D01*
X143809812Y-81548427D01*
X143857699Y-81560937D01*
X143952636Y-81584166D01*
X144082708Y-81615326D01*
X144235997Y-81651630D01*
X144400586Y-81690290D01*
X144564558Y-81728519D01*
X144715996Y-81763529D01*
X144842982Y-81792534D01*
X144933600Y-81812745D01*
X144975933Y-81821375D01*
X144977276Y-81821500D01*
X144977276Y-82681819D01*
X144976625Y-82668339D01*
X144389250Y-82531906D01*
X144204354Y-82489176D01*
X144040809Y-82451791D01*
X143908632Y-82422007D01*
X143817837Y-82402080D01*
X143778440Y-82394266D01*
X143778062Y-82394237D01*
X143765475Y-82422381D01*
X143756844Y-82496753D01*
X143754250Y-82582277D01*
X143754250Y-82771553D01*
X143873312Y-82803498D01*
X143972059Y-82828995D01*
X144105089Y-82861969D01*
X144260117Y-82899531D01*
X144424854Y-82938792D01*
X144587014Y-82976864D01*
X144734311Y-83010857D01*
X144854458Y-83037883D01*
X144935168Y-83055052D01*
X144963202Y-83059750D01*
X144963202Y-86380303D01*
X144963023Y-86377688D01*
X144924040Y-86099149D01*
X144882828Y-85917250D01*
X144837202Y-85765057D01*
X144786861Y-85615881D01*
X144740177Y-85493945D01*
X144723764Y-85456875D01*
X144648542Y-85298125D01*
X144645896Y-86800187D01*
X144645900Y-87128788D01*
X144647064Y-87425947D01*
X144649305Y-87686873D01*
X144652540Y-87906779D01*
X144656685Y-88080873D01*
X144661657Y-88204366D01*
X144667373Y-88272469D01*
X144671723Y-88284650D01*
X144671723Y-90362250D01*
X143913000Y-90362250D01*
X143913000Y-89358131D01*
X144011208Y-89264878D01*
X144074350Y-89197620D01*
X144160395Y-89096377D01*
X144254836Y-88978475D01*
X144296958Y-88923609D01*
X144484500Y-88675592D01*
X144484500Y-84975637D01*
X144381312Y-84819772D01*
X144306778Y-84718055D01*
X144207550Y-84596773D01*
X144104157Y-84480933D01*
X144096668Y-84473016D01*
X143915211Y-84282125D01*
X143914105Y-86820128D01*
X143913000Y-89358131D01*
X143913000Y-90362250D01*
X143079562Y-90362250D01*
X143079562Y-89949419D01*
X143121724Y-89932838D01*
X143201422Y-89889290D01*
X143303931Y-89827878D01*
X143414525Y-89757702D01*
X143518478Y-89687866D01*
X143601066Y-89627472D01*
X143603437Y-89625602D01*
X143722500Y-89531415D01*
X143722500Y-84084951D01*
X143539937Y-83958180D01*
X143500208Y-83931500D01*
X143500208Y-82734801D01*
X143559491Y-82734089D01*
X143587056Y-82696339D01*
X143595047Y-82611197D01*
X143595500Y-82539645D01*
X143595500Y-82337039D01*
X143454440Y-82301520D01*
X143366423Y-82280250D01*
X143307080Y-82267564D01*
X143295690Y-82266000D01*
X143286651Y-82294957D01*
X143280275Y-82370672D01*
X143278000Y-82470883D01*
X143278000Y-82675766D01*
X143397062Y-82708831D01*
X143500208Y-82734801D01*
X143500208Y-83931500D01*
X143417921Y-83876240D01*
X143289364Y-83794194D01*
X143204435Y-83742941D01*
X143051496Y-83654474D01*
X143063239Y-83984175D01*
X143076115Y-84187153D01*
X143100243Y-84345898D01*
X143138593Y-84479134D01*
X143144005Y-84493551D01*
X143216005Y-84745057D01*
X143258421Y-85036125D01*
X143271612Y-85350319D01*
X143255940Y-85671208D01*
X143211768Y-85982358D01*
X143139456Y-86267333D01*
X143102727Y-86370331D01*
X143092258Y-86405435D01*
X143083414Y-86456397D01*
X143076067Y-86528260D01*
X143070088Y-86626069D01*
X143065351Y-86754867D01*
X143061726Y-86919698D01*
X143059086Y-87125605D01*
X143057303Y-87377633D01*
X143056248Y-87680825D01*
X143055793Y-88040224D01*
X143055750Y-88219768D01*
X143056173Y-88544545D01*
X143057392Y-88849450D01*
X143059326Y-89128723D01*
X143061897Y-89376607D01*
X143065025Y-89587343D01*
X143068630Y-89755172D01*
X143072634Y-89874336D01*
X143076958Y-89939075D01*
X143079562Y-89949419D01*
X143079562Y-90362250D01*
X142123892Y-90362250D01*
X142123892Y-90287620D01*
X142127062Y-90286905D01*
X142191207Y-90269646D01*
X142286535Y-90245391D01*
X142325500Y-90235753D01*
X142435465Y-90205657D01*
X142570505Y-90164449D01*
X142666812Y-90132742D01*
X142865250Y-90064757D01*
X142865250Y-86615750D01*
X142865250Y-84015243D01*
X142865250Y-83574645D01*
X142737065Y-83523356D01*
X142643239Y-83489541D01*
X142521577Y-83450674D01*
X142389800Y-83411796D01*
X142265629Y-83377949D01*
X142166786Y-83354172D01*
X142111825Y-83345500D01*
X142086821Y-83370443D01*
X142073932Y-83448902D01*
X142071500Y-83536000D01*
X142071500Y-83726500D01*
X142210383Y-83726500D01*
X142416334Y-83755152D01*
X142617715Y-83835194D01*
X142746187Y-83919756D01*
X142865250Y-84015243D01*
X142865250Y-86615750D01*
X142531875Y-86615750D01*
X142367636Y-86613424D01*
X142260942Y-86602764D01*
X142205898Y-86578248D01*
X142196609Y-86534355D01*
X142227183Y-86465564D01*
X142281563Y-86381251D01*
X142449329Y-86078692D01*
X142562448Y-85748465D01*
X142618254Y-85399382D01*
X142623957Y-85250500D01*
X142620543Y-85097672D01*
X142606601Y-84985093D01*
X142578156Y-84889852D01*
X142550558Y-84827530D01*
X142466930Y-84702171D01*
X142368874Y-84635802D01*
X142261208Y-84629835D01*
X142148753Y-84685679D01*
X142127062Y-84703552D01*
X142117363Y-84714966D01*
X142108859Y-84733727D01*
X142101472Y-84763803D01*
X142095123Y-84809164D01*
X142089735Y-84873778D01*
X142085229Y-84961614D01*
X142081527Y-85076642D01*
X142078552Y-85222830D01*
X142076225Y-85404147D01*
X142074468Y-85624562D01*
X142073203Y-85888045D01*
X142072351Y-86198564D01*
X142071836Y-86560089D01*
X142071579Y-86976587D01*
X142071501Y-87452029D01*
X142071500Y-87527686D01*
X142071550Y-88011453D01*
X142071754Y-88435596D01*
X142072190Y-88803993D01*
X142072935Y-89120519D01*
X142074068Y-89389053D01*
X142075667Y-89613469D01*
X142077809Y-89797646D01*
X142080574Y-89945460D01*
X142084038Y-90060786D01*
X142088280Y-90147503D01*
X142093378Y-90209486D01*
X142099410Y-90250613D01*
X142106455Y-90274760D01*
X142114589Y-90285803D01*
X142123892Y-90287620D01*
X142123892Y-90362250D01*
X141928625Y-90362250D01*
X141928625Y-83011005D01*
X142099901Y-83010743D01*
X142223461Y-83007205D01*
X142315081Y-82997895D01*
X142390538Y-82980321D01*
X142465612Y-82951986D01*
X142551667Y-82912487D01*
X142792714Y-82770931D01*
X142981138Y-82597050D01*
X143122269Y-82384465D01*
X143221441Y-82126802D01*
X143227755Y-82103928D01*
X143255868Y-81949514D01*
X143271467Y-81757090D01*
X143274143Y-81550985D01*
X143263485Y-81355526D01*
X143242798Y-81211876D01*
X143157630Y-80944476D01*
X143023919Y-80716369D01*
X142844642Y-80529729D01*
X142622773Y-80386725D01*
X142361290Y-80289531D01*
X142063169Y-80240317D01*
X141903249Y-80234377D01*
X141600847Y-80261777D01*
X141329347Y-80340868D01*
X141092863Y-80468556D01*
X140895511Y-80641746D01*
X140741405Y-80857345D01*
X140634662Y-81112256D01*
X140609962Y-81207007D01*
X140587613Y-81363435D01*
X140578393Y-81556935D01*
X140581857Y-81762849D01*
X140597565Y-81956517D01*
X140625073Y-82113279D01*
X140626314Y-82118060D01*
X140723122Y-82370117D01*
X140869289Y-82592756D01*
X141056967Y-82776896D01*
X141278311Y-82913461D01*
X141334848Y-82937861D01*
X141421750Y-82968903D01*
X141508176Y-82989780D01*
X141610012Y-83002449D01*
X141743144Y-83008867D01*
X141923458Y-83010991D01*
X141928625Y-83011005D01*
X141928625Y-90362250D01*
X141444748Y-90362250D01*
X141444748Y-90329591D01*
X141591151Y-90328705D01*
X141722748Y-90325582D01*
X141825109Y-90320240D01*
X141883804Y-90312697D01*
X141891583Y-90309334D01*
X141894933Y-90274956D01*
X141898060Y-90182009D01*
X141900925Y-90035423D01*
X141903490Y-89840128D01*
X141905718Y-89601055D01*
X141907569Y-89323133D01*
X141909006Y-89011293D01*
X141909992Y-88670466D01*
X141910487Y-88305581D01*
X141910453Y-87921570D01*
X141910410Y-87872521D01*
X141908071Y-85456875D01*
X141815467Y-85746516D01*
X141708053Y-86021951D01*
X141579101Y-86239952D01*
X141425770Y-86403767D01*
X141245221Y-86516645D01*
X141097653Y-86567980D01*
X140967356Y-86601061D01*
X140967356Y-85414506D01*
X140985027Y-85384570D01*
X141009308Y-85305225D01*
X141041341Y-85178483D01*
X141082273Y-85006354D01*
X141133247Y-84790850D01*
X141133315Y-84790566D01*
X141175109Y-84629255D01*
X141221573Y-84472159D01*
X141266046Y-84340849D01*
X141291885Y-84277005D01*
X141378174Y-84125111D01*
X141488033Y-83984587D01*
X141607551Y-83870345D01*
X141722814Y-83797298D01*
X141748612Y-83787452D01*
X141829981Y-83759812D01*
X141883473Y-83739059D01*
X141888937Y-83736332D01*
X141901254Y-83699959D01*
X141909857Y-83618482D01*
X141912750Y-83520536D01*
X141912750Y-83318320D01*
X141732859Y-83295844D01*
X141647067Y-83290114D01*
X141527199Y-83288457D01*
X141388431Y-83290303D01*
X141245939Y-83295078D01*
X141114897Y-83302211D01*
X141010481Y-83311128D01*
X140947867Y-83321257D01*
X140937576Y-83325840D01*
X140935497Y-83358760D01*
X140934033Y-83447896D01*
X140933196Y-83585969D01*
X140932995Y-83765697D01*
X140933441Y-83979800D01*
X140934543Y-84220998D01*
X140936020Y-84443938D01*
X140938074Y-84752681D01*
X140939869Y-84999950D01*
X140942550Y-85187756D01*
X140947262Y-85318110D01*
X140955149Y-85393023D01*
X140967356Y-85414506D01*
X140967356Y-86601061D01*
X140944375Y-86606896D01*
X140936183Y-88449054D01*
X140927991Y-90291211D01*
X140999683Y-90310422D01*
X141061007Y-90318657D01*
X141165246Y-90324585D01*
X141297970Y-90328224D01*
X141444748Y-90329591D01*
X141444748Y-90362250D01*
X140738000Y-90362250D01*
X140738000Y-90268210D01*
X140738000Y-86620256D01*
X140685942Y-86605099D01*
X140685942Y-85692254D01*
X140706992Y-85667285D01*
X140721430Y-85609971D01*
X140730503Y-85514465D01*
X140735457Y-85374921D01*
X140737538Y-85185493D01*
X140737994Y-84940334D01*
X140738000Y-84846561D01*
X140737744Y-84592946D01*
X140736712Y-84396505D01*
X140734502Y-84250911D01*
X140730712Y-84149841D01*
X140724943Y-84086967D01*
X140716794Y-84055965D01*
X140705863Y-84050509D01*
X140691750Y-84064274D01*
X140688701Y-84068505D01*
X140627147Y-84173526D01*
X140558992Y-84316280D01*
X140494427Y-84473263D01*
X140443642Y-84620968D01*
X140433135Y-84658004D01*
X140397310Y-84853497D01*
X140388601Y-85054890D01*
X140405051Y-85248326D01*
X140444702Y-85419949D01*
X140505598Y-85555902D01*
X140570661Y-85631560D01*
X140619023Y-85668545D01*
X140657035Y-85690726D01*
X140685942Y-85692254D01*
X140685942Y-86605099D01*
X140571312Y-86571723D01*
X140352968Y-86475671D01*
X140162459Y-86324022D01*
X140002177Y-86119362D01*
X139874514Y-85864273D01*
X139846449Y-85788537D01*
X139793208Y-85574751D01*
X139762770Y-85318309D01*
X139754686Y-85035642D01*
X139768505Y-84743183D01*
X139803778Y-84457365D01*
X139860056Y-84194620D01*
X139893047Y-84085514D01*
X139965904Y-83869375D01*
X140351952Y-83860461D01*
X140738000Y-83851546D01*
X140738000Y-83614398D01*
X140736379Y-83492694D01*
X140729275Y-83421365D01*
X140713320Y-83387320D01*
X140685151Y-83377470D01*
X140677029Y-83377250D01*
X140602266Y-83389963D01*
X140484472Y-83424502D01*
X140337983Y-83475473D01*
X140177137Y-83537481D01*
X140016271Y-83605129D01*
X139869721Y-83673022D01*
X139809151Y-83703860D01*
X139658500Y-83783578D01*
X139658500Y-79313250D01*
X143216397Y-79313250D01*
X143207511Y-78908438D01*
X143198625Y-78503625D01*
X142470187Y-78500249D01*
X142470187Y-77596938D01*
X142682812Y-77569662D01*
X142869997Y-77492497D01*
X143027097Y-77371204D01*
X143149468Y-77211544D01*
X143232466Y-77019279D01*
X143271446Y-76800170D01*
X143261765Y-76559978D01*
X143215304Y-76354705D01*
X143166174Y-76224803D01*
X143104038Y-76099056D01*
X143057437Y-76025923D01*
X143002168Y-75948658D01*
X142967392Y-75891962D01*
X142961383Y-75876313D01*
X142988974Y-75861407D01*
X143058981Y-75853111D01*
X143087500Y-75852500D01*
X143214500Y-75852500D01*
X143214500Y-75056253D01*
X142190562Y-75065439D01*
X141885862Y-75068489D01*
X141637579Y-75072566D01*
X141438629Y-75079086D01*
X141281930Y-75089464D01*
X141160400Y-75105118D01*
X141066956Y-75127462D01*
X140994515Y-75157912D01*
X140935995Y-75197884D01*
X140884314Y-75248794D01*
X140832388Y-75312057D01*
X140809711Y-75341468D01*
X140737190Y-75447194D01*
X140682522Y-75557161D01*
X140643569Y-75682088D01*
X140618192Y-75832695D01*
X140604254Y-76019699D01*
X140599617Y-76253820D01*
X140600122Y-76392250D01*
X140604691Y-76611682D01*
X140613800Y-76815976D01*
X140626542Y-76990707D01*
X140642013Y-77121448D01*
X140647927Y-77154250D01*
X140690735Y-77360625D01*
X141000117Y-77369713D01*
X141144103Y-77373887D01*
X141238670Y-77369781D01*
X141290013Y-77347502D01*
X141304328Y-77297155D01*
X141287808Y-77208844D01*
X141246647Y-77072677D01*
X141226426Y-77008225D01*
X141185802Y-76867834D01*
X141162514Y-76751965D01*
X141153406Y-76634169D01*
X141155323Y-76487996D01*
X141157695Y-76432078D01*
X141172537Y-76237047D01*
X141198649Y-76094777D01*
X141239650Y-75994992D01*
X141299158Y-75927416D01*
X141345854Y-75897744D01*
X141421711Y-75862346D01*
X141473030Y-75854650D01*
X141505823Y-75882584D01*
X141526101Y-75954073D01*
X141539876Y-76077045D01*
X141546329Y-76162063D01*
X141585009Y-76527619D01*
X141645256Y-76835272D01*
X141728150Y-77087226D01*
X141834775Y-77285683D01*
X141966210Y-77432845D01*
X142123537Y-77530915D01*
X142236766Y-77568564D01*
X142470187Y-77596938D01*
X142470187Y-78500249D01*
X139658499Y-78487217D01*
X139658499Y-78900234D01*
X139658500Y-79313250D01*
X139658500Y-83783578D01*
X139562928Y-83834152D01*
X139571026Y-86818676D01*
X139579125Y-89803199D01*
X139832003Y-89937896D01*
X140045934Y-90039970D01*
X140287472Y-90136172D01*
X140525701Y-90214796D01*
X140650687Y-90247851D01*
X140738000Y-90268210D01*
X140738000Y-90362250D01*
X137944000Y-90362250D01*
X137947871Y-88750938D01*
X137949285Y-88369205D01*
X137951541Y-88044598D01*
X137954619Y-87778071D01*
X137958497Y-87570582D01*
X137963155Y-87423087D01*
X137968571Y-87336542D01*
X137974724Y-87311904D01*
X137979194Y-87330125D01*
X138066613Y-87737691D01*
X138209249Y-88147533D01*
X138401216Y-88544657D01*
X138554970Y-88796851D01*
X138625183Y-88892711D01*
X138719920Y-89008973D01*
X138830586Y-89136513D01*
X138948584Y-89266206D01*
X139065317Y-89388929D01*
X139172189Y-89495557D01*
X139260604Y-89576966D01*
X139321965Y-89624033D01*
X139341822Y-89632000D01*
X139347626Y-89600480D01*
X139352867Y-89506829D01*
X139357530Y-89352418D01*
X139361600Y-89138613D01*
X139365062Y-88866783D01*
X139367902Y-88538297D01*
X139370104Y-88154522D01*
X139371653Y-87716826D01*
X139372535Y-87226578D01*
X139372750Y-86803946D01*
X139372750Y-83975892D01*
X139285437Y-84043906D01*
X138969416Y-84327493D01*
X138682868Y-84659917D01*
X138434112Y-85030141D01*
X138231464Y-85427128D01*
X138216361Y-85462395D01*
X138154251Y-85630605D01*
X138091160Y-85836838D01*
X138033726Y-86056076D01*
X137988589Y-86263300D01*
X137965082Y-86409375D01*
X137963984Y-86387057D01*
X137962873Y-86304012D01*
X137961756Y-86163014D01*
X137960639Y-85966835D01*
X137959528Y-85718250D01*
X137958429Y-85420031D01*
X137957350Y-85074951D01*
X137956296Y-84685784D01*
X137955273Y-84255304D01*
X137954289Y-83786283D01*
X137953350Y-83281494D01*
X137952461Y-82743712D01*
X137951629Y-82175709D01*
X137950861Y-81580258D01*
X137950163Y-80960133D01*
X137949542Y-80318107D01*
X137949003Y-79656953D01*
X137948757Y-79305313D01*
X137944000Y-72106000D01*
X140634399Y-72106000D01*
D12*
X89485000Y-99977064D02*
X89485000Y-99522936D01*
X88015000Y-99977064D02*
X88015000Y-99522936D01*
X89138748Y-108735000D02*
X89661252Y-108735000D01*
X89138748Y-107265000D02*
X89661252Y-107265000D01*
X89661252Y-102465000D02*
X89138748Y-102465000D01*
X89661252Y-103935000D02*
X89138748Y-103935000D01*
X89627064Y-104765000D02*
X89172936Y-104765000D01*
X89627064Y-106235000D02*
X89172936Y-106235000D01*
D13*
X67550000Y-109400000D02*
X67550000Y-109400000D01*
X67550000Y-109500000D02*
X67550000Y-109500000D01*
X67550000Y-109400000D02*
X67550000Y-109400000D01*
D14*
X72300000Y-97695000D02*
X72300000Y-97695000D01*
X72300000Y-114205000D02*
X72300000Y-114205000D01*
X79050000Y-114205000D02*
X79050000Y-114205000D01*
X84050000Y-114205000D02*
X84050000Y-114205000D01*
X79050000Y-97695000D02*
X79050000Y-97695000D01*
X84050000Y-114205000D02*
X84050000Y-114205000D01*
D13*
X83070389Y-114333592D02*
X83070389Y-114333592D01*
X83070389Y-114533592D02*
X83070389Y-114533592D01*
X67550000Y-109500000D02*
G75*
G02*
X67550000Y-109400000I0J50000D01*
G01*
X67550000Y-109400000D02*
G75*
G02*
X67550000Y-109500000I0J-50000D01*
G01*
X67550000Y-109500000D02*
G75*
G02*
X67550000Y-109400000I0J50000D01*
G01*
X83070389Y-114333592D02*
G75*
G02*
X83070389Y-114533592I0J-100000D01*
G01*
X83070389Y-114533592D02*
G75*
G02*
X83070389Y-114333592I0J100000D01*
G01*
D15*
X143665000Y-95125000D02*
X137365000Y-95125000D01*
X143665000Y-122625000D02*
X137365000Y-122625000D01*
X143665000Y-95125000D02*
X143665000Y-122625000D01*
X137365000Y-95125000D02*
X137365000Y-122625000D01*
D12*
X88900000Y-112150000D02*
X89900000Y-112150000D01*
X89900000Y-110450000D02*
X88900000Y-110450000D01*
X84500000Y-94350000D02*
X85500000Y-94350000D01*
X85500000Y-92650000D02*
X84500000Y-92650000D01*
X86690000Y-84595000D02*
X86690000Y-83595000D01*
X84990000Y-83595000D02*
X84990000Y-84595000D01*
X122217500Y-99665000D02*
X122217500Y-95565000D01*
X114642500Y-95385000D02*
X111142500Y-95385000D01*
X114642500Y-99845000D02*
X111142500Y-99845000D01*
X138075000Y-72260000D02*
X138075000Y-94700000D01*
X104135000Y-94700000D02*
X104135000Y-72260000D01*
X138075000Y-94700000D02*
X104135000Y-94700000D01*
X138075000Y-72260000D02*
X104135000Y-72260000D01*
X137105000Y-95030000D02*
X131105000Y-95030000D01*
X88470000Y-81298578D02*
X88470000Y-80781422D01*
X87050000Y-81298578D02*
X87050000Y-80781422D01*
X140015000Y-110318922D02*
X140015000Y-110836078D01*
X138595000Y-110318922D02*
X138595000Y-110836078D01*
X141255000Y-111991422D02*
X141255000Y-112508578D01*
X142675000Y-111991422D02*
X142675000Y-112508578D01*
D16*
X109695800Y-109705140D02*
X109695800Y-110221900D01*
X114674200Y-110221900D02*
X114674200Y-109705140D01*
X114674200Y-105218100D02*
X114166200Y-105218100D01*
X109695800Y-105218100D02*
X109695800Y-105734860D01*
X109695800Y-110221900D02*
X110203800Y-110221900D01*
X114166200Y-110221900D02*
X114674200Y-110221900D01*
X114674200Y-105734860D02*
X114674200Y-105218100D01*
X110203800Y-105218100D02*
X109695800Y-105218100D01*
D15*
X100970000Y-114255000D02*
X102495000Y-114255000D01*
X100970000Y-103880000D02*
X93220000Y-103880000D01*
X100970000Y-114530000D02*
X93220000Y-114530000D01*
X100970000Y-103880000D02*
X100970000Y-104235000D01*
X93220000Y-103880000D02*
X93220000Y-104235000D01*
X93220000Y-114530000D02*
X93220000Y-114175000D01*
X100970000Y-114530000D02*
X100970000Y-114255000D01*
D12*
X108315000Y-110670000D02*
X107315000Y-110670000D01*
X107315000Y-112370000D02*
X108315000Y-112370000D01*
X119195000Y-104100000D02*
X120195000Y-104100000D01*
X120195000Y-102400000D02*
X119195000Y-102400000D01*
X114860000Y-104100000D02*
X115860000Y-104100000D01*
X115860000Y-102400000D02*
X114860000Y-102400000D01*
X121945000Y-100525000D02*
X120945000Y-100525000D01*
X120945000Y-102225000D02*
X121945000Y-102225000D01*
X118040000Y-110095000D02*
X118040000Y-109095000D01*
X116340000Y-109095000D02*
X116340000Y-110095000D01*
X120400000Y-105410000D02*
X120400000Y-106410000D01*
X122100000Y-106410000D02*
X122100000Y-105410000D01*
X120265000Y-109110000D02*
X120265000Y-110110000D01*
X121965000Y-110110000D02*
X121965000Y-109110000D01*
X110405000Y-112635000D02*
X110405000Y-113635000D01*
X112105000Y-113635000D02*
X112105000Y-112635000D01*
X113370000Y-100415000D02*
X112370000Y-100415000D01*
X112370000Y-102115000D02*
X113370000Y-102115000D01*
X107680000Y-101720000D02*
X108680000Y-101720000D01*
X108680000Y-100020000D02*
X107680000Y-100020000D01*
X120110000Y-106410000D02*
X120110000Y-105410000D01*
X118410000Y-105410000D02*
X118410000Y-106410000D01*
X109765000Y-114775000D02*
X109765000Y-113775000D01*
X108065000Y-113775000D02*
X108065000Y-114775000D01*
X121885000Y-116110000D02*
X122485000Y-116110000D01*
X122185000Y-116710000D02*
X121885000Y-116110000D01*
X122485000Y-116110000D02*
X122185000Y-116710000D01*
X131595000Y-127570000D02*
X131345000Y-134790000D01*
X133095000Y-127570000D02*
X131595000Y-127570000D01*
X133345000Y-134790000D02*
X133095000Y-127570000D01*
X131345000Y-134790000D02*
X133345000Y-134790000D01*
X126515000Y-127570000D02*
X126265000Y-134790000D01*
X128015000Y-127570000D02*
X126515000Y-127570000D01*
X128265000Y-134790000D02*
X128015000Y-127570000D01*
X126265000Y-134790000D02*
X128265000Y-134790000D01*
X121435000Y-127570000D02*
X121185000Y-134790000D01*
X122935000Y-127570000D02*
X121435000Y-127570000D01*
X123185000Y-134790000D02*
X122935000Y-127570000D01*
X121185000Y-134790000D02*
X123185000Y-134790000D01*
X135965000Y-127570000D02*
X118565000Y-127570000D01*
X135965000Y-125770000D02*
X135965000Y-127570000D01*
X118565000Y-126790000D02*
X135965000Y-126790000D01*
X118565000Y-127570000D02*
X118565000Y-125770000D01*
X135965000Y-116190000D02*
X118565000Y-116190000D01*
X135965000Y-134790000D02*
X135965000Y-116190000D01*
X118565000Y-134790000D02*
X135965000Y-134790000D01*
X118565000Y-116190000D02*
X118565000Y-134790000D01*
X128135000Y-110655000D02*
X128135000Y-110055000D01*
X128735000Y-110355000D02*
X128135000Y-110655000D01*
X128135000Y-110055000D02*
X128735000Y-110355000D01*
X136015000Y-97455000D02*
X136015000Y-98195000D01*
X130715000Y-97455000D02*
X136015000Y-97455000D01*
X130715000Y-113095000D02*
X130715000Y-97455000D01*
X136015000Y-113095000D02*
X130715000Y-113095000D01*
X136015000Y-112355000D02*
X136015000Y-113095000D01*
X136015000Y-103275000D02*
X136015000Y-102195000D01*
X136015000Y-108355000D02*
X136015000Y-107275000D01*
X130715000Y-99195000D02*
X130715000Y-101195000D01*
X128935000Y-99195000D02*
X130715000Y-99195000D01*
X128935000Y-101195000D02*
X128935000Y-99195000D01*
X130715000Y-101195000D02*
X128935000Y-101195000D01*
X130715000Y-104275000D02*
X130715000Y-106275000D01*
X128935000Y-104275000D02*
X130715000Y-104275000D01*
X128935000Y-106275000D02*
X128935000Y-104275000D01*
X130715000Y-106275000D02*
X128935000Y-106275000D01*
X130715000Y-109355000D02*
X130715000Y-111355000D01*
X128935000Y-109355000D02*
X130715000Y-109355000D01*
X128935000Y-111355000D02*
X128935000Y-109355000D01*
X130715000Y-111355000D02*
X128935000Y-111355000D01*
X129715000Y-104275000D02*
X129715000Y-101195000D01*
X129715000Y-109355000D02*
X129715000Y-106275000D01*
X129715000Y-96575000D02*
X129715000Y-99115000D01*
X129715000Y-113975000D02*
X129715000Y-111435000D01*
X128935000Y-96575000D02*
X128935000Y-113975000D01*
X137695000Y-96575000D02*
X128935000Y-96575000D01*
X137695000Y-113975000D02*
X137695000Y-96575000D01*
X128935000Y-113975000D02*
X137695000Y-113975000D01*
X136030821Y-98208159D02*
G75*
G02*
X136015000Y-102195000I-1665821J-1986841D01*
G01*
X136030821Y-103288159D02*
G75*
G02*
X136015000Y-107275000I-1665821J-1986841D01*
G01*
X136030821Y-108368159D02*
G75*
G02*
X136015000Y-112355000I-1665821J-1986841D01*
G01*
X105520000Y-116120000D02*
X106520000Y-116120000D01*
X106520000Y-114420000D02*
X105520000Y-114420000D01*
X88900000Y-114250000D02*
X89900000Y-114250000D01*
X89900000Y-112550000D02*
X88900000Y-112550000D01*
X86900000Y-84050000D02*
X86900000Y-85050000D01*
X88600000Y-85050000D02*
X88600000Y-84050000D01*
X91450000Y-85015000D02*
X93685000Y-85015000D01*
X91450000Y-74735000D02*
X91450000Y-85015000D01*
X97920000Y-74735000D02*
X91450000Y-74735000D01*
X97920000Y-85015000D02*
X97920000Y-74735000D01*
X95685000Y-85015000D02*
X97920000Y-85015000D01*
X93685000Y-85015000D02*
G75*
G02*
X95685000Y-85015000I1000000J0D01*
G01*
X90395000Y-97505000D02*
X92630000Y-97505000D01*
X90395000Y-87225000D02*
X90395000Y-97505000D01*
X96865000Y-87225000D02*
X90395000Y-87225000D01*
X96865000Y-97505000D02*
X96865000Y-87225000D01*
X94630000Y-97505000D02*
X96865000Y-97505000D01*
X92630000Y-97505000D02*
G75*
G02*
X94630000Y-97505000I1000000J0D01*
G01*
X106610000Y-106741422D02*
X106610000Y-107258578D01*
X105190000Y-106741422D02*
X105190000Y-107258578D01*
X142705000Y-119561422D02*
X142705000Y-120078578D01*
X141285000Y-119561422D02*
X141285000Y-120078578D01*
X116098922Y-114065000D02*
X116616078Y-114065000D01*
X116098922Y-115485000D02*
X116616078Y-115485000D01*
X122076422Y-111985000D02*
X122593578Y-111985000D01*
X122076422Y-113405000D02*
X122593578Y-113405000D01*
X123785000Y-109311422D02*
X123785000Y-109828578D01*
X122365000Y-109311422D02*
X122365000Y-109828578D01*
X116688578Y-111955000D02*
X116171422Y-111955000D01*
X116688578Y-113375000D02*
X116171422Y-113375000D01*
X106293578Y-112665000D02*
X105776422Y-112665000D01*
X106293578Y-114085000D02*
X105776422Y-114085000D01*
X107540000Y-103758578D02*
X107540000Y-103241422D01*
X108960000Y-103758578D02*
X108960000Y-103241422D01*
X104590000Y-108816078D02*
X104590000Y-108298922D01*
X103170000Y-108816078D02*
X103170000Y-108298922D01*
X106710000Y-103278922D02*
X106710000Y-103796078D01*
X105290000Y-103278922D02*
X105290000Y-103796078D01*
X106441422Y-110410000D02*
X106958578Y-110410000D01*
X106441422Y-108990000D02*
X106958578Y-108990000D01*
X119905000Y-110008578D02*
X119905000Y-109491422D01*
X118485000Y-110008578D02*
X118485000Y-109491422D01*
X79830000Y-89330000D02*
X78500000Y-89330000D01*
X79830000Y-88000000D02*
X79830000Y-89330000D01*
X77230000Y-89330000D02*
X74630000Y-89330000D01*
X77230000Y-86730000D02*
X77230000Y-89330000D01*
X79830000Y-86730000D02*
X77230000Y-86730000D01*
X74630000Y-89330000D02*
X74630000Y-81590000D01*
X79830000Y-86730000D02*
X79830000Y-81590000D01*
X79830000Y-81590000D02*
X74630000Y-81590000D01*
X85500000Y-90150000D02*
X84500000Y-90150000D01*
X84500000Y-91850000D02*
X85500000Y-91850000D01*
D15*
X137710000Y-99430000D02*
X137710000Y-120930000D01*
X142610000Y-99430000D02*
X142610000Y-120930000D01*
X142610000Y-120930000D02*
X137710000Y-120930000D01*
X142610000Y-99430000D02*
X137710000Y-99430000D01*
D12*
X100248578Y-99375000D02*
X99731422Y-99375000D01*
X100248578Y-97955000D02*
X99731422Y-97955000D01*
X85258578Y-89210000D02*
X84741422Y-89210000D01*
X85258578Y-87790000D02*
X84741422Y-87790000D01*
D15*
X142715000Y-89870000D02*
X138615000Y-89870000D01*
X142715000Y-98870000D02*
X138615000Y-98870000D01*
X142715000Y-89870000D02*
X142715000Y-98870000D01*
X138615000Y-89870000D02*
X138615000Y-98870000D01*
D12*
X118480000Y-112905000D02*
X118480000Y-113905000D01*
X120180000Y-113905000D02*
X120180000Y-112905000D01*
X117980000Y-100280000D02*
X115980000Y-100280000D01*
X115980000Y-102320000D02*
X117980000Y-102320000D01*
X114420000Y-113875000D02*
X114420000Y-112875000D01*
X112720000Y-112875000D02*
X112720000Y-113875000D01*
X139373578Y-120665000D02*
X138856422Y-120665000D01*
X139373578Y-122085000D02*
X138856422Y-122085000D01*
X124530000Y-112957064D02*
X124530000Y-108852936D01*
X127950000Y-112957064D02*
X127950000Y-108852936D01*
D15*
X142535000Y-105430000D02*
X137735000Y-105430000D01*
X142535000Y-117430000D02*
X137735000Y-117430000D01*
X142535000Y-105430000D02*
X142535000Y-117430000D01*
X137735000Y-105430000D02*
X137735000Y-117430000D01*
X67841904Y-110172380D02*
X67841904Y-109172380D01*
X68222857Y-109172380D01*
X68318095Y-109220000D01*
X68365714Y-109267619D01*
X68413333Y-109362857D01*
X68413333Y-109505714D01*
X68365714Y-109600952D01*
X68318095Y-109648571D01*
X68222857Y-109696190D01*
X67841904Y-109696190D01*
X68746666Y-109172380D02*
X69365714Y-109172380D01*
X69032380Y-109553333D01*
X69175238Y-109553333D01*
X69270476Y-109600952D01*
X69318095Y-109648571D01*
X69365714Y-109743809D01*
X69365714Y-109981904D01*
X69318095Y-110077142D01*
X69270476Y-110124761D01*
X69175238Y-110172380D01*
X68889523Y-110172380D01*
X68794285Y-110124761D01*
X68746666Y-110077142D01*
X122705904Y-80200380D02*
X122705904Y-79200380D01*
X123086857Y-79200380D01*
X123182095Y-79248000D01*
X123229714Y-79295619D01*
X123277333Y-79390857D01*
X123277333Y-79533714D01*
X123229714Y-79628952D01*
X123182095Y-79676571D01*
X123086857Y-79724190D01*
X122705904Y-79724190D01*
X123658285Y-79295619D02*
X123705904Y-79248000D01*
X123801142Y-79200380D01*
X124039238Y-79200380D01*
X124134476Y-79248000D01*
X124182095Y-79295619D01*
X124229714Y-79390857D01*
X124229714Y-79486095D01*
X124182095Y-79628952D01*
X123610666Y-80200380D01*
X124229714Y-80200380D01*
X67841904Y-80200380D02*
X67841904Y-79200380D01*
X68222857Y-79200380D01*
X68318095Y-79248000D01*
X68365714Y-79295619D01*
X68413333Y-79390857D01*
X68413333Y-79533714D01*
X68365714Y-79628952D01*
X68318095Y-79676571D01*
X68222857Y-79724190D01*
X67841904Y-79724190D01*
X69365714Y-80200380D02*
X68794285Y-80200380D01*
X69080000Y-80200380D02*
X69080000Y-79200380D01*
X68984761Y-79343238D01*
X68889523Y-79438476D01*
X68794285Y-79486095D01*
X87552380Y-100392857D02*
X87076190Y-100726190D01*
X87552380Y-100964285D02*
X86552380Y-100964285D01*
X86552380Y-100583333D01*
X86600000Y-100488095D01*
X86647619Y-100440476D01*
X86742857Y-100392857D01*
X86885714Y-100392857D01*
X86980952Y-100440476D01*
X87028571Y-100488095D01*
X87076190Y-100583333D01*
X87076190Y-100964285D01*
X86647619Y-100011904D02*
X86600000Y-99964285D01*
X86552380Y-99869047D01*
X86552380Y-99630952D01*
X86600000Y-99535714D01*
X86647619Y-99488095D01*
X86742857Y-99440476D01*
X86838095Y-99440476D01*
X86980952Y-99488095D01*
X87552380Y-100059523D01*
X87552380Y-99440476D01*
X87552380Y-98488095D02*
X87552380Y-99059523D01*
X87552380Y-98773809D02*
X86552380Y-98773809D01*
X86695238Y-98869047D01*
X86790476Y-98964285D01*
X86838095Y-99059523D01*
X88757142Y-106677142D02*
X88709523Y-106724761D01*
X88566666Y-106772380D01*
X88471428Y-106772380D01*
X88328571Y-106724761D01*
X88233333Y-106629523D01*
X88185714Y-106534285D01*
X88138095Y-106343809D01*
X88138095Y-106200952D01*
X88185714Y-106010476D01*
X88233333Y-105915238D01*
X88328571Y-105820000D01*
X88471428Y-105772380D01*
X88566666Y-105772380D01*
X88709523Y-105820000D01*
X88757142Y-105867619D01*
X89138095Y-105867619D02*
X89185714Y-105820000D01*
X89280952Y-105772380D01*
X89519047Y-105772380D01*
X89614285Y-105820000D01*
X89661904Y-105867619D01*
X89709523Y-105962857D01*
X89709523Y-106058095D01*
X89661904Y-106200952D01*
X89090476Y-106772380D01*
X89709523Y-106772380D01*
X90566666Y-105772380D02*
X90376190Y-105772380D01*
X90280952Y-105820000D01*
X90233333Y-105867619D01*
X90138095Y-106010476D01*
X90090476Y-106200952D01*
X90090476Y-106581904D01*
X90138095Y-106677142D01*
X90185714Y-106724761D01*
X90280952Y-106772380D01*
X90471428Y-106772380D01*
X90566666Y-106724761D01*
X90614285Y-106677142D01*
X90661904Y-106581904D01*
X90661904Y-106343809D01*
X90614285Y-106248571D01*
X90566666Y-106200952D01*
X90471428Y-106153333D01*
X90280952Y-106153333D01*
X90185714Y-106200952D01*
X90138095Y-106248571D01*
X90090476Y-106343809D01*
X88007142Y-105057142D02*
X87959523Y-105104761D01*
X87816666Y-105152380D01*
X87721428Y-105152380D01*
X87578571Y-105104761D01*
X87483333Y-105009523D01*
X87435714Y-104914285D01*
X87388095Y-104723809D01*
X87388095Y-104580952D01*
X87435714Y-104390476D01*
X87483333Y-104295238D01*
X87578571Y-104200000D01*
X87721428Y-104152380D01*
X87816666Y-104152380D01*
X87959523Y-104200000D01*
X88007142Y-104247619D01*
X88388095Y-104247619D02*
X88435714Y-104200000D01*
X88530952Y-104152380D01*
X88769047Y-104152380D01*
X88864285Y-104200000D01*
X88911904Y-104247619D01*
X88959523Y-104342857D01*
X88959523Y-104438095D01*
X88911904Y-104580952D01*
X88340476Y-105152380D01*
X88959523Y-105152380D01*
X89864285Y-104152380D02*
X89388095Y-104152380D01*
X89340476Y-104628571D01*
X89388095Y-104580952D01*
X89483333Y-104533333D01*
X89721428Y-104533333D01*
X89816666Y-104580952D01*
X89864285Y-104628571D01*
X89911904Y-104723809D01*
X89911904Y-104961904D01*
X89864285Y-105057142D01*
X89816666Y-105104761D01*
X89721428Y-105152380D01*
X89483333Y-105152380D01*
X89388095Y-105104761D01*
X89340476Y-105057142D01*
X91507142Y-106952380D02*
X91173809Y-106476190D01*
X90935714Y-106952380D02*
X90935714Y-105952380D01*
X91316666Y-105952380D01*
X91411904Y-106000000D01*
X91459523Y-106047619D01*
X91507142Y-106142857D01*
X91507142Y-106285714D01*
X91459523Y-106380952D01*
X91411904Y-106428571D01*
X91316666Y-106476190D01*
X90935714Y-106476190D01*
X92459523Y-106952380D02*
X91888095Y-106952380D01*
X92173809Y-106952380D02*
X92173809Y-105952380D01*
X92078571Y-106095238D01*
X91983333Y-106190476D01*
X91888095Y-106238095D01*
X92935714Y-106952380D02*
X93126190Y-106952380D01*
X93221428Y-106904761D01*
X93269047Y-106857142D01*
X93364285Y-106714285D01*
X93411904Y-106523809D01*
X93411904Y-106142857D01*
X93364285Y-106047619D01*
X93316666Y-106000000D01*
X93221428Y-105952380D01*
X93030952Y-105952380D01*
X92935714Y-106000000D01*
X92888095Y-106047619D01*
X92840476Y-106142857D01*
X92840476Y-106380952D01*
X92888095Y-106476190D01*
X92935714Y-106523809D01*
X93030952Y-106571428D01*
X93221428Y-106571428D01*
X93316666Y-106523809D01*
X93364285Y-106476190D01*
X93411904Y-106380952D01*
D17*
X63793523Y-105097333D02*
X64700666Y-105097333D01*
X64882095Y-105157809D01*
X65003047Y-105278761D01*
X65063523Y-105460190D01*
X65063523Y-105581142D01*
X64216857Y-103948285D02*
X65063523Y-103948285D01*
X63733047Y-104250666D02*
X64640190Y-104553047D01*
X64640190Y-103766857D01*
X77739912Y-106659782D02*
X78647055Y-106659782D01*
X78828484Y-106720258D01*
X78949436Y-106841211D01*
X79009912Y-107022639D01*
X79009912Y-107143592D01*
X77739912Y-105873592D02*
X78042293Y-105873592D01*
X77921341Y-106175972D02*
X78042293Y-105873592D01*
X77921341Y-105571211D01*
X78284198Y-106055020D02*
X78042293Y-105873592D01*
X78284198Y-105692163D01*
X77739912Y-104905972D02*
X78042293Y-104905972D01*
X77921341Y-105208353D02*
X78042293Y-104905972D01*
X77921341Y-104603592D01*
X78284198Y-105087401D02*
X78042293Y-104905972D01*
X78284198Y-104724544D01*
D15*
X140952380Y-101845238D02*
X140476190Y-102178571D01*
X140952380Y-102416666D02*
X139952380Y-102416666D01*
X139952380Y-102035714D01*
X140000000Y-101940476D01*
X140047619Y-101892857D01*
X140142857Y-101845238D01*
X140285714Y-101845238D01*
X140380952Y-101892857D01*
X140428571Y-101940476D01*
X140476190Y-102035714D01*
X140476190Y-102416666D01*
X139952380Y-101559523D02*
X140952380Y-101226190D01*
X139952380Y-100892857D01*
X139952380Y-100654761D02*
X139952380Y-100035714D01*
X140333333Y-100369047D01*
X140333333Y-100226190D01*
X140380952Y-100130952D01*
X140428571Y-100083333D01*
X140523809Y-100035714D01*
X140761904Y-100035714D01*
X140857142Y-100083333D01*
X140904761Y-100130952D01*
X140952380Y-100226190D01*
X140952380Y-100511904D01*
X140904761Y-100607142D01*
X140857142Y-100654761D01*
X88507142Y-110407142D02*
X88459523Y-110454761D01*
X88316666Y-110502380D01*
X88221428Y-110502380D01*
X88078571Y-110454761D01*
X87983333Y-110359523D01*
X87935714Y-110264285D01*
X87888095Y-110073809D01*
X87888095Y-109930952D01*
X87935714Y-109740476D01*
X87983333Y-109645238D01*
X88078571Y-109550000D01*
X88221428Y-109502380D01*
X88316666Y-109502380D01*
X88459523Y-109550000D01*
X88507142Y-109597619D01*
X88888095Y-109597619D02*
X88935714Y-109550000D01*
X89030952Y-109502380D01*
X89269047Y-109502380D01*
X89364285Y-109550000D01*
X89411904Y-109597619D01*
X89459523Y-109692857D01*
X89459523Y-109788095D01*
X89411904Y-109930952D01*
X88840476Y-110502380D01*
X89459523Y-110502380D01*
X89840476Y-109597619D02*
X89888095Y-109550000D01*
X89983333Y-109502380D01*
X90221428Y-109502380D01*
X90316666Y-109550000D01*
X90364285Y-109597619D01*
X90411904Y-109692857D01*
X90411904Y-109788095D01*
X90364285Y-109930952D01*
X89792857Y-110502380D01*
X90411904Y-110502380D01*
X84607142Y-95357142D02*
X84559523Y-95404761D01*
X84416666Y-95452380D01*
X84321428Y-95452380D01*
X84178571Y-95404761D01*
X84083333Y-95309523D01*
X84035714Y-95214285D01*
X83988095Y-95023809D01*
X83988095Y-94880952D01*
X84035714Y-94690476D01*
X84083333Y-94595238D01*
X84178571Y-94500000D01*
X84321428Y-94452380D01*
X84416666Y-94452380D01*
X84559523Y-94500000D01*
X84607142Y-94547619D01*
X84988095Y-94547619D02*
X85035714Y-94500000D01*
X85130952Y-94452380D01*
X85369047Y-94452380D01*
X85464285Y-94500000D01*
X85511904Y-94547619D01*
X85559523Y-94642857D01*
X85559523Y-94738095D01*
X85511904Y-94880952D01*
X84940476Y-95452380D01*
X85559523Y-95452380D01*
X86511904Y-95452380D02*
X85940476Y-95452380D01*
X86226190Y-95452380D02*
X86226190Y-94452380D01*
X86130952Y-94595238D01*
X86035714Y-94690476D01*
X85940476Y-94738095D01*
X85857142Y-81642857D02*
X85904761Y-81690476D01*
X85952380Y-81833333D01*
X85952380Y-81928571D01*
X85904761Y-82071428D01*
X85809523Y-82166666D01*
X85714285Y-82214285D01*
X85523809Y-82261904D01*
X85380952Y-82261904D01*
X85190476Y-82214285D01*
X85095238Y-82166666D01*
X85000000Y-82071428D01*
X84952380Y-81928571D01*
X84952380Y-81833333D01*
X85000000Y-81690476D01*
X85047619Y-81642857D01*
X85952380Y-80690476D02*
X85952380Y-81261904D01*
X85952380Y-80976190D02*
X84952380Y-80976190D01*
X85095238Y-81071428D01*
X85190476Y-81166666D01*
X85238095Y-81261904D01*
X84952380Y-79785714D02*
X84952380Y-80261904D01*
X85428571Y-80309523D01*
X85380952Y-80261904D01*
X85333333Y-80166666D01*
X85333333Y-79928571D01*
X85380952Y-79833333D01*
X85428571Y-79785714D01*
X85523809Y-79738095D01*
X85761904Y-79738095D01*
X85857142Y-79785714D01*
X85904761Y-79833333D01*
X85952380Y-79928571D01*
X85952380Y-80166666D01*
X85904761Y-80261904D01*
X85857142Y-80309523D01*
X112371309Y-94506190D02*
X112371309Y-94982380D01*
X112037976Y-93982380D02*
X112371309Y-94506190D01*
X112704642Y-93982380D01*
X113561785Y-94982380D02*
X112990357Y-94982380D01*
X113276071Y-94982380D02*
X113276071Y-93982380D01*
X113180833Y-94125238D01*
X113085595Y-94220476D01*
X112990357Y-94268095D01*
X113437380Y-108567857D02*
X112437380Y-108567857D01*
X113437380Y-107996428D01*
X112437380Y-107996428D01*
X112437380Y-107663095D02*
X112437380Y-107091666D01*
X113437380Y-107377380D02*
X112437380Y-107377380D01*
X113437380Y-106234523D02*
X113437380Y-106805952D01*
X113437380Y-106520238D02*
X112437380Y-106520238D01*
X112580238Y-106615476D01*
X112675476Y-106710714D01*
X112723095Y-106805952D01*
X133785714Y-88602380D02*
X133785714Y-87602380D01*
X134166666Y-87602380D01*
X134261904Y-87650000D01*
X134309523Y-87697619D01*
X134357142Y-87792857D01*
X134357142Y-87935714D01*
X134309523Y-88030952D01*
X134261904Y-88078571D01*
X134166666Y-88126190D01*
X133785714Y-88126190D01*
X134738095Y-88554761D02*
X134880952Y-88602380D01*
X135119047Y-88602380D01*
X135214285Y-88554761D01*
X135261904Y-88507142D01*
X135309523Y-88411904D01*
X135309523Y-88316666D01*
X135261904Y-88221428D01*
X135214285Y-88173809D01*
X135119047Y-88126190D01*
X134928571Y-88078571D01*
X134833333Y-88030952D01*
X134785714Y-87983333D01*
X134738095Y-87888095D01*
X134738095Y-87792857D01*
X134785714Y-87697619D01*
X134833333Y-87650000D01*
X134928571Y-87602380D01*
X135166666Y-87602380D01*
X135309523Y-87650000D01*
X136261904Y-88602380D02*
X135690476Y-88602380D01*
X135976190Y-88602380D02*
X135976190Y-87602380D01*
X135880952Y-87745238D01*
X135785714Y-87840476D01*
X135690476Y-87888095D01*
X87952380Y-78892857D02*
X87476190Y-79226190D01*
X87952380Y-79464285D02*
X86952380Y-79464285D01*
X86952380Y-79083333D01*
X87000000Y-78988095D01*
X87047619Y-78940476D01*
X87142857Y-78892857D01*
X87285714Y-78892857D01*
X87380952Y-78940476D01*
X87428571Y-78988095D01*
X87476190Y-79083333D01*
X87476190Y-79464285D01*
X87952380Y-77940476D02*
X87952380Y-78511904D01*
X87952380Y-78226190D02*
X86952380Y-78226190D01*
X87095238Y-78321428D01*
X87190476Y-78416666D01*
X87238095Y-78511904D01*
X86952380Y-77083333D02*
X86952380Y-77273809D01*
X87000000Y-77369047D01*
X87047619Y-77416666D01*
X87190476Y-77511904D01*
X87380952Y-77559523D01*
X87761904Y-77559523D01*
X87857142Y-77511904D01*
X87904761Y-77464285D01*
X87952380Y-77369047D01*
X87952380Y-77178571D01*
X87904761Y-77083333D01*
X87857142Y-77035714D01*
X87761904Y-76988095D01*
X87523809Y-76988095D01*
X87428571Y-77035714D01*
X87380952Y-77083333D01*
X87333333Y-77178571D01*
X87333333Y-77369047D01*
X87380952Y-77464285D01*
X87428571Y-77511904D01*
X87523809Y-77559523D01*
X143202380Y-110142857D02*
X142726190Y-110476190D01*
X143202380Y-110714285D02*
X142202380Y-110714285D01*
X142202380Y-110333333D01*
X142250000Y-110238095D01*
X142297619Y-110190476D01*
X142392857Y-110142857D01*
X142535714Y-110142857D01*
X142630952Y-110190476D01*
X142678571Y-110238095D01*
X142726190Y-110333333D01*
X142726190Y-110714285D01*
X143202380Y-109190476D02*
X143202380Y-109761904D01*
X143202380Y-109476190D02*
X142202380Y-109476190D01*
X142345238Y-109571428D01*
X142440476Y-109666666D01*
X142488095Y-109761904D01*
X142535714Y-108333333D02*
X143202380Y-108333333D01*
X142154761Y-108571428D02*
X142869047Y-108809523D01*
X142869047Y-108190476D01*
X143702380Y-113642857D02*
X143226190Y-113976190D01*
X143702380Y-114214285D02*
X142702380Y-114214285D01*
X142702380Y-113833333D01*
X142750000Y-113738095D01*
X142797619Y-113690476D01*
X142892857Y-113642857D01*
X143035714Y-113642857D01*
X143130952Y-113690476D01*
X143178571Y-113738095D01*
X143226190Y-113833333D01*
X143226190Y-114214285D01*
X143702380Y-112690476D02*
X143702380Y-113261904D01*
X143702380Y-112976190D02*
X142702380Y-112976190D01*
X142845238Y-113071428D01*
X142940476Y-113166666D01*
X142988095Y-113261904D01*
X142702380Y-112357142D02*
X142702380Y-111738095D01*
X143083333Y-112071428D01*
X143083333Y-111928571D01*
X143130952Y-111833333D01*
X143178571Y-111785714D01*
X143273809Y-111738095D01*
X143511904Y-111738095D01*
X143607142Y-111785714D01*
X143654761Y-111833333D01*
X143702380Y-111928571D01*
X143702380Y-112214285D01*
X143654761Y-112309523D01*
X143607142Y-112357142D01*
X110617380Y-104621904D02*
X111426904Y-104621904D01*
X111522142Y-104574285D01*
X111569761Y-104526666D01*
X111617380Y-104431428D01*
X111617380Y-104240952D01*
X111569761Y-104145714D01*
X111522142Y-104098095D01*
X111426904Y-104050476D01*
X110617380Y-104050476D01*
X110617380Y-103669523D02*
X110617380Y-103050476D01*
X110998333Y-103383809D01*
X110998333Y-103240952D01*
X111045952Y-103145714D01*
X111093571Y-103098095D01*
X111188809Y-103050476D01*
X111426904Y-103050476D01*
X111522142Y-103098095D01*
X111569761Y-103145714D01*
X111617380Y-103240952D01*
X111617380Y-103526666D01*
X111569761Y-103621904D01*
X111522142Y-103669523D01*
X96333095Y-114907380D02*
X96333095Y-115716904D01*
X96380714Y-115812142D01*
X96428333Y-115859761D01*
X96523571Y-115907380D01*
X96714047Y-115907380D01*
X96809285Y-115859761D01*
X96856904Y-115812142D01*
X96904523Y-115716904D01*
X96904523Y-114907380D01*
X97904523Y-115907380D02*
X97333095Y-115907380D01*
X97618809Y-115907380D02*
X97618809Y-114907380D01*
X97523571Y-115050238D01*
X97428333Y-115145476D01*
X97333095Y-115193095D01*
X107107142Y-112857142D02*
X107059523Y-112904761D01*
X106916666Y-112952380D01*
X106821428Y-112952380D01*
X106678571Y-112904761D01*
X106583333Y-112809523D01*
X106535714Y-112714285D01*
X106488095Y-112523809D01*
X106488095Y-112380952D01*
X106535714Y-112190476D01*
X106583333Y-112095238D01*
X106678571Y-112000000D01*
X106821428Y-111952380D01*
X106916666Y-111952380D01*
X107059523Y-112000000D01*
X107107142Y-112047619D01*
X107488095Y-112047619D02*
X107535714Y-112000000D01*
X107630952Y-111952380D01*
X107869047Y-111952380D01*
X107964285Y-112000000D01*
X108011904Y-112047619D01*
X108059523Y-112142857D01*
X108059523Y-112238095D01*
X108011904Y-112380952D01*
X107440476Y-112952380D01*
X108059523Y-112952380D01*
X108678571Y-111952380D02*
X108773809Y-111952380D01*
X108869047Y-112000000D01*
X108916666Y-112047619D01*
X108964285Y-112142857D01*
X109011904Y-112333333D01*
X109011904Y-112571428D01*
X108964285Y-112761904D01*
X108916666Y-112857142D01*
X108869047Y-112904761D01*
X108773809Y-112952380D01*
X108678571Y-112952380D01*
X108583333Y-112904761D01*
X108535714Y-112857142D01*
X108488095Y-112761904D01*
X108440476Y-112571428D01*
X108440476Y-112333333D01*
X108488095Y-112142857D01*
X108535714Y-112047619D01*
X108583333Y-112000000D01*
X108678571Y-111952380D01*
X119107142Y-104452142D02*
X119059523Y-104499761D01*
X118916666Y-104547380D01*
X118821428Y-104547380D01*
X118678571Y-104499761D01*
X118583333Y-104404523D01*
X118535714Y-104309285D01*
X118488095Y-104118809D01*
X118488095Y-103975952D01*
X118535714Y-103785476D01*
X118583333Y-103690238D01*
X118678571Y-103595000D01*
X118821428Y-103547380D01*
X118916666Y-103547380D01*
X119059523Y-103595000D01*
X119107142Y-103642619D01*
X120059523Y-104547380D02*
X119488095Y-104547380D01*
X119773809Y-104547380D02*
X119773809Y-103547380D01*
X119678571Y-103690238D01*
X119583333Y-103785476D01*
X119488095Y-103833095D01*
X120535714Y-104547380D02*
X120726190Y-104547380D01*
X120821428Y-104499761D01*
X120869047Y-104452142D01*
X120964285Y-104309285D01*
X121011904Y-104118809D01*
X121011904Y-103737857D01*
X120964285Y-103642619D01*
X120916666Y-103595000D01*
X120821428Y-103547380D01*
X120630952Y-103547380D01*
X120535714Y-103595000D01*
X120488095Y-103642619D01*
X120440476Y-103737857D01*
X120440476Y-103975952D01*
X120488095Y-104071190D01*
X120535714Y-104118809D01*
X120630952Y-104166428D01*
X120821428Y-104166428D01*
X120916666Y-104118809D01*
X120964285Y-104071190D01*
X121011904Y-103975952D01*
X114607142Y-104857142D02*
X114559523Y-104904761D01*
X114416666Y-104952380D01*
X114321428Y-104952380D01*
X114178571Y-104904761D01*
X114083333Y-104809523D01*
X114035714Y-104714285D01*
X113988095Y-104523809D01*
X113988095Y-104380952D01*
X114035714Y-104190476D01*
X114083333Y-104095238D01*
X114178571Y-104000000D01*
X114321428Y-103952380D01*
X114416666Y-103952380D01*
X114559523Y-104000000D01*
X114607142Y-104047619D01*
X115559523Y-104952380D02*
X114988095Y-104952380D01*
X115273809Y-104952380D02*
X115273809Y-103952380D01*
X115178571Y-104095238D01*
X115083333Y-104190476D01*
X114988095Y-104238095D01*
X116130952Y-104380952D02*
X116035714Y-104333333D01*
X115988095Y-104285714D01*
X115940476Y-104190476D01*
X115940476Y-104142857D01*
X115988095Y-104047619D01*
X116035714Y-104000000D01*
X116130952Y-103952380D01*
X116321428Y-103952380D01*
X116416666Y-104000000D01*
X116464285Y-104047619D01*
X116511904Y-104142857D01*
X116511904Y-104190476D01*
X116464285Y-104285714D01*
X116416666Y-104333333D01*
X116321428Y-104380952D01*
X116130952Y-104380952D01*
X116035714Y-104428571D01*
X115988095Y-104476190D01*
X115940476Y-104571428D01*
X115940476Y-104761904D01*
X115988095Y-104857142D01*
X116035714Y-104904761D01*
X116130952Y-104952380D01*
X116321428Y-104952380D01*
X116416666Y-104904761D01*
X116464285Y-104857142D01*
X116511904Y-104761904D01*
X116511904Y-104571428D01*
X116464285Y-104476190D01*
X116416666Y-104428571D01*
X116321428Y-104380952D01*
X120607142Y-100357142D02*
X120559523Y-100404761D01*
X120416666Y-100452380D01*
X120321428Y-100452380D01*
X120178571Y-100404761D01*
X120083333Y-100309523D01*
X120035714Y-100214285D01*
X119988095Y-100023809D01*
X119988095Y-99880952D01*
X120035714Y-99690476D01*
X120083333Y-99595238D01*
X120178571Y-99500000D01*
X120321428Y-99452380D01*
X120416666Y-99452380D01*
X120559523Y-99500000D01*
X120607142Y-99547619D01*
X121559523Y-100452380D02*
X120988095Y-100452380D01*
X121273809Y-100452380D02*
X121273809Y-99452380D01*
X121178571Y-99595238D01*
X121083333Y-99690476D01*
X120988095Y-99738095D01*
X122416666Y-99785714D02*
X122416666Y-100452380D01*
X122178571Y-99404761D02*
X121940476Y-100119047D01*
X122559523Y-100119047D01*
X116607142Y-107857142D02*
X116559523Y-107904761D01*
X116416666Y-107952380D01*
X116321428Y-107952380D01*
X116178571Y-107904761D01*
X116083333Y-107809523D01*
X116035714Y-107714285D01*
X115988095Y-107523809D01*
X115988095Y-107380952D01*
X116035714Y-107190476D01*
X116083333Y-107095238D01*
X116178571Y-107000000D01*
X116321428Y-106952380D01*
X116416666Y-106952380D01*
X116559523Y-107000000D01*
X116607142Y-107047619D01*
X117559523Y-107952380D02*
X116988095Y-107952380D01*
X117273809Y-107952380D02*
X117273809Y-106952380D01*
X117178571Y-107095238D01*
X117083333Y-107190476D01*
X116988095Y-107238095D01*
X118416666Y-106952380D02*
X118226190Y-106952380D01*
X118130952Y-107000000D01*
X118083333Y-107047619D01*
X117988095Y-107190476D01*
X117940476Y-107380952D01*
X117940476Y-107761904D01*
X117988095Y-107857142D01*
X118035714Y-107904761D01*
X118130952Y-107952380D01*
X118321428Y-107952380D01*
X118416666Y-107904761D01*
X118464285Y-107857142D01*
X118511904Y-107761904D01*
X118511904Y-107523809D01*
X118464285Y-107428571D01*
X118416666Y-107380952D01*
X118321428Y-107333333D01*
X118130952Y-107333333D01*
X118035714Y-107380952D01*
X117988095Y-107428571D01*
X117940476Y-107523809D01*
X122857142Y-105801666D02*
X122904761Y-105849285D01*
X122952380Y-105992142D01*
X122952380Y-106087380D01*
X122904761Y-106230238D01*
X122809523Y-106325476D01*
X122714285Y-106373095D01*
X122523809Y-106420714D01*
X122380952Y-106420714D01*
X122190476Y-106373095D01*
X122095238Y-106325476D01*
X122000000Y-106230238D01*
X121952380Y-106087380D01*
X121952380Y-105992142D01*
X122000000Y-105849285D01*
X122047619Y-105801666D01*
X121952380Y-105468333D02*
X121952380Y-104801666D01*
X122952380Y-105230238D01*
X121083333Y-108107142D02*
X121035714Y-108154761D01*
X120892857Y-108202380D01*
X120797619Y-108202380D01*
X120654761Y-108154761D01*
X120559523Y-108059523D01*
X120511904Y-107964285D01*
X120464285Y-107773809D01*
X120464285Y-107630952D01*
X120511904Y-107440476D01*
X120559523Y-107345238D01*
X120654761Y-107250000D01*
X120797619Y-107202380D01*
X120892857Y-107202380D01*
X121035714Y-107250000D01*
X121083333Y-107297619D01*
X121654761Y-107630952D02*
X121559523Y-107583333D01*
X121511904Y-107535714D01*
X121464285Y-107440476D01*
X121464285Y-107392857D01*
X121511904Y-107297619D01*
X121559523Y-107250000D01*
X121654761Y-107202380D01*
X121845238Y-107202380D01*
X121940476Y-107250000D01*
X121988095Y-107297619D01*
X122035714Y-107392857D01*
X122035714Y-107440476D01*
X121988095Y-107535714D01*
X121940476Y-107583333D01*
X121845238Y-107630952D01*
X121654761Y-107630952D01*
X121559523Y-107678571D01*
X121511904Y-107726190D01*
X121464285Y-107821428D01*
X121464285Y-108011904D01*
X121511904Y-108107142D01*
X121559523Y-108154761D01*
X121654761Y-108202380D01*
X121845238Y-108202380D01*
X121940476Y-108154761D01*
X121988095Y-108107142D01*
X122035714Y-108011904D01*
X122035714Y-107821428D01*
X121988095Y-107726190D01*
X121940476Y-107678571D01*
X121845238Y-107630952D01*
X110833333Y-115857142D02*
X110785714Y-115904761D01*
X110642857Y-115952380D01*
X110547619Y-115952380D01*
X110404761Y-115904761D01*
X110309523Y-115809523D01*
X110261904Y-115714285D01*
X110214285Y-115523809D01*
X110214285Y-115380952D01*
X110261904Y-115190476D01*
X110309523Y-115095238D01*
X110404761Y-115000000D01*
X110547619Y-114952380D01*
X110642857Y-114952380D01*
X110785714Y-115000000D01*
X110833333Y-115047619D01*
X111309523Y-115952380D02*
X111500000Y-115952380D01*
X111595238Y-115904761D01*
X111642857Y-115857142D01*
X111738095Y-115714285D01*
X111785714Y-115523809D01*
X111785714Y-115142857D01*
X111738095Y-115047619D01*
X111690476Y-115000000D01*
X111595238Y-114952380D01*
X111404761Y-114952380D01*
X111309523Y-115000000D01*
X111261904Y-115047619D01*
X111214285Y-115142857D01*
X111214285Y-115380952D01*
X111261904Y-115476190D01*
X111309523Y-115523809D01*
X111404761Y-115571428D01*
X111595238Y-115571428D01*
X111690476Y-115523809D01*
X111738095Y-115476190D01*
X111785714Y-115380952D01*
X112107142Y-102857142D02*
X112059523Y-102904761D01*
X111916666Y-102952380D01*
X111821428Y-102952380D01*
X111678571Y-102904761D01*
X111583333Y-102809523D01*
X111535714Y-102714285D01*
X111488095Y-102523809D01*
X111488095Y-102380952D01*
X111535714Y-102190476D01*
X111583333Y-102095238D01*
X111678571Y-102000000D01*
X111821428Y-101952380D01*
X111916666Y-101952380D01*
X112059523Y-102000000D01*
X112107142Y-102047619D01*
X113059523Y-102952380D02*
X112488095Y-102952380D01*
X112773809Y-102952380D02*
X112773809Y-101952380D01*
X112678571Y-102095238D01*
X112583333Y-102190476D01*
X112488095Y-102238095D01*
X114011904Y-102952380D02*
X113440476Y-102952380D01*
X113726190Y-102952380D02*
X113726190Y-101952380D01*
X113630952Y-102095238D01*
X113535714Y-102190476D01*
X113440476Y-102238095D01*
X104607142Y-101107142D02*
X104559523Y-101154761D01*
X104416666Y-101202380D01*
X104321428Y-101202380D01*
X104178571Y-101154761D01*
X104083333Y-101059523D01*
X104035714Y-100964285D01*
X103988095Y-100773809D01*
X103988095Y-100630952D01*
X104035714Y-100440476D01*
X104083333Y-100345238D01*
X104178571Y-100250000D01*
X104321428Y-100202380D01*
X104416666Y-100202380D01*
X104559523Y-100250000D01*
X104607142Y-100297619D01*
X105559523Y-101202380D02*
X104988095Y-101202380D01*
X105273809Y-101202380D02*
X105273809Y-100202380D01*
X105178571Y-100345238D01*
X105083333Y-100440476D01*
X104988095Y-100488095D01*
X105940476Y-100297619D02*
X105988095Y-100250000D01*
X106083333Y-100202380D01*
X106321428Y-100202380D01*
X106416666Y-100250000D01*
X106464285Y-100297619D01*
X106511904Y-100392857D01*
X106511904Y-100488095D01*
X106464285Y-100630952D01*
X105892857Y-101202380D01*
X106511904Y-101202380D01*
X118357142Y-105916666D02*
X118404761Y-105964285D01*
X118452380Y-106107142D01*
X118452380Y-106202380D01*
X118404761Y-106345238D01*
X118309523Y-106440476D01*
X118214285Y-106488095D01*
X118023809Y-106535714D01*
X117880952Y-106535714D01*
X117690476Y-106488095D01*
X117595238Y-106440476D01*
X117500000Y-106345238D01*
X117452380Y-106202380D01*
X117452380Y-106107142D01*
X117500000Y-105964285D01*
X117547619Y-105916666D01*
X117452380Y-105011904D02*
X117452380Y-105488095D01*
X117928571Y-105535714D01*
X117880952Y-105488095D01*
X117833333Y-105392857D01*
X117833333Y-105154761D01*
X117880952Y-105059523D01*
X117928571Y-105011904D01*
X118023809Y-104964285D01*
X118261904Y-104964285D01*
X118357142Y-105011904D01*
X118404761Y-105059523D01*
X118452380Y-105154761D01*
X118452380Y-105392857D01*
X118404761Y-105488095D01*
X118357142Y-105535714D01*
X108833333Y-116357142D02*
X108785714Y-116404761D01*
X108642857Y-116452380D01*
X108547619Y-116452380D01*
X108404761Y-116404761D01*
X108309523Y-116309523D01*
X108261904Y-116214285D01*
X108214285Y-116023809D01*
X108214285Y-115880952D01*
X108261904Y-115690476D01*
X108309523Y-115595238D01*
X108404761Y-115500000D01*
X108547619Y-115452380D01*
X108642857Y-115452380D01*
X108785714Y-115500000D01*
X108833333Y-115547619D01*
X109690476Y-115452380D02*
X109500000Y-115452380D01*
X109404761Y-115500000D01*
X109357142Y-115547619D01*
X109261904Y-115690476D01*
X109214285Y-115880952D01*
X109214285Y-116261904D01*
X109261904Y-116357142D01*
X109309523Y-116404761D01*
X109404761Y-116452380D01*
X109595238Y-116452380D01*
X109690476Y-116404761D01*
X109738095Y-116357142D01*
X109785714Y-116261904D01*
X109785714Y-116023809D01*
X109738095Y-115928571D01*
X109690476Y-115880952D01*
X109595238Y-115833333D01*
X109404761Y-115833333D01*
X109309523Y-115880952D01*
X109261904Y-115928571D01*
X109214285Y-116023809D01*
X119301666Y-118322380D02*
X119301666Y-119036666D01*
X119254047Y-119179523D01*
X119158809Y-119274761D01*
X119015952Y-119322380D01*
X118920714Y-119322380D01*
X120301666Y-119322380D02*
X119730238Y-119322380D01*
X120015952Y-119322380D02*
X120015952Y-118322380D01*
X119920714Y-118465238D01*
X119825476Y-118560476D01*
X119730238Y-118608095D01*
X127262380Y-97128333D02*
X127976666Y-97128333D01*
X128119523Y-97175952D01*
X128214761Y-97271190D01*
X128262380Y-97414047D01*
X128262380Y-97509285D01*
X127357619Y-96699761D02*
X127310000Y-96652142D01*
X127262380Y-96556904D01*
X127262380Y-96318809D01*
X127310000Y-96223571D01*
X127357619Y-96175952D01*
X127452857Y-96128333D01*
X127548095Y-96128333D01*
X127690952Y-96175952D01*
X128262380Y-96747380D01*
X128262380Y-96128333D01*
X103368333Y-116157142D02*
X103320714Y-116204761D01*
X103177857Y-116252380D01*
X103082619Y-116252380D01*
X102939761Y-116204761D01*
X102844523Y-116109523D01*
X102796904Y-116014285D01*
X102749285Y-115823809D01*
X102749285Y-115680952D01*
X102796904Y-115490476D01*
X102844523Y-115395238D01*
X102939761Y-115300000D01*
X103082619Y-115252380D01*
X103177857Y-115252380D01*
X103320714Y-115300000D01*
X103368333Y-115347619D01*
X104320714Y-116252380D02*
X103749285Y-116252380D01*
X104035000Y-116252380D02*
X104035000Y-115252380D01*
X103939761Y-115395238D01*
X103844523Y-115490476D01*
X103749285Y-115538095D01*
X91983333Y-113757142D02*
X91935714Y-113804761D01*
X91792857Y-113852380D01*
X91697619Y-113852380D01*
X91554761Y-113804761D01*
X91459523Y-113709523D01*
X91411904Y-113614285D01*
X91364285Y-113423809D01*
X91364285Y-113280952D01*
X91411904Y-113090476D01*
X91459523Y-112995238D01*
X91554761Y-112900000D01*
X91697619Y-112852380D01*
X91792857Y-112852380D01*
X91935714Y-112900000D01*
X91983333Y-112947619D01*
X92364285Y-112947619D02*
X92411904Y-112900000D01*
X92507142Y-112852380D01*
X92745238Y-112852380D01*
X92840476Y-112900000D01*
X92888095Y-112947619D01*
X92935714Y-113042857D01*
X92935714Y-113138095D01*
X92888095Y-113280952D01*
X92316666Y-113852380D01*
X92935714Y-113852380D01*
X87357142Y-86916666D02*
X87404761Y-86964285D01*
X87452380Y-87107142D01*
X87452380Y-87202380D01*
X87404761Y-87345238D01*
X87309523Y-87440476D01*
X87214285Y-87488095D01*
X87023809Y-87535714D01*
X86880952Y-87535714D01*
X86690476Y-87488095D01*
X86595238Y-87440476D01*
X86500000Y-87345238D01*
X86452380Y-87202380D01*
X86452380Y-87107142D01*
X86500000Y-86964285D01*
X86547619Y-86916666D01*
X86452380Y-86583333D02*
X86452380Y-85964285D01*
X86833333Y-86297619D01*
X86833333Y-86154761D01*
X86880952Y-86059523D01*
X86928571Y-86011904D01*
X87023809Y-85964285D01*
X87261904Y-85964285D01*
X87357142Y-86011904D01*
X87404761Y-86059523D01*
X87452380Y-86154761D01*
X87452380Y-86440476D01*
X87404761Y-86535714D01*
X87357142Y-86583333D01*
X93923095Y-85467380D02*
X93923095Y-86276904D01*
X93970714Y-86372142D01*
X94018333Y-86419761D01*
X94113571Y-86467380D01*
X94304047Y-86467380D01*
X94399285Y-86419761D01*
X94446904Y-86372142D01*
X94494523Y-86276904D01*
X94494523Y-85467380D01*
X94923095Y-85562619D02*
X94970714Y-85515000D01*
X95065952Y-85467380D01*
X95304047Y-85467380D01*
X95399285Y-85515000D01*
X95446904Y-85562619D01*
X95494523Y-85657857D01*
X95494523Y-85753095D01*
X95446904Y-85895952D01*
X94875476Y-86467380D01*
X95494523Y-86467380D01*
X92868095Y-97957380D02*
X92868095Y-98766904D01*
X92915714Y-98862142D01*
X92963333Y-98909761D01*
X93058571Y-98957380D01*
X93249047Y-98957380D01*
X93344285Y-98909761D01*
X93391904Y-98862142D01*
X93439523Y-98766904D01*
X93439523Y-97957380D01*
X94344285Y-98290714D02*
X94344285Y-98957380D01*
X94106190Y-97909761D02*
X93868095Y-98624047D01*
X94487142Y-98624047D01*
X107852380Y-106916666D02*
X107376190Y-107250000D01*
X107852380Y-107488095D02*
X106852380Y-107488095D01*
X106852380Y-107107142D01*
X106900000Y-107011904D01*
X106947619Y-106964285D01*
X107042857Y-106916666D01*
X107185714Y-106916666D01*
X107280952Y-106964285D01*
X107328571Y-107011904D01*
X107376190Y-107107142D01*
X107376190Y-107488095D01*
X107852380Y-105964285D02*
X107852380Y-106535714D01*
X107852380Y-106250000D02*
X106852380Y-106250000D01*
X106995238Y-106345238D01*
X107090476Y-106440476D01*
X107138095Y-106535714D01*
X143702380Y-119916666D02*
X143226190Y-120250000D01*
X143702380Y-120488095D02*
X142702380Y-120488095D01*
X142702380Y-120107142D01*
X142750000Y-120011904D01*
X142797619Y-119964285D01*
X142892857Y-119916666D01*
X143035714Y-119916666D01*
X143130952Y-119964285D01*
X143178571Y-120011904D01*
X143226190Y-120107142D01*
X143226190Y-120488095D01*
X142702380Y-119583333D02*
X142702380Y-118964285D01*
X143083333Y-119297619D01*
X143083333Y-119154761D01*
X143130952Y-119059523D01*
X143178571Y-119011904D01*
X143273809Y-118964285D01*
X143511904Y-118964285D01*
X143607142Y-119011904D01*
X143654761Y-119059523D01*
X143702380Y-119154761D01*
X143702380Y-119440476D01*
X143654761Y-119535714D01*
X143607142Y-119583333D01*
X116333333Y-116202380D02*
X116000000Y-115726190D01*
X115761904Y-116202380D02*
X115761904Y-115202380D01*
X116142857Y-115202380D01*
X116238095Y-115250000D01*
X116285714Y-115297619D01*
X116333333Y-115392857D01*
X116333333Y-115535714D01*
X116285714Y-115630952D01*
X116238095Y-115678571D01*
X116142857Y-115726190D01*
X115761904Y-115726190D01*
X117190476Y-115535714D02*
X117190476Y-116202380D01*
X116952380Y-115154761D02*
X116714285Y-115869047D01*
X117333333Y-115869047D01*
X122333333Y-114702380D02*
X122000000Y-114226190D01*
X121761904Y-114702380D02*
X121761904Y-113702380D01*
X122142857Y-113702380D01*
X122238095Y-113750000D01*
X122285714Y-113797619D01*
X122333333Y-113892857D01*
X122333333Y-114035714D01*
X122285714Y-114130952D01*
X122238095Y-114178571D01*
X122142857Y-114226190D01*
X121761904Y-114226190D01*
X123238095Y-113702380D02*
X122761904Y-113702380D01*
X122714285Y-114178571D01*
X122761904Y-114130952D01*
X122857142Y-114083333D01*
X123095238Y-114083333D01*
X123190476Y-114130952D01*
X123238095Y-114178571D01*
X123285714Y-114273809D01*
X123285714Y-114511904D01*
X123238095Y-114607142D01*
X123190476Y-114654761D01*
X123095238Y-114702380D01*
X122857142Y-114702380D01*
X122761904Y-114654761D01*
X122714285Y-114607142D01*
X122833333Y-108202380D02*
X122500000Y-107726190D01*
X122261904Y-108202380D02*
X122261904Y-107202380D01*
X122642857Y-107202380D01*
X122738095Y-107250000D01*
X122785714Y-107297619D01*
X122833333Y-107392857D01*
X122833333Y-107535714D01*
X122785714Y-107630952D01*
X122738095Y-107678571D01*
X122642857Y-107726190D01*
X122261904Y-107726190D01*
X123690476Y-107202380D02*
X123500000Y-107202380D01*
X123404761Y-107250000D01*
X123357142Y-107297619D01*
X123261904Y-107440476D01*
X123214285Y-107630952D01*
X123214285Y-108011904D01*
X123261904Y-108107142D01*
X123309523Y-108154761D01*
X123404761Y-108202380D01*
X123595238Y-108202380D01*
X123690476Y-108154761D01*
X123738095Y-108107142D01*
X123785714Y-108011904D01*
X123785714Y-107773809D01*
X123738095Y-107678571D01*
X123690476Y-107630952D01*
X123595238Y-107583333D01*
X123404761Y-107583333D01*
X123309523Y-107630952D01*
X123261904Y-107678571D01*
X123214285Y-107773809D01*
X116333333Y-112202380D02*
X116000000Y-111726190D01*
X115761904Y-112202380D02*
X115761904Y-111202380D01*
X116142857Y-111202380D01*
X116238095Y-111250000D01*
X116285714Y-111297619D01*
X116333333Y-111392857D01*
X116333333Y-111535714D01*
X116285714Y-111630952D01*
X116238095Y-111678571D01*
X116142857Y-111726190D01*
X115761904Y-111726190D01*
X116666666Y-111202380D02*
X117333333Y-111202380D01*
X116904761Y-112202380D01*
X103333333Y-113702380D02*
X103000000Y-113226190D01*
X102761904Y-113702380D02*
X102761904Y-112702380D01*
X103142857Y-112702380D01*
X103238095Y-112750000D01*
X103285714Y-112797619D01*
X103333333Y-112892857D01*
X103333333Y-113035714D01*
X103285714Y-113130952D01*
X103238095Y-113178571D01*
X103142857Y-113226190D01*
X102761904Y-113226190D01*
X103904761Y-113130952D02*
X103809523Y-113083333D01*
X103761904Y-113035714D01*
X103714285Y-112940476D01*
X103714285Y-112892857D01*
X103761904Y-112797619D01*
X103809523Y-112750000D01*
X103904761Y-112702380D01*
X104095238Y-112702380D01*
X104190476Y-112750000D01*
X104238095Y-112797619D01*
X104285714Y-112892857D01*
X104285714Y-112940476D01*
X104238095Y-113035714D01*
X104190476Y-113083333D01*
X104095238Y-113130952D01*
X103904761Y-113130952D01*
X103809523Y-113178571D01*
X103761904Y-113226190D01*
X103714285Y-113321428D01*
X103714285Y-113511904D01*
X103761904Y-113607142D01*
X103809523Y-113654761D01*
X103904761Y-113702380D01*
X104095238Y-113702380D01*
X104190476Y-113654761D01*
X104238095Y-113607142D01*
X104285714Y-113511904D01*
X104285714Y-113321428D01*
X104238095Y-113226190D01*
X104190476Y-113178571D01*
X104095238Y-113130952D01*
X109952380Y-103479166D02*
X109476190Y-103812500D01*
X109952380Y-104050595D02*
X108952380Y-104050595D01*
X108952380Y-103669642D01*
X109000000Y-103574404D01*
X109047619Y-103526785D01*
X109142857Y-103479166D01*
X109285714Y-103479166D01*
X109380952Y-103526785D01*
X109428571Y-103574404D01*
X109476190Y-103669642D01*
X109476190Y-104050595D01*
X109952380Y-103002976D02*
X109952380Y-102812500D01*
X109904761Y-102717261D01*
X109857142Y-102669642D01*
X109714285Y-102574404D01*
X109523809Y-102526785D01*
X109142857Y-102526785D01*
X109047619Y-102574404D01*
X109000000Y-102622023D01*
X108952380Y-102717261D01*
X108952380Y-102907738D01*
X109000000Y-103002976D01*
X109047619Y-103050595D01*
X109142857Y-103098214D01*
X109380952Y-103098214D01*
X109476190Y-103050595D01*
X109523809Y-103002976D01*
X109571428Y-102907738D01*
X109571428Y-102717261D01*
X109523809Y-102622023D01*
X109476190Y-102574404D01*
X109380952Y-102526785D01*
X103107142Y-106952380D02*
X102773809Y-106476190D01*
X102535714Y-106952380D02*
X102535714Y-105952380D01*
X102916666Y-105952380D01*
X103011904Y-106000000D01*
X103059523Y-106047619D01*
X103107142Y-106142857D01*
X103107142Y-106285714D01*
X103059523Y-106380952D01*
X103011904Y-106428571D01*
X102916666Y-106476190D01*
X102535714Y-106476190D01*
X104059523Y-106952380D02*
X103488095Y-106952380D01*
X103773809Y-106952380D02*
X103773809Y-105952380D01*
X103678571Y-106095238D01*
X103583333Y-106190476D01*
X103488095Y-106238095D01*
X104678571Y-105952380D02*
X104773809Y-105952380D01*
X104869047Y-106000000D01*
X104916666Y-106047619D01*
X104964285Y-106142857D01*
X105011904Y-106333333D01*
X105011904Y-106571428D01*
X104964285Y-106761904D01*
X104916666Y-106857142D01*
X104869047Y-106904761D01*
X104773809Y-106952380D01*
X104678571Y-106952380D01*
X104583333Y-106904761D01*
X104535714Y-106857142D01*
X104488095Y-106761904D01*
X104440476Y-106571428D01*
X104440476Y-106333333D01*
X104488095Y-106142857D01*
X104535714Y-106047619D01*
X104583333Y-106000000D01*
X104678571Y-105952380D01*
X105132380Y-103560357D02*
X104656190Y-103893690D01*
X105132380Y-104131785D02*
X104132380Y-104131785D01*
X104132380Y-103750833D01*
X104180000Y-103655595D01*
X104227619Y-103607976D01*
X104322857Y-103560357D01*
X104465714Y-103560357D01*
X104560952Y-103607976D01*
X104608571Y-103655595D01*
X104656190Y-103750833D01*
X104656190Y-104131785D01*
X105132380Y-102607976D02*
X105132380Y-103179404D01*
X105132380Y-102893690D02*
X104132380Y-102893690D01*
X104275238Y-102988928D01*
X104370476Y-103084166D01*
X104418095Y-103179404D01*
X105132380Y-101655595D02*
X105132380Y-102227023D01*
X105132380Y-101941309D02*
X104132380Y-101941309D01*
X104275238Y-102036547D01*
X104370476Y-102131785D01*
X104418095Y-102227023D01*
X106307142Y-109152380D02*
X105973809Y-108676190D01*
X105735714Y-109152380D02*
X105735714Y-108152380D01*
X106116666Y-108152380D01*
X106211904Y-108200000D01*
X106259523Y-108247619D01*
X106307142Y-108342857D01*
X106307142Y-108485714D01*
X106259523Y-108580952D01*
X106211904Y-108628571D01*
X106116666Y-108676190D01*
X105735714Y-108676190D01*
X107259523Y-109152380D02*
X106688095Y-109152380D01*
X106973809Y-109152380D02*
X106973809Y-108152380D01*
X106878571Y-108295238D01*
X106783333Y-108390476D01*
X106688095Y-108438095D01*
X107640476Y-108247619D02*
X107688095Y-108200000D01*
X107783333Y-108152380D01*
X108021428Y-108152380D01*
X108116666Y-108200000D01*
X108164285Y-108247619D01*
X108211904Y-108342857D01*
X108211904Y-108438095D01*
X108164285Y-108580952D01*
X107592857Y-109152380D01*
X108211904Y-109152380D01*
X118607142Y-111952380D02*
X118273809Y-111476190D01*
X118035714Y-111952380D02*
X118035714Y-110952380D01*
X118416666Y-110952380D01*
X118511904Y-111000000D01*
X118559523Y-111047619D01*
X118607142Y-111142857D01*
X118607142Y-111285714D01*
X118559523Y-111380952D01*
X118511904Y-111428571D01*
X118416666Y-111476190D01*
X118035714Y-111476190D01*
X118988095Y-111047619D02*
X119035714Y-111000000D01*
X119130952Y-110952380D01*
X119369047Y-110952380D01*
X119464285Y-111000000D01*
X119511904Y-111047619D01*
X119559523Y-111142857D01*
X119559523Y-111238095D01*
X119511904Y-111380952D01*
X118940476Y-111952380D01*
X119559523Y-111952380D01*
X120178571Y-110952380D02*
X120273809Y-110952380D01*
X120369047Y-111000000D01*
X120416666Y-111047619D01*
X120464285Y-111142857D01*
X120511904Y-111333333D01*
X120511904Y-111571428D01*
X120464285Y-111761904D01*
X120416666Y-111857142D01*
X120369047Y-111904761D01*
X120273809Y-111952380D01*
X120178571Y-111952380D01*
X120083333Y-111904761D01*
X120035714Y-111857142D01*
X119988095Y-111761904D01*
X119940476Y-111571428D01*
X119940476Y-111333333D01*
X119988095Y-111142857D01*
X120035714Y-111047619D01*
X120083333Y-111000000D01*
X120178571Y-110952380D01*
X76896666Y-89782380D02*
X76896666Y-90496666D01*
X76849047Y-90639523D01*
X76753809Y-90734761D01*
X76610952Y-90782380D01*
X76515714Y-90782380D01*
X77277619Y-89782380D02*
X77896666Y-89782380D01*
X77563333Y-90163333D01*
X77706190Y-90163333D01*
X77801428Y-90210952D01*
X77849047Y-90258571D01*
X77896666Y-90353809D01*
X77896666Y-90591904D01*
X77849047Y-90687142D01*
X77801428Y-90734761D01*
X77706190Y-90782380D01*
X77420476Y-90782380D01*
X77325238Y-90734761D01*
X77277619Y-90687142D01*
X82083333Y-91857142D02*
X82035714Y-91904761D01*
X81892857Y-91952380D01*
X81797619Y-91952380D01*
X81654761Y-91904761D01*
X81559523Y-91809523D01*
X81511904Y-91714285D01*
X81464285Y-91523809D01*
X81464285Y-91380952D01*
X81511904Y-91190476D01*
X81559523Y-91095238D01*
X81654761Y-91000000D01*
X81797619Y-90952380D01*
X81892857Y-90952380D01*
X82035714Y-91000000D01*
X82083333Y-91047619D01*
X82940476Y-91285714D02*
X82940476Y-91952380D01*
X82702380Y-90904761D02*
X82464285Y-91619047D01*
X83083333Y-91619047D01*
X143202380Y-106345238D02*
X142726190Y-106678571D01*
X143202380Y-106916666D02*
X142202380Y-106916666D01*
X142202380Y-106535714D01*
X142250000Y-106440476D01*
X142297619Y-106392857D01*
X142392857Y-106345238D01*
X142535714Y-106345238D01*
X142630952Y-106392857D01*
X142678571Y-106440476D01*
X142726190Y-106535714D01*
X142726190Y-106916666D01*
X142202380Y-106059523D02*
X143202380Y-105726190D01*
X142202380Y-105392857D01*
X143202380Y-104535714D02*
X143202380Y-105107142D01*
X143202380Y-104821428D02*
X142202380Y-104821428D01*
X142345238Y-104916666D01*
X142440476Y-105011904D01*
X142488095Y-105107142D01*
X99357142Y-100452380D02*
X99023809Y-99976190D01*
X98785714Y-100452380D02*
X98785714Y-99452380D01*
X99166666Y-99452380D01*
X99261904Y-99500000D01*
X99309523Y-99547619D01*
X99357142Y-99642857D01*
X99357142Y-99785714D01*
X99309523Y-99880952D01*
X99261904Y-99928571D01*
X99166666Y-99976190D01*
X98785714Y-99976190D01*
X100309523Y-100452380D02*
X99738095Y-100452380D01*
X100023809Y-100452380D02*
X100023809Y-99452380D01*
X99928571Y-99595238D01*
X99833333Y-99690476D01*
X99738095Y-99738095D01*
X101214285Y-99452380D02*
X100738095Y-99452380D01*
X100690476Y-99928571D01*
X100738095Y-99880952D01*
X100833333Y-99833333D01*
X101071428Y-99833333D01*
X101166666Y-99880952D01*
X101214285Y-99928571D01*
X101261904Y-100023809D01*
X101261904Y-100261904D01*
X101214285Y-100357142D01*
X101166666Y-100404761D01*
X101071428Y-100452380D01*
X100833333Y-100452380D01*
X100738095Y-100404761D01*
X100690476Y-100357142D01*
X84107142Y-87452380D02*
X83773809Y-86976190D01*
X83535714Y-87452380D02*
X83535714Y-86452380D01*
X83916666Y-86452380D01*
X84011904Y-86500000D01*
X84059523Y-86547619D01*
X84107142Y-86642857D01*
X84107142Y-86785714D01*
X84059523Y-86880952D01*
X84011904Y-86928571D01*
X83916666Y-86976190D01*
X83535714Y-86976190D01*
X85059523Y-87452380D02*
X84488095Y-87452380D01*
X84773809Y-87452380D02*
X84773809Y-86452380D01*
X84678571Y-86595238D01*
X84583333Y-86690476D01*
X84488095Y-86738095D01*
X85392857Y-86452380D02*
X86059523Y-86452380D01*
X85630952Y-87452380D01*
X140428571Y-94833333D02*
X140428571Y-95166666D01*
X140952380Y-95166666D02*
X139952380Y-95166666D01*
X139952380Y-94690476D01*
X140952380Y-93785714D02*
X140952380Y-94357142D01*
X140952380Y-94071428D02*
X139952380Y-94071428D01*
X140095238Y-94166666D01*
X140190476Y-94261904D01*
X140238095Y-94357142D01*
X119177142Y-115962142D02*
X119129523Y-116009761D01*
X118986666Y-116057380D01*
X118891428Y-116057380D01*
X118748571Y-116009761D01*
X118653333Y-115914523D01*
X118605714Y-115819285D01*
X118558095Y-115628809D01*
X118558095Y-115485952D01*
X118605714Y-115295476D01*
X118653333Y-115200238D01*
X118748571Y-115105000D01*
X118891428Y-115057380D01*
X118986666Y-115057380D01*
X119129523Y-115105000D01*
X119177142Y-115152619D01*
X120129523Y-116057380D02*
X119558095Y-116057380D01*
X119843809Y-116057380D02*
X119843809Y-115057380D01*
X119748571Y-115200238D01*
X119653333Y-115295476D01*
X119558095Y-115343095D01*
X120748571Y-115057380D02*
X120843809Y-115057380D01*
X120939047Y-115105000D01*
X120986666Y-115152619D01*
X121034285Y-115247857D01*
X121081904Y-115438333D01*
X121081904Y-115676428D01*
X121034285Y-115866904D01*
X120986666Y-115962142D01*
X120939047Y-116009761D01*
X120843809Y-116057380D01*
X120748571Y-116057380D01*
X120653333Y-116009761D01*
X120605714Y-115962142D01*
X120558095Y-115866904D01*
X120510476Y-115676428D01*
X120510476Y-115438333D01*
X120558095Y-115247857D01*
X120605714Y-115152619D01*
X120653333Y-115105000D01*
X120748571Y-115057380D01*
X116357142Y-100107142D02*
X116309523Y-100154761D01*
X116166666Y-100202380D01*
X116071428Y-100202380D01*
X115928571Y-100154761D01*
X115833333Y-100059523D01*
X115785714Y-99964285D01*
X115738095Y-99773809D01*
X115738095Y-99630952D01*
X115785714Y-99440476D01*
X115833333Y-99345238D01*
X115928571Y-99250000D01*
X116071428Y-99202380D01*
X116166666Y-99202380D01*
X116309523Y-99250000D01*
X116357142Y-99297619D01*
X117309523Y-100202380D02*
X116738095Y-100202380D01*
X117023809Y-100202380D02*
X117023809Y-99202380D01*
X116928571Y-99345238D01*
X116833333Y-99440476D01*
X116738095Y-99488095D01*
X117642857Y-99202380D02*
X118261904Y-99202380D01*
X117928571Y-99583333D01*
X118071428Y-99583333D01*
X118166666Y-99630952D01*
X118214285Y-99678571D01*
X118261904Y-99773809D01*
X118261904Y-100011904D01*
X118214285Y-100107142D01*
X118166666Y-100154761D01*
X118071428Y-100202380D01*
X117785714Y-100202380D01*
X117690476Y-100154761D01*
X117642857Y-100107142D01*
X113107142Y-115857142D02*
X113059523Y-115904761D01*
X112916666Y-115952380D01*
X112821428Y-115952380D01*
X112678571Y-115904761D01*
X112583333Y-115809523D01*
X112535714Y-115714285D01*
X112488095Y-115523809D01*
X112488095Y-115380952D01*
X112535714Y-115190476D01*
X112583333Y-115095238D01*
X112678571Y-115000000D01*
X112821428Y-114952380D01*
X112916666Y-114952380D01*
X113059523Y-115000000D01*
X113107142Y-115047619D01*
X114059523Y-115952380D02*
X113488095Y-115952380D01*
X113773809Y-115952380D02*
X113773809Y-114952380D01*
X113678571Y-115095238D01*
X113583333Y-115190476D01*
X113488095Y-115238095D01*
X114392857Y-114952380D02*
X115059523Y-114952380D01*
X114630952Y-115952380D01*
X137857142Y-120452380D02*
X137523809Y-119976190D01*
X137285714Y-120452380D02*
X137285714Y-119452380D01*
X137666666Y-119452380D01*
X137761904Y-119500000D01*
X137809523Y-119547619D01*
X137857142Y-119642857D01*
X137857142Y-119785714D01*
X137809523Y-119880952D01*
X137761904Y-119928571D01*
X137666666Y-119976190D01*
X137285714Y-119976190D01*
X138809523Y-120452380D02*
X138238095Y-120452380D01*
X138523809Y-120452380D02*
X138523809Y-119452380D01*
X138428571Y-119595238D01*
X138333333Y-119690476D01*
X138238095Y-119738095D01*
X139380952Y-119880952D02*
X139285714Y-119833333D01*
X139238095Y-119785714D01*
X139190476Y-119690476D01*
X139190476Y-119642857D01*
X139238095Y-119547619D01*
X139285714Y-119500000D01*
X139380952Y-119452380D01*
X139571428Y-119452380D01*
X139666666Y-119500000D01*
X139714285Y-119547619D01*
X139761904Y-119642857D01*
X139761904Y-119690476D01*
X139714285Y-119785714D01*
X139666666Y-119833333D01*
X139571428Y-119880952D01*
X139380952Y-119880952D01*
X139285714Y-119928571D01*
X139238095Y-119976190D01*
X139190476Y-120071428D01*
X139190476Y-120261904D01*
X139238095Y-120357142D01*
X139285714Y-120404761D01*
X139380952Y-120452380D01*
X139571428Y-120452380D01*
X139666666Y-120404761D01*
X139714285Y-120357142D01*
X139761904Y-120261904D01*
X139761904Y-120071428D01*
X139714285Y-119976190D01*
X139666666Y-119928571D01*
X139571428Y-119880952D01*
X122559523Y-103952380D02*
X122226190Y-103476190D01*
X121988095Y-103952380D02*
X121988095Y-102952380D01*
X122369047Y-102952380D01*
X122464285Y-103000000D01*
X122511904Y-103047619D01*
X122559523Y-103142857D01*
X122559523Y-103285714D01*
X122511904Y-103380952D01*
X122464285Y-103428571D01*
X122369047Y-103476190D01*
X121988095Y-103476190D01*
X122940476Y-103047619D02*
X122988095Y-103000000D01*
X123083333Y-102952380D01*
X123321428Y-102952380D01*
X123416666Y-103000000D01*
X123464285Y-103047619D01*
X123511904Y-103142857D01*
X123511904Y-103238095D01*
X123464285Y-103380952D01*
X122892857Y-103952380D01*
X123511904Y-103952380D01*
X123940476Y-103571428D02*
X124702380Y-103571428D01*
X125130952Y-103904761D02*
X125273809Y-103952380D01*
X125511904Y-103952380D01*
X125607142Y-103904761D01*
X125654761Y-103857142D01*
X125702380Y-103761904D01*
X125702380Y-103666666D01*
X125654761Y-103571428D01*
X125607142Y-103523809D01*
X125511904Y-103476190D01*
X125321428Y-103428571D01*
X125226190Y-103380952D01*
X125178571Y-103333333D01*
X125130952Y-103238095D01*
X125130952Y-103142857D01*
X125178571Y-103047619D01*
X125226190Y-103000000D01*
X125321428Y-102952380D01*
X125559523Y-102952380D01*
X125702380Y-103000000D01*
X126130952Y-103952380D02*
X126130952Y-102952380D01*
X126130952Y-103428571D02*
X126702380Y-103428571D01*
X126702380Y-103952380D02*
X126702380Y-102952380D01*
X127178571Y-102952380D02*
X127178571Y-103761904D01*
X127226190Y-103857142D01*
X127273809Y-103904761D01*
X127369047Y-103952380D01*
X127559523Y-103952380D01*
X127654761Y-103904761D01*
X127702380Y-103857142D01*
X127750000Y-103761904D01*
X127750000Y-102952380D01*
X128226190Y-103952380D02*
X128226190Y-102952380D01*
X128797619Y-103952380D01*
X128797619Y-102952380D01*
X129130952Y-102952380D02*
X129702380Y-102952380D01*
X129416666Y-103952380D02*
X129416666Y-102952380D01*
X130559523Y-103952380D02*
X129988095Y-103952380D01*
X130273809Y-103952380D02*
X130273809Y-102952380D01*
X130178571Y-103095238D01*
X130083333Y-103190476D01*
X129988095Y-103238095D01*
X139087380Y-107655238D02*
X138611190Y-107988571D01*
X139087380Y-108226666D02*
X138087380Y-108226666D01*
X138087380Y-107845714D01*
X138135000Y-107750476D01*
X138182619Y-107702857D01*
X138277857Y-107655238D01*
X138420714Y-107655238D01*
X138515952Y-107702857D01*
X138563571Y-107750476D01*
X138611190Y-107845714D01*
X138611190Y-108226666D01*
X138087380Y-107369523D02*
X139087380Y-107036190D01*
X138087380Y-106702857D01*
X138182619Y-106417142D02*
X138135000Y-106369523D01*
X138087380Y-106274285D01*
X138087380Y-106036190D01*
X138135000Y-105940952D01*
X138182619Y-105893333D01*
X138277857Y-105845714D01*
X138373095Y-105845714D01*
X138515952Y-105893333D01*
X139087380Y-106464761D01*
X139087380Y-105845714D01*
%LPC*%
D18*
X68580000Y-109220000D03*
X123444000Y-79248000D03*
X68580000Y-79248000D03*
G36*
G01*
X89302442Y-99550000D02*
X88197558Y-99550000D01*
G75*
G02*
X87850000Y-99202442I0J347558D01*
G01*
X87850000Y-98472558D01*
G75*
G02*
X88197558Y-98125000I347558J0D01*
G01*
X89302442Y-98125000D01*
G75*
G02*
X89650000Y-98472558I0J-347558D01*
G01*
X89650000Y-99202442D01*
G75*
G02*
X89302442Y-99550000I-347558J0D01*
G01*
G37*
G36*
G01*
X89302442Y-101375000D02*
X88197558Y-101375000D01*
G75*
G02*
X87850000Y-101027442I0J347558D01*
G01*
X87850000Y-100297558D01*
G75*
G02*
X88197558Y-99950000I347558J0D01*
G01*
X89302442Y-99950000D01*
G75*
G02*
X89650000Y-100297558I0J-347558D01*
G01*
X89650000Y-101027442D01*
G75*
G02*
X89302442Y-101375000I-347558J0D01*
G01*
G37*
G36*
G01*
X89650000Y-108575000D02*
X89650000Y-107425000D01*
G75*
G02*
X90000000Y-107075000I350000J0D01*
G01*
X90700000Y-107075000D01*
G75*
G02*
X91050000Y-107425000I0J-350000D01*
G01*
X91050000Y-108575000D01*
G75*
G02*
X90700000Y-108925000I-350000J0D01*
G01*
X90000000Y-108925000D01*
G75*
G02*
X89650000Y-108575000I0J350000D01*
G01*
G37*
G36*
G01*
X87750000Y-108575000D02*
X87750000Y-107425000D01*
G75*
G02*
X88100000Y-107075000I350000J0D01*
G01*
X88800000Y-107075000D01*
G75*
G02*
X89150000Y-107425000I0J-350000D01*
G01*
X89150000Y-108575000D01*
G75*
G02*
X88800000Y-108925000I-350000J0D01*
G01*
X88100000Y-108925000D01*
G75*
G02*
X87750000Y-108575000I0J350000D01*
G01*
G37*
G36*
G01*
X89150000Y-102625000D02*
X89150000Y-103775000D01*
G75*
G02*
X88800000Y-104125000I-350000J0D01*
G01*
X88100000Y-104125000D01*
G75*
G02*
X87750000Y-103775000I0J350000D01*
G01*
X87750000Y-102625000D01*
G75*
G02*
X88100000Y-102275000I350000J0D01*
G01*
X88800000Y-102275000D01*
G75*
G02*
X89150000Y-102625000I0J-350000D01*
G01*
G37*
G36*
G01*
X91050000Y-102625000D02*
X91050000Y-103775000D01*
G75*
G02*
X90700000Y-104125000I-350000J0D01*
G01*
X90000000Y-104125000D01*
G75*
G02*
X89650000Y-103775000I0J350000D01*
G01*
X89650000Y-102625000D01*
G75*
G02*
X90000000Y-102275000I350000J0D01*
G01*
X90700000Y-102275000D01*
G75*
G02*
X91050000Y-102625000I0J-350000D01*
G01*
G37*
G36*
G01*
X89200000Y-104947558D02*
X89200000Y-106052442D01*
G75*
G02*
X88852442Y-106400000I-347558J0D01*
G01*
X88122558Y-106400000D01*
G75*
G02*
X87775000Y-106052442I0J347558D01*
G01*
X87775000Y-104947558D01*
G75*
G02*
X88122558Y-104600000I347558J0D01*
G01*
X88852442Y-104600000D01*
G75*
G02*
X89200000Y-104947558I0J-347558D01*
G01*
G37*
G36*
G01*
X91025000Y-104947558D02*
X91025000Y-106052442D01*
G75*
G02*
X90677442Y-106400000I-347558J0D01*
G01*
X89947558Y-106400000D01*
G75*
G02*
X89600000Y-106052442I0J347558D01*
G01*
X89600000Y-104947558D01*
G75*
G02*
X89947558Y-104600000I347558J0D01*
G01*
X90677442Y-104600000D01*
G75*
G02*
X91025000Y-104947558I0J-347558D01*
G01*
G37*
D19*
X76300000Y-109500000D03*
X78080000Y-108480000D03*
X76300000Y-107470000D03*
X78080000Y-106450000D03*
X76300000Y-105440000D03*
X78080000Y-104420000D03*
X76300000Y-103410000D03*
X78080000Y-102390000D03*
D20*
X77190000Y-97820000D03*
X77190000Y-114080000D03*
D21*
X73760000Y-112300000D03*
X73760000Y-99600000D03*
D22*
X80280389Y-99903592D03*
X80280389Y-111843592D03*
D23*
X81800389Y-106893592D03*
X83320389Y-103833592D03*
X83320389Y-107913592D03*
X83320389Y-109953592D03*
X81800389Y-108933592D03*
X81800389Y-102813592D03*
X81800389Y-104853592D03*
X83320389Y-105873592D03*
D24*
X139115000Y-115205000D03*
X141915000Y-102505000D03*
G36*
G01*
X91100000Y-110675000D02*
X91100000Y-111925000D01*
G75*
G02*
X90900000Y-112125000I-200000J0D01*
G01*
X89900000Y-112125000D01*
G75*
G02*
X89700000Y-111925000I0J200000D01*
G01*
X89700000Y-110675000D01*
G75*
G02*
X89900000Y-110475000I200000J0D01*
G01*
X90900000Y-110475000D01*
G75*
G02*
X91100000Y-110675000I0J-200000D01*
G01*
G37*
G36*
G01*
X89100000Y-110675000D02*
X89100000Y-111925000D01*
G75*
G02*
X88900000Y-112125000I-200000J0D01*
G01*
X87900000Y-112125000D01*
G75*
G02*
X87700000Y-111925000I0J200000D01*
G01*
X87700000Y-110675000D01*
G75*
G02*
X87900000Y-110475000I200000J0D01*
G01*
X88900000Y-110475000D01*
G75*
G02*
X89100000Y-110675000I0J-200000D01*
G01*
G37*
G36*
G01*
X86700000Y-92875000D02*
X86700000Y-94125000D01*
G75*
G02*
X86500000Y-94325000I-200000J0D01*
G01*
X85500000Y-94325000D01*
G75*
G02*
X85300000Y-94125000I0J200000D01*
G01*
X85300000Y-92875000D01*
G75*
G02*
X85500000Y-92675000I200000J0D01*
G01*
X86500000Y-92675000D01*
G75*
G02*
X86700000Y-92875000I0J-200000D01*
G01*
G37*
G36*
G01*
X84700000Y-92875000D02*
X84700000Y-94125000D01*
G75*
G02*
X84500000Y-94325000I-200000J0D01*
G01*
X83500000Y-94325000D01*
G75*
G02*
X83300000Y-94125000I0J200000D01*
G01*
X83300000Y-92875000D01*
G75*
G02*
X83500000Y-92675000I200000J0D01*
G01*
X84500000Y-92675000D01*
G75*
G02*
X84700000Y-92875000I0J-200000D01*
G01*
G37*
G36*
G01*
X85215000Y-82395000D02*
X86465000Y-82395000D01*
G75*
G02*
X86665000Y-82595000I0J-200000D01*
G01*
X86665000Y-83595000D01*
G75*
G02*
X86465000Y-83795000I-200000J0D01*
G01*
X85215000Y-83795000D01*
G75*
G02*
X85015000Y-83595000I0J200000D01*
G01*
X85015000Y-82595000D01*
G75*
G02*
X85215000Y-82395000I200000J0D01*
G01*
G37*
G36*
G01*
X85215000Y-84395000D02*
X86465000Y-84395000D01*
G75*
G02*
X86665000Y-84595000I0J-200000D01*
G01*
X86665000Y-85595000D01*
G75*
G02*
X86465000Y-85795000I-200000J0D01*
G01*
X85215000Y-85795000D01*
G75*
G02*
X85015000Y-85595000I0J200000D01*
G01*
X85015000Y-84595000D01*
G75*
G02*
X85215000Y-84395000I200000J0D01*
G01*
G37*
G36*
G01*
X110142500Y-96815000D02*
X110142500Y-98415000D01*
G75*
G02*
X109942500Y-98615000I-200000J0D01*
G01*
X104767500Y-98615000D01*
G75*
G02*
X104567500Y-98415000I0J200000D01*
G01*
X104567500Y-96815000D01*
G75*
G02*
X104767500Y-96615000I200000J0D01*
G01*
X109942500Y-96615000D01*
G75*
G02*
X110142500Y-96815000I0J-200000D01*
G01*
G37*
G36*
G01*
X121217500Y-96815000D02*
X121217500Y-98415000D01*
G75*
G02*
X121017500Y-98615000I-200000J0D01*
G01*
X115842500Y-98615000D01*
G75*
G02*
X115642500Y-98415000I0J200000D01*
G01*
X115642500Y-96815000D01*
G75*
G02*
X115842500Y-96615000I200000J0D01*
G01*
X121017500Y-96615000D01*
G75*
G02*
X121217500Y-96815000I0J-200000D01*
G01*
G37*
G36*
G01*
X113315000Y-105675000D02*
X113065000Y-105675000D01*
G75*
G02*
X112865000Y-105475000I0J200000D01*
G01*
X112865000Y-104975000D01*
G75*
G02*
X113065000Y-104775000I200000J0D01*
G01*
X113315000Y-104775000D01*
G75*
G02*
X113515000Y-104975000I0J-200000D01*
G01*
X113515000Y-105475000D01*
G75*
G02*
X113315000Y-105675000I-200000J0D01*
G01*
G37*
G36*
G01*
X113690000Y-108005000D02*
X112690000Y-108005000D01*
G75*
G02*
X112490000Y-107805000I0J200000D01*
G01*
X112490000Y-106805000D01*
G75*
G02*
X112690000Y-106605000I200000J0D01*
G01*
X113690000Y-106605000D01*
G75*
G02*
X113890000Y-106805000I0J-200000D01*
G01*
X113890000Y-107805000D01*
G75*
G02*
X113690000Y-108005000I-200000J0D01*
G01*
G37*
D25*
X107105000Y-91080000D03*
G36*
G01*
X136455000Y-90080000D02*
X136455000Y-92080000D01*
G75*
G02*
X136255000Y-92280000I-200000J0D01*
G01*
X133955000Y-92280000D01*
G75*
G02*
X133755000Y-92080000I0J200000D01*
G01*
X133755000Y-90080000D01*
G75*
G02*
X133955000Y-89880000I200000J0D01*
G01*
X136255000Y-89880000D01*
G75*
G02*
X136455000Y-90080000I0J-200000D01*
G01*
G37*
X135105000Y-75880000D03*
X107105000Y-83480000D03*
G36*
G01*
X88316250Y-80790000D02*
X87203750Y-80790000D01*
G75*
G02*
X86860000Y-80446250I0J343750D01*
G01*
X86860000Y-79758750D01*
G75*
G02*
X87203750Y-79415000I343750J0D01*
G01*
X88316250Y-79415000D01*
G75*
G02*
X88660000Y-79758750I0J-343750D01*
G01*
X88660000Y-80446250D01*
G75*
G02*
X88316250Y-80790000I-343750J0D01*
G01*
G37*
G36*
G01*
X88316250Y-82665000D02*
X87203750Y-82665000D01*
G75*
G02*
X86860000Y-82321250I0J343750D01*
G01*
X86860000Y-81633750D01*
G75*
G02*
X87203750Y-81290000I343750J0D01*
G01*
X88316250Y-81290000D01*
G75*
G02*
X88660000Y-81633750I0J-343750D01*
G01*
X88660000Y-82321250D01*
G75*
G02*
X88316250Y-82665000I-343750J0D01*
G01*
G37*
G36*
G01*
X138748750Y-108952500D02*
X139861250Y-108952500D01*
G75*
G02*
X140205000Y-109296250I0J-343750D01*
G01*
X140205000Y-109983750D01*
G75*
G02*
X139861250Y-110327500I-343750J0D01*
G01*
X138748750Y-110327500D01*
G75*
G02*
X138405000Y-109983750I0J343750D01*
G01*
X138405000Y-109296250D01*
G75*
G02*
X138748750Y-108952500I343750J0D01*
G01*
G37*
G36*
G01*
X138748750Y-110827500D02*
X139861250Y-110827500D01*
G75*
G02*
X140205000Y-111171250I0J-343750D01*
G01*
X140205000Y-111858750D01*
G75*
G02*
X139861250Y-112202500I-343750J0D01*
G01*
X138748750Y-112202500D01*
G75*
G02*
X138405000Y-111858750I0J343750D01*
G01*
X138405000Y-111171250D01*
G75*
G02*
X138748750Y-110827500I343750J0D01*
G01*
G37*
G36*
G01*
X141408750Y-112500000D02*
X142521250Y-112500000D01*
G75*
G02*
X142865000Y-112843750I0J-343750D01*
G01*
X142865000Y-113531250D01*
G75*
G02*
X142521250Y-113875000I-343750J0D01*
G01*
X141408750Y-113875000D01*
G75*
G02*
X141065000Y-113531250I0J343750D01*
G01*
X141065000Y-112843750D01*
G75*
G02*
X141408750Y-112500000I343750J0D01*
G01*
G37*
G36*
G01*
X141408750Y-110625000D02*
X142521250Y-110625000D01*
G75*
G02*
X142865000Y-110968750I0J-343750D01*
G01*
X142865000Y-111656250D01*
G75*
G02*
X142521250Y-112000000I-343750J0D01*
G01*
X141408750Y-112000000D01*
G75*
G02*
X141065000Y-111656250I0J343750D01*
G01*
X141065000Y-110968750D01*
G75*
G02*
X141408750Y-110625000I343750J0D01*
G01*
G37*
G36*
G01*
X111037400Y-109713900D02*
X111037400Y-110526700D01*
G75*
G02*
X110837400Y-110726700I-200000J0D01*
G01*
X110532600Y-110726700D01*
G75*
G02*
X110332600Y-110526700I0J200000D01*
G01*
X110332600Y-109713900D01*
G75*
G02*
X110532600Y-109513900I200000J0D01*
G01*
X110837400Y-109513900D01*
G75*
G02*
X111037400Y-109713900I0J-200000D01*
G01*
G37*
G36*
G01*
X111537399Y-109713900D02*
X111537399Y-110526700D01*
G75*
G02*
X111337399Y-110726700I-200000J0D01*
G01*
X111032599Y-110726700D01*
G75*
G02*
X110832599Y-110526700I0J200000D01*
G01*
X110832599Y-109713900D01*
G75*
G02*
X111032599Y-109513900I200000J0D01*
G01*
X111337399Y-109513900D01*
G75*
G02*
X111537399Y-109713900I0J-200000D01*
G01*
G37*
G36*
G01*
X112037401Y-109713900D02*
X112037401Y-110526700D01*
G75*
G02*
X111837401Y-110726700I-200000J0D01*
G01*
X111532601Y-110726700D01*
G75*
G02*
X111332601Y-110526700I0J200000D01*
G01*
X111332601Y-109713900D01*
G75*
G02*
X111532601Y-109513900I200000J0D01*
G01*
X111837401Y-109513900D01*
G75*
G02*
X112037401Y-109713900I0J-200000D01*
G01*
G37*
G36*
G01*
X112537400Y-109713900D02*
X112537400Y-110526700D01*
G75*
G02*
X112337400Y-110726700I-200000J0D01*
G01*
X112032600Y-110726700D01*
G75*
G02*
X111832600Y-110526700I0J200000D01*
G01*
X111832600Y-109713900D01*
G75*
G02*
X112032600Y-109513900I200000J0D01*
G01*
X112337400Y-109513900D01*
G75*
G02*
X112537400Y-109713900I0J-200000D01*
G01*
G37*
G36*
G01*
X113037399Y-109713900D02*
X113037399Y-110526700D01*
G75*
G02*
X112837399Y-110726700I-200000J0D01*
G01*
X112532599Y-110726700D01*
G75*
G02*
X112332599Y-110526700I0J200000D01*
G01*
X112332599Y-109713900D01*
G75*
G02*
X112532599Y-109513900I200000J0D01*
G01*
X112837399Y-109513900D01*
G75*
G02*
X113037399Y-109713900I0J-200000D01*
G01*
G37*
G36*
G01*
X113537401Y-109713900D02*
X113537401Y-110526700D01*
G75*
G02*
X113337401Y-110726700I-200000J0D01*
G01*
X113032601Y-110726700D01*
G75*
G02*
X112832601Y-110526700I0J200000D01*
G01*
X112832601Y-109713900D01*
G75*
G02*
X113032601Y-109513900I200000J0D01*
G01*
X113337401Y-109513900D01*
G75*
G02*
X113537401Y-109713900I0J-200000D01*
G01*
G37*
G36*
G01*
X114037400Y-109713900D02*
X114037400Y-110526700D01*
G75*
G02*
X113837400Y-110726700I-200000J0D01*
G01*
X113532600Y-110726700D01*
G75*
G02*
X113332600Y-110526700I0J200000D01*
G01*
X113332600Y-109713900D01*
G75*
G02*
X113532600Y-109513900I200000J0D01*
G01*
X113837400Y-109513900D01*
G75*
G02*
X114037400Y-109713900I0J-200000D01*
G01*
G37*
G36*
G01*
X114991700Y-109572400D02*
X114178900Y-109572400D01*
G75*
G02*
X113978900Y-109372400I0J200000D01*
G01*
X113978900Y-109067600D01*
G75*
G02*
X114178900Y-108867600I200000J0D01*
G01*
X114991700Y-108867600D01*
G75*
G02*
X115191700Y-109067600I0J-200000D01*
G01*
X115191700Y-109372400D01*
G75*
G02*
X114991700Y-109572400I-200000J0D01*
G01*
G37*
G36*
G01*
X114991700Y-109072401D02*
X114178900Y-109072401D01*
G75*
G02*
X113978900Y-108872401I0J200000D01*
G01*
X113978900Y-108567601D01*
G75*
G02*
X114178900Y-108367601I200000J0D01*
G01*
X114991700Y-108367601D01*
G75*
G02*
X115191700Y-108567601I0J-200000D01*
G01*
X115191700Y-108872401D01*
G75*
G02*
X114991700Y-109072401I-200000J0D01*
G01*
G37*
G36*
G01*
X114991700Y-108572399D02*
X114178900Y-108572399D01*
G75*
G02*
X113978900Y-108372399I0J200000D01*
G01*
X113978900Y-108067599D01*
G75*
G02*
X114178900Y-107867599I200000J0D01*
G01*
X114991700Y-107867599D01*
G75*
G02*
X115191700Y-108067599I0J-200000D01*
G01*
X115191700Y-108372399D01*
G75*
G02*
X114991700Y-108572399I-200000J0D01*
G01*
G37*
G36*
G01*
X114991700Y-108072400D02*
X114178900Y-108072400D01*
G75*
G02*
X113978900Y-107872400I0J200000D01*
G01*
X113978900Y-107567600D01*
G75*
G02*
X114178900Y-107367600I200000J0D01*
G01*
X114991700Y-107367600D01*
G75*
G02*
X115191700Y-107567600I0J-200000D01*
G01*
X115191700Y-107872400D01*
G75*
G02*
X114991700Y-108072400I-200000J0D01*
G01*
G37*
G36*
G01*
X114991700Y-107572401D02*
X114178900Y-107572401D01*
G75*
G02*
X113978900Y-107372401I0J200000D01*
G01*
X113978900Y-107067601D01*
G75*
G02*
X114178900Y-106867601I200000J0D01*
G01*
X114991700Y-106867601D01*
G75*
G02*
X115191700Y-107067601I0J-200000D01*
G01*
X115191700Y-107372401D01*
G75*
G02*
X114991700Y-107572401I-200000J0D01*
G01*
G37*
G36*
G01*
X114991700Y-107072399D02*
X114178900Y-107072399D01*
G75*
G02*
X113978900Y-106872399I0J200000D01*
G01*
X113978900Y-106567599D01*
G75*
G02*
X114178900Y-106367599I200000J0D01*
G01*
X114991700Y-106367599D01*
G75*
G02*
X115191700Y-106567599I0J-200000D01*
G01*
X115191700Y-106872399D01*
G75*
G02*
X114991700Y-107072399I-200000J0D01*
G01*
G37*
G36*
G01*
X114991700Y-106572400D02*
X114178900Y-106572400D01*
G75*
G02*
X113978900Y-106372400I0J200000D01*
G01*
X113978900Y-106067600D01*
G75*
G02*
X114178900Y-105867600I200000J0D01*
G01*
X114991700Y-105867600D01*
G75*
G02*
X115191700Y-106067600I0J-200000D01*
G01*
X115191700Y-106372400D01*
G75*
G02*
X114991700Y-106572400I-200000J0D01*
G01*
G37*
G36*
G01*
X114037400Y-104913300D02*
X114037400Y-105726100D01*
G75*
G02*
X113837400Y-105926100I-200000J0D01*
G01*
X113532600Y-105926100D01*
G75*
G02*
X113332600Y-105726100I0J200000D01*
G01*
X113332600Y-104913300D01*
G75*
G02*
X113532600Y-104713300I200000J0D01*
G01*
X113837400Y-104713300D01*
G75*
G02*
X114037400Y-104913300I0J-200000D01*
G01*
G37*
G36*
G01*
X113537401Y-104913300D02*
X113537401Y-105726100D01*
G75*
G02*
X113337401Y-105926100I-200000J0D01*
G01*
X113032601Y-105926100D01*
G75*
G02*
X112832601Y-105726100I0J200000D01*
G01*
X112832601Y-104913300D01*
G75*
G02*
X113032601Y-104713300I200000J0D01*
G01*
X113337401Y-104713300D01*
G75*
G02*
X113537401Y-104913300I0J-200000D01*
G01*
G37*
G36*
G01*
X113037399Y-104913300D02*
X113037399Y-105726100D01*
G75*
G02*
X112837399Y-105926100I-200000J0D01*
G01*
X112532599Y-105926100D01*
G75*
G02*
X112332599Y-105726100I0J200000D01*
G01*
X112332599Y-104913300D01*
G75*
G02*
X112532599Y-104713300I200000J0D01*
G01*
X112837399Y-104713300D01*
G75*
G02*
X113037399Y-104913300I0J-200000D01*
G01*
G37*
G36*
G01*
X112537400Y-104913300D02*
X112537400Y-105726100D01*
G75*
G02*
X112337400Y-105926100I-200000J0D01*
G01*
X112032600Y-105926100D01*
G75*
G02*
X111832600Y-105726100I0J200000D01*
G01*
X111832600Y-104913300D01*
G75*
G02*
X112032600Y-104713300I200000J0D01*
G01*
X112337400Y-104713300D01*
G75*
G02*
X112537400Y-104913300I0J-200000D01*
G01*
G37*
G36*
G01*
X112037401Y-104913300D02*
X112037401Y-105726100D01*
G75*
G02*
X111837401Y-105926100I-200000J0D01*
G01*
X111532601Y-105926100D01*
G75*
G02*
X111332601Y-105726100I0J200000D01*
G01*
X111332601Y-104913300D01*
G75*
G02*
X111532601Y-104713300I200000J0D01*
G01*
X111837401Y-104713300D01*
G75*
G02*
X112037401Y-104913300I0J-200000D01*
G01*
G37*
G36*
G01*
X111537399Y-104913300D02*
X111537399Y-105726100D01*
G75*
G02*
X111337399Y-105926100I-200000J0D01*
G01*
X111032599Y-105926100D01*
G75*
G02*
X110832599Y-105726100I0J200000D01*
G01*
X110832599Y-104913300D01*
G75*
G02*
X111032599Y-104713300I200000J0D01*
G01*
X111337399Y-104713300D01*
G75*
G02*
X111537399Y-104913300I0J-200000D01*
G01*
G37*
G36*
G01*
X111037400Y-104913300D02*
X111037400Y-105726100D01*
G75*
G02*
X110837400Y-105926100I-200000J0D01*
G01*
X110532600Y-105926100D01*
G75*
G02*
X110332600Y-105726100I0J200000D01*
G01*
X110332600Y-104913300D01*
G75*
G02*
X110532600Y-104713300I200000J0D01*
G01*
X110837400Y-104713300D01*
G75*
G02*
X111037400Y-104913300I0J-200000D01*
G01*
G37*
G36*
G01*
X110191100Y-106572400D02*
X109378300Y-106572400D01*
G75*
G02*
X109178300Y-106372400I0J200000D01*
G01*
X109178300Y-106067600D01*
G75*
G02*
X109378300Y-105867600I200000J0D01*
G01*
X110191100Y-105867600D01*
G75*
G02*
X110391100Y-106067600I0J-200000D01*
G01*
X110391100Y-106372400D01*
G75*
G02*
X110191100Y-106572400I-200000J0D01*
G01*
G37*
G36*
G01*
X110191100Y-107072399D02*
X109378300Y-107072399D01*
G75*
G02*
X109178300Y-106872399I0J200000D01*
G01*
X109178300Y-106567599D01*
G75*
G02*
X109378300Y-106367599I200000J0D01*
G01*
X110191100Y-106367599D01*
G75*
G02*
X110391100Y-106567599I0J-200000D01*
G01*
X110391100Y-106872399D01*
G75*
G02*
X110191100Y-107072399I-200000J0D01*
G01*
G37*
G36*
G01*
X110191100Y-107572401D02*
X109378300Y-107572401D01*
G75*
G02*
X109178300Y-107372401I0J200000D01*
G01*
X109178300Y-107067601D01*
G75*
G02*
X109378300Y-106867601I200000J0D01*
G01*
X110191100Y-106867601D01*
G75*
G02*
X110391100Y-107067601I0J-200000D01*
G01*
X110391100Y-107372401D01*
G75*
G02*
X110191100Y-107572401I-200000J0D01*
G01*
G37*
G36*
G01*
X110191100Y-108072400D02*
X109378300Y-108072400D01*
G75*
G02*
X109178300Y-107872400I0J200000D01*
G01*
X109178300Y-107567600D01*
G75*
G02*
X109378300Y-107367600I200000J0D01*
G01*
X110191100Y-107367600D01*
G75*
G02*
X110391100Y-107567600I0J-200000D01*
G01*
X110391100Y-107872400D01*
G75*
G02*
X110191100Y-108072400I-200000J0D01*
G01*
G37*
G36*
G01*
X110191100Y-108572399D02*
X109378300Y-108572399D01*
G75*
G02*
X109178300Y-108372399I0J200000D01*
G01*
X109178300Y-108067599D01*
G75*
G02*
X109378300Y-107867599I200000J0D01*
G01*
X110191100Y-107867599D01*
G75*
G02*
X110391100Y-108067599I0J-200000D01*
G01*
X110391100Y-108372399D01*
G75*
G02*
X110191100Y-108572399I-200000J0D01*
G01*
G37*
G36*
G01*
X110191100Y-109072401D02*
X109378300Y-109072401D01*
G75*
G02*
X109178300Y-108872401I0J200000D01*
G01*
X109178300Y-108567601D01*
G75*
G02*
X109378300Y-108367601I200000J0D01*
G01*
X110191100Y-108367601D01*
G75*
G02*
X110391100Y-108567601I0J-200000D01*
G01*
X110391100Y-108872401D01*
G75*
G02*
X110191100Y-109072401I-200000J0D01*
G01*
G37*
G36*
G01*
X110191100Y-109572400D02*
X109378300Y-109572400D01*
G75*
G02*
X109178300Y-109372400I0J200000D01*
G01*
X109178300Y-109067600D01*
G75*
G02*
X109378300Y-108867600I200000J0D01*
G01*
X110191100Y-108867600D01*
G75*
G02*
X110391100Y-109067600I0J-200000D01*
G01*
X110391100Y-109372400D01*
G75*
G02*
X110191100Y-109572400I-200000J0D01*
G01*
G37*
G36*
G01*
X113836000Y-109571000D02*
X110534000Y-109571000D01*
G75*
G02*
X110334000Y-109371000I0J200000D01*
G01*
X110334000Y-106069000D01*
G75*
G02*
X110534000Y-105869000I200000J0D01*
G01*
X113836000Y-105869000D01*
G75*
G02*
X114036000Y-106069000I0J-200000D01*
G01*
X114036000Y-109371000D01*
G75*
G02*
X113836000Y-109571000I-200000J0D01*
G01*
G37*
G36*
G01*
X93395000Y-113350000D02*
X93395000Y-113950000D01*
G75*
G02*
X93195000Y-114150000I-200000J0D01*
G01*
X91695000Y-114150000D01*
G75*
G02*
X91495000Y-113950000I0J200000D01*
G01*
X91495000Y-113350000D01*
G75*
G02*
X91695000Y-113150000I200000J0D01*
G01*
X93195000Y-113150000D01*
G75*
G02*
X93395000Y-113350000I0J-200000D01*
G01*
G37*
G36*
G01*
X93395000Y-112080000D02*
X93395000Y-112680000D01*
G75*
G02*
X93195000Y-112880000I-200000J0D01*
G01*
X91695000Y-112880000D01*
G75*
G02*
X91495000Y-112680000I0J200000D01*
G01*
X91495000Y-112080000D01*
G75*
G02*
X91695000Y-111880000I200000J0D01*
G01*
X93195000Y-111880000D01*
G75*
G02*
X93395000Y-112080000I0J-200000D01*
G01*
G37*
G36*
G01*
X93395000Y-110810000D02*
X93395000Y-111410000D01*
G75*
G02*
X93195000Y-111610000I-200000J0D01*
G01*
X91695000Y-111610000D01*
G75*
G02*
X91495000Y-111410000I0J200000D01*
G01*
X91495000Y-110810000D01*
G75*
G02*
X91695000Y-110610000I200000J0D01*
G01*
X93195000Y-110610000D01*
G75*
G02*
X93395000Y-110810000I0J-200000D01*
G01*
G37*
G36*
G01*
X93395000Y-109540000D02*
X93395000Y-110140000D01*
G75*
G02*
X93195000Y-110340000I-200000J0D01*
G01*
X91695000Y-110340000D01*
G75*
G02*
X91495000Y-110140000I0J200000D01*
G01*
X91495000Y-109540000D01*
G75*
G02*
X91695000Y-109340000I200000J0D01*
G01*
X93195000Y-109340000D01*
G75*
G02*
X93395000Y-109540000I0J-200000D01*
G01*
G37*
G36*
G01*
X93395000Y-108270000D02*
X93395000Y-108870000D01*
G75*
G02*
X93195000Y-109070000I-200000J0D01*
G01*
X91695000Y-109070000D01*
G75*
G02*
X91495000Y-108870000I0J200000D01*
G01*
X91495000Y-108270000D01*
G75*
G02*
X91695000Y-108070000I200000J0D01*
G01*
X93195000Y-108070000D01*
G75*
G02*
X93395000Y-108270000I0J-200000D01*
G01*
G37*
G36*
G01*
X93395000Y-107000000D02*
X93395000Y-107600000D01*
G75*
G02*
X93195000Y-107800000I-200000J0D01*
G01*
X91695000Y-107800000D01*
G75*
G02*
X91495000Y-107600000I0J200000D01*
G01*
X91495000Y-107000000D01*
G75*
G02*
X91695000Y-106800000I200000J0D01*
G01*
X93195000Y-106800000D01*
G75*
G02*
X93395000Y-107000000I0J-200000D01*
G01*
G37*
G36*
G01*
X93395000Y-105730000D02*
X93395000Y-106330000D01*
G75*
G02*
X93195000Y-106530000I-200000J0D01*
G01*
X91695000Y-106530000D01*
G75*
G02*
X91495000Y-106330000I0J200000D01*
G01*
X91495000Y-105730000D01*
G75*
G02*
X91695000Y-105530000I200000J0D01*
G01*
X93195000Y-105530000D01*
G75*
G02*
X93395000Y-105730000I0J-200000D01*
G01*
G37*
G36*
G01*
X93395000Y-104460000D02*
X93395000Y-105060000D01*
G75*
G02*
X93195000Y-105260000I-200000J0D01*
G01*
X91695000Y-105260000D01*
G75*
G02*
X91495000Y-105060000I0J200000D01*
G01*
X91495000Y-104460000D01*
G75*
G02*
X91695000Y-104260000I200000J0D01*
G01*
X93195000Y-104260000D01*
G75*
G02*
X93395000Y-104460000I0J-200000D01*
G01*
G37*
G36*
G01*
X102695000Y-104460000D02*
X102695000Y-105060000D01*
G75*
G02*
X102495000Y-105260000I-200000J0D01*
G01*
X100995000Y-105260000D01*
G75*
G02*
X100795000Y-105060000I0J200000D01*
G01*
X100795000Y-104460000D01*
G75*
G02*
X100995000Y-104260000I200000J0D01*
G01*
X102495000Y-104260000D01*
G75*
G02*
X102695000Y-104460000I0J-200000D01*
G01*
G37*
G36*
G01*
X102695000Y-105730000D02*
X102695000Y-106330000D01*
G75*
G02*
X102495000Y-106530000I-200000J0D01*
G01*
X100995000Y-106530000D01*
G75*
G02*
X100795000Y-106330000I0J200000D01*
G01*
X100795000Y-105730000D01*
G75*
G02*
X100995000Y-105530000I200000J0D01*
G01*
X102495000Y-105530000D01*
G75*
G02*
X102695000Y-105730000I0J-200000D01*
G01*
G37*
G36*
G01*
X102695000Y-107000000D02*
X102695000Y-107600000D01*
G75*
G02*
X102495000Y-107800000I-200000J0D01*
G01*
X100995000Y-107800000D01*
G75*
G02*
X100795000Y-107600000I0J200000D01*
G01*
X100795000Y-107000000D01*
G75*
G02*
X100995000Y-106800000I200000J0D01*
G01*
X102495000Y-106800000D01*
G75*
G02*
X102695000Y-107000000I0J-200000D01*
G01*
G37*
G36*
G01*
X102695000Y-108270000D02*
X102695000Y-108870000D01*
G75*
G02*
X102495000Y-109070000I-200000J0D01*
G01*
X100995000Y-109070000D01*
G75*
G02*
X100795000Y-108870000I0J200000D01*
G01*
X100795000Y-108270000D01*
G75*
G02*
X100995000Y-108070000I200000J0D01*
G01*
X102495000Y-108070000D01*
G75*
G02*
X102695000Y-108270000I0J-200000D01*
G01*
G37*
G36*
G01*
X102695000Y-109540000D02*
X102695000Y-110140000D01*
G75*
G02*
X102495000Y-110340000I-200000J0D01*
G01*
X100995000Y-110340000D01*
G75*
G02*
X100795000Y-110140000I0J200000D01*
G01*
X100795000Y-109540000D01*
G75*
G02*
X100995000Y-109340000I200000J0D01*
G01*
X102495000Y-109340000D01*
G75*
G02*
X102695000Y-109540000I0J-200000D01*
G01*
G37*
G36*
G01*
X102695000Y-110810000D02*
X102695000Y-111410000D01*
G75*
G02*
X102495000Y-111610000I-200000J0D01*
G01*
X100995000Y-111610000D01*
G75*
G02*
X100795000Y-111410000I0J200000D01*
G01*
X100795000Y-110810000D01*
G75*
G02*
X100995000Y-110610000I200000J0D01*
G01*
X102495000Y-110610000D01*
G75*
G02*
X102695000Y-110810000I0J-200000D01*
G01*
G37*
G36*
G01*
X102695000Y-112080000D02*
X102695000Y-112680000D01*
G75*
G02*
X102495000Y-112880000I-200000J0D01*
G01*
X100995000Y-112880000D01*
G75*
G02*
X100795000Y-112680000I0J200000D01*
G01*
X100795000Y-112080000D01*
G75*
G02*
X100995000Y-111880000I200000J0D01*
G01*
X102495000Y-111880000D01*
G75*
G02*
X102695000Y-112080000I0J-200000D01*
G01*
G37*
G36*
G01*
X102695000Y-113350000D02*
X102695000Y-113950000D01*
G75*
G02*
X102495000Y-114150000I-200000J0D01*
G01*
X100995000Y-114150000D01*
G75*
G02*
X100795000Y-113950000I0J200000D01*
G01*
X100795000Y-113350000D01*
G75*
G02*
X100995000Y-113150000I200000J0D01*
G01*
X102495000Y-113150000D01*
G75*
G02*
X102695000Y-113350000I0J-200000D01*
G01*
G37*
G36*
G01*
X107515000Y-110895000D02*
X107515000Y-112145000D01*
G75*
G02*
X107315000Y-112345000I-200000J0D01*
G01*
X106315000Y-112345000D01*
G75*
G02*
X106115000Y-112145000I0J200000D01*
G01*
X106115000Y-110895000D01*
G75*
G02*
X106315000Y-110695000I200000J0D01*
G01*
X107315000Y-110695000D01*
G75*
G02*
X107515000Y-110895000I0J-200000D01*
G01*
G37*
G36*
G01*
X109515000Y-110895000D02*
X109515000Y-112145000D01*
G75*
G02*
X109315000Y-112345000I-200000J0D01*
G01*
X108315000Y-112345000D01*
G75*
G02*
X108115000Y-112145000I0J200000D01*
G01*
X108115000Y-110895000D01*
G75*
G02*
X108315000Y-110695000I200000J0D01*
G01*
X109315000Y-110695000D01*
G75*
G02*
X109515000Y-110895000I0J-200000D01*
G01*
G37*
G36*
G01*
X119995000Y-103875000D02*
X119995000Y-102625000D01*
G75*
G02*
X120195000Y-102425000I200000J0D01*
G01*
X121195000Y-102425000D01*
G75*
G02*
X121395000Y-102625000I0J-200000D01*
G01*
X121395000Y-103875000D01*
G75*
G02*
X121195000Y-104075000I-200000J0D01*
G01*
X120195000Y-104075000D01*
G75*
G02*
X119995000Y-103875000I0J200000D01*
G01*
G37*
G36*
G01*
X117995000Y-103875000D02*
X117995000Y-102625000D01*
G75*
G02*
X118195000Y-102425000I200000J0D01*
G01*
X119195000Y-102425000D01*
G75*
G02*
X119395000Y-102625000I0J-200000D01*
G01*
X119395000Y-103875000D01*
G75*
G02*
X119195000Y-104075000I-200000J0D01*
G01*
X118195000Y-104075000D01*
G75*
G02*
X117995000Y-103875000I0J200000D01*
G01*
G37*
G36*
G01*
X117060000Y-102625000D02*
X117060000Y-103875000D01*
G75*
G02*
X116860000Y-104075000I-200000J0D01*
G01*
X115860000Y-104075000D01*
G75*
G02*
X115660000Y-103875000I0J200000D01*
G01*
X115660000Y-102625000D01*
G75*
G02*
X115860000Y-102425000I200000J0D01*
G01*
X116860000Y-102425000D01*
G75*
G02*
X117060000Y-102625000I0J-200000D01*
G01*
G37*
G36*
G01*
X115060000Y-102625000D02*
X115060000Y-103875000D01*
G75*
G02*
X114860000Y-104075000I-200000J0D01*
G01*
X113860000Y-104075000D01*
G75*
G02*
X113660000Y-103875000I0J200000D01*
G01*
X113660000Y-102625000D01*
G75*
G02*
X113860000Y-102425000I200000J0D01*
G01*
X114860000Y-102425000D01*
G75*
G02*
X115060000Y-102625000I0J-200000D01*
G01*
G37*
G36*
G01*
X119745000Y-102000000D02*
X119745000Y-100750000D01*
G75*
G02*
X119945000Y-100550000I200000J0D01*
G01*
X120945000Y-100550000D01*
G75*
G02*
X121145000Y-100750000I0J-200000D01*
G01*
X121145000Y-102000000D01*
G75*
G02*
X120945000Y-102200000I-200000J0D01*
G01*
X119945000Y-102200000D01*
G75*
G02*
X119745000Y-102000000I0J200000D01*
G01*
G37*
G36*
G01*
X121745000Y-102000000D02*
X121745000Y-100750000D01*
G75*
G02*
X121945000Y-100550000I200000J0D01*
G01*
X122945000Y-100550000D01*
G75*
G02*
X123145000Y-100750000I0J-200000D01*
G01*
X123145000Y-102000000D01*
G75*
G02*
X122945000Y-102200000I-200000J0D01*
G01*
X121945000Y-102200000D01*
G75*
G02*
X121745000Y-102000000I0J200000D01*
G01*
G37*
G36*
G01*
X117815000Y-109295000D02*
X116565000Y-109295000D01*
G75*
G02*
X116365000Y-109095000I0J200000D01*
G01*
X116365000Y-108095000D01*
G75*
G02*
X116565000Y-107895000I200000J0D01*
G01*
X117815000Y-107895000D01*
G75*
G02*
X118015000Y-108095000I0J-200000D01*
G01*
X118015000Y-109095000D01*
G75*
G02*
X117815000Y-109295000I-200000J0D01*
G01*
G37*
G36*
G01*
X117815000Y-111295000D02*
X116565000Y-111295000D01*
G75*
G02*
X116365000Y-111095000I0J200000D01*
G01*
X116365000Y-110095000D01*
G75*
G02*
X116565000Y-109895000I200000J0D01*
G01*
X117815000Y-109895000D01*
G75*
G02*
X118015000Y-110095000I0J-200000D01*
G01*
X118015000Y-111095000D01*
G75*
G02*
X117815000Y-111295000I-200000J0D01*
G01*
G37*
G36*
G01*
X121875000Y-107610000D02*
X120625000Y-107610000D01*
G75*
G02*
X120425000Y-107410000I0J200000D01*
G01*
X120425000Y-106410000D01*
G75*
G02*
X120625000Y-106210000I200000J0D01*
G01*
X121875000Y-106210000D01*
G75*
G02*
X122075000Y-106410000I0J-200000D01*
G01*
X122075000Y-107410000D01*
G75*
G02*
X121875000Y-107610000I-200000J0D01*
G01*
G37*
G36*
G01*
X121875000Y-105610000D02*
X120625000Y-105610000D01*
G75*
G02*
X120425000Y-105410000I0J200000D01*
G01*
X120425000Y-104410000D01*
G75*
G02*
X120625000Y-104210000I200000J0D01*
G01*
X121875000Y-104210000D01*
G75*
G02*
X122075000Y-104410000I0J-200000D01*
G01*
X122075000Y-105410000D01*
G75*
G02*
X121875000Y-105610000I-200000J0D01*
G01*
G37*
G36*
G01*
X120490000Y-109910000D02*
X121740000Y-109910000D01*
G75*
G02*
X121940000Y-110110000I0J-200000D01*
G01*
X121940000Y-111110000D01*
G75*
G02*
X121740000Y-111310000I-200000J0D01*
G01*
X120490000Y-111310000D01*
G75*
G02*
X120290000Y-111110000I0J200000D01*
G01*
X120290000Y-110110000D01*
G75*
G02*
X120490000Y-109910000I200000J0D01*
G01*
G37*
G36*
G01*
X120490000Y-107910000D02*
X121740000Y-107910000D01*
G75*
G02*
X121940000Y-108110000I0J-200000D01*
G01*
X121940000Y-109110000D01*
G75*
G02*
X121740000Y-109310000I-200000J0D01*
G01*
X120490000Y-109310000D01*
G75*
G02*
X120290000Y-109110000I0J200000D01*
G01*
X120290000Y-108110000D01*
G75*
G02*
X120490000Y-107910000I200000J0D01*
G01*
G37*
G36*
G01*
X110630000Y-113435000D02*
X111880000Y-113435000D01*
G75*
G02*
X112080000Y-113635000I0J-200000D01*
G01*
X112080000Y-114635000D01*
G75*
G02*
X111880000Y-114835000I-200000J0D01*
G01*
X110630000Y-114835000D01*
G75*
G02*
X110430000Y-114635000I0J200000D01*
G01*
X110430000Y-113635000D01*
G75*
G02*
X110630000Y-113435000I200000J0D01*
G01*
G37*
G36*
G01*
X110630000Y-111435000D02*
X111880000Y-111435000D01*
G75*
G02*
X112080000Y-111635000I0J-200000D01*
G01*
X112080000Y-112635000D01*
G75*
G02*
X111880000Y-112835000I-200000J0D01*
G01*
X110630000Y-112835000D01*
G75*
G02*
X110430000Y-112635000I0J200000D01*
G01*
X110430000Y-111635000D01*
G75*
G02*
X110630000Y-111435000I200000J0D01*
G01*
G37*
G36*
G01*
X112570000Y-100640000D02*
X112570000Y-101890000D01*
G75*
G02*
X112370000Y-102090000I-200000J0D01*
G01*
X111370000Y-102090000D01*
G75*
G02*
X111170000Y-101890000I0J200000D01*
G01*
X111170000Y-100640000D01*
G75*
G02*
X111370000Y-100440000I200000J0D01*
G01*
X112370000Y-100440000D01*
G75*
G02*
X112570000Y-100640000I0J-200000D01*
G01*
G37*
G36*
G01*
X114570000Y-100640000D02*
X114570000Y-101890000D01*
G75*
G02*
X114370000Y-102090000I-200000J0D01*
G01*
X113370000Y-102090000D01*
G75*
G02*
X113170000Y-101890000I0J200000D01*
G01*
X113170000Y-100640000D01*
G75*
G02*
X113370000Y-100440000I200000J0D01*
G01*
X114370000Y-100440000D01*
G75*
G02*
X114570000Y-100640000I0J-200000D01*
G01*
G37*
G36*
G01*
X109880000Y-100245000D02*
X109880000Y-101495000D01*
G75*
G02*
X109680000Y-101695000I-200000J0D01*
G01*
X108680000Y-101695000D01*
G75*
G02*
X108480000Y-101495000I0J200000D01*
G01*
X108480000Y-100245000D01*
G75*
G02*
X108680000Y-100045000I200000J0D01*
G01*
X109680000Y-100045000D01*
G75*
G02*
X109880000Y-100245000I0J-200000D01*
G01*
G37*
G36*
G01*
X107880000Y-100245000D02*
X107880000Y-101495000D01*
G75*
G02*
X107680000Y-101695000I-200000J0D01*
G01*
X106680000Y-101695000D01*
G75*
G02*
X106480000Y-101495000I0J200000D01*
G01*
X106480000Y-100245000D01*
G75*
G02*
X106680000Y-100045000I200000J0D01*
G01*
X107680000Y-100045000D01*
G75*
G02*
X107880000Y-100245000I0J-200000D01*
G01*
G37*
G36*
G01*
X119885000Y-105610000D02*
X118635000Y-105610000D01*
G75*
G02*
X118435000Y-105410000I0J200000D01*
G01*
X118435000Y-104410000D01*
G75*
G02*
X118635000Y-104210000I200000J0D01*
G01*
X119885000Y-104210000D01*
G75*
G02*
X120085000Y-104410000I0J-200000D01*
G01*
X120085000Y-105410000D01*
G75*
G02*
X119885000Y-105610000I-200000J0D01*
G01*
G37*
G36*
G01*
X119885000Y-107610000D02*
X118635000Y-107610000D01*
G75*
G02*
X118435000Y-107410000I0J200000D01*
G01*
X118435000Y-106410000D01*
G75*
G02*
X118635000Y-106210000I200000J0D01*
G01*
X119885000Y-106210000D01*
G75*
G02*
X120085000Y-106410000I0J-200000D01*
G01*
X120085000Y-107410000D01*
G75*
G02*
X119885000Y-107610000I-200000J0D01*
G01*
G37*
G36*
G01*
X108290000Y-112575000D02*
X109540000Y-112575000D01*
G75*
G02*
X109740000Y-112775000I0J-200000D01*
G01*
X109740000Y-113775000D01*
G75*
G02*
X109540000Y-113975000I-200000J0D01*
G01*
X108290000Y-113975000D01*
G75*
G02*
X108090000Y-113775000I0J200000D01*
G01*
X108090000Y-112775000D01*
G75*
G02*
X108290000Y-112575000I200000J0D01*
G01*
G37*
G36*
G01*
X108290000Y-114575000D02*
X109540000Y-114575000D01*
G75*
G02*
X109740000Y-114775000I0J-200000D01*
G01*
X109740000Y-115775000D01*
G75*
G02*
X109540000Y-115975000I-200000J0D01*
G01*
X108290000Y-115975000D01*
G75*
G02*
X108090000Y-115775000I0J200000D01*
G01*
X108090000Y-114775000D01*
G75*
G02*
X108290000Y-114575000I200000J0D01*
G01*
G37*
D26*
X132345000Y-118990000D03*
X127265000Y-118990000D03*
G36*
G01*
X120945000Y-120790000D02*
X120945000Y-117190000D01*
G75*
G02*
X121145000Y-116990000I200000J0D01*
G01*
X123225000Y-116990000D01*
G75*
G02*
X123425000Y-117190000I0J-200000D01*
G01*
X123425000Y-120790000D01*
G75*
G02*
X123225000Y-120990000I-200000J0D01*
G01*
X121145000Y-120990000D01*
G75*
G02*
X120945000Y-120790000I0J200000D01*
G01*
G37*
X122185000Y-124070000D03*
X127265000Y-124070000D03*
X132345000Y-124070000D03*
D27*
X133815000Y-100195000D03*
X133815000Y-105275000D03*
G36*
G01*
X135615000Y-111595000D02*
X132015000Y-111595000D01*
G75*
G02*
X131815000Y-111395000I0J200000D01*
G01*
X131815000Y-109315000D01*
G75*
G02*
X132015000Y-109115000I200000J0D01*
G01*
X135615000Y-109115000D01*
G75*
G02*
X135815000Y-109315000I0J-200000D01*
G01*
X135815000Y-111395000D01*
G75*
G02*
X135615000Y-111595000I-200000J0D01*
G01*
G37*
G36*
G01*
X106320000Y-115895000D02*
X106320000Y-114645000D01*
G75*
G02*
X106520000Y-114445000I200000J0D01*
G01*
X107520000Y-114445000D01*
G75*
G02*
X107720000Y-114645000I0J-200000D01*
G01*
X107720000Y-115895000D01*
G75*
G02*
X107520000Y-116095000I-200000J0D01*
G01*
X106520000Y-116095000D01*
G75*
G02*
X106320000Y-115895000I0J200000D01*
G01*
G37*
G36*
G01*
X104320000Y-115895000D02*
X104320000Y-114645000D01*
G75*
G02*
X104520000Y-114445000I200000J0D01*
G01*
X105520000Y-114445000D01*
G75*
G02*
X105720000Y-114645000I0J-200000D01*
G01*
X105720000Y-115895000D01*
G75*
G02*
X105520000Y-116095000I-200000J0D01*
G01*
X104520000Y-116095000D01*
G75*
G02*
X104320000Y-115895000I0J200000D01*
G01*
G37*
G36*
G01*
X91100000Y-112775000D02*
X91100000Y-114025000D01*
G75*
G02*
X90900000Y-114225000I-200000J0D01*
G01*
X89900000Y-114225000D01*
G75*
G02*
X89700000Y-114025000I0J200000D01*
G01*
X89700000Y-112775000D01*
G75*
G02*
X89900000Y-112575000I200000J0D01*
G01*
X90900000Y-112575000D01*
G75*
G02*
X91100000Y-112775000I0J-200000D01*
G01*
G37*
G36*
G01*
X89100000Y-112775000D02*
X89100000Y-114025000D01*
G75*
G02*
X88900000Y-114225000I-200000J0D01*
G01*
X87900000Y-114225000D01*
G75*
G02*
X87700000Y-114025000I0J200000D01*
G01*
X87700000Y-112775000D01*
G75*
G02*
X87900000Y-112575000I200000J0D01*
G01*
X88900000Y-112575000D01*
G75*
G02*
X89100000Y-112775000I0J-200000D01*
G01*
G37*
G36*
G01*
X87125000Y-84850000D02*
X88375000Y-84850000D01*
G75*
G02*
X88575000Y-85050000I0J-200000D01*
G01*
X88575000Y-86050000D01*
G75*
G02*
X88375000Y-86250000I-200000J0D01*
G01*
X87125000Y-86250000D01*
G75*
G02*
X86925000Y-86050000I0J200000D01*
G01*
X86925000Y-85050000D01*
G75*
G02*
X87125000Y-84850000I200000J0D01*
G01*
G37*
G36*
G01*
X87125000Y-82850000D02*
X88375000Y-82850000D01*
G75*
G02*
X88575000Y-83050000I0J-200000D01*
G01*
X88575000Y-84050000D01*
G75*
G02*
X88375000Y-84250000I-200000J0D01*
G01*
X87125000Y-84250000D01*
G75*
G02*
X86925000Y-84050000I0J200000D01*
G01*
X86925000Y-83050000D01*
G75*
G02*
X87125000Y-82850000I200000J0D01*
G01*
G37*
G36*
G01*
X90870000Y-82795000D02*
X90870000Y-84575000D01*
G75*
G02*
X90670000Y-84775000I-200000J0D01*
G01*
X89170000Y-84775000D01*
G75*
G02*
X88970000Y-84575000I0J200000D01*
G01*
X88970000Y-82795000D01*
G75*
G02*
X89170000Y-82595000I200000J0D01*
G01*
X90670000Y-82595000D01*
G75*
G02*
X90870000Y-82795000I0J-200000D01*
G01*
G37*
G36*
G01*
X100400000Y-75175000D02*
X100400000Y-76955000D01*
G75*
G02*
X100200000Y-77155000I-200000J0D01*
G01*
X98700000Y-77155000D01*
G75*
G02*
X98500000Y-76955000I0J200000D01*
G01*
X98500000Y-75175000D01*
G75*
G02*
X98700000Y-74975000I200000J0D01*
G01*
X100200000Y-74975000D01*
G75*
G02*
X100400000Y-75175000I0J-200000D01*
G01*
G37*
G36*
G01*
X90870000Y-80255000D02*
X90870000Y-82035000D01*
G75*
G02*
X90670000Y-82235000I-200000J0D01*
G01*
X89170000Y-82235000D01*
G75*
G02*
X88970000Y-82035000I0J200000D01*
G01*
X88970000Y-80255000D01*
G75*
G02*
X89170000Y-80055000I200000J0D01*
G01*
X90670000Y-80055000D01*
G75*
G02*
X90870000Y-80255000I0J-200000D01*
G01*
G37*
G36*
G01*
X100400000Y-77715000D02*
X100400000Y-79495000D01*
G75*
G02*
X100200000Y-79695000I-200000J0D01*
G01*
X98700000Y-79695000D01*
G75*
G02*
X98500000Y-79495000I0J200000D01*
G01*
X98500000Y-77715000D01*
G75*
G02*
X98700000Y-77515000I200000J0D01*
G01*
X100200000Y-77515000D01*
G75*
G02*
X100400000Y-77715000I0J-200000D01*
G01*
G37*
G36*
G01*
X90870000Y-77715000D02*
X90870000Y-79495000D01*
G75*
G02*
X90670000Y-79695000I-200000J0D01*
G01*
X89170000Y-79695000D01*
G75*
G02*
X88970000Y-79495000I0J200000D01*
G01*
X88970000Y-77715000D01*
G75*
G02*
X89170000Y-77515000I200000J0D01*
G01*
X90670000Y-77515000D01*
G75*
G02*
X90870000Y-77715000I0J-200000D01*
G01*
G37*
G36*
G01*
X100400000Y-80255000D02*
X100400000Y-82035000D01*
G75*
G02*
X100200000Y-82235000I-200000J0D01*
G01*
X98700000Y-82235000D01*
G75*
G02*
X98500000Y-82035000I0J200000D01*
G01*
X98500000Y-80255000D01*
G75*
G02*
X98700000Y-80055000I200000J0D01*
G01*
X100200000Y-80055000D01*
G75*
G02*
X100400000Y-80255000I0J-200000D01*
G01*
G37*
G36*
G01*
X90870000Y-75175000D02*
X90870000Y-76955000D01*
G75*
G02*
X90670000Y-77155000I-200000J0D01*
G01*
X89170000Y-77155000D01*
G75*
G02*
X88970000Y-76955000I0J200000D01*
G01*
X88970000Y-75175000D01*
G75*
G02*
X89170000Y-74975000I200000J0D01*
G01*
X90670000Y-74975000D01*
G75*
G02*
X90870000Y-75175000I0J-200000D01*
G01*
G37*
G36*
G01*
X100400000Y-82795000D02*
X100400000Y-84575000D01*
G75*
G02*
X100200000Y-84775000I-200000J0D01*
G01*
X98700000Y-84775000D01*
G75*
G02*
X98500000Y-84575000I0J200000D01*
G01*
X98500000Y-82795000D01*
G75*
G02*
X98700000Y-82595000I200000J0D01*
G01*
X100200000Y-82595000D01*
G75*
G02*
X100400000Y-82795000I0J-200000D01*
G01*
G37*
G36*
G01*
X89815000Y-95285000D02*
X89815000Y-97065000D01*
G75*
G02*
X89615000Y-97265000I-200000J0D01*
G01*
X88115000Y-97265000D01*
G75*
G02*
X87915000Y-97065000I0J200000D01*
G01*
X87915000Y-95285000D01*
G75*
G02*
X88115000Y-95085000I200000J0D01*
G01*
X89615000Y-95085000D01*
G75*
G02*
X89815000Y-95285000I0J-200000D01*
G01*
G37*
G36*
G01*
X99345000Y-87665000D02*
X99345000Y-89445000D01*
G75*
G02*
X99145000Y-89645000I-200000J0D01*
G01*
X97645000Y-89645000D01*
G75*
G02*
X97445000Y-89445000I0J200000D01*
G01*
X97445000Y-87665000D01*
G75*
G02*
X97645000Y-87465000I200000J0D01*
G01*
X99145000Y-87465000D01*
G75*
G02*
X99345000Y-87665000I0J-200000D01*
G01*
G37*
G36*
G01*
X89815000Y-92745000D02*
X89815000Y-94525000D01*
G75*
G02*
X89615000Y-94725000I-200000J0D01*
G01*
X88115000Y-94725000D01*
G75*
G02*
X87915000Y-94525000I0J200000D01*
G01*
X87915000Y-92745000D01*
G75*
G02*
X88115000Y-92545000I200000J0D01*
G01*
X89615000Y-92545000D01*
G75*
G02*
X89815000Y-92745000I0J-200000D01*
G01*
G37*
G36*
G01*
X99345000Y-90205000D02*
X99345000Y-91985000D01*
G75*
G02*
X99145000Y-92185000I-200000J0D01*
G01*
X97645000Y-92185000D01*
G75*
G02*
X97445000Y-91985000I0J200000D01*
G01*
X97445000Y-90205000D01*
G75*
G02*
X97645000Y-90005000I200000J0D01*
G01*
X99145000Y-90005000D01*
G75*
G02*
X99345000Y-90205000I0J-200000D01*
G01*
G37*
G36*
G01*
X89815000Y-90205000D02*
X89815000Y-91985000D01*
G75*
G02*
X89615000Y-92185000I-200000J0D01*
G01*
X88115000Y-92185000D01*
G75*
G02*
X87915000Y-91985000I0J200000D01*
G01*
X87915000Y-90205000D01*
G75*
G02*
X88115000Y-90005000I200000J0D01*
G01*
X89615000Y-90005000D01*
G75*
G02*
X89815000Y-90205000I0J-200000D01*
G01*
G37*
G36*
G01*
X99345000Y-92745000D02*
X99345000Y-94525000D01*
G75*
G02*
X99145000Y-94725000I-200000J0D01*
G01*
X97645000Y-94725000D01*
G75*
G02*
X97445000Y-94525000I0J200000D01*
G01*
X97445000Y-92745000D01*
G75*
G02*
X97645000Y-92545000I200000J0D01*
G01*
X99145000Y-92545000D01*
G75*
G02*
X99345000Y-92745000I0J-200000D01*
G01*
G37*
G36*
G01*
X89815000Y-87665000D02*
X89815000Y-89445000D01*
G75*
G02*
X89615000Y-89645000I-200000J0D01*
G01*
X88115000Y-89645000D01*
G75*
G02*
X87915000Y-89445000I0J200000D01*
G01*
X87915000Y-87665000D01*
G75*
G02*
X88115000Y-87465000I200000J0D01*
G01*
X89615000Y-87465000D01*
G75*
G02*
X89815000Y-87665000I0J-200000D01*
G01*
G37*
G36*
G01*
X99345000Y-95285000D02*
X99345000Y-97065000D01*
G75*
G02*
X99145000Y-97265000I-200000J0D01*
G01*
X97645000Y-97265000D01*
G75*
G02*
X97445000Y-97065000I0J200000D01*
G01*
X97445000Y-95285000D01*
G75*
G02*
X97645000Y-95085000I200000J0D01*
G01*
X99145000Y-95085000D01*
G75*
G02*
X99345000Y-95285000I0J-200000D01*
G01*
G37*
G36*
G01*
X105343750Y-105375000D02*
X106456250Y-105375000D01*
G75*
G02*
X106800000Y-105718750I0J-343750D01*
G01*
X106800000Y-106406250D01*
G75*
G02*
X106456250Y-106750000I-343750J0D01*
G01*
X105343750Y-106750000D01*
G75*
G02*
X105000000Y-106406250I0J343750D01*
G01*
X105000000Y-105718750D01*
G75*
G02*
X105343750Y-105375000I343750J0D01*
G01*
G37*
G36*
G01*
X105343750Y-107250000D02*
X106456250Y-107250000D01*
G75*
G02*
X106800000Y-107593750I0J-343750D01*
G01*
X106800000Y-108281250D01*
G75*
G02*
X106456250Y-108625000I-343750J0D01*
G01*
X105343750Y-108625000D01*
G75*
G02*
X105000000Y-108281250I0J343750D01*
G01*
X105000000Y-107593750D01*
G75*
G02*
X105343750Y-107250000I343750J0D01*
G01*
G37*
G36*
G01*
X141438750Y-118195000D02*
X142551250Y-118195000D01*
G75*
G02*
X142895000Y-118538750I0J-343750D01*
G01*
X142895000Y-119226250D01*
G75*
G02*
X142551250Y-119570000I-343750J0D01*
G01*
X141438750Y-119570000D01*
G75*
G02*
X141095000Y-119226250I0J343750D01*
G01*
X141095000Y-118538750D01*
G75*
G02*
X141438750Y-118195000I343750J0D01*
G01*
G37*
G36*
G01*
X141438750Y-120070000D02*
X142551250Y-120070000D01*
G75*
G02*
X142895000Y-120413750I0J-343750D01*
G01*
X142895000Y-121101250D01*
G75*
G02*
X142551250Y-121445000I-343750J0D01*
G01*
X141438750Y-121445000D01*
G75*
G02*
X141095000Y-121101250I0J343750D01*
G01*
X141095000Y-120413750D01*
G75*
G02*
X141438750Y-120070000I343750J0D01*
G01*
G37*
G36*
G01*
X114732500Y-115331250D02*
X114732500Y-114218750D01*
G75*
G02*
X115076250Y-113875000I343750J0D01*
G01*
X115763750Y-113875000D01*
G75*
G02*
X116107500Y-114218750I0J-343750D01*
G01*
X116107500Y-115331250D01*
G75*
G02*
X115763750Y-115675000I-343750J0D01*
G01*
X115076250Y-115675000D01*
G75*
G02*
X114732500Y-115331250I0J343750D01*
G01*
G37*
G36*
G01*
X116607500Y-115331250D02*
X116607500Y-114218750D01*
G75*
G02*
X116951250Y-113875000I343750J0D01*
G01*
X117638750Y-113875000D01*
G75*
G02*
X117982500Y-114218750I0J-343750D01*
G01*
X117982500Y-115331250D01*
G75*
G02*
X117638750Y-115675000I-343750J0D01*
G01*
X116951250Y-115675000D01*
G75*
G02*
X116607500Y-115331250I0J343750D01*
G01*
G37*
G36*
G01*
X120710000Y-113251250D02*
X120710000Y-112138750D01*
G75*
G02*
X121053750Y-111795000I343750J0D01*
G01*
X121741250Y-111795000D01*
G75*
G02*
X122085000Y-112138750I0J-343750D01*
G01*
X122085000Y-113251250D01*
G75*
G02*
X121741250Y-113595000I-343750J0D01*
G01*
X121053750Y-113595000D01*
G75*
G02*
X120710000Y-113251250I0J343750D01*
G01*
G37*
G36*
G01*
X122585000Y-113251250D02*
X122585000Y-112138750D01*
G75*
G02*
X122928750Y-111795000I343750J0D01*
G01*
X123616250Y-111795000D01*
G75*
G02*
X123960000Y-112138750I0J-343750D01*
G01*
X123960000Y-113251250D01*
G75*
G02*
X123616250Y-113595000I-343750J0D01*
G01*
X122928750Y-113595000D01*
G75*
G02*
X122585000Y-113251250I0J343750D01*
G01*
G37*
G36*
G01*
X122518750Y-107945000D02*
X123631250Y-107945000D01*
G75*
G02*
X123975000Y-108288750I0J-343750D01*
G01*
X123975000Y-108976250D01*
G75*
G02*
X123631250Y-109320000I-343750J0D01*
G01*
X122518750Y-109320000D01*
G75*
G02*
X122175000Y-108976250I0J343750D01*
G01*
X122175000Y-108288750D01*
G75*
G02*
X122518750Y-107945000I343750J0D01*
G01*
G37*
G36*
G01*
X122518750Y-109820000D02*
X123631250Y-109820000D01*
G75*
G02*
X123975000Y-110163750I0J-343750D01*
G01*
X123975000Y-110851250D01*
G75*
G02*
X123631250Y-111195000I-343750J0D01*
G01*
X122518750Y-111195000D01*
G75*
G02*
X122175000Y-110851250I0J343750D01*
G01*
X122175000Y-110163750D01*
G75*
G02*
X122518750Y-109820000I343750J0D01*
G01*
G37*
G36*
G01*
X116180000Y-112108750D02*
X116180000Y-113221250D01*
G75*
G02*
X115836250Y-113565000I-343750J0D01*
G01*
X115148750Y-113565000D01*
G75*
G02*
X114805000Y-113221250I0J343750D01*
G01*
X114805000Y-112108750D01*
G75*
G02*
X115148750Y-111765000I343750J0D01*
G01*
X115836250Y-111765000D01*
G75*
G02*
X116180000Y-112108750I0J-343750D01*
G01*
G37*
G36*
G01*
X118055000Y-112108750D02*
X118055000Y-113221250D01*
G75*
G02*
X117711250Y-113565000I-343750J0D01*
G01*
X117023750Y-113565000D01*
G75*
G02*
X116680000Y-113221250I0J343750D01*
G01*
X116680000Y-112108750D01*
G75*
G02*
X117023750Y-111765000I343750J0D01*
G01*
X117711250Y-111765000D01*
G75*
G02*
X118055000Y-112108750I0J-343750D01*
G01*
G37*
G36*
G01*
X105785000Y-112818750D02*
X105785000Y-113931250D01*
G75*
G02*
X105441250Y-114275000I-343750J0D01*
G01*
X104753750Y-114275000D01*
G75*
G02*
X104410000Y-113931250I0J343750D01*
G01*
X104410000Y-112818750D01*
G75*
G02*
X104753750Y-112475000I343750J0D01*
G01*
X105441250Y-112475000D01*
G75*
G02*
X105785000Y-112818750I0J-343750D01*
G01*
G37*
G36*
G01*
X107660000Y-112818750D02*
X107660000Y-113931250D01*
G75*
G02*
X107316250Y-114275000I-343750J0D01*
G01*
X106628750Y-114275000D01*
G75*
G02*
X106285000Y-113931250I0J343750D01*
G01*
X106285000Y-112818750D01*
G75*
G02*
X106628750Y-112475000I343750J0D01*
G01*
X107316250Y-112475000D01*
G75*
G02*
X107660000Y-112818750I0J-343750D01*
G01*
G37*
G36*
G01*
X108806250Y-105125000D02*
X107693750Y-105125000D01*
G75*
G02*
X107350000Y-104781250I0J343750D01*
G01*
X107350000Y-104093750D01*
G75*
G02*
X107693750Y-103750000I343750J0D01*
G01*
X108806250Y-103750000D01*
G75*
G02*
X109150000Y-104093750I0J-343750D01*
G01*
X109150000Y-104781250D01*
G75*
G02*
X108806250Y-105125000I-343750J0D01*
G01*
G37*
G36*
G01*
X108806250Y-103250000D02*
X107693750Y-103250000D01*
G75*
G02*
X107350000Y-102906250I0J343750D01*
G01*
X107350000Y-102218750D01*
G75*
G02*
X107693750Y-101875000I343750J0D01*
G01*
X108806250Y-101875000D01*
G75*
G02*
X109150000Y-102218750I0J-343750D01*
G01*
X109150000Y-102906250D01*
G75*
G02*
X108806250Y-103250000I-343750J0D01*
G01*
G37*
G36*
G01*
X104436250Y-108307500D02*
X103323750Y-108307500D01*
G75*
G02*
X102980000Y-107963750I0J343750D01*
G01*
X102980000Y-107276250D01*
G75*
G02*
X103323750Y-106932500I343750J0D01*
G01*
X104436250Y-106932500D01*
G75*
G02*
X104780000Y-107276250I0J-343750D01*
G01*
X104780000Y-107963750D01*
G75*
G02*
X104436250Y-108307500I-343750J0D01*
G01*
G37*
G36*
G01*
X104436250Y-110182500D02*
X103323750Y-110182500D01*
G75*
G02*
X102980000Y-109838750I0J343750D01*
G01*
X102980000Y-109151250D01*
G75*
G02*
X103323750Y-108807500I343750J0D01*
G01*
X104436250Y-108807500D01*
G75*
G02*
X104780000Y-109151250I0J-343750D01*
G01*
X104780000Y-109838750D01*
G75*
G02*
X104436250Y-110182500I-343750J0D01*
G01*
G37*
G36*
G01*
X105443750Y-101912500D02*
X106556250Y-101912500D01*
G75*
G02*
X106900000Y-102256250I0J-343750D01*
G01*
X106900000Y-102943750D01*
G75*
G02*
X106556250Y-103287500I-343750J0D01*
G01*
X105443750Y-103287500D01*
G75*
G02*
X105100000Y-102943750I0J343750D01*
G01*
X105100000Y-102256250D01*
G75*
G02*
X105443750Y-101912500I343750J0D01*
G01*
G37*
G36*
G01*
X105443750Y-103787500D02*
X106556250Y-103787500D01*
G75*
G02*
X106900000Y-104131250I0J-343750D01*
G01*
X106900000Y-104818750D01*
G75*
G02*
X106556250Y-105162500I-343750J0D01*
G01*
X105443750Y-105162500D01*
G75*
G02*
X105100000Y-104818750I0J343750D01*
G01*
X105100000Y-104131250D01*
G75*
G02*
X105443750Y-103787500I343750J0D01*
G01*
G37*
G36*
G01*
X106950000Y-110256250D02*
X106950000Y-109143750D01*
G75*
G02*
X107293750Y-108800000I343750J0D01*
G01*
X107981250Y-108800000D01*
G75*
G02*
X108325000Y-109143750I0J-343750D01*
G01*
X108325000Y-110256250D01*
G75*
G02*
X107981250Y-110600000I-343750J0D01*
G01*
X107293750Y-110600000D01*
G75*
G02*
X106950000Y-110256250I0J343750D01*
G01*
G37*
G36*
G01*
X105075000Y-110256250D02*
X105075000Y-109143750D01*
G75*
G02*
X105418750Y-108800000I343750J0D01*
G01*
X106106250Y-108800000D01*
G75*
G02*
X106450000Y-109143750I0J-343750D01*
G01*
X106450000Y-110256250D01*
G75*
G02*
X106106250Y-110600000I-343750J0D01*
G01*
X105418750Y-110600000D01*
G75*
G02*
X105075000Y-110256250I0J343750D01*
G01*
G37*
G36*
G01*
X119751250Y-109500000D02*
X118638750Y-109500000D01*
G75*
G02*
X118295000Y-109156250I0J343750D01*
G01*
X118295000Y-108468750D01*
G75*
G02*
X118638750Y-108125000I343750J0D01*
G01*
X119751250Y-108125000D01*
G75*
G02*
X120095000Y-108468750I0J-343750D01*
G01*
X120095000Y-109156250D01*
G75*
G02*
X119751250Y-109500000I-343750J0D01*
G01*
G37*
G36*
G01*
X119751250Y-111375000D02*
X118638750Y-111375000D01*
G75*
G02*
X118295000Y-111031250I0J343750D01*
G01*
X118295000Y-110343750D01*
G75*
G02*
X118638750Y-110000000I343750J0D01*
G01*
X119751250Y-110000000D01*
G75*
G02*
X120095000Y-110343750I0J-343750D01*
G01*
X120095000Y-111031250D01*
G75*
G02*
X119751250Y-111375000I-343750J0D01*
G01*
G37*
D28*
X75960000Y-82920000D03*
X78500000Y-82920000D03*
X75960000Y-85460000D03*
X78500000Y-85460000D03*
X75960000Y-88000000D03*
G36*
G01*
X79550000Y-87150000D02*
X79550000Y-88850000D01*
G75*
G02*
X79350000Y-89050000I-200000J0D01*
G01*
X77650000Y-89050000D01*
G75*
G02*
X77450000Y-88850000I0J200000D01*
G01*
X77450000Y-87150000D01*
G75*
G02*
X77650000Y-86950000I200000J0D01*
G01*
X79350000Y-86950000D01*
G75*
G02*
X79550000Y-87150000I0J-200000D01*
G01*
G37*
G36*
G01*
X84700000Y-90375000D02*
X84700000Y-91625000D01*
G75*
G02*
X84500000Y-91825000I-200000J0D01*
G01*
X83500000Y-91825000D01*
G75*
G02*
X83300000Y-91625000I0J200000D01*
G01*
X83300000Y-90375000D01*
G75*
G02*
X83500000Y-90175000I200000J0D01*
G01*
X84500000Y-90175000D01*
G75*
G02*
X84700000Y-90375000I0J-200000D01*
G01*
G37*
G36*
G01*
X86700000Y-90375000D02*
X86700000Y-91625000D01*
G75*
G02*
X86500000Y-91825000I-200000J0D01*
G01*
X85500000Y-91825000D01*
G75*
G02*
X85300000Y-91625000I0J200000D01*
G01*
X85300000Y-90375000D01*
G75*
G02*
X85500000Y-90175000I200000J0D01*
G01*
X86500000Y-90175000D01*
G75*
G02*
X86700000Y-90375000I0J-200000D01*
G01*
G37*
D29*
X141210000Y-105180000D03*
X139110000Y-115180000D03*
G36*
G01*
X101615000Y-98108750D02*
X101615000Y-99221250D01*
G75*
G02*
X101271250Y-99565000I-343750J0D01*
G01*
X100583750Y-99565000D01*
G75*
G02*
X100240000Y-99221250I0J343750D01*
G01*
X100240000Y-98108750D01*
G75*
G02*
X100583750Y-97765000I343750J0D01*
G01*
X101271250Y-97765000D01*
G75*
G02*
X101615000Y-98108750I0J-343750D01*
G01*
G37*
G36*
G01*
X99740000Y-98108750D02*
X99740000Y-99221250D01*
G75*
G02*
X99396250Y-99565000I-343750J0D01*
G01*
X98708750Y-99565000D01*
G75*
G02*
X98365000Y-99221250I0J343750D01*
G01*
X98365000Y-98108750D01*
G75*
G02*
X98708750Y-97765000I343750J0D01*
G01*
X99396250Y-97765000D01*
G75*
G02*
X99740000Y-98108750I0J-343750D01*
G01*
G37*
G36*
G01*
X86625000Y-87943750D02*
X86625000Y-89056250D01*
G75*
G02*
X86281250Y-89400000I-343750J0D01*
G01*
X85593750Y-89400000D01*
G75*
G02*
X85250000Y-89056250I0J343750D01*
G01*
X85250000Y-87943750D01*
G75*
G02*
X85593750Y-87600000I343750J0D01*
G01*
X86281250Y-87600000D01*
G75*
G02*
X86625000Y-87943750I0J-343750D01*
G01*
G37*
G36*
G01*
X84750000Y-87943750D02*
X84750000Y-89056250D01*
G75*
G02*
X84406250Y-89400000I-343750J0D01*
G01*
X83718750Y-89400000D01*
G75*
G02*
X83375000Y-89056250I0J343750D01*
G01*
X83375000Y-87943750D01*
G75*
G02*
X83718750Y-87600000I343750J0D01*
G01*
X84406250Y-87600000D01*
G75*
G02*
X84750000Y-87943750I0J-343750D01*
G01*
G37*
D30*
X139765000Y-96870000D03*
X141565000Y-91870000D03*
G36*
G01*
X118705000Y-113705000D02*
X119955000Y-113705000D01*
G75*
G02*
X120155000Y-113905000I0J-200000D01*
G01*
X120155000Y-114905000D01*
G75*
G02*
X119955000Y-115105000I-200000J0D01*
G01*
X118705000Y-115105000D01*
G75*
G02*
X118505000Y-114905000I0J200000D01*
G01*
X118505000Y-113905000D01*
G75*
G02*
X118705000Y-113705000I200000J0D01*
G01*
G37*
G36*
G01*
X118705000Y-111705000D02*
X119955000Y-111705000D01*
G75*
G02*
X120155000Y-111905000I0J-200000D01*
G01*
X120155000Y-112905000D01*
G75*
G02*
X119955000Y-113105000I-200000J0D01*
G01*
X118705000Y-113105000D01*
G75*
G02*
X118505000Y-112905000I0J200000D01*
G01*
X118505000Y-111905000D01*
G75*
G02*
X118705000Y-111705000I200000J0D01*
G01*
G37*
G36*
G01*
X114780000Y-102100000D02*
X114780000Y-100500000D01*
G75*
G02*
X114980000Y-100300000I200000J0D01*
G01*
X115980000Y-100300000D01*
G75*
G02*
X116180000Y-100500000I0J-200000D01*
G01*
X116180000Y-102100000D01*
G75*
G02*
X115980000Y-102300000I-200000J0D01*
G01*
X114980000Y-102300000D01*
G75*
G02*
X114780000Y-102100000I0J200000D01*
G01*
G37*
G36*
G01*
X117780000Y-102100000D02*
X117780000Y-100500000D01*
G75*
G02*
X117980000Y-100300000I200000J0D01*
G01*
X118980000Y-100300000D01*
G75*
G02*
X119180000Y-100500000I0J-200000D01*
G01*
X119180000Y-102100000D01*
G75*
G02*
X118980000Y-102300000I-200000J0D01*
G01*
X117980000Y-102300000D01*
G75*
G02*
X117780000Y-102100000I0J200000D01*
G01*
G37*
G36*
G01*
X112945000Y-111675000D02*
X114195000Y-111675000D01*
G75*
G02*
X114395000Y-111875000I0J-200000D01*
G01*
X114395000Y-112875000D01*
G75*
G02*
X114195000Y-113075000I-200000J0D01*
G01*
X112945000Y-113075000D01*
G75*
G02*
X112745000Y-112875000I0J200000D01*
G01*
X112745000Y-111875000D01*
G75*
G02*
X112945000Y-111675000I200000J0D01*
G01*
G37*
G36*
G01*
X112945000Y-113675000D02*
X114195000Y-113675000D01*
G75*
G02*
X114395000Y-113875000I0J-200000D01*
G01*
X114395000Y-114875000D01*
G75*
G02*
X114195000Y-115075000I-200000J0D01*
G01*
X112945000Y-115075000D01*
G75*
G02*
X112745000Y-114875000I0J200000D01*
G01*
X112745000Y-113875000D01*
G75*
G02*
X112945000Y-113675000I200000J0D01*
G01*
G37*
G36*
G01*
X138865000Y-120818750D02*
X138865000Y-121931250D01*
G75*
G02*
X138521250Y-122275000I-343750J0D01*
G01*
X137833750Y-122275000D01*
G75*
G02*
X137490000Y-121931250I0J343750D01*
G01*
X137490000Y-120818750D01*
G75*
G02*
X137833750Y-120475000I343750J0D01*
G01*
X138521250Y-120475000D01*
G75*
G02*
X138865000Y-120818750I0J-343750D01*
G01*
G37*
G36*
G01*
X140740000Y-120818750D02*
X140740000Y-121931250D01*
G75*
G02*
X140396250Y-122275000I-343750J0D01*
G01*
X139708750Y-122275000D01*
G75*
G02*
X139365000Y-121931250I0J343750D01*
G01*
X139365000Y-120818750D01*
G75*
G02*
X139708750Y-120475000I343750J0D01*
G01*
X140396250Y-120475000D01*
G75*
G02*
X140740000Y-120818750I0J-343750D01*
G01*
G37*
D13*
G36*
X125743843Y-111665982D02*
G01*
X125755224Y-111628463D01*
X125773706Y-111593886D01*
X125798579Y-111563579D01*
X125828886Y-111538706D01*
X125863463Y-111520224D01*
X125900982Y-111508843D01*
X125940000Y-111505000D01*
X126540000Y-111505000D01*
X126579018Y-111508843D01*
X126616537Y-111520224D01*
X126651114Y-111538706D01*
X126681421Y-111563579D01*
X126706294Y-111593886D01*
X126724776Y-111628463D01*
X126736157Y-111665982D01*
X126740000Y-111705000D01*
X126740000Y-115105000D01*
X126736157Y-115144018D01*
X126724776Y-115181537D01*
X126706294Y-115216114D01*
X126681421Y-115246421D01*
X126651114Y-115271294D01*
X126616537Y-115289776D01*
X126579018Y-115301157D01*
X126540000Y-115305000D01*
X125940000Y-115305000D01*
X125900982Y-115301157D01*
X125863463Y-115289776D01*
X125828886Y-115271294D01*
X125798579Y-115246421D01*
X125773706Y-115216114D01*
X125755224Y-115181537D01*
X125743843Y-115144018D01*
X125740000Y-115105000D01*
X125740000Y-111705000D01*
X125743843Y-111665982D01*
G37*
G36*
G01*
X126540000Y-110305000D02*
X125940000Y-110305000D01*
G75*
G02*
X125740000Y-110105000I0J200000D01*
G01*
X125740000Y-106705000D01*
G75*
G02*
X125940000Y-106505000I200000J0D01*
G01*
X126540000Y-106505000D01*
G75*
G02*
X126740000Y-106705000I0J-200000D01*
G01*
X126740000Y-110105000D01*
G75*
G02*
X126540000Y-110305000I-200000J0D01*
G01*
G37*
G36*
G01*
X127940000Y-115305000D02*
X126740000Y-115305000D01*
G75*
G02*
X126540000Y-115105000I0J200000D01*
G01*
X126540000Y-111705000D01*
G75*
G02*
X126740000Y-111505000I200000J0D01*
G01*
X127940000Y-111505000D01*
G75*
G02*
X128140000Y-111705000I0J-200000D01*
G01*
X128140000Y-115105000D01*
G75*
G02*
X127940000Y-115305000I-200000J0D01*
G01*
G37*
G36*
G01*
X125740000Y-115305000D02*
X124540000Y-115305000D01*
G75*
G02*
X124340000Y-115105000I0J200000D01*
G01*
X124340000Y-111705000D01*
G75*
G02*
X124540000Y-111505000I200000J0D01*
G01*
X125740000Y-111505000D01*
G75*
G02*
X125940000Y-111705000I0J-200000D01*
G01*
X125940000Y-115105000D01*
G75*
G02*
X125740000Y-115305000I-200000J0D01*
G01*
G37*
G36*
G01*
X125740000Y-110305000D02*
X124540000Y-110305000D01*
G75*
G02*
X124340000Y-110105000I0J200000D01*
G01*
X124340000Y-106705000D01*
G75*
G02*
X124540000Y-106505000I200000J0D01*
G01*
X125740000Y-106505000D01*
G75*
G02*
X125940000Y-106705000I0J-200000D01*
G01*
X125940000Y-110105000D01*
G75*
G02*
X125740000Y-110305000I-200000J0D01*
G01*
G37*
G36*
G01*
X127940000Y-110305000D02*
X126740000Y-110305000D01*
G75*
G02*
X126540000Y-110105000I0J200000D01*
G01*
X126540000Y-106705000D01*
G75*
G02*
X126740000Y-106505000I200000J0D01*
G01*
X127940000Y-106505000D01*
G75*
G02*
X128140000Y-106705000I0J-200000D01*
G01*
X128140000Y-110105000D01*
G75*
G02*
X127940000Y-110305000I-200000J0D01*
G01*
G37*
D31*
X139110000Y-115180000D03*
X141160000Y-107680000D03*
M02*
