G04 #@! TF.GenerationSoftware,KiCad,Pcbnew,(5.1.9)-1*
G04 #@! TF.CreationDate,2022-09-19T13:39:08+02:00*
G04 #@! TF.ProjectId,Zusatzplatine,5a757361-747a-4706-9c61-74696e652e6b,1.0*
G04 #@! TF.SameCoordinates,Original*
G04 #@! TF.FileFunction,Copper,L1,Top*
G04 #@! TF.FilePolarity,Positive*
%FSLAX46Y46*%
G04 Gerber Fmt 4.6, Leading zero omitted, Abs format (unit mm)*
G04 Created by KiCad (PCBNEW (5.1.9)-1) date 2022-09-19 13:39:08*
%MOMM*%
%LPD*%
G01*
G04 APERTURE LIST*
G04 #@! TA.AperFunction,EtchedComponent*
%ADD10C,0.120000*%
G04 #@! TD*
G04 #@! TA.AperFunction,EtchedComponent*
%ADD11C,0.250000*%
G04 #@! TD*
G04 #@! TA.AperFunction,SMDPad,CuDef*
%ADD12C,1.000000*%
G04 #@! TD*
G04 #@! TA.AperFunction,ComponentPad*
%ADD13C,1.462000*%
G04 #@! TD*
G04 #@! TA.AperFunction,ComponentPad*
%ADD14C,2.430000*%
G04 #@! TD*
G04 #@! TA.AperFunction,ComponentPad*
%ADD15C,1.509000*%
G04 #@! TD*
G04 #@! TA.AperFunction,ComponentPad*
%ADD16C,2.500000*%
G04 #@! TD*
G04 #@! TA.AperFunction,SMDPad,CuDef*
%ADD17R,1.000000X1.250000*%
G04 #@! TD*
G04 #@! TA.AperFunction,SMDPad,CuDef*
%ADD18R,1.250000X1.000000*%
G04 #@! TD*
G04 #@! TA.AperFunction,SMDPad,CuDef*
%ADD19R,5.175000X1.600000*%
G04 #@! TD*
G04 #@! TA.AperFunction,SMDPad,CuDef*
%ADD20R,0.250000X0.500000*%
G04 #@! TD*
G04 #@! TA.AperFunction,SMDPad,CuDef*
%ADD21R,1.000000X1.000000*%
G04 #@! TD*
G04 #@! TA.AperFunction,ComponentPad*
%ADD22C,2.300000*%
G04 #@! TD*
G04 #@! TA.AperFunction,ComponentPad*
%ADD23R,2.300000X2.000000*%
G04 #@! TD*
G04 #@! TA.AperFunction,SMDPad,CuDef*
%ADD24R,0.304800X0.812800*%
G04 #@! TD*
G04 #@! TA.AperFunction,SMDPad,CuDef*
%ADD25R,0.812800X0.304800*%
G04 #@! TD*
G04 #@! TA.AperFunction,SMDPad,CuDef*
%ADD26R,3.302000X3.302000*%
G04 #@! TD*
G04 #@! TA.AperFunction,SMDPad,CuDef*
%ADD27R,1.500000X0.600000*%
G04 #@! TD*
G04 #@! TA.AperFunction,ComponentPad*
%ADD28O,2.080000X3.600000*%
G04 #@! TD*
G04 #@! TA.AperFunction,ComponentPad*
%ADD29R,2.080000X3.600000*%
G04 #@! TD*
G04 #@! TA.AperFunction,ComponentPad*
%ADD30O,3.600000X2.080000*%
G04 #@! TD*
G04 #@! TA.AperFunction,ComponentPad*
%ADD31R,3.600000X2.080000*%
G04 #@! TD*
G04 #@! TA.AperFunction,SMDPad,CuDef*
%ADD32R,1.500000X1.780000*%
G04 #@! TD*
G04 #@! TA.AperFunction,ComponentPad*
%ADD33O,1.700000X1.700000*%
G04 #@! TD*
G04 #@! TA.AperFunction,ComponentPad*
%ADD34R,1.700000X1.700000*%
G04 #@! TD*
G04 #@! TA.AperFunction,ComponentPad*
%ADD35C,2.000000*%
G04 #@! TD*
G04 #@! TA.AperFunction,ComponentPad*
%ADD36C,1.600000*%
G04 #@! TD*
G04 #@! TA.AperFunction,SMDPad,CuDef*
%ADD37R,1.000000X1.600000*%
G04 #@! TD*
G04 #@! TA.AperFunction,SMDPad,CuDef*
%ADD38C,0.200000*%
G04 #@! TD*
G04 #@! TA.AperFunction,SMDPad,CuDef*
%ADD39R,0.600000X3.400000*%
G04 #@! TD*
G04 #@! TA.AperFunction,SMDPad,CuDef*
%ADD40R,1.200000X3.400000*%
G04 #@! TD*
G04 #@! TA.AperFunction,ComponentPad*
%ADD41C,1.800000*%
G04 #@! TD*
G04 #@! TA.AperFunction,ViaPad*
%ADD42C,1.200000*%
G04 #@! TD*
G04 #@! TA.AperFunction,ViaPad*
%ADD43C,0.800000*%
G04 #@! TD*
G04 #@! TA.AperFunction,Conductor*
%ADD44C,0.250000*%
G04 #@! TD*
G04 #@! TA.AperFunction,Conductor*
%ADD45C,1.000000*%
G04 #@! TD*
G04 #@! TA.AperFunction,Conductor*
%ADD46C,0.300000*%
G04 #@! TD*
G04 #@! TA.AperFunction,Conductor*
%ADD47C,0.500000*%
G04 #@! TD*
G04 #@! TA.AperFunction,Conductor*
%ADD48C,0.400000*%
G04 #@! TD*
G04 #@! TA.AperFunction,Conductor*
%ADD49C,3.300000*%
G04 #@! TD*
G04 #@! TA.AperFunction,Conductor*
%ADD50C,0.600000*%
G04 #@! TD*
G04 #@! TA.AperFunction,Conductor*
%ADD51C,2.000000*%
G04 #@! TD*
G04 #@! TA.AperFunction,Conductor*
%ADD52C,0.350000*%
G04 #@! TD*
G04 #@! TA.AperFunction,Conductor*
%ADD53C,0.254000*%
G04 #@! TD*
G04 #@! TA.AperFunction,Conductor*
%ADD54C,0.200000*%
G04 #@! TD*
G04 APERTURE END LIST*
D10*
X71080000Y-109220000D02*
G75*
G03*
X71080000Y-109220000I-2500000J0D01*
G01*
X125944000Y-79248000D02*
G75*
G03*
X125944000Y-79248000I-2500000J0D01*
G01*
X71080000Y-79248000D02*
G75*
G03*
X71080000Y-79248000I-2500000J0D01*
G01*
D11*
X113190000Y-105287000D02*
X113190000Y-107543000D01*
D12*
X68580000Y-109220000D03*
X123444000Y-79248000D03*
X68580000Y-79248000D03*
G04 #@! TA.AperFunction,SMDPad,CuDef*
G36*
G01*
X89200002Y-99350000D02*
X88299998Y-99350000D01*
G75*
G02*
X88050000Y-99100002I0J249998D01*
G01*
X88050000Y-98574998D01*
G75*
G02*
X88299998Y-98325000I249998J0D01*
G01*
X89200002Y-98325000D01*
G75*
G02*
X89450000Y-98574998I0J-249998D01*
G01*
X89450000Y-99100002D01*
G75*
G02*
X89200002Y-99350000I-249998J0D01*
G01*
G37*
G04 #@! TD.AperFunction*
G04 #@! TA.AperFunction,SMDPad,CuDef*
G36*
G01*
X89200002Y-101175000D02*
X88299998Y-101175000D01*
G75*
G02*
X88050000Y-100925002I0J249998D01*
G01*
X88050000Y-100399998D01*
G75*
G02*
X88299998Y-100150000I249998J0D01*
G01*
X89200002Y-100150000D01*
G75*
G02*
X89450000Y-100399998I0J-249998D01*
G01*
X89450000Y-100925002D01*
G75*
G02*
X89200002Y-101175000I-249998J0D01*
G01*
G37*
G04 #@! TD.AperFunction*
G04 #@! TA.AperFunction,SMDPad,CuDef*
G36*
G01*
X89850000Y-108475000D02*
X89850000Y-107525000D01*
G75*
G02*
X90100000Y-107275000I250000J0D01*
G01*
X90600000Y-107275000D01*
G75*
G02*
X90850000Y-107525000I0J-250000D01*
G01*
X90850000Y-108475000D01*
G75*
G02*
X90600000Y-108725000I-250000J0D01*
G01*
X90100000Y-108725000D01*
G75*
G02*
X89850000Y-108475000I0J250000D01*
G01*
G37*
G04 #@! TD.AperFunction*
G04 #@! TA.AperFunction,SMDPad,CuDef*
G36*
G01*
X87950000Y-108475000D02*
X87950000Y-107525000D01*
G75*
G02*
X88200000Y-107275000I250000J0D01*
G01*
X88700000Y-107275000D01*
G75*
G02*
X88950000Y-107525000I0J-250000D01*
G01*
X88950000Y-108475000D01*
G75*
G02*
X88700000Y-108725000I-250000J0D01*
G01*
X88200000Y-108725000D01*
G75*
G02*
X87950000Y-108475000I0J250000D01*
G01*
G37*
G04 #@! TD.AperFunction*
G04 #@! TA.AperFunction,SMDPad,CuDef*
G36*
G01*
X88950000Y-102725000D02*
X88950000Y-103675000D01*
G75*
G02*
X88700000Y-103925000I-250000J0D01*
G01*
X88200000Y-103925000D01*
G75*
G02*
X87950000Y-103675000I0J250000D01*
G01*
X87950000Y-102725000D01*
G75*
G02*
X88200000Y-102475000I250000J0D01*
G01*
X88700000Y-102475000D01*
G75*
G02*
X88950000Y-102725000I0J-250000D01*
G01*
G37*
G04 #@! TD.AperFunction*
G04 #@! TA.AperFunction,SMDPad,CuDef*
G36*
G01*
X90850000Y-102725000D02*
X90850000Y-103675000D01*
G75*
G02*
X90600000Y-103925000I-250000J0D01*
G01*
X90100000Y-103925000D01*
G75*
G02*
X89850000Y-103675000I0J250000D01*
G01*
X89850000Y-102725000D01*
G75*
G02*
X90100000Y-102475000I250000J0D01*
G01*
X90600000Y-102475000D01*
G75*
G02*
X90850000Y-102725000I0J-250000D01*
G01*
G37*
G04 #@! TD.AperFunction*
G04 #@! TA.AperFunction,SMDPad,CuDef*
G36*
G01*
X89000000Y-105049998D02*
X89000000Y-105950002D01*
G75*
G02*
X88750002Y-106200000I-249998J0D01*
G01*
X88224998Y-106200000D01*
G75*
G02*
X87975000Y-105950002I0J249998D01*
G01*
X87975000Y-105049998D01*
G75*
G02*
X88224998Y-104800000I249998J0D01*
G01*
X88750002Y-104800000D01*
G75*
G02*
X89000000Y-105049998I0J-249998D01*
G01*
G37*
G04 #@! TD.AperFunction*
G04 #@! TA.AperFunction,SMDPad,CuDef*
G36*
G01*
X90825000Y-105049998D02*
X90825000Y-105950002D01*
G75*
G02*
X90575002Y-106200000I-249998J0D01*
G01*
X90049998Y-106200000D01*
G75*
G02*
X89800000Y-105950002I0J249998D01*
G01*
X89800000Y-105049998D01*
G75*
G02*
X90049998Y-104800000I249998J0D01*
G01*
X90575002Y-104800000D01*
G75*
G02*
X90825000Y-105049998I0J-249998D01*
G01*
G37*
G04 #@! TD.AperFunction*
D13*
X76300000Y-109500000D03*
X78080000Y-108480000D03*
X76300000Y-107470000D03*
X78080000Y-106450000D03*
X76300000Y-105440000D03*
X78080000Y-104420000D03*
X76300000Y-103410000D03*
X78080000Y-102390000D03*
D14*
X77190000Y-97820000D03*
X77190000Y-114080000D03*
D15*
X81800389Y-106893592D03*
X83320389Y-103833592D03*
X83320389Y-107913592D03*
X83320389Y-109953592D03*
X81800389Y-108933592D03*
X81800389Y-102813592D03*
X81800389Y-104853592D03*
X83320389Y-105873592D03*
D16*
X139115000Y-115205000D03*
X141915000Y-102505000D03*
D17*
X90400000Y-111300000D03*
X88400000Y-111300000D03*
X86000000Y-93500000D03*
X84000000Y-93500000D03*
D18*
X85840000Y-83095000D03*
X85840000Y-85095000D03*
D19*
X107355000Y-97615000D03*
X118430000Y-97615000D03*
D20*
X113190000Y-105225000D03*
D21*
X113190000Y-107305000D03*
D22*
X107105000Y-91080000D03*
D23*
X135105000Y-91080000D03*
D22*
X135105000Y-75880000D03*
X107105000Y-83480000D03*
G04 #@! TA.AperFunction,SMDPad,CuDef*
G36*
G01*
X88216250Y-80590000D02*
X87303750Y-80590000D01*
G75*
G02*
X87060000Y-80346250I0J243750D01*
G01*
X87060000Y-79858750D01*
G75*
G02*
X87303750Y-79615000I243750J0D01*
G01*
X88216250Y-79615000D01*
G75*
G02*
X88460000Y-79858750I0J-243750D01*
G01*
X88460000Y-80346250D01*
G75*
G02*
X88216250Y-80590000I-243750J0D01*
G01*
G37*
G04 #@! TD.AperFunction*
G04 #@! TA.AperFunction,SMDPad,CuDef*
G36*
G01*
X88216250Y-82465000D02*
X87303750Y-82465000D01*
G75*
G02*
X87060000Y-82221250I0J243750D01*
G01*
X87060000Y-81733750D01*
G75*
G02*
X87303750Y-81490000I243750J0D01*
G01*
X88216250Y-81490000D01*
G75*
G02*
X88460000Y-81733750I0J-243750D01*
G01*
X88460000Y-82221250D01*
G75*
G02*
X88216250Y-82465000I-243750J0D01*
G01*
G37*
G04 #@! TD.AperFunction*
G04 #@! TA.AperFunction,SMDPad,CuDef*
G36*
G01*
X138848750Y-109152500D02*
X139761250Y-109152500D01*
G75*
G02*
X140005000Y-109396250I0J-243750D01*
G01*
X140005000Y-109883750D01*
G75*
G02*
X139761250Y-110127500I-243750J0D01*
G01*
X138848750Y-110127500D01*
G75*
G02*
X138605000Y-109883750I0J243750D01*
G01*
X138605000Y-109396250D01*
G75*
G02*
X138848750Y-109152500I243750J0D01*
G01*
G37*
G04 #@! TD.AperFunction*
G04 #@! TA.AperFunction,SMDPad,CuDef*
G36*
G01*
X138848750Y-111027500D02*
X139761250Y-111027500D01*
G75*
G02*
X140005000Y-111271250I0J-243750D01*
G01*
X140005000Y-111758750D01*
G75*
G02*
X139761250Y-112002500I-243750J0D01*
G01*
X138848750Y-112002500D01*
G75*
G02*
X138605000Y-111758750I0J243750D01*
G01*
X138605000Y-111271250D01*
G75*
G02*
X138848750Y-111027500I243750J0D01*
G01*
G37*
G04 #@! TD.AperFunction*
G04 #@! TA.AperFunction,SMDPad,CuDef*
G36*
G01*
X141508750Y-112700000D02*
X142421250Y-112700000D01*
G75*
G02*
X142665000Y-112943750I0J-243750D01*
G01*
X142665000Y-113431250D01*
G75*
G02*
X142421250Y-113675000I-243750J0D01*
G01*
X141508750Y-113675000D01*
G75*
G02*
X141265000Y-113431250I0J243750D01*
G01*
X141265000Y-112943750D01*
G75*
G02*
X141508750Y-112700000I243750J0D01*
G01*
G37*
G04 #@! TD.AperFunction*
G04 #@! TA.AperFunction,SMDPad,CuDef*
G36*
G01*
X141508750Y-110825000D02*
X142421250Y-110825000D01*
G75*
G02*
X142665000Y-111068750I0J-243750D01*
G01*
X142665000Y-111556250D01*
G75*
G02*
X142421250Y-111800000I-243750J0D01*
G01*
X141508750Y-111800000D01*
G75*
G02*
X141265000Y-111556250I0J243750D01*
G01*
X141265000Y-111068750D01*
G75*
G02*
X141508750Y-110825000I243750J0D01*
G01*
G37*
G04 #@! TD.AperFunction*
D24*
X110685000Y-110120300D03*
X111184999Y-110120300D03*
X111685001Y-110120300D03*
X112185000Y-110120300D03*
X112684999Y-110120300D03*
X113185001Y-110120300D03*
X113685000Y-110120300D03*
D25*
X114585300Y-109220000D03*
X114585300Y-108720001D03*
X114585300Y-108219999D03*
X114585300Y-107720000D03*
X114585300Y-107220001D03*
X114585300Y-106719999D03*
X114585300Y-106220000D03*
D24*
X113685000Y-105319700D03*
X113185001Y-105319700D03*
X112684999Y-105319700D03*
X112185000Y-105319700D03*
X111685001Y-105319700D03*
X111184999Y-105319700D03*
X110685000Y-105319700D03*
D25*
X109784700Y-106220000D03*
X109784700Y-106719999D03*
X109784700Y-107220001D03*
X109784700Y-107720000D03*
X109784700Y-108219999D03*
X109784700Y-108720001D03*
X109784700Y-109220000D03*
D26*
X112185000Y-107720000D03*
D27*
X92445000Y-113650000D03*
X92445000Y-112380000D03*
X92445000Y-111110000D03*
X92445000Y-109840000D03*
X92445000Y-108570000D03*
X92445000Y-107300000D03*
X92445000Y-106030000D03*
X92445000Y-104760000D03*
X101745000Y-104760000D03*
X101745000Y-106030000D03*
X101745000Y-107300000D03*
X101745000Y-108570000D03*
X101745000Y-109840000D03*
X101745000Y-111110000D03*
X101745000Y-112380000D03*
X101745000Y-113650000D03*
D17*
X106815000Y-111520000D03*
X108815000Y-111520000D03*
X120695000Y-103250000D03*
X118695000Y-103250000D03*
X116360000Y-103250000D03*
X114360000Y-103250000D03*
X120445000Y-101375000D03*
X122445000Y-101375000D03*
D18*
X117190000Y-108595000D03*
X117190000Y-110595000D03*
X121250000Y-106910000D03*
X121250000Y-104910000D03*
X121115000Y-110610000D03*
X121115000Y-108610000D03*
X111255000Y-114135000D03*
X111255000Y-112135000D03*
D17*
X111870000Y-101265000D03*
X113870000Y-101265000D03*
X109180000Y-100870000D03*
X107180000Y-100870000D03*
D18*
X119260000Y-104910000D03*
X119260000Y-106910000D03*
X108915000Y-113275000D03*
X108915000Y-115275000D03*
D28*
X132345000Y-118990000D03*
X127265000Y-118990000D03*
D29*
X122185000Y-118990000D03*
D28*
X122185000Y-124070000D03*
X127265000Y-124070000D03*
X132345000Y-124070000D03*
D30*
X133815000Y-100195000D03*
X133815000Y-105275000D03*
D31*
X133815000Y-110355000D03*
D17*
X107020000Y-115270000D03*
X105020000Y-115270000D03*
X90400000Y-113400000D03*
X88400000Y-113400000D03*
D18*
X87750000Y-85550000D03*
X87750000Y-83550000D03*
D32*
X89920000Y-83685000D03*
X99450000Y-76065000D03*
X89920000Y-81145000D03*
X99450000Y-78605000D03*
X89920000Y-78605000D03*
X99450000Y-81145000D03*
X89920000Y-76065000D03*
X99450000Y-83685000D03*
X88865000Y-96175000D03*
X98395000Y-88555000D03*
X88865000Y-93635000D03*
X98395000Y-91095000D03*
X88865000Y-91095000D03*
X98395000Y-93635000D03*
X88865000Y-88555000D03*
X98395000Y-96175000D03*
G04 #@! TA.AperFunction,SMDPad,CuDef*
G36*
G01*
X105443750Y-105575000D02*
X106356250Y-105575000D01*
G75*
G02*
X106600000Y-105818750I0J-243750D01*
G01*
X106600000Y-106306250D01*
G75*
G02*
X106356250Y-106550000I-243750J0D01*
G01*
X105443750Y-106550000D01*
G75*
G02*
X105200000Y-106306250I0J243750D01*
G01*
X105200000Y-105818750D01*
G75*
G02*
X105443750Y-105575000I243750J0D01*
G01*
G37*
G04 #@! TD.AperFunction*
G04 #@! TA.AperFunction,SMDPad,CuDef*
G36*
G01*
X105443750Y-107450000D02*
X106356250Y-107450000D01*
G75*
G02*
X106600000Y-107693750I0J-243750D01*
G01*
X106600000Y-108181250D01*
G75*
G02*
X106356250Y-108425000I-243750J0D01*
G01*
X105443750Y-108425000D01*
G75*
G02*
X105200000Y-108181250I0J243750D01*
G01*
X105200000Y-107693750D01*
G75*
G02*
X105443750Y-107450000I243750J0D01*
G01*
G37*
G04 #@! TD.AperFunction*
G04 #@! TA.AperFunction,SMDPad,CuDef*
G36*
G01*
X141538750Y-118395000D02*
X142451250Y-118395000D01*
G75*
G02*
X142695000Y-118638750I0J-243750D01*
G01*
X142695000Y-119126250D01*
G75*
G02*
X142451250Y-119370000I-243750J0D01*
G01*
X141538750Y-119370000D01*
G75*
G02*
X141295000Y-119126250I0J243750D01*
G01*
X141295000Y-118638750D01*
G75*
G02*
X141538750Y-118395000I243750J0D01*
G01*
G37*
G04 #@! TD.AperFunction*
G04 #@! TA.AperFunction,SMDPad,CuDef*
G36*
G01*
X141538750Y-120270000D02*
X142451250Y-120270000D01*
G75*
G02*
X142695000Y-120513750I0J-243750D01*
G01*
X142695000Y-121001250D01*
G75*
G02*
X142451250Y-121245000I-243750J0D01*
G01*
X141538750Y-121245000D01*
G75*
G02*
X141295000Y-121001250I0J243750D01*
G01*
X141295000Y-120513750D01*
G75*
G02*
X141538750Y-120270000I243750J0D01*
G01*
G37*
G04 #@! TD.AperFunction*
G04 #@! TA.AperFunction,SMDPad,CuDef*
G36*
G01*
X114932500Y-115231250D02*
X114932500Y-114318750D01*
G75*
G02*
X115176250Y-114075000I243750J0D01*
G01*
X115663750Y-114075000D01*
G75*
G02*
X115907500Y-114318750I0J-243750D01*
G01*
X115907500Y-115231250D01*
G75*
G02*
X115663750Y-115475000I-243750J0D01*
G01*
X115176250Y-115475000D01*
G75*
G02*
X114932500Y-115231250I0J243750D01*
G01*
G37*
G04 #@! TD.AperFunction*
G04 #@! TA.AperFunction,SMDPad,CuDef*
G36*
G01*
X116807500Y-115231250D02*
X116807500Y-114318750D01*
G75*
G02*
X117051250Y-114075000I243750J0D01*
G01*
X117538750Y-114075000D01*
G75*
G02*
X117782500Y-114318750I0J-243750D01*
G01*
X117782500Y-115231250D01*
G75*
G02*
X117538750Y-115475000I-243750J0D01*
G01*
X117051250Y-115475000D01*
G75*
G02*
X116807500Y-115231250I0J243750D01*
G01*
G37*
G04 #@! TD.AperFunction*
G04 #@! TA.AperFunction,SMDPad,CuDef*
G36*
G01*
X120910000Y-113151250D02*
X120910000Y-112238750D01*
G75*
G02*
X121153750Y-111995000I243750J0D01*
G01*
X121641250Y-111995000D01*
G75*
G02*
X121885000Y-112238750I0J-243750D01*
G01*
X121885000Y-113151250D01*
G75*
G02*
X121641250Y-113395000I-243750J0D01*
G01*
X121153750Y-113395000D01*
G75*
G02*
X120910000Y-113151250I0J243750D01*
G01*
G37*
G04 #@! TD.AperFunction*
G04 #@! TA.AperFunction,SMDPad,CuDef*
G36*
G01*
X122785000Y-113151250D02*
X122785000Y-112238750D01*
G75*
G02*
X123028750Y-111995000I243750J0D01*
G01*
X123516250Y-111995000D01*
G75*
G02*
X123760000Y-112238750I0J-243750D01*
G01*
X123760000Y-113151250D01*
G75*
G02*
X123516250Y-113395000I-243750J0D01*
G01*
X123028750Y-113395000D01*
G75*
G02*
X122785000Y-113151250I0J243750D01*
G01*
G37*
G04 #@! TD.AperFunction*
G04 #@! TA.AperFunction,SMDPad,CuDef*
G36*
G01*
X122618750Y-108145000D02*
X123531250Y-108145000D01*
G75*
G02*
X123775000Y-108388750I0J-243750D01*
G01*
X123775000Y-108876250D01*
G75*
G02*
X123531250Y-109120000I-243750J0D01*
G01*
X122618750Y-109120000D01*
G75*
G02*
X122375000Y-108876250I0J243750D01*
G01*
X122375000Y-108388750D01*
G75*
G02*
X122618750Y-108145000I243750J0D01*
G01*
G37*
G04 #@! TD.AperFunction*
G04 #@! TA.AperFunction,SMDPad,CuDef*
G36*
G01*
X122618750Y-110020000D02*
X123531250Y-110020000D01*
G75*
G02*
X123775000Y-110263750I0J-243750D01*
G01*
X123775000Y-110751250D01*
G75*
G02*
X123531250Y-110995000I-243750J0D01*
G01*
X122618750Y-110995000D01*
G75*
G02*
X122375000Y-110751250I0J243750D01*
G01*
X122375000Y-110263750D01*
G75*
G02*
X122618750Y-110020000I243750J0D01*
G01*
G37*
G04 #@! TD.AperFunction*
G04 #@! TA.AperFunction,SMDPad,CuDef*
G36*
G01*
X115980000Y-112208750D02*
X115980000Y-113121250D01*
G75*
G02*
X115736250Y-113365000I-243750J0D01*
G01*
X115248750Y-113365000D01*
G75*
G02*
X115005000Y-113121250I0J243750D01*
G01*
X115005000Y-112208750D01*
G75*
G02*
X115248750Y-111965000I243750J0D01*
G01*
X115736250Y-111965000D01*
G75*
G02*
X115980000Y-112208750I0J-243750D01*
G01*
G37*
G04 #@! TD.AperFunction*
G04 #@! TA.AperFunction,SMDPad,CuDef*
G36*
G01*
X117855000Y-112208750D02*
X117855000Y-113121250D01*
G75*
G02*
X117611250Y-113365000I-243750J0D01*
G01*
X117123750Y-113365000D01*
G75*
G02*
X116880000Y-113121250I0J243750D01*
G01*
X116880000Y-112208750D01*
G75*
G02*
X117123750Y-111965000I243750J0D01*
G01*
X117611250Y-111965000D01*
G75*
G02*
X117855000Y-112208750I0J-243750D01*
G01*
G37*
G04 #@! TD.AperFunction*
G04 #@! TA.AperFunction,SMDPad,CuDef*
G36*
G01*
X105585000Y-112918750D02*
X105585000Y-113831250D01*
G75*
G02*
X105341250Y-114075000I-243750J0D01*
G01*
X104853750Y-114075000D01*
G75*
G02*
X104610000Y-113831250I0J243750D01*
G01*
X104610000Y-112918750D01*
G75*
G02*
X104853750Y-112675000I243750J0D01*
G01*
X105341250Y-112675000D01*
G75*
G02*
X105585000Y-112918750I0J-243750D01*
G01*
G37*
G04 #@! TD.AperFunction*
G04 #@! TA.AperFunction,SMDPad,CuDef*
G36*
G01*
X107460000Y-112918750D02*
X107460000Y-113831250D01*
G75*
G02*
X107216250Y-114075000I-243750J0D01*
G01*
X106728750Y-114075000D01*
G75*
G02*
X106485000Y-113831250I0J243750D01*
G01*
X106485000Y-112918750D01*
G75*
G02*
X106728750Y-112675000I243750J0D01*
G01*
X107216250Y-112675000D01*
G75*
G02*
X107460000Y-112918750I0J-243750D01*
G01*
G37*
G04 #@! TD.AperFunction*
G04 #@! TA.AperFunction,SMDPad,CuDef*
G36*
G01*
X108706250Y-104925000D02*
X107793750Y-104925000D01*
G75*
G02*
X107550000Y-104681250I0J243750D01*
G01*
X107550000Y-104193750D01*
G75*
G02*
X107793750Y-103950000I243750J0D01*
G01*
X108706250Y-103950000D01*
G75*
G02*
X108950000Y-104193750I0J-243750D01*
G01*
X108950000Y-104681250D01*
G75*
G02*
X108706250Y-104925000I-243750J0D01*
G01*
G37*
G04 #@! TD.AperFunction*
G04 #@! TA.AperFunction,SMDPad,CuDef*
G36*
G01*
X108706250Y-103050000D02*
X107793750Y-103050000D01*
G75*
G02*
X107550000Y-102806250I0J243750D01*
G01*
X107550000Y-102318750D01*
G75*
G02*
X107793750Y-102075000I243750J0D01*
G01*
X108706250Y-102075000D01*
G75*
G02*
X108950000Y-102318750I0J-243750D01*
G01*
X108950000Y-102806250D01*
G75*
G02*
X108706250Y-103050000I-243750J0D01*
G01*
G37*
G04 #@! TD.AperFunction*
G04 #@! TA.AperFunction,SMDPad,CuDef*
G36*
G01*
X104336250Y-108107500D02*
X103423750Y-108107500D01*
G75*
G02*
X103180000Y-107863750I0J243750D01*
G01*
X103180000Y-107376250D01*
G75*
G02*
X103423750Y-107132500I243750J0D01*
G01*
X104336250Y-107132500D01*
G75*
G02*
X104580000Y-107376250I0J-243750D01*
G01*
X104580000Y-107863750D01*
G75*
G02*
X104336250Y-108107500I-243750J0D01*
G01*
G37*
G04 #@! TD.AperFunction*
G04 #@! TA.AperFunction,SMDPad,CuDef*
G36*
G01*
X104336250Y-109982500D02*
X103423750Y-109982500D01*
G75*
G02*
X103180000Y-109738750I0J243750D01*
G01*
X103180000Y-109251250D01*
G75*
G02*
X103423750Y-109007500I243750J0D01*
G01*
X104336250Y-109007500D01*
G75*
G02*
X104580000Y-109251250I0J-243750D01*
G01*
X104580000Y-109738750D01*
G75*
G02*
X104336250Y-109982500I-243750J0D01*
G01*
G37*
G04 #@! TD.AperFunction*
G04 #@! TA.AperFunction,SMDPad,CuDef*
G36*
G01*
X105543750Y-102112500D02*
X106456250Y-102112500D01*
G75*
G02*
X106700000Y-102356250I0J-243750D01*
G01*
X106700000Y-102843750D01*
G75*
G02*
X106456250Y-103087500I-243750J0D01*
G01*
X105543750Y-103087500D01*
G75*
G02*
X105300000Y-102843750I0J243750D01*
G01*
X105300000Y-102356250D01*
G75*
G02*
X105543750Y-102112500I243750J0D01*
G01*
G37*
G04 #@! TD.AperFunction*
G04 #@! TA.AperFunction,SMDPad,CuDef*
G36*
G01*
X105543750Y-103987500D02*
X106456250Y-103987500D01*
G75*
G02*
X106700000Y-104231250I0J-243750D01*
G01*
X106700000Y-104718750D01*
G75*
G02*
X106456250Y-104962500I-243750J0D01*
G01*
X105543750Y-104962500D01*
G75*
G02*
X105300000Y-104718750I0J243750D01*
G01*
X105300000Y-104231250D01*
G75*
G02*
X105543750Y-103987500I243750J0D01*
G01*
G37*
G04 #@! TD.AperFunction*
G04 #@! TA.AperFunction,SMDPad,CuDef*
G36*
G01*
X107150000Y-110156250D02*
X107150000Y-109243750D01*
G75*
G02*
X107393750Y-109000000I243750J0D01*
G01*
X107881250Y-109000000D01*
G75*
G02*
X108125000Y-109243750I0J-243750D01*
G01*
X108125000Y-110156250D01*
G75*
G02*
X107881250Y-110400000I-243750J0D01*
G01*
X107393750Y-110400000D01*
G75*
G02*
X107150000Y-110156250I0J243750D01*
G01*
G37*
G04 #@! TD.AperFunction*
G04 #@! TA.AperFunction,SMDPad,CuDef*
G36*
G01*
X105275000Y-110156250D02*
X105275000Y-109243750D01*
G75*
G02*
X105518750Y-109000000I243750J0D01*
G01*
X106006250Y-109000000D01*
G75*
G02*
X106250000Y-109243750I0J-243750D01*
G01*
X106250000Y-110156250D01*
G75*
G02*
X106006250Y-110400000I-243750J0D01*
G01*
X105518750Y-110400000D01*
G75*
G02*
X105275000Y-110156250I0J243750D01*
G01*
G37*
G04 #@! TD.AperFunction*
G04 #@! TA.AperFunction,SMDPad,CuDef*
G36*
G01*
X119651250Y-109300000D02*
X118738750Y-109300000D01*
G75*
G02*
X118495000Y-109056250I0J243750D01*
G01*
X118495000Y-108568750D01*
G75*
G02*
X118738750Y-108325000I243750J0D01*
G01*
X119651250Y-108325000D01*
G75*
G02*
X119895000Y-108568750I0J-243750D01*
G01*
X119895000Y-109056250D01*
G75*
G02*
X119651250Y-109300000I-243750J0D01*
G01*
G37*
G04 #@! TD.AperFunction*
G04 #@! TA.AperFunction,SMDPad,CuDef*
G36*
G01*
X119651250Y-111175000D02*
X118738750Y-111175000D01*
G75*
G02*
X118495000Y-110931250I0J243750D01*
G01*
X118495000Y-110443750D01*
G75*
G02*
X118738750Y-110200000I243750J0D01*
G01*
X119651250Y-110200000D01*
G75*
G02*
X119895000Y-110443750I0J-243750D01*
G01*
X119895000Y-110931250D01*
G75*
G02*
X119651250Y-111175000I-243750J0D01*
G01*
G37*
G04 #@! TD.AperFunction*
D33*
X75960000Y-82920000D03*
X78500000Y-82920000D03*
X75960000Y-85460000D03*
X78500000Y-85460000D03*
X75960000Y-88000000D03*
D34*
X78500000Y-88000000D03*
D17*
X84000000Y-91000000D03*
X86000000Y-91000000D03*
D35*
X141210000Y-105180000D03*
X139110000Y-115180000D03*
G04 #@! TA.AperFunction,SMDPad,CuDef*
G36*
G01*
X101415000Y-98208750D02*
X101415000Y-99121250D01*
G75*
G02*
X101171250Y-99365000I-243750J0D01*
G01*
X100683750Y-99365000D01*
G75*
G02*
X100440000Y-99121250I0J243750D01*
G01*
X100440000Y-98208750D01*
G75*
G02*
X100683750Y-97965000I243750J0D01*
G01*
X101171250Y-97965000D01*
G75*
G02*
X101415000Y-98208750I0J-243750D01*
G01*
G37*
G04 #@! TD.AperFunction*
G04 #@! TA.AperFunction,SMDPad,CuDef*
G36*
G01*
X99540000Y-98208750D02*
X99540000Y-99121250D01*
G75*
G02*
X99296250Y-99365000I-243750J0D01*
G01*
X98808750Y-99365000D01*
G75*
G02*
X98565000Y-99121250I0J243750D01*
G01*
X98565000Y-98208750D01*
G75*
G02*
X98808750Y-97965000I243750J0D01*
G01*
X99296250Y-97965000D01*
G75*
G02*
X99540000Y-98208750I0J-243750D01*
G01*
G37*
G04 #@! TD.AperFunction*
G04 #@! TA.AperFunction,SMDPad,CuDef*
G36*
G01*
X86425000Y-88043750D02*
X86425000Y-88956250D01*
G75*
G02*
X86181250Y-89200000I-243750J0D01*
G01*
X85693750Y-89200000D01*
G75*
G02*
X85450000Y-88956250I0J243750D01*
G01*
X85450000Y-88043750D01*
G75*
G02*
X85693750Y-87800000I243750J0D01*
G01*
X86181250Y-87800000D01*
G75*
G02*
X86425000Y-88043750I0J-243750D01*
G01*
G37*
G04 #@! TD.AperFunction*
G04 #@! TA.AperFunction,SMDPad,CuDef*
G36*
G01*
X84550000Y-88043750D02*
X84550000Y-88956250D01*
G75*
G02*
X84306250Y-89200000I-243750J0D01*
G01*
X83818750Y-89200000D01*
G75*
G02*
X83575000Y-88956250I0J243750D01*
G01*
X83575000Y-88043750D01*
G75*
G02*
X83818750Y-87800000I243750J0D01*
G01*
X84306250Y-87800000D01*
G75*
G02*
X84550000Y-88043750I0J-243750D01*
G01*
G37*
G04 #@! TD.AperFunction*
D36*
X139765000Y-96870000D03*
X141565000Y-91870000D03*
D18*
X119330000Y-114405000D03*
X119330000Y-112405000D03*
D37*
X115480000Y-101300000D03*
X118480000Y-101300000D03*
D18*
X113570000Y-112375000D03*
X113570000Y-114375000D03*
G04 #@! TA.AperFunction,SMDPad,CuDef*
G36*
G01*
X138665000Y-120918750D02*
X138665000Y-121831250D01*
G75*
G02*
X138421250Y-122075000I-243750J0D01*
G01*
X137933750Y-122075000D01*
G75*
G02*
X137690000Y-121831250I0J243750D01*
G01*
X137690000Y-120918750D01*
G75*
G02*
X137933750Y-120675000I243750J0D01*
G01*
X138421250Y-120675000D01*
G75*
G02*
X138665000Y-120918750I0J-243750D01*
G01*
G37*
G04 #@! TD.AperFunction*
G04 #@! TA.AperFunction,SMDPad,CuDef*
G36*
G01*
X140540000Y-120918750D02*
X140540000Y-121831250D01*
G75*
G02*
X140296250Y-122075000I-243750J0D01*
G01*
X139808750Y-122075000D01*
G75*
G02*
X139565000Y-121831250I0J243750D01*
G01*
X139565000Y-120918750D01*
G75*
G02*
X139808750Y-120675000I243750J0D01*
G01*
X140296250Y-120675000D01*
G75*
G02*
X140540000Y-120918750I0J-243750D01*
G01*
G37*
G04 #@! TD.AperFunction*
G04 #@! TA.AperFunction,SMDPad,CuDef*
D38*
G36*
X126540000Y-111705000D02*
G01*
X126540000Y-115105000D01*
X125940000Y-115105000D01*
X125940000Y-111705000D01*
X126540000Y-111705000D01*
G37*
G04 #@! TD.AperFunction*
D39*
X126240000Y-108405000D03*
D40*
X127340000Y-113405000D03*
X125140000Y-113405000D03*
X125140000Y-108405000D03*
X127340000Y-108405000D03*
D41*
X139110000Y-115180000D03*
X141160000Y-107680000D03*
D42*
X122480000Y-102865000D03*
D43*
X105085000Y-111520000D03*
D42*
X110275000Y-92765000D03*
X116185000Y-92765000D03*
X121590000Y-93175000D03*
D43*
X103155000Y-96375000D03*
X102560000Y-115435000D03*
X111110000Y-115675000D03*
D42*
X112240000Y-99280000D03*
X105250000Y-100750000D03*
D43*
X117000000Y-101420000D03*
D42*
X104150000Y-93270000D03*
X100510000Y-87125000D03*
X102875000Y-78605000D03*
D43*
X103500000Y-105750000D03*
D42*
X103680001Y-111110000D03*
D43*
X112850000Y-103215000D03*
X114725000Y-110595000D03*
D42*
X110000000Y-103200000D03*
X103000000Y-102200000D03*
D43*
X109205000Y-110095000D03*
X101748621Y-103600000D03*
X87500000Y-93000000D03*
X82750000Y-89250000D03*
X115338833Y-104432101D03*
X117802653Y-104757653D03*
X126240000Y-105805000D03*
X114075000Y-115790000D03*
X115754142Y-109607629D03*
X118905685Y-115810000D03*
X77100000Y-100400000D03*
X76800000Y-111750000D03*
X85512705Y-111337478D03*
X79769669Y-108030331D03*
X89500000Y-109900000D03*
X85900000Y-103600000D03*
X86600004Y-106300000D03*
D42*
X89852463Y-85717463D03*
D43*
X87500000Y-88500000D03*
X85840000Y-81840006D03*
D42*
X87685000Y-76065000D03*
D43*
X82750000Y-91000000D03*
X91800000Y-103250000D03*
X87400000Y-101800000D03*
X87951171Y-109451171D03*
X83672712Y-101612037D03*
X74000000Y-106900000D03*
X74149990Y-108820197D03*
X81509935Y-94400000D03*
X85000012Y-86750000D03*
X87500000Y-90500000D03*
X85550000Y-108750000D03*
X85203517Y-105000000D03*
X81500000Y-96400000D03*
X83500000Y-112000000D03*
X73800000Y-102250000D03*
X76300000Y-96000000D03*
X73050000Y-97000000D03*
X79250000Y-94250000D03*
X76750000Y-94750000D03*
X78250000Y-93250000D03*
X80102495Y-104552495D03*
X84800000Y-108000000D03*
X90349995Y-109350005D03*
X87400000Y-100600000D03*
X79800000Y-102750010D03*
X108261944Y-107007026D03*
X107400000Y-108270153D03*
X107500000Y-106300000D03*
X126240000Y-115955000D03*
X123375000Y-114420000D03*
D44*
X111250000Y-114130000D02*
X111255000Y-114135000D01*
D45*
X111270000Y-114150000D02*
X111255000Y-114135000D01*
D46*
X120695000Y-103120000D02*
X122225000Y-103120000D01*
X122225000Y-103120000D02*
X122480000Y-102865000D01*
D45*
X106815000Y-111520000D02*
X105085000Y-111520000D01*
X105035000Y-111570000D02*
X105085000Y-111520000D01*
X105035000Y-113375000D02*
X105035000Y-111570000D01*
D46*
X116595000Y-93175000D02*
X116185000Y-92765000D01*
X121590000Y-93175000D02*
X116595000Y-93175000D01*
X113200000Y-92765000D02*
X110275000Y-92765000D01*
X116185000Y-92765000D02*
X113200000Y-92765000D01*
D47*
X101745000Y-113650000D02*
X101745000Y-114620000D01*
X101745000Y-114620000D02*
X102560000Y-115435000D01*
X108910000Y-115270000D02*
X108915000Y-115275000D01*
X107020000Y-115270000D02*
X108910000Y-115270000D01*
X108915000Y-115275000D02*
X110710000Y-115275000D01*
X110710000Y-115275000D02*
X111110000Y-115675000D01*
X111255000Y-114730000D02*
X111255000Y-114135000D01*
X110710000Y-115275000D02*
X111255000Y-114730000D01*
D46*
X113200000Y-92765000D02*
X113200000Y-98320000D01*
X112839999Y-98680001D02*
X112240000Y-99280000D01*
X113200000Y-98320000D02*
X112839999Y-98680001D01*
D48*
X117120000Y-101300000D02*
X117000000Y-101420000D01*
D46*
X104655000Y-92765000D02*
X104150000Y-93270000D01*
X99495001Y-88139999D02*
X100510000Y-87125000D01*
X99495001Y-89854999D02*
X99495001Y-88139999D01*
X98395000Y-91095000D02*
X98395000Y-90955000D01*
X98395000Y-90955000D02*
X99495001Y-89854999D01*
D45*
X99450000Y-78605000D02*
X102875000Y-78605000D01*
D44*
X112185000Y-110776700D02*
X112185000Y-110120300D01*
X112185000Y-111084519D02*
X112185000Y-110776700D01*
X112305000Y-111204519D02*
X112185000Y-111084519D01*
X112305000Y-113210000D02*
X112305000Y-111204519D01*
X111380000Y-114135000D02*
X112305000Y-113210000D01*
X111255000Y-114135000D02*
X111380000Y-114135000D01*
X112185000Y-110120300D02*
X112185000Y-107720000D01*
D46*
X107105000Y-92675000D02*
X107015000Y-92765000D01*
D49*
X107105000Y-91080000D02*
X107105000Y-92675000D01*
D46*
X107015000Y-92765000D02*
X104655000Y-92765000D01*
X110275000Y-92765000D02*
X107015000Y-92765000D01*
D47*
X103220000Y-106030000D02*
X103500000Y-105750000D01*
X101745000Y-106030000D02*
X103220000Y-106030000D01*
X119260000Y-106910000D02*
X120975000Y-106910000D01*
D44*
X114607898Y-106697401D02*
X114585300Y-106719999D01*
X117938811Y-106697401D02*
X114607898Y-106697401D01*
X119260000Y-106910000D02*
X118151410Y-106910000D01*
X118151410Y-106910000D02*
X117938811Y-106697401D01*
D47*
X106915000Y-113375000D02*
X105020000Y-115270000D01*
X107035000Y-113375000D02*
X106915000Y-113375000D01*
X108815000Y-111520000D02*
X108815000Y-111595000D01*
X104050000Y-109680000D02*
X103880000Y-109510000D01*
D45*
X105700000Y-109680000D02*
X104050000Y-109680000D01*
D50*
X103610000Y-111110000D02*
X103680001Y-111110000D01*
X103525000Y-111025000D02*
X103610000Y-111110000D01*
X101745000Y-111110000D02*
X103680001Y-111110000D01*
D45*
X103680001Y-109709999D02*
X103880000Y-109510000D01*
X103680001Y-111110000D02*
X103680001Y-109709999D01*
D47*
X106972500Y-113362500D02*
X108815000Y-111520000D01*
X106972500Y-113375000D02*
X106972500Y-113362500D01*
D45*
X104544998Y-115270000D02*
X105020000Y-115270000D01*
X103680001Y-111110000D02*
X103680001Y-114405003D01*
X103680001Y-114405003D02*
X104544998Y-115270000D01*
D47*
X114265000Y-103215000D02*
X114360000Y-103120000D01*
X112850000Y-103215000D02*
X114265000Y-103215000D01*
X115480000Y-102000000D02*
X115480000Y-101300000D01*
X114360000Y-103120000D02*
X115480000Y-102000000D01*
D44*
X112684999Y-103380001D02*
X112850000Y-103215000D01*
X112684999Y-105319700D02*
X112684999Y-103380001D01*
X114585300Y-109220000D02*
X114175150Y-109630150D01*
X114175150Y-109630150D02*
X113685000Y-110120300D01*
X111184999Y-110776700D02*
X111184999Y-110120300D01*
X111109998Y-110851701D02*
X111184999Y-110776700D01*
X110848299Y-110851701D02*
X111109998Y-110851701D01*
X110180000Y-111520000D02*
X110848299Y-110851701D01*
X108815000Y-111520000D02*
X110180000Y-111520000D01*
X114175150Y-110045150D02*
X114325001Y-110195001D01*
X114325001Y-110195001D02*
X114725000Y-110595000D01*
X114175150Y-109630150D02*
X114175150Y-110045150D01*
D47*
X106000000Y-102662500D02*
X108250000Y-102662500D01*
X109462500Y-102662500D02*
X110000000Y-103200000D01*
X108250000Y-102662500D02*
X109462500Y-102662500D01*
D51*
X101044990Y-100244990D02*
X103000000Y-102200000D01*
D47*
X105725000Y-106045000D02*
X103000000Y-103320000D01*
X103000000Y-103320000D02*
X103000000Y-102200000D01*
D51*
X101044990Y-89540010D02*
X101044990Y-100244990D01*
X107105000Y-83480000D02*
X101044990Y-89540010D01*
D47*
X121310000Y-108600000D02*
X123295000Y-108600000D01*
D46*
X137055000Y-107390000D02*
X139305000Y-109640000D01*
X128790000Y-109000000D02*
X130400000Y-107390000D01*
X130400000Y-107390000D02*
X137055000Y-107390000D01*
X123075000Y-108632500D02*
X124125010Y-109682510D01*
X124125010Y-110320012D02*
X124769998Y-110965000D01*
X124125010Y-109682510D02*
X124125010Y-110320012D01*
X124769998Y-110965000D02*
X127960000Y-110965000D01*
X127960000Y-110965000D02*
X128790000Y-110135000D01*
X128790000Y-110135000D02*
X128790000Y-109000000D01*
D44*
X120435000Y-107850000D02*
X121185000Y-108600000D01*
X121185000Y-108600000D02*
X121310000Y-108600000D01*
X118455000Y-107850000D02*
X120435000Y-107850000D01*
X117825001Y-107220001D02*
X118455000Y-107850000D01*
X114585300Y-107220001D02*
X117825001Y-107220001D01*
D47*
X117440000Y-112675000D02*
X117430000Y-112665000D01*
X119070000Y-112665000D02*
X119330000Y-112405000D01*
X117367500Y-112665000D02*
X119070000Y-112665000D01*
X121107500Y-112405000D02*
X121397500Y-112695000D01*
X119330000Y-112405000D02*
X121107500Y-112405000D01*
D44*
X116165001Y-111400001D02*
X117430000Y-112665000D01*
X113808302Y-111400001D02*
X116165001Y-111400001D01*
X113185001Y-110776700D02*
X113808302Y-111400001D01*
X113185001Y-110120300D02*
X113185001Y-110776700D01*
X113870000Y-101390000D02*
X113870000Y-101265000D01*
X113120000Y-102140000D02*
X113870000Y-101390000D01*
X112851998Y-102140000D02*
X113120000Y-102140000D01*
D47*
X114342500Y-97915000D02*
X118430000Y-97915000D01*
X113870000Y-98387500D02*
X114342500Y-97915000D01*
X113870000Y-101265000D02*
X113870000Y-98387500D01*
D44*
X112185000Y-104663300D02*
X112185000Y-105319700D01*
X112124999Y-104603299D02*
X112185000Y-104663300D01*
X112124999Y-102866999D02*
X112124999Y-104603299D01*
X112851998Y-102140000D02*
X112124999Y-102866999D01*
D47*
X109180000Y-99740000D02*
X107355000Y-97915000D01*
X109180000Y-101070000D02*
X109180000Y-99740000D01*
D44*
X109930000Y-101070000D02*
X109180000Y-101070000D01*
X111674990Y-102814990D02*
X109930000Y-101070000D01*
X111674990Y-105309689D02*
X111674990Y-102814990D01*
X111685001Y-105319700D02*
X111674990Y-105309689D01*
D47*
X114915000Y-112150000D02*
X115430000Y-112665000D01*
X113350000Y-112150000D02*
X114915000Y-112150000D01*
X115430000Y-112665000D02*
X115430000Y-112790000D01*
X115420000Y-112737500D02*
X115492500Y-112665000D01*
X115420000Y-114775000D02*
X115420000Y-112737500D01*
D44*
X112684999Y-110776700D02*
X112684999Y-110120300D01*
X112684999Y-110948108D02*
X112684999Y-110776700D01*
X113350000Y-111613109D02*
X112684999Y-110948108D01*
X113350000Y-112150000D02*
X113350000Y-111613109D01*
D47*
X132383000Y-119028000D02*
X132345000Y-118990000D01*
D44*
X111495001Y-111894999D02*
X111255000Y-112135000D01*
D45*
X110455001Y-112934999D02*
X111255000Y-112135000D01*
X109255001Y-112934999D02*
X110455001Y-112934999D01*
X108915000Y-113275000D02*
X109255001Y-112934999D01*
D44*
X111685001Y-111704999D02*
X111685001Y-110120300D01*
X111255000Y-112135000D02*
X111685001Y-111704999D01*
D46*
X118700000Y-103120000D02*
X120445000Y-101375000D01*
D47*
X118695000Y-103120000D02*
X118700000Y-103120000D01*
D44*
X118695000Y-103245000D02*
X118695000Y-103120000D01*
X118040000Y-103900000D02*
X118695000Y-103245000D01*
X117635000Y-103900000D02*
X118040000Y-103900000D01*
X113685000Y-105319700D02*
X116215300Y-105319700D01*
X116215300Y-105319700D02*
X117635000Y-103900000D01*
D46*
X107174998Y-105549998D02*
X106500000Y-104875000D01*
X108810296Y-106475002D02*
X107885292Y-105549998D01*
X107885292Y-105549998D02*
X107174998Y-105549998D01*
X108986945Y-107511272D02*
X108986945Y-106651651D01*
X109195673Y-107720000D02*
X108986945Y-107511272D01*
X109784700Y-107720000D02*
X109195673Y-107720000D01*
X108986945Y-106651651D02*
X108810296Y-106475002D01*
D44*
X108097500Y-109220000D02*
X107637500Y-109680000D01*
X109784700Y-109220000D02*
X108097500Y-109220000D01*
D46*
X109784700Y-105972200D02*
X108250000Y-104437500D01*
X109784700Y-106217598D02*
X109784700Y-105972200D01*
X109750000Y-85535002D02*
X102395001Y-92890001D01*
X107212500Y-103500000D02*
X108250000Y-104537500D01*
X104453081Y-101743879D02*
X104453081Y-102953071D01*
X102395001Y-92890001D02*
X102395001Y-99685799D01*
X109750000Y-82000000D02*
X109750000Y-85535002D01*
X108500000Y-80750000D02*
X109750000Y-82000000D01*
X99450000Y-81145000D02*
X99845000Y-80750000D01*
X105000010Y-103500000D02*
X107212500Y-103500000D01*
X104453081Y-102953071D02*
X105000010Y-103500000D01*
X99845000Y-80750000D02*
X108500000Y-80750000D01*
X102395001Y-99685799D02*
X104453081Y-101743879D01*
X142790000Y-114012500D02*
X141965000Y-113187500D01*
X141995000Y-118882500D02*
X142790000Y-118087500D01*
X142790000Y-118087500D02*
X142790000Y-114012500D01*
X141762500Y-111515000D02*
X141965000Y-111312500D01*
X139305000Y-111515000D02*
X141762500Y-111515000D01*
X98405000Y-93295000D02*
X98405000Y-93155000D01*
D44*
X109244700Y-109965300D02*
X109205000Y-110005000D01*
D46*
X98385000Y-93065000D02*
X98385000Y-93205000D01*
X98385000Y-93205000D02*
X99694978Y-94514978D01*
X99694978Y-98022522D02*
X99052500Y-98665000D01*
X99694978Y-94514978D02*
X99694978Y-98022522D01*
D44*
X109320300Y-110120300D02*
X109205000Y-110005000D01*
X110685000Y-110120300D02*
X109320300Y-110120300D01*
D46*
X99052500Y-98665000D02*
X99052500Y-100903879D01*
X99052500Y-100903879D02*
X101748621Y-103600000D01*
D47*
X88877500Y-80102500D02*
X89920000Y-81145000D01*
X87760000Y-80102500D02*
X88877500Y-80102500D01*
X88135000Y-93635000D02*
X87500000Y-93000000D01*
X88865000Y-93635000D02*
X88135000Y-93635000D01*
X83500000Y-88500000D02*
X82750000Y-89250000D01*
X84062500Y-88500000D02*
X83500000Y-88500000D01*
X135130000Y-75880000D02*
X135105000Y-75880000D01*
X141565000Y-82315000D02*
X135130000Y-75880000D01*
X141565000Y-91870000D02*
X141565000Y-82315000D01*
X119102500Y-110595000D02*
X119195000Y-110687500D01*
X117190000Y-110595000D02*
X119102500Y-110595000D01*
X121037500Y-110687500D02*
X121115000Y-110610000D01*
X119195000Y-110687500D02*
X121037500Y-110687500D01*
X122975000Y-110610000D02*
X123100000Y-110485000D01*
D44*
X119259429Y-104909429D02*
X119260000Y-104910000D01*
X115241732Y-104335000D02*
X115338833Y-104432101D01*
D47*
X119260000Y-104910000D02*
X120975000Y-104910000D01*
X119260000Y-104910000D02*
X117955000Y-104910000D01*
X117955000Y-104910000D02*
X117802653Y-104757653D01*
X126240000Y-108405000D02*
X126240000Y-105805000D01*
X117295000Y-114775000D02*
X117305000Y-114775000D01*
X113570000Y-114375000D02*
X113570000Y-115285000D01*
X113570000Y-115285000D02*
X114075000Y-115790000D01*
X116741513Y-110595000D02*
X115754142Y-109607629D01*
X117190000Y-110595000D02*
X116741513Y-110595000D01*
X127340000Y-108405000D02*
X127340000Y-105115000D01*
X127340000Y-105115000D02*
X126720000Y-104495000D01*
X126720000Y-104495000D02*
X125905000Y-104495000D01*
X125140000Y-105260000D02*
X125140000Y-108405000D01*
X125905000Y-104495000D02*
X125140000Y-105260000D01*
X118330000Y-115810000D02*
X117295000Y-114775000D01*
X118905685Y-115810000D02*
X118330000Y-115810000D01*
X121115000Y-110610000D02*
X122320000Y-110610000D01*
X122320000Y-110610000D02*
X122975000Y-110610000D01*
D46*
X122320000Y-113440000D02*
X122320000Y-110610000D01*
X119330000Y-114405000D02*
X121355000Y-114405000D01*
X121355000Y-114405000D02*
X122320000Y-113440000D01*
D47*
X124790000Y-104910000D02*
X125140000Y-105260000D01*
X120975000Y-104910000D02*
X124790000Y-104910000D01*
D44*
X114773148Y-104432101D02*
X115338833Y-104432101D01*
X113542901Y-104432101D02*
X114773148Y-104432101D01*
X113185001Y-104790001D02*
X113542901Y-104432101D01*
X113185001Y-105319700D02*
X113185001Y-104790001D01*
X116340306Y-106220000D02*
X117802653Y-104757653D01*
X114585300Y-106220000D02*
X116340306Y-106220000D01*
D45*
X141160000Y-105230000D02*
X141210000Y-105180000D01*
X141160000Y-107680000D02*
X141160000Y-105230000D01*
D49*
X135105000Y-91080000D02*
X135105000Y-92395000D01*
D47*
X118977500Y-108595000D02*
X119195000Y-108812500D01*
X117190000Y-108595000D02*
X118977500Y-108595000D01*
D44*
X117190000Y-107845000D02*
X117190000Y-108595000D01*
X117065000Y-107720000D02*
X117190000Y-107845000D01*
X114585300Y-107720000D02*
X117065000Y-107720000D01*
D46*
X141377500Y-121375000D02*
X141995000Y-120757500D01*
X140052500Y-121375000D02*
X141377500Y-121375000D01*
X78080000Y-102390000D02*
X77100000Y-101410000D01*
X77100000Y-101410000D02*
X77100000Y-100400000D01*
D47*
X87885000Y-83685000D02*
X87750000Y-83550000D01*
X89920000Y-83685000D02*
X87885000Y-83685000D01*
X87750000Y-81987500D02*
X87760000Y-81977500D01*
X87750000Y-83550000D02*
X87750000Y-81987500D01*
X86205000Y-85095000D02*
X87750000Y-83550000D01*
X85840000Y-85095000D02*
X86205000Y-85095000D01*
X85937500Y-88500000D02*
X86000000Y-88500000D01*
X86000000Y-85255000D02*
X85840000Y-85095000D01*
X86000000Y-88500000D02*
X86000000Y-85255000D01*
X86000000Y-88562500D02*
X85937500Y-88500000D01*
X86000000Y-91000000D02*
X86000000Y-88562500D01*
X86000000Y-93500000D02*
X86000000Y-91000000D01*
X86000000Y-94500000D02*
X86000000Y-93500000D01*
X80663650Y-108030331D02*
X81800389Y-106893592D01*
X79769669Y-108030331D02*
X80663650Y-108030331D01*
X88865000Y-98722500D02*
X88750000Y-98837500D01*
X88865000Y-96175000D02*
X88865000Y-98722500D01*
D46*
X90590000Y-111110000D02*
X90400000Y-111300000D01*
X92445000Y-111110000D02*
X90590000Y-111110000D01*
X90400000Y-113400000D02*
X90400000Y-111300000D01*
X90400000Y-111300000D02*
X89500000Y-110400000D01*
X89500000Y-110400000D02*
X89500000Y-109900000D01*
D47*
X85849998Y-103549998D02*
X85900000Y-103600000D01*
X86100000Y-103400000D02*
X85900000Y-103600000D01*
X86100000Y-94600000D02*
X86100000Y-103400000D01*
X86000000Y-94500000D02*
X86100000Y-94600000D01*
X87675000Y-96175000D02*
X86000000Y-94500000D01*
X88865000Y-96175000D02*
X87675000Y-96175000D01*
D46*
X88487500Y-105500000D02*
X87400004Y-105500000D01*
X87400004Y-105500000D02*
X86600004Y-106300000D01*
D47*
X85512705Y-111903163D02*
X85512705Y-111337478D01*
X83415868Y-114000000D02*
X85512705Y-111903163D01*
X79476795Y-114000000D02*
X83415868Y-114000000D01*
X77226795Y-111750000D02*
X79476795Y-114000000D01*
X76800000Y-111750000D02*
X77226795Y-111750000D01*
X85250000Y-95250000D02*
X86000000Y-94500000D01*
X78750000Y-95250000D02*
X85250000Y-95250000D01*
X74200000Y-90700000D02*
X78750000Y-95250000D01*
X74200000Y-87220000D02*
X74200000Y-90700000D01*
X75960000Y-85460000D02*
X74200000Y-87220000D01*
X88855000Y-87985000D02*
X88855000Y-86714926D01*
X88855000Y-86714926D02*
X89852463Y-85717463D01*
X87914926Y-86714926D02*
X88855000Y-86714926D01*
X87750000Y-86550000D02*
X87914926Y-86714926D01*
X87750000Y-85550000D02*
X87750000Y-86550000D01*
X88865000Y-88555000D02*
X87555000Y-88555000D01*
X87555000Y-88555000D02*
X87500000Y-88500000D01*
X84000000Y-93500000D02*
X84000000Y-91000000D01*
X85840000Y-83095000D02*
X85840000Y-81840006D01*
D45*
X89920000Y-76065000D02*
X87685000Y-76065000D01*
D47*
X84000000Y-91000000D02*
X82750000Y-91000000D01*
X92445000Y-103895000D02*
X91800000Y-103250000D01*
X92445000Y-104760000D02*
X92445000Y-103895000D01*
X90400000Y-103250000D02*
X91800000Y-103250000D01*
X90350000Y-103200000D02*
X90400000Y-103250000D01*
X88400000Y-113400000D02*
X88400000Y-111300000D01*
X88400000Y-111300000D02*
X87951171Y-110851171D01*
X87951171Y-110851171D02*
X87951171Y-108498829D01*
X91195000Y-114900000D02*
X92445000Y-113650000D01*
X89000000Y-114900000D02*
X91195000Y-114900000D01*
X88400000Y-114300000D02*
X89000000Y-114900000D01*
X88400000Y-113400000D02*
X88400000Y-114300000D01*
X91800000Y-103250000D02*
X90350000Y-101800000D01*
X90350000Y-101800000D02*
X87400000Y-101800000D01*
X87951171Y-108498829D02*
X87951171Y-109451171D01*
X88450000Y-108000000D02*
X87951171Y-108498829D01*
D46*
X80550002Y-102429317D02*
X81367282Y-101612037D01*
X81367282Y-101612037D02*
X83672712Y-101612037D01*
X79971013Y-103689001D02*
X80550002Y-103110012D01*
X80550002Y-103110012D02*
X80550002Y-102429317D01*
X78080000Y-104420000D02*
X78810999Y-103689001D01*
X78810999Y-103689001D02*
X79971013Y-103689001D01*
D52*
X78826553Y-109688091D02*
X76488091Y-109688091D01*
X79581052Y-108933592D02*
X78826553Y-109688091D01*
X81800389Y-108933592D02*
X79581052Y-108933592D01*
X76488091Y-109688091D02*
X76300000Y-109500000D01*
X89815000Y-78500000D02*
X89920000Y-78605000D01*
X80380000Y-78500000D02*
X89815000Y-78500000D01*
X75960000Y-82920000D02*
X80380000Y-78500000D01*
X71550000Y-104450000D02*
X74000000Y-106900000D01*
X71550000Y-87330000D02*
X71550000Y-104450000D01*
X75960000Y-82920000D02*
X71550000Y-87330000D01*
X75620197Y-108820197D02*
X74149990Y-108820197D01*
X76300000Y-109500000D02*
X75620197Y-108820197D01*
D46*
X81000000Y-85420000D02*
X78500000Y-82920000D01*
X81000000Y-92500000D02*
X81000000Y-85420000D01*
X81500000Y-93000000D02*
X81000000Y-92500000D01*
X81509935Y-92990065D02*
X81500000Y-93000000D01*
X81509935Y-94400000D02*
X81509935Y-92990065D01*
D47*
X82330000Y-86750000D02*
X85000012Y-86750000D01*
X78500000Y-82920000D02*
X82330000Y-86750000D01*
X88270000Y-90500000D02*
X87500000Y-90500000D01*
X88865000Y-91095000D02*
X88270000Y-90500000D01*
D46*
X85203517Y-105000000D02*
X85149998Y-104946481D01*
X85149998Y-104946481D02*
X85149998Y-100049998D01*
X85149998Y-100049998D02*
X81500000Y-96400000D01*
X85550000Y-110190181D02*
X83740181Y-112000000D01*
X85550000Y-108750000D02*
X85550000Y-110190181D01*
X83740181Y-112000000D02*
X83500000Y-112000000D01*
X76300000Y-107470000D02*
X73800000Y-104970000D01*
X73800000Y-104970000D02*
X73800000Y-102250000D01*
X79900001Y-86860001D02*
X79900001Y-93599999D01*
X78500000Y-85460000D02*
X79900001Y-86860001D01*
X79900001Y-93599999D02*
X79250000Y-94250000D01*
X73050000Y-96750000D02*
X73050000Y-97000000D01*
X73800000Y-96000000D02*
X73050000Y-96750000D01*
X76300000Y-96000000D02*
X73800000Y-96000000D01*
X91995000Y-107300000D02*
X92445000Y-107300000D01*
X87250000Y-104400000D02*
X88450000Y-103200000D01*
X92112500Y-107300000D02*
X90312500Y-105500000D01*
X92445000Y-107300000D02*
X92112500Y-107300000D01*
X90312500Y-105062500D02*
X88450000Y-103200000D01*
X90312500Y-105500000D02*
X90312500Y-105062500D01*
X86913521Y-104400000D02*
X87250000Y-104400000D01*
X83399929Y-107913592D02*
X86913521Y-104400000D01*
X83320389Y-107913592D02*
X83399929Y-107913592D01*
X84468361Y-109061564D02*
X83320389Y-107913592D01*
X84468361Y-110564698D02*
X84468361Y-109061564D01*
X83783059Y-111250000D02*
X84468361Y-110564698D01*
X82482135Y-111250000D02*
X83783059Y-111250000D01*
X75699804Y-108070196D02*
X73789988Y-108070195D01*
X73399988Y-108460195D02*
X73399988Y-109180199D01*
X76300000Y-107470000D02*
X75699804Y-108070196D01*
X73789988Y-108070195D02*
X73399988Y-108460195D01*
X73399988Y-109180199D02*
X73789988Y-109570199D01*
X73789988Y-109570199D02*
X74270199Y-109570199D01*
X75450000Y-110750000D02*
X78507120Y-110750000D01*
X74270199Y-109570199D02*
X75450000Y-110750000D01*
X78507120Y-110750000D02*
X79507120Y-109750000D01*
X79507120Y-109750000D02*
X80982135Y-109750000D01*
X80982135Y-109750000D02*
X82482135Y-111250000D01*
D52*
X78250000Y-88250000D02*
X78500000Y-88000000D01*
X78250000Y-93250000D02*
X78250000Y-88250000D01*
X77173202Y-94750000D02*
X76750000Y-94750000D01*
X80096407Y-97673205D02*
X77173202Y-94750000D01*
X79977505Y-104552495D02*
X78080000Y-106450000D01*
X80102495Y-104552495D02*
X79977505Y-104552495D01*
D46*
X92445000Y-108570000D02*
X91130000Y-108570000D01*
X91130000Y-108570000D02*
X90349995Y-109350005D01*
X90349995Y-108000005D02*
X90350000Y-108000000D01*
X90349995Y-109350005D02*
X90349995Y-108000005D01*
X88750000Y-100662500D02*
X87462500Y-100662500D01*
D52*
X90200000Y-107850000D02*
X90350000Y-108000000D01*
X90200000Y-107100000D02*
X90200000Y-107850000D01*
X86999989Y-107600001D02*
X87799990Y-106800000D01*
X89900000Y-106800000D02*
X90200000Y-107100000D01*
X85199999Y-107600001D02*
X86999989Y-107600001D01*
X87799990Y-106800000D02*
X89900000Y-106800000D01*
X84800000Y-108000000D02*
X85199999Y-107600001D01*
X79800000Y-102510118D02*
X79800000Y-102750010D01*
X77975002Y-100685120D02*
X79800000Y-102510118D01*
X79626793Y-97673205D02*
X77975002Y-99324996D01*
X81373205Y-97673205D02*
X79626793Y-97673205D01*
X84550000Y-100850000D02*
X81373205Y-97673205D01*
X77975002Y-99324996D02*
X77975002Y-100685120D01*
X84550000Y-104506515D02*
X84550000Y-100850000D01*
X83320389Y-105736126D02*
X84550000Y-104506515D01*
X83320389Y-105873592D02*
X83320389Y-105736126D01*
D44*
X105700000Y-108070000D02*
X105725000Y-108045000D01*
X104680000Y-108570000D02*
X101745000Y-108570000D01*
X105205000Y-108045000D02*
X104680000Y-108570000D01*
X105725000Y-108045000D02*
X105205000Y-108045000D01*
X108105561Y-107163409D02*
X108261944Y-107007026D01*
X108025000Y-107163409D02*
X108105561Y-107163409D01*
X109059260Y-108219999D02*
X108261944Y-107422683D01*
X105725000Y-108045000D02*
X105950153Y-108270153D01*
X109784700Y-108219999D02*
X109059260Y-108219999D01*
X105950153Y-108270153D02*
X107400000Y-108270153D01*
X108261944Y-107422683D02*
X108261944Y-107007026D01*
X104210000Y-107840000D02*
X103880000Y-107510000D01*
D47*
X103670000Y-107300000D02*
X103880000Y-107510000D01*
X101745000Y-107300000D02*
X103670000Y-107300000D01*
D44*
X104390000Y-107000000D02*
X103880000Y-107510000D01*
X107202851Y-107000000D02*
X104390000Y-107000000D01*
X108922852Y-108720001D02*
X107202851Y-107000000D01*
X109784700Y-108720001D02*
X108922852Y-108720001D01*
X107202851Y-106597149D02*
X107500000Y-106300000D01*
X107202851Y-107000000D02*
X107202851Y-106597149D01*
D46*
X127340000Y-113405000D02*
X127340000Y-116170000D01*
X127340000Y-116170000D02*
X126680000Y-116830000D01*
X126680000Y-116830000D02*
X125875000Y-116830000D01*
X125140000Y-116095000D02*
X125140000Y-113405000D01*
X125875000Y-116830000D02*
X125140000Y-116095000D01*
D47*
X126240000Y-113405000D02*
X126240000Y-115955000D01*
X123272500Y-112695000D02*
X123272500Y-114317500D01*
X123272500Y-114317500D02*
X123375000Y-114420000D01*
D53*
X105790001Y-91878422D02*
X105998690Y-92006705D01*
X106128395Y-91877000D01*
X106487605Y-91877000D01*
X106178295Y-92186310D01*
X106306578Y-92394999D01*
X106578463Y-92525496D01*
X106870583Y-92600444D01*
X107171711Y-92616961D01*
X107470275Y-92574414D01*
X107754802Y-92474438D01*
X107903422Y-92394999D01*
X108031705Y-92186310D01*
X107722395Y-91877000D01*
X108081605Y-91877000D01*
X108211310Y-92006705D01*
X108419999Y-91878422D01*
X108420682Y-91877000D01*
X121246482Y-91877000D01*
X123593029Y-94281725D01*
X123597971Y-103127363D01*
X122444437Y-104279000D01*
X122233405Y-104279000D01*
X122228701Y-104263492D01*
X122193322Y-104197304D01*
X122145711Y-104139289D01*
X122087696Y-104091678D01*
X122021508Y-104056299D01*
X121949689Y-104034513D01*
X121875000Y-104027157D01*
X121545681Y-104027157D01*
X121548701Y-104021508D01*
X121570487Y-103949689D01*
X121577843Y-103875000D01*
X121576000Y-103472250D01*
X121480750Y-103377000D01*
X120822000Y-103377000D01*
X120822000Y-103397000D01*
X120568000Y-103397000D01*
X120568000Y-103377000D01*
X119909250Y-103377000D01*
X119814000Y-103472250D01*
X119812157Y-103875000D01*
X119819513Y-103949689D01*
X119841299Y-104021508D01*
X119844319Y-104027157D01*
X119545681Y-104027157D01*
X119548701Y-104021508D01*
X119570487Y-103949689D01*
X119577843Y-103875000D01*
X119577843Y-102993104D01*
X119812766Y-102758180D01*
X119814000Y-103027750D01*
X119909250Y-103123000D01*
X120568000Y-103123000D01*
X120568000Y-103103000D01*
X120822000Y-103103000D01*
X120822000Y-103123000D01*
X121480750Y-103123000D01*
X121576000Y-103027750D01*
X121577843Y-102625000D01*
X121570487Y-102550311D01*
X121548701Y-102478492D01*
X121513322Y-102412304D01*
X121465711Y-102354289D01*
X121407696Y-102306678D01*
X121341508Y-102271299D01*
X121269689Y-102249513D01*
X121235843Y-102246180D01*
X121263322Y-102212696D01*
X121298701Y-102146508D01*
X121320487Y-102074689D01*
X121327843Y-102000000D01*
X121562157Y-102000000D01*
X121569513Y-102074689D01*
X121591299Y-102146508D01*
X121626678Y-102212696D01*
X121674289Y-102270711D01*
X121732304Y-102318322D01*
X121798492Y-102353701D01*
X121870311Y-102375487D01*
X121945000Y-102382843D01*
X122222750Y-102381000D01*
X122318000Y-102285750D01*
X122318000Y-101502000D01*
X122572000Y-101502000D01*
X122572000Y-102285750D01*
X122667250Y-102381000D01*
X122945000Y-102382843D01*
X123019689Y-102375487D01*
X123091508Y-102353701D01*
X123157696Y-102318322D01*
X123215711Y-102270711D01*
X123263322Y-102212696D01*
X123298701Y-102146508D01*
X123320487Y-102074689D01*
X123327843Y-102000000D01*
X123326000Y-101597250D01*
X123230750Y-101502000D01*
X122572000Y-101502000D01*
X122318000Y-101502000D01*
X121659250Y-101502000D01*
X121564000Y-101597250D01*
X121562157Y-102000000D01*
X121327843Y-102000000D01*
X121327843Y-100750000D01*
X121562157Y-100750000D01*
X121564000Y-101152750D01*
X121659250Y-101248000D01*
X122318000Y-101248000D01*
X122318000Y-100464250D01*
X122572000Y-100464250D01*
X122572000Y-101248000D01*
X123230750Y-101248000D01*
X123326000Y-101152750D01*
X123327843Y-100750000D01*
X123320487Y-100675311D01*
X123298701Y-100603492D01*
X123263322Y-100537304D01*
X123215711Y-100479289D01*
X123157696Y-100431678D01*
X123091508Y-100396299D01*
X123019689Y-100374513D01*
X122945000Y-100367157D01*
X122667250Y-100369000D01*
X122572000Y-100464250D01*
X122318000Y-100464250D01*
X122222750Y-100369000D01*
X121945000Y-100367157D01*
X121870311Y-100374513D01*
X121798492Y-100396299D01*
X121732304Y-100431678D01*
X121674289Y-100479289D01*
X121626678Y-100537304D01*
X121591299Y-100603492D01*
X121569513Y-100675311D01*
X121562157Y-100750000D01*
X121327843Y-100750000D01*
X121320487Y-100675311D01*
X121298701Y-100603492D01*
X121263322Y-100537304D01*
X121215711Y-100479289D01*
X121157696Y-100431678D01*
X121091508Y-100396299D01*
X121019689Y-100374513D01*
X120945000Y-100367157D01*
X119945000Y-100367157D01*
X119870311Y-100374513D01*
X119798492Y-100396299D01*
X119732304Y-100431678D01*
X119674289Y-100479289D01*
X119626678Y-100537304D01*
X119591299Y-100603492D01*
X119569513Y-100675311D01*
X119562157Y-100750000D01*
X119562157Y-101506896D01*
X119361591Y-101707462D01*
X119361000Y-101522250D01*
X119265750Y-101427000D01*
X118607000Y-101427000D01*
X118607000Y-101447000D01*
X118353000Y-101447000D01*
X118353000Y-101427000D01*
X117694250Y-101427000D01*
X117599000Y-101522250D01*
X117597157Y-102100000D01*
X117604513Y-102174689D01*
X117626299Y-102246508D01*
X117661678Y-102312696D01*
X117709289Y-102370711D01*
X117767304Y-102418322D01*
X117833492Y-102453701D01*
X117851612Y-102459198D01*
X117841299Y-102478492D01*
X117819513Y-102550311D01*
X117812157Y-102625000D01*
X117812157Y-103394000D01*
X117659846Y-103394000D01*
X117635000Y-103391553D01*
X117610154Y-103394000D01*
X117610146Y-103394000D01*
X117535807Y-103401322D01*
X117440425Y-103430255D01*
X117352521Y-103477241D01*
X117275473Y-103540473D01*
X117259629Y-103559779D01*
X117241484Y-103577924D01*
X117241000Y-103472250D01*
X117145750Y-103377000D01*
X116487000Y-103377000D01*
X116487000Y-104160750D01*
X116572829Y-104246579D01*
X116040549Y-104778860D01*
X116089820Y-104659910D01*
X116119833Y-104509023D01*
X116119833Y-104355179D01*
X116100155Y-104256249D01*
X116137750Y-104256000D01*
X116233000Y-104160750D01*
X116233000Y-103377000D01*
X115574250Y-103377000D01*
X115479000Y-103472250D01*
X115478125Y-103663507D01*
X115415755Y-103651101D01*
X115261911Y-103651101D01*
X115242843Y-103654894D01*
X115242843Y-103129525D01*
X115478388Y-102893981D01*
X115479000Y-103027750D01*
X115574250Y-103123000D01*
X116233000Y-103123000D01*
X116233000Y-102385246D01*
X116250711Y-102370711D01*
X116276530Y-102339250D01*
X116487000Y-102339250D01*
X116487000Y-103123000D01*
X117145750Y-103123000D01*
X117241000Y-103027750D01*
X117242843Y-102625000D01*
X117235487Y-102550311D01*
X117213701Y-102478492D01*
X117178322Y-102412304D01*
X117130711Y-102354289D01*
X117072696Y-102306678D01*
X117006508Y-102271299D01*
X116934689Y-102249513D01*
X116860000Y-102242157D01*
X116582250Y-102244000D01*
X116487000Y-102339250D01*
X116276530Y-102339250D01*
X116298322Y-102312696D01*
X116333701Y-102246508D01*
X116355487Y-102174689D01*
X116362843Y-102100000D01*
X116362843Y-100500000D01*
X117597157Y-100500000D01*
X117599000Y-101077750D01*
X117694250Y-101173000D01*
X118353000Y-101173000D01*
X118353000Y-100214250D01*
X118607000Y-100214250D01*
X118607000Y-101173000D01*
X119265750Y-101173000D01*
X119361000Y-101077750D01*
X119362843Y-100500000D01*
X119355487Y-100425311D01*
X119333701Y-100353492D01*
X119298322Y-100287304D01*
X119250711Y-100229289D01*
X119192696Y-100181678D01*
X119126508Y-100146299D01*
X119054689Y-100124513D01*
X118980000Y-100117157D01*
X118702250Y-100119000D01*
X118607000Y-100214250D01*
X118353000Y-100214250D01*
X118257750Y-100119000D01*
X117980000Y-100117157D01*
X117905311Y-100124513D01*
X117833492Y-100146299D01*
X117767304Y-100181678D01*
X117709289Y-100229289D01*
X117661678Y-100287304D01*
X117626299Y-100353492D01*
X117604513Y-100425311D01*
X117597157Y-100500000D01*
X116362843Y-100500000D01*
X116355487Y-100425311D01*
X116333701Y-100353492D01*
X116298322Y-100287304D01*
X116250711Y-100229289D01*
X116192696Y-100181678D01*
X116126508Y-100146299D01*
X116054689Y-100124513D01*
X115980000Y-100117157D01*
X114980000Y-100117157D01*
X114905311Y-100124513D01*
X114833492Y-100146299D01*
X114767304Y-100181678D01*
X114709289Y-100229289D01*
X114661678Y-100287304D01*
X114626299Y-100353492D01*
X114625335Y-100356670D01*
X114582696Y-100321678D01*
X114516508Y-100286299D01*
X114501000Y-100281595D01*
X114501000Y-98648868D01*
X114603869Y-98546000D01*
X115484095Y-98546000D01*
X115488799Y-98561508D01*
X115524178Y-98627696D01*
X115571789Y-98685711D01*
X115629804Y-98733322D01*
X115695992Y-98768701D01*
X115767811Y-98790487D01*
X115842500Y-98797843D01*
X121017500Y-98797843D01*
X121092189Y-98790487D01*
X121164008Y-98768701D01*
X121230196Y-98733322D01*
X121288211Y-98685711D01*
X121335822Y-98627696D01*
X121371201Y-98561508D01*
X121392987Y-98489689D01*
X121400343Y-98415000D01*
X121400343Y-96815000D01*
X121392987Y-96740311D01*
X121371201Y-96668492D01*
X121335822Y-96602304D01*
X121288211Y-96544289D01*
X121230196Y-96496678D01*
X121164008Y-96461299D01*
X121092189Y-96439513D01*
X121017500Y-96432157D01*
X115842500Y-96432157D01*
X115767811Y-96439513D01*
X115695992Y-96461299D01*
X115629804Y-96496678D01*
X115571789Y-96544289D01*
X115524178Y-96602304D01*
X115488799Y-96668492D01*
X115467013Y-96740311D01*
X115459657Y-96815000D01*
X115459657Y-97284000D01*
X114373490Y-97284000D01*
X114342500Y-97280948D01*
X114311509Y-97284000D01*
X114311502Y-97284000D01*
X114218802Y-97293130D01*
X114099858Y-97329211D01*
X113990239Y-97387804D01*
X113894157Y-97466657D01*
X113874399Y-97490732D01*
X113445732Y-97919400D01*
X113421658Y-97939157D01*
X113401900Y-97963232D01*
X113401897Y-97963235D01*
X113342804Y-98035240D01*
X113284211Y-98144859D01*
X113248130Y-98263803D01*
X113235948Y-98387500D01*
X113239001Y-98418500D01*
X113239000Y-100281595D01*
X113223492Y-100286299D01*
X113157304Y-100321678D01*
X113099289Y-100369289D01*
X113051678Y-100427304D01*
X113016299Y-100493492D01*
X112994513Y-100565311D01*
X112987157Y-100640000D01*
X112987157Y-101557252D01*
X112910409Y-101634000D01*
X112876852Y-101634000D01*
X112851998Y-101631552D01*
X112827144Y-101634000D01*
X112752805Y-101641322D01*
X112751707Y-101641655D01*
X112751000Y-101487250D01*
X112655750Y-101392000D01*
X111997000Y-101392000D01*
X111997000Y-102175750D01*
X112048828Y-102227578D01*
X111925999Y-102350407D01*
X111743000Y-102167408D01*
X111743000Y-101392000D01*
X111084250Y-101392000D01*
X111025921Y-101450329D01*
X110305376Y-100729785D01*
X110289527Y-100710473D01*
X110212479Y-100647241D01*
X110198933Y-100640000D01*
X110987157Y-100640000D01*
X110989000Y-101042750D01*
X111084250Y-101138000D01*
X111743000Y-101138000D01*
X111743000Y-100354250D01*
X111997000Y-100354250D01*
X111997000Y-101138000D01*
X112655750Y-101138000D01*
X112751000Y-101042750D01*
X112752843Y-100640000D01*
X112745487Y-100565311D01*
X112723701Y-100493492D01*
X112688322Y-100427304D01*
X112640711Y-100369289D01*
X112582696Y-100321678D01*
X112516508Y-100286299D01*
X112444689Y-100264513D01*
X112370000Y-100257157D01*
X112092250Y-100259000D01*
X111997000Y-100354250D01*
X111743000Y-100354250D01*
X111647750Y-100259000D01*
X111370000Y-100257157D01*
X111295311Y-100264513D01*
X111223492Y-100286299D01*
X111157304Y-100321678D01*
X111099289Y-100369289D01*
X111051678Y-100427304D01*
X111016299Y-100493492D01*
X110994513Y-100565311D01*
X110987157Y-100640000D01*
X110198933Y-100640000D01*
X110124575Y-100600255D01*
X110062843Y-100581529D01*
X110062843Y-100245000D01*
X110055487Y-100170311D01*
X110033701Y-100098492D01*
X109998322Y-100032304D01*
X109950711Y-99974289D01*
X109892696Y-99926678D01*
X109826508Y-99891299D01*
X109811000Y-99886595D01*
X109811000Y-99770990D01*
X109814052Y-99740000D01*
X109811000Y-99709009D01*
X109811000Y-99709002D01*
X109801870Y-99616302D01*
X109765789Y-99497358D01*
X109707196Y-99387739D01*
X109628343Y-99291657D01*
X109604268Y-99271899D01*
X109130212Y-98797843D01*
X109942500Y-98797843D01*
X110017189Y-98790487D01*
X110089008Y-98768701D01*
X110155196Y-98733322D01*
X110213211Y-98685711D01*
X110260822Y-98627696D01*
X110296201Y-98561508D01*
X110317987Y-98489689D01*
X110325343Y-98415000D01*
X110325343Y-96815000D01*
X110317987Y-96740311D01*
X110296201Y-96668492D01*
X110260822Y-96602304D01*
X110213211Y-96544289D01*
X110155196Y-96496678D01*
X110089008Y-96461299D01*
X110017189Y-96439513D01*
X109942500Y-96432157D01*
X104767500Y-96432157D01*
X104692811Y-96439513D01*
X104620992Y-96461299D01*
X104554804Y-96496678D01*
X104496789Y-96544289D01*
X104449178Y-96602304D01*
X104413799Y-96668492D01*
X104392013Y-96740311D01*
X104384657Y-96815000D01*
X104384657Y-98415000D01*
X104392013Y-98489689D01*
X104413799Y-98561508D01*
X104449178Y-98627696D01*
X104496789Y-98685711D01*
X104554804Y-98733322D01*
X104620992Y-98768701D01*
X104692811Y-98790487D01*
X104767500Y-98797843D01*
X107345475Y-98797843D01*
X108471869Y-99924238D01*
X108467304Y-99926678D01*
X108409289Y-99974289D01*
X108361678Y-100032304D01*
X108326299Y-100098492D01*
X108304513Y-100170311D01*
X108297157Y-100245000D01*
X108297157Y-101495000D01*
X108304513Y-101569689D01*
X108326299Y-101641508D01*
X108353372Y-101692157D01*
X108006628Y-101692157D01*
X108033701Y-101641508D01*
X108055487Y-101569689D01*
X108062843Y-101495000D01*
X108061000Y-101092250D01*
X107965750Y-100997000D01*
X107307000Y-100997000D01*
X107307000Y-101780750D01*
X107378831Y-101852581D01*
X107350682Y-101875682D01*
X107272757Y-101970634D01*
X107240223Y-102031500D01*
X106989732Y-102031500D01*
X106977243Y-102008134D01*
X106899318Y-101913182D01*
X106854844Y-101876683D01*
X106957750Y-101876000D01*
X107053000Y-101780750D01*
X107053000Y-100997000D01*
X106394250Y-100997000D01*
X106299000Y-101092250D01*
X106297157Y-101495000D01*
X106304513Y-101569689D01*
X106326299Y-101641508D01*
X106361678Y-101707696D01*
X106379701Y-101729657D01*
X105543750Y-101729657D01*
X105421508Y-101741697D01*
X105303963Y-101777354D01*
X105195634Y-101835257D01*
X105100682Y-101913182D01*
X105022757Y-102008134D01*
X104984081Y-102080492D01*
X104984081Y-101769953D01*
X104986649Y-101743879D01*
X104984081Y-101717805D01*
X104984081Y-101717795D01*
X104976398Y-101639785D01*
X104946034Y-101539691D01*
X104941868Y-101531897D01*
X104896727Y-101447443D01*
X104846999Y-101386849D01*
X104846993Y-101386843D01*
X104830371Y-101366589D01*
X104810117Y-101349967D01*
X103705149Y-100245000D01*
X106297157Y-100245000D01*
X106299000Y-100647750D01*
X106394250Y-100743000D01*
X107053000Y-100743000D01*
X107053000Y-99959250D01*
X107307000Y-99959250D01*
X107307000Y-100743000D01*
X107965750Y-100743000D01*
X108061000Y-100647750D01*
X108062843Y-100245000D01*
X108055487Y-100170311D01*
X108033701Y-100098492D01*
X107998322Y-100032304D01*
X107950711Y-99974289D01*
X107892696Y-99926678D01*
X107826508Y-99891299D01*
X107754689Y-99869513D01*
X107680000Y-99862157D01*
X107402250Y-99864000D01*
X107307000Y-99959250D01*
X107053000Y-99959250D01*
X106957750Y-99864000D01*
X106680000Y-99862157D01*
X106605311Y-99869513D01*
X106533492Y-99891299D01*
X106467304Y-99926678D01*
X106409289Y-99974289D01*
X106361678Y-100032304D01*
X106326299Y-100098492D01*
X106304513Y-100170311D01*
X106297157Y-100245000D01*
X103705149Y-100245000D01*
X102926001Y-99465853D01*
X102926001Y-93109947D01*
X104158948Y-91877000D01*
X105789241Y-91877000D01*
X105790001Y-91878422D01*
G04 #@! TA.AperFunction,Conductor*
D54*
G36*
X105790001Y-91878422D02*
G01*
X105998690Y-92006705D01*
X106128395Y-91877000D01*
X106487605Y-91877000D01*
X106178295Y-92186310D01*
X106306578Y-92394999D01*
X106578463Y-92525496D01*
X106870583Y-92600444D01*
X107171711Y-92616961D01*
X107470275Y-92574414D01*
X107754802Y-92474438D01*
X107903422Y-92394999D01*
X108031705Y-92186310D01*
X107722395Y-91877000D01*
X108081605Y-91877000D01*
X108211310Y-92006705D01*
X108419999Y-91878422D01*
X108420682Y-91877000D01*
X121246482Y-91877000D01*
X123593029Y-94281725D01*
X123597971Y-103127363D01*
X122444437Y-104279000D01*
X122233405Y-104279000D01*
X122228701Y-104263492D01*
X122193322Y-104197304D01*
X122145711Y-104139289D01*
X122087696Y-104091678D01*
X122021508Y-104056299D01*
X121949689Y-104034513D01*
X121875000Y-104027157D01*
X121545681Y-104027157D01*
X121548701Y-104021508D01*
X121570487Y-103949689D01*
X121577843Y-103875000D01*
X121576000Y-103472250D01*
X121480750Y-103377000D01*
X120822000Y-103377000D01*
X120822000Y-103397000D01*
X120568000Y-103397000D01*
X120568000Y-103377000D01*
X119909250Y-103377000D01*
X119814000Y-103472250D01*
X119812157Y-103875000D01*
X119819513Y-103949689D01*
X119841299Y-104021508D01*
X119844319Y-104027157D01*
X119545681Y-104027157D01*
X119548701Y-104021508D01*
X119570487Y-103949689D01*
X119577843Y-103875000D01*
X119577843Y-102993104D01*
X119812766Y-102758180D01*
X119814000Y-103027750D01*
X119909250Y-103123000D01*
X120568000Y-103123000D01*
X120568000Y-103103000D01*
X120822000Y-103103000D01*
X120822000Y-103123000D01*
X121480750Y-103123000D01*
X121576000Y-103027750D01*
X121577843Y-102625000D01*
X121570487Y-102550311D01*
X121548701Y-102478492D01*
X121513322Y-102412304D01*
X121465711Y-102354289D01*
X121407696Y-102306678D01*
X121341508Y-102271299D01*
X121269689Y-102249513D01*
X121235843Y-102246180D01*
X121263322Y-102212696D01*
X121298701Y-102146508D01*
X121320487Y-102074689D01*
X121327843Y-102000000D01*
X121562157Y-102000000D01*
X121569513Y-102074689D01*
X121591299Y-102146508D01*
X121626678Y-102212696D01*
X121674289Y-102270711D01*
X121732304Y-102318322D01*
X121798492Y-102353701D01*
X121870311Y-102375487D01*
X121945000Y-102382843D01*
X122222750Y-102381000D01*
X122318000Y-102285750D01*
X122318000Y-101502000D01*
X122572000Y-101502000D01*
X122572000Y-102285750D01*
X122667250Y-102381000D01*
X122945000Y-102382843D01*
X123019689Y-102375487D01*
X123091508Y-102353701D01*
X123157696Y-102318322D01*
X123215711Y-102270711D01*
X123263322Y-102212696D01*
X123298701Y-102146508D01*
X123320487Y-102074689D01*
X123327843Y-102000000D01*
X123326000Y-101597250D01*
X123230750Y-101502000D01*
X122572000Y-101502000D01*
X122318000Y-101502000D01*
X121659250Y-101502000D01*
X121564000Y-101597250D01*
X121562157Y-102000000D01*
X121327843Y-102000000D01*
X121327843Y-100750000D01*
X121562157Y-100750000D01*
X121564000Y-101152750D01*
X121659250Y-101248000D01*
X122318000Y-101248000D01*
X122318000Y-100464250D01*
X122572000Y-100464250D01*
X122572000Y-101248000D01*
X123230750Y-101248000D01*
X123326000Y-101152750D01*
X123327843Y-100750000D01*
X123320487Y-100675311D01*
X123298701Y-100603492D01*
X123263322Y-100537304D01*
X123215711Y-100479289D01*
X123157696Y-100431678D01*
X123091508Y-100396299D01*
X123019689Y-100374513D01*
X122945000Y-100367157D01*
X122667250Y-100369000D01*
X122572000Y-100464250D01*
X122318000Y-100464250D01*
X122222750Y-100369000D01*
X121945000Y-100367157D01*
X121870311Y-100374513D01*
X121798492Y-100396299D01*
X121732304Y-100431678D01*
X121674289Y-100479289D01*
X121626678Y-100537304D01*
X121591299Y-100603492D01*
X121569513Y-100675311D01*
X121562157Y-100750000D01*
X121327843Y-100750000D01*
X121320487Y-100675311D01*
X121298701Y-100603492D01*
X121263322Y-100537304D01*
X121215711Y-100479289D01*
X121157696Y-100431678D01*
X121091508Y-100396299D01*
X121019689Y-100374513D01*
X120945000Y-100367157D01*
X119945000Y-100367157D01*
X119870311Y-100374513D01*
X119798492Y-100396299D01*
X119732304Y-100431678D01*
X119674289Y-100479289D01*
X119626678Y-100537304D01*
X119591299Y-100603492D01*
X119569513Y-100675311D01*
X119562157Y-100750000D01*
X119562157Y-101506896D01*
X119361591Y-101707462D01*
X119361000Y-101522250D01*
X119265750Y-101427000D01*
X118607000Y-101427000D01*
X118607000Y-101447000D01*
X118353000Y-101447000D01*
X118353000Y-101427000D01*
X117694250Y-101427000D01*
X117599000Y-101522250D01*
X117597157Y-102100000D01*
X117604513Y-102174689D01*
X117626299Y-102246508D01*
X117661678Y-102312696D01*
X117709289Y-102370711D01*
X117767304Y-102418322D01*
X117833492Y-102453701D01*
X117851612Y-102459198D01*
X117841299Y-102478492D01*
X117819513Y-102550311D01*
X117812157Y-102625000D01*
X117812157Y-103394000D01*
X117659846Y-103394000D01*
X117635000Y-103391553D01*
X117610154Y-103394000D01*
X117610146Y-103394000D01*
X117535807Y-103401322D01*
X117440425Y-103430255D01*
X117352521Y-103477241D01*
X117275473Y-103540473D01*
X117259629Y-103559779D01*
X117241484Y-103577924D01*
X117241000Y-103472250D01*
X117145750Y-103377000D01*
X116487000Y-103377000D01*
X116487000Y-104160750D01*
X116572829Y-104246579D01*
X116040549Y-104778860D01*
X116089820Y-104659910D01*
X116119833Y-104509023D01*
X116119833Y-104355179D01*
X116100155Y-104256249D01*
X116137750Y-104256000D01*
X116233000Y-104160750D01*
X116233000Y-103377000D01*
X115574250Y-103377000D01*
X115479000Y-103472250D01*
X115478125Y-103663507D01*
X115415755Y-103651101D01*
X115261911Y-103651101D01*
X115242843Y-103654894D01*
X115242843Y-103129525D01*
X115478388Y-102893981D01*
X115479000Y-103027750D01*
X115574250Y-103123000D01*
X116233000Y-103123000D01*
X116233000Y-102385246D01*
X116250711Y-102370711D01*
X116276530Y-102339250D01*
X116487000Y-102339250D01*
X116487000Y-103123000D01*
X117145750Y-103123000D01*
X117241000Y-103027750D01*
X117242843Y-102625000D01*
X117235487Y-102550311D01*
X117213701Y-102478492D01*
X117178322Y-102412304D01*
X117130711Y-102354289D01*
X117072696Y-102306678D01*
X117006508Y-102271299D01*
X116934689Y-102249513D01*
X116860000Y-102242157D01*
X116582250Y-102244000D01*
X116487000Y-102339250D01*
X116276530Y-102339250D01*
X116298322Y-102312696D01*
X116333701Y-102246508D01*
X116355487Y-102174689D01*
X116362843Y-102100000D01*
X116362843Y-100500000D01*
X117597157Y-100500000D01*
X117599000Y-101077750D01*
X117694250Y-101173000D01*
X118353000Y-101173000D01*
X118353000Y-100214250D01*
X118607000Y-100214250D01*
X118607000Y-101173000D01*
X119265750Y-101173000D01*
X119361000Y-101077750D01*
X119362843Y-100500000D01*
X119355487Y-100425311D01*
X119333701Y-100353492D01*
X119298322Y-100287304D01*
X119250711Y-100229289D01*
X119192696Y-100181678D01*
X119126508Y-100146299D01*
X119054689Y-100124513D01*
X118980000Y-100117157D01*
X118702250Y-100119000D01*
X118607000Y-100214250D01*
X118353000Y-100214250D01*
X118257750Y-100119000D01*
X117980000Y-100117157D01*
X117905311Y-100124513D01*
X117833492Y-100146299D01*
X117767304Y-100181678D01*
X117709289Y-100229289D01*
X117661678Y-100287304D01*
X117626299Y-100353492D01*
X117604513Y-100425311D01*
X117597157Y-100500000D01*
X116362843Y-100500000D01*
X116355487Y-100425311D01*
X116333701Y-100353492D01*
X116298322Y-100287304D01*
X116250711Y-100229289D01*
X116192696Y-100181678D01*
X116126508Y-100146299D01*
X116054689Y-100124513D01*
X115980000Y-100117157D01*
X114980000Y-100117157D01*
X114905311Y-100124513D01*
X114833492Y-100146299D01*
X114767304Y-100181678D01*
X114709289Y-100229289D01*
X114661678Y-100287304D01*
X114626299Y-100353492D01*
X114625335Y-100356670D01*
X114582696Y-100321678D01*
X114516508Y-100286299D01*
X114501000Y-100281595D01*
X114501000Y-98648868D01*
X114603869Y-98546000D01*
X115484095Y-98546000D01*
X115488799Y-98561508D01*
X115524178Y-98627696D01*
X115571789Y-98685711D01*
X115629804Y-98733322D01*
X115695992Y-98768701D01*
X115767811Y-98790487D01*
X115842500Y-98797843D01*
X121017500Y-98797843D01*
X121092189Y-98790487D01*
X121164008Y-98768701D01*
X121230196Y-98733322D01*
X121288211Y-98685711D01*
X121335822Y-98627696D01*
X121371201Y-98561508D01*
X121392987Y-98489689D01*
X121400343Y-98415000D01*
X121400343Y-96815000D01*
X121392987Y-96740311D01*
X121371201Y-96668492D01*
X121335822Y-96602304D01*
X121288211Y-96544289D01*
X121230196Y-96496678D01*
X121164008Y-96461299D01*
X121092189Y-96439513D01*
X121017500Y-96432157D01*
X115842500Y-96432157D01*
X115767811Y-96439513D01*
X115695992Y-96461299D01*
X115629804Y-96496678D01*
X115571789Y-96544289D01*
X115524178Y-96602304D01*
X115488799Y-96668492D01*
X115467013Y-96740311D01*
X115459657Y-96815000D01*
X115459657Y-97284000D01*
X114373490Y-97284000D01*
X114342500Y-97280948D01*
X114311509Y-97284000D01*
X114311502Y-97284000D01*
X114218802Y-97293130D01*
X114099858Y-97329211D01*
X113990239Y-97387804D01*
X113894157Y-97466657D01*
X113874399Y-97490732D01*
X113445732Y-97919400D01*
X113421658Y-97939157D01*
X113401900Y-97963232D01*
X113401897Y-97963235D01*
X113342804Y-98035240D01*
X113284211Y-98144859D01*
X113248130Y-98263803D01*
X113235948Y-98387500D01*
X113239001Y-98418500D01*
X113239000Y-100281595D01*
X113223492Y-100286299D01*
X113157304Y-100321678D01*
X113099289Y-100369289D01*
X113051678Y-100427304D01*
X113016299Y-100493492D01*
X112994513Y-100565311D01*
X112987157Y-100640000D01*
X112987157Y-101557252D01*
X112910409Y-101634000D01*
X112876852Y-101634000D01*
X112851998Y-101631552D01*
X112827144Y-101634000D01*
X112752805Y-101641322D01*
X112751707Y-101641655D01*
X112751000Y-101487250D01*
X112655750Y-101392000D01*
X111997000Y-101392000D01*
X111997000Y-102175750D01*
X112048828Y-102227578D01*
X111925999Y-102350407D01*
X111743000Y-102167408D01*
X111743000Y-101392000D01*
X111084250Y-101392000D01*
X111025921Y-101450329D01*
X110305376Y-100729785D01*
X110289527Y-100710473D01*
X110212479Y-100647241D01*
X110198933Y-100640000D01*
X110987157Y-100640000D01*
X110989000Y-101042750D01*
X111084250Y-101138000D01*
X111743000Y-101138000D01*
X111743000Y-100354250D01*
X111997000Y-100354250D01*
X111997000Y-101138000D01*
X112655750Y-101138000D01*
X112751000Y-101042750D01*
X112752843Y-100640000D01*
X112745487Y-100565311D01*
X112723701Y-100493492D01*
X112688322Y-100427304D01*
X112640711Y-100369289D01*
X112582696Y-100321678D01*
X112516508Y-100286299D01*
X112444689Y-100264513D01*
X112370000Y-100257157D01*
X112092250Y-100259000D01*
X111997000Y-100354250D01*
X111743000Y-100354250D01*
X111647750Y-100259000D01*
X111370000Y-100257157D01*
X111295311Y-100264513D01*
X111223492Y-100286299D01*
X111157304Y-100321678D01*
X111099289Y-100369289D01*
X111051678Y-100427304D01*
X111016299Y-100493492D01*
X110994513Y-100565311D01*
X110987157Y-100640000D01*
X110198933Y-100640000D01*
X110124575Y-100600255D01*
X110062843Y-100581529D01*
X110062843Y-100245000D01*
X110055487Y-100170311D01*
X110033701Y-100098492D01*
X109998322Y-100032304D01*
X109950711Y-99974289D01*
X109892696Y-99926678D01*
X109826508Y-99891299D01*
X109811000Y-99886595D01*
X109811000Y-99770990D01*
X109814052Y-99740000D01*
X109811000Y-99709009D01*
X109811000Y-99709002D01*
X109801870Y-99616302D01*
X109765789Y-99497358D01*
X109707196Y-99387739D01*
X109628343Y-99291657D01*
X109604268Y-99271899D01*
X109130212Y-98797843D01*
X109942500Y-98797843D01*
X110017189Y-98790487D01*
X110089008Y-98768701D01*
X110155196Y-98733322D01*
X110213211Y-98685711D01*
X110260822Y-98627696D01*
X110296201Y-98561508D01*
X110317987Y-98489689D01*
X110325343Y-98415000D01*
X110325343Y-96815000D01*
X110317987Y-96740311D01*
X110296201Y-96668492D01*
X110260822Y-96602304D01*
X110213211Y-96544289D01*
X110155196Y-96496678D01*
X110089008Y-96461299D01*
X110017189Y-96439513D01*
X109942500Y-96432157D01*
X104767500Y-96432157D01*
X104692811Y-96439513D01*
X104620992Y-96461299D01*
X104554804Y-96496678D01*
X104496789Y-96544289D01*
X104449178Y-96602304D01*
X104413799Y-96668492D01*
X104392013Y-96740311D01*
X104384657Y-96815000D01*
X104384657Y-98415000D01*
X104392013Y-98489689D01*
X104413799Y-98561508D01*
X104449178Y-98627696D01*
X104496789Y-98685711D01*
X104554804Y-98733322D01*
X104620992Y-98768701D01*
X104692811Y-98790487D01*
X104767500Y-98797843D01*
X107345475Y-98797843D01*
X108471869Y-99924238D01*
X108467304Y-99926678D01*
X108409289Y-99974289D01*
X108361678Y-100032304D01*
X108326299Y-100098492D01*
X108304513Y-100170311D01*
X108297157Y-100245000D01*
X108297157Y-101495000D01*
X108304513Y-101569689D01*
X108326299Y-101641508D01*
X108353372Y-101692157D01*
X108006628Y-101692157D01*
X108033701Y-101641508D01*
X108055487Y-101569689D01*
X108062843Y-101495000D01*
X108061000Y-101092250D01*
X107965750Y-100997000D01*
X107307000Y-100997000D01*
X107307000Y-101780750D01*
X107378831Y-101852581D01*
X107350682Y-101875682D01*
X107272757Y-101970634D01*
X107240223Y-102031500D01*
X106989732Y-102031500D01*
X106977243Y-102008134D01*
X106899318Y-101913182D01*
X106854844Y-101876683D01*
X106957750Y-101876000D01*
X107053000Y-101780750D01*
X107053000Y-100997000D01*
X106394250Y-100997000D01*
X106299000Y-101092250D01*
X106297157Y-101495000D01*
X106304513Y-101569689D01*
X106326299Y-101641508D01*
X106361678Y-101707696D01*
X106379701Y-101729657D01*
X105543750Y-101729657D01*
X105421508Y-101741697D01*
X105303963Y-101777354D01*
X105195634Y-101835257D01*
X105100682Y-101913182D01*
X105022757Y-102008134D01*
X104984081Y-102080492D01*
X104984081Y-101769953D01*
X104986649Y-101743879D01*
X104984081Y-101717805D01*
X104984081Y-101717795D01*
X104976398Y-101639785D01*
X104946034Y-101539691D01*
X104941868Y-101531897D01*
X104896727Y-101447443D01*
X104846999Y-101386849D01*
X104846993Y-101386843D01*
X104830371Y-101366589D01*
X104810117Y-101349967D01*
X103705149Y-100245000D01*
X106297157Y-100245000D01*
X106299000Y-100647750D01*
X106394250Y-100743000D01*
X107053000Y-100743000D01*
X107053000Y-99959250D01*
X107307000Y-99959250D01*
X107307000Y-100743000D01*
X107965750Y-100743000D01*
X108061000Y-100647750D01*
X108062843Y-100245000D01*
X108055487Y-100170311D01*
X108033701Y-100098492D01*
X107998322Y-100032304D01*
X107950711Y-99974289D01*
X107892696Y-99926678D01*
X107826508Y-99891299D01*
X107754689Y-99869513D01*
X107680000Y-99862157D01*
X107402250Y-99864000D01*
X107307000Y-99959250D01*
X107053000Y-99959250D01*
X106957750Y-99864000D01*
X106680000Y-99862157D01*
X106605311Y-99869513D01*
X106533492Y-99891299D01*
X106467304Y-99926678D01*
X106409289Y-99974289D01*
X106361678Y-100032304D01*
X106326299Y-100098492D01*
X106304513Y-100170311D01*
X106297157Y-100245000D01*
X103705149Y-100245000D01*
X102926001Y-99465853D01*
X102926001Y-93109947D01*
X104158948Y-91877000D01*
X105789241Y-91877000D01*
X105790001Y-91878422D01*
G37*
G04 #@! TD.AperFunction*
D53*
X137472547Y-109652153D02*
X137472547Y-109883750D01*
X137498990Y-110152234D01*
X137577304Y-110410400D01*
X137666621Y-110577500D01*
X137577304Y-110744600D01*
X137498990Y-111002766D01*
X137472547Y-111271250D01*
X137472547Y-111758750D01*
X137498990Y-112027234D01*
X137577304Y-112285400D01*
X137704479Y-112523327D01*
X137875628Y-112731872D01*
X138084173Y-112903021D01*
X138322100Y-113030196D01*
X138580266Y-113108510D01*
X138848750Y-113134953D01*
X139761250Y-113134953D01*
X139892427Y-113122033D01*
X140236460Y-113466066D01*
X140257544Y-113680130D01*
X140330139Y-113919447D01*
X140448028Y-114140002D01*
X140606680Y-114333320D01*
X140799998Y-114491972D01*
X141020553Y-114609861D01*
X141259870Y-114682456D01*
X141508750Y-114706969D01*
X142259001Y-114706969D01*
X142259000Y-117262547D01*
X141538750Y-117262547D01*
X141270266Y-117288990D01*
X141012100Y-117367304D01*
X140774173Y-117494479D01*
X140565628Y-117665628D01*
X140394479Y-117874173D01*
X140267304Y-118112100D01*
X140188990Y-118370266D01*
X140162547Y-118638750D01*
X140162547Y-119126250D01*
X140188990Y-119394734D01*
X140233829Y-119542547D01*
X139808750Y-119542547D01*
X139540266Y-119568990D01*
X139282100Y-119647304D01*
X139044173Y-119774479D01*
X138835628Y-119945628D01*
X138664479Y-120154173D01*
X138590448Y-120292675D01*
X138399750Y-120294000D01*
X138304500Y-120389250D01*
X138304500Y-121248000D01*
X138324500Y-121248000D01*
X138324500Y-121502000D01*
X138304500Y-121502000D01*
X138304500Y-122360750D01*
X138399750Y-122456000D01*
X138590448Y-122457325D01*
X138636777Y-122544000D01*
X136322399Y-122544000D01*
X136300000Y-122541794D01*
X136277601Y-122544000D01*
X136210608Y-122550598D01*
X136124652Y-122576673D01*
X136045434Y-122619016D01*
X135975999Y-122675999D01*
X135919016Y-122745434D01*
X135876673Y-122824652D01*
X135850598Y-122910608D01*
X135841794Y-123000000D01*
X135844000Y-123022399D01*
X135844001Y-126084000D01*
X133024338Y-126084000D01*
X133028869Y-126082075D01*
X133259996Y-125924601D01*
X133455961Y-125725062D01*
X133609232Y-125491126D01*
X133713919Y-125231783D01*
X133766000Y-124957000D01*
X133766000Y-124197000D01*
X132472000Y-124197000D01*
X132472000Y-124217000D01*
X132218000Y-124217000D01*
X132218000Y-124197000D01*
X130924000Y-124197000D01*
X130924000Y-124957000D01*
X130976081Y-125231783D01*
X131080768Y-125491126D01*
X131234039Y-125725062D01*
X131430004Y-125924601D01*
X131661131Y-126082075D01*
X131665662Y-126084000D01*
X131093606Y-126084000D01*
X130342000Y-125332394D01*
X130342000Y-123183000D01*
X130924000Y-123183000D01*
X130924000Y-123943000D01*
X132218000Y-123943000D01*
X132218000Y-121990347D01*
X132472000Y-121990347D01*
X132472000Y-123943000D01*
X133766000Y-123943000D01*
X133766000Y-123183000D01*
X133713919Y-122908217D01*
X133609232Y-122648874D01*
X133455961Y-122414938D01*
X133259996Y-122215399D01*
X133053931Y-122075000D01*
X137307157Y-122075000D01*
X137314513Y-122149689D01*
X137336299Y-122221508D01*
X137371678Y-122287696D01*
X137419289Y-122345711D01*
X137477304Y-122393322D01*
X137543492Y-122428701D01*
X137615311Y-122450487D01*
X137690000Y-122457843D01*
X137955250Y-122456000D01*
X138050500Y-122360750D01*
X138050500Y-121502000D01*
X137404250Y-121502000D01*
X137309000Y-121597250D01*
X137307157Y-122075000D01*
X133053931Y-122075000D01*
X133028869Y-122057925D01*
X132771461Y-121948567D01*
X132691840Y-121931979D01*
X132472000Y-121990347D01*
X132218000Y-121990347D01*
X131998160Y-121931979D01*
X131918539Y-121948567D01*
X131661131Y-122057925D01*
X131430004Y-122215399D01*
X131234039Y-122414938D01*
X131080768Y-122648874D01*
X130976081Y-122908217D01*
X130924000Y-123183000D01*
X130342000Y-123183000D01*
X130342000Y-119117000D01*
X130924000Y-119117000D01*
X130924000Y-119877000D01*
X130976081Y-120151783D01*
X131080768Y-120411126D01*
X131234039Y-120645062D01*
X131430004Y-120844601D01*
X131661131Y-121002075D01*
X131918539Y-121111433D01*
X131998160Y-121128021D01*
X132218000Y-121069653D01*
X132218000Y-119117000D01*
X132472000Y-119117000D01*
X132472000Y-121069653D01*
X132691840Y-121128021D01*
X132771461Y-121111433D01*
X133028869Y-121002075D01*
X133259996Y-120844601D01*
X133426559Y-120675000D01*
X137307157Y-120675000D01*
X137309000Y-121152750D01*
X137404250Y-121248000D01*
X138050500Y-121248000D01*
X138050500Y-120389250D01*
X137955250Y-120294000D01*
X137690000Y-120292157D01*
X137615311Y-120299513D01*
X137543492Y-120321299D01*
X137477304Y-120356678D01*
X137419289Y-120404289D01*
X137371678Y-120462304D01*
X137336299Y-120528492D01*
X137314513Y-120600311D01*
X137307157Y-120675000D01*
X133426559Y-120675000D01*
X133455961Y-120645062D01*
X133609232Y-120411126D01*
X133713919Y-120151783D01*
X133766000Y-119877000D01*
X133766000Y-119117000D01*
X132472000Y-119117000D01*
X132218000Y-119117000D01*
X130924000Y-119117000D01*
X130342000Y-119117000D01*
X130342000Y-118103000D01*
X130924000Y-118103000D01*
X130924000Y-118863000D01*
X132218000Y-118863000D01*
X132218000Y-116910347D01*
X132472000Y-116910347D01*
X132472000Y-118863000D01*
X133766000Y-118863000D01*
X133766000Y-118103000D01*
X133713919Y-117828217D01*
X133609232Y-117568874D01*
X133455961Y-117334938D01*
X133259996Y-117135399D01*
X133028869Y-116977925D01*
X132771461Y-116868567D01*
X132691840Y-116851979D01*
X132472000Y-116910347D01*
X132218000Y-116910347D01*
X131998160Y-116851979D01*
X131918539Y-116868567D01*
X131661131Y-116977925D01*
X131430004Y-117135399D01*
X131234039Y-117334938D01*
X131080768Y-117568874D01*
X130976081Y-117828217D01*
X130924000Y-118103000D01*
X130342000Y-118103000D01*
X130342000Y-116382622D01*
X138116983Y-116382622D01*
X138257325Y-116601554D01*
X138546259Y-116742043D01*
X138857050Y-116823465D01*
X139177753Y-116842690D01*
X139496044Y-116798980D01*
X139799693Y-116694014D01*
X139972675Y-116601554D01*
X140113017Y-116382622D01*
X139922402Y-116192007D01*
X139929662Y-116179267D01*
X139110000Y-115359605D01*
X138290338Y-116179267D01*
X138301228Y-116198377D01*
X138116983Y-116382622D01*
X130342000Y-116382622D01*
X130342000Y-115267753D01*
X137477310Y-115267753D01*
X137521020Y-115586044D01*
X137625986Y-115889693D01*
X137718446Y-116062675D01*
X137937378Y-116203017D01*
X138935395Y-115205000D01*
X138920395Y-115190000D01*
X138930395Y-115180000D01*
X139289605Y-115180000D01*
X139304605Y-115195000D01*
X139294605Y-115205000D01*
X140292622Y-116203017D01*
X140511554Y-116062675D01*
X140652043Y-115773741D01*
X140733465Y-115462950D01*
X140752690Y-115142247D01*
X140708980Y-114823956D01*
X140604014Y-114520307D01*
X140511554Y-114347325D01*
X140292622Y-114206983D01*
X140128377Y-114371228D01*
X140109267Y-114360338D01*
X139289605Y-115180000D01*
X138930395Y-115180000D01*
X138110733Y-114360338D01*
X138097993Y-114367598D01*
X137937378Y-114206983D01*
X137718446Y-114347325D01*
X137577957Y-114636259D01*
X137496535Y-114947050D01*
X137477310Y-115267753D01*
X130342000Y-115267753D01*
X130342000Y-114027378D01*
X138116983Y-114027378D01*
X139115000Y-115025395D01*
X140113017Y-114027378D01*
X139972675Y-113808446D01*
X139683741Y-113667957D01*
X139372950Y-113586535D01*
X139052247Y-113567310D01*
X138733956Y-113611020D01*
X138430307Y-113715986D01*
X138257325Y-113808446D01*
X138116983Y-114027378D01*
X130342000Y-114027378D01*
X130342000Y-111395000D01*
X131632157Y-111395000D01*
X131639513Y-111469689D01*
X131661299Y-111541508D01*
X131696678Y-111607696D01*
X131744289Y-111665711D01*
X131802304Y-111713322D01*
X131868492Y-111748701D01*
X131940311Y-111770487D01*
X132015000Y-111777843D01*
X133592750Y-111776000D01*
X133688000Y-111680750D01*
X133688000Y-110482000D01*
X133942000Y-110482000D01*
X133942000Y-111680750D01*
X134037250Y-111776000D01*
X135615000Y-111777843D01*
X135689689Y-111770487D01*
X135761508Y-111748701D01*
X135827696Y-111713322D01*
X135885711Y-111665711D01*
X135933322Y-111607696D01*
X135968701Y-111541508D01*
X135990487Y-111469689D01*
X135997843Y-111395000D01*
X135996000Y-110577250D01*
X135900750Y-110482000D01*
X133942000Y-110482000D01*
X133688000Y-110482000D01*
X131729250Y-110482000D01*
X131634000Y-110577250D01*
X131632157Y-111395000D01*
X130342000Y-111395000D01*
X130342000Y-109315000D01*
X131632157Y-109315000D01*
X131634000Y-110132750D01*
X131729250Y-110228000D01*
X133688000Y-110228000D01*
X133688000Y-109029250D01*
X133942000Y-109029250D01*
X133942000Y-110228000D01*
X135900750Y-110228000D01*
X135996000Y-110132750D01*
X135997843Y-109315000D01*
X135990487Y-109240311D01*
X135968701Y-109168492D01*
X135933322Y-109102304D01*
X135885711Y-109044289D01*
X135827696Y-108996678D01*
X135761508Y-108961299D01*
X135689689Y-108939513D01*
X135615000Y-108932157D01*
X134037250Y-108934000D01*
X133942000Y-109029250D01*
X133688000Y-109029250D01*
X133592750Y-108934000D01*
X132015000Y-108932157D01*
X131940311Y-108939513D01*
X131868492Y-108961299D01*
X131802304Y-108996678D01*
X131744289Y-109044289D01*
X131696678Y-109102304D01*
X131661299Y-109168492D01*
X131639513Y-109240311D01*
X131632157Y-109315000D01*
X130342000Y-109315000D01*
X130342000Y-109292606D01*
X131072606Y-108562000D01*
X136382394Y-108562000D01*
X137472547Y-109652153D01*
G04 #@! TA.AperFunction,Conductor*
D54*
G36*
X137472547Y-109652153D02*
G01*
X137472547Y-109883750D01*
X137498990Y-110152234D01*
X137577304Y-110410400D01*
X137666621Y-110577500D01*
X137577304Y-110744600D01*
X137498990Y-111002766D01*
X137472547Y-111271250D01*
X137472547Y-111758750D01*
X137498990Y-112027234D01*
X137577304Y-112285400D01*
X137704479Y-112523327D01*
X137875628Y-112731872D01*
X138084173Y-112903021D01*
X138322100Y-113030196D01*
X138580266Y-113108510D01*
X138848750Y-113134953D01*
X139761250Y-113134953D01*
X139892427Y-113122033D01*
X140236460Y-113466066D01*
X140257544Y-113680130D01*
X140330139Y-113919447D01*
X140448028Y-114140002D01*
X140606680Y-114333320D01*
X140799998Y-114491972D01*
X141020553Y-114609861D01*
X141259870Y-114682456D01*
X141508750Y-114706969D01*
X142259001Y-114706969D01*
X142259000Y-117262547D01*
X141538750Y-117262547D01*
X141270266Y-117288990D01*
X141012100Y-117367304D01*
X140774173Y-117494479D01*
X140565628Y-117665628D01*
X140394479Y-117874173D01*
X140267304Y-118112100D01*
X140188990Y-118370266D01*
X140162547Y-118638750D01*
X140162547Y-119126250D01*
X140188990Y-119394734D01*
X140233829Y-119542547D01*
X139808750Y-119542547D01*
X139540266Y-119568990D01*
X139282100Y-119647304D01*
X139044173Y-119774479D01*
X138835628Y-119945628D01*
X138664479Y-120154173D01*
X138590448Y-120292675D01*
X138399750Y-120294000D01*
X138304500Y-120389250D01*
X138304500Y-121248000D01*
X138324500Y-121248000D01*
X138324500Y-121502000D01*
X138304500Y-121502000D01*
X138304500Y-122360750D01*
X138399750Y-122456000D01*
X138590448Y-122457325D01*
X138636777Y-122544000D01*
X136322399Y-122544000D01*
X136300000Y-122541794D01*
X136277601Y-122544000D01*
X136210608Y-122550598D01*
X136124652Y-122576673D01*
X136045434Y-122619016D01*
X135975999Y-122675999D01*
X135919016Y-122745434D01*
X135876673Y-122824652D01*
X135850598Y-122910608D01*
X135841794Y-123000000D01*
X135844000Y-123022399D01*
X135844001Y-126084000D01*
X133024338Y-126084000D01*
X133028869Y-126082075D01*
X133259996Y-125924601D01*
X133455961Y-125725062D01*
X133609232Y-125491126D01*
X133713919Y-125231783D01*
X133766000Y-124957000D01*
X133766000Y-124197000D01*
X132472000Y-124197000D01*
X132472000Y-124217000D01*
X132218000Y-124217000D01*
X132218000Y-124197000D01*
X130924000Y-124197000D01*
X130924000Y-124957000D01*
X130976081Y-125231783D01*
X131080768Y-125491126D01*
X131234039Y-125725062D01*
X131430004Y-125924601D01*
X131661131Y-126082075D01*
X131665662Y-126084000D01*
X131093606Y-126084000D01*
X130342000Y-125332394D01*
X130342000Y-123183000D01*
X130924000Y-123183000D01*
X130924000Y-123943000D01*
X132218000Y-123943000D01*
X132218000Y-121990347D01*
X132472000Y-121990347D01*
X132472000Y-123943000D01*
X133766000Y-123943000D01*
X133766000Y-123183000D01*
X133713919Y-122908217D01*
X133609232Y-122648874D01*
X133455961Y-122414938D01*
X133259996Y-122215399D01*
X133053931Y-122075000D01*
X137307157Y-122075000D01*
X137314513Y-122149689D01*
X137336299Y-122221508D01*
X137371678Y-122287696D01*
X137419289Y-122345711D01*
X137477304Y-122393322D01*
X137543492Y-122428701D01*
X137615311Y-122450487D01*
X137690000Y-122457843D01*
X137955250Y-122456000D01*
X138050500Y-122360750D01*
X138050500Y-121502000D01*
X137404250Y-121502000D01*
X137309000Y-121597250D01*
X137307157Y-122075000D01*
X133053931Y-122075000D01*
X133028869Y-122057925D01*
X132771461Y-121948567D01*
X132691840Y-121931979D01*
X132472000Y-121990347D01*
X132218000Y-121990347D01*
X131998160Y-121931979D01*
X131918539Y-121948567D01*
X131661131Y-122057925D01*
X131430004Y-122215399D01*
X131234039Y-122414938D01*
X131080768Y-122648874D01*
X130976081Y-122908217D01*
X130924000Y-123183000D01*
X130342000Y-123183000D01*
X130342000Y-119117000D01*
X130924000Y-119117000D01*
X130924000Y-119877000D01*
X130976081Y-120151783D01*
X131080768Y-120411126D01*
X131234039Y-120645062D01*
X131430004Y-120844601D01*
X131661131Y-121002075D01*
X131918539Y-121111433D01*
X131998160Y-121128021D01*
X132218000Y-121069653D01*
X132218000Y-119117000D01*
X132472000Y-119117000D01*
X132472000Y-121069653D01*
X132691840Y-121128021D01*
X132771461Y-121111433D01*
X133028869Y-121002075D01*
X133259996Y-120844601D01*
X133426559Y-120675000D01*
X137307157Y-120675000D01*
X137309000Y-121152750D01*
X137404250Y-121248000D01*
X138050500Y-121248000D01*
X138050500Y-120389250D01*
X137955250Y-120294000D01*
X137690000Y-120292157D01*
X137615311Y-120299513D01*
X137543492Y-120321299D01*
X137477304Y-120356678D01*
X137419289Y-120404289D01*
X137371678Y-120462304D01*
X137336299Y-120528492D01*
X137314513Y-120600311D01*
X137307157Y-120675000D01*
X133426559Y-120675000D01*
X133455961Y-120645062D01*
X133609232Y-120411126D01*
X133713919Y-120151783D01*
X133766000Y-119877000D01*
X133766000Y-119117000D01*
X132472000Y-119117000D01*
X132218000Y-119117000D01*
X130924000Y-119117000D01*
X130342000Y-119117000D01*
X130342000Y-118103000D01*
X130924000Y-118103000D01*
X130924000Y-118863000D01*
X132218000Y-118863000D01*
X132218000Y-116910347D01*
X132472000Y-116910347D01*
X132472000Y-118863000D01*
X133766000Y-118863000D01*
X133766000Y-118103000D01*
X133713919Y-117828217D01*
X133609232Y-117568874D01*
X133455961Y-117334938D01*
X133259996Y-117135399D01*
X133028869Y-116977925D01*
X132771461Y-116868567D01*
X132691840Y-116851979D01*
X132472000Y-116910347D01*
X132218000Y-116910347D01*
X131998160Y-116851979D01*
X131918539Y-116868567D01*
X131661131Y-116977925D01*
X131430004Y-117135399D01*
X131234039Y-117334938D01*
X131080768Y-117568874D01*
X130976081Y-117828217D01*
X130924000Y-118103000D01*
X130342000Y-118103000D01*
X130342000Y-116382622D01*
X138116983Y-116382622D01*
X138257325Y-116601554D01*
X138546259Y-116742043D01*
X138857050Y-116823465D01*
X139177753Y-116842690D01*
X139496044Y-116798980D01*
X139799693Y-116694014D01*
X139972675Y-116601554D01*
X140113017Y-116382622D01*
X139922402Y-116192007D01*
X139929662Y-116179267D01*
X139110000Y-115359605D01*
X138290338Y-116179267D01*
X138301228Y-116198377D01*
X138116983Y-116382622D01*
X130342000Y-116382622D01*
X130342000Y-115267753D01*
X137477310Y-115267753D01*
X137521020Y-115586044D01*
X137625986Y-115889693D01*
X137718446Y-116062675D01*
X137937378Y-116203017D01*
X138935395Y-115205000D01*
X138920395Y-115190000D01*
X138930395Y-115180000D01*
X139289605Y-115180000D01*
X139304605Y-115195000D01*
X139294605Y-115205000D01*
X140292622Y-116203017D01*
X140511554Y-116062675D01*
X140652043Y-115773741D01*
X140733465Y-115462950D01*
X140752690Y-115142247D01*
X140708980Y-114823956D01*
X140604014Y-114520307D01*
X140511554Y-114347325D01*
X140292622Y-114206983D01*
X140128377Y-114371228D01*
X140109267Y-114360338D01*
X139289605Y-115180000D01*
X138930395Y-115180000D01*
X138110733Y-114360338D01*
X138097993Y-114367598D01*
X137937378Y-114206983D01*
X137718446Y-114347325D01*
X137577957Y-114636259D01*
X137496535Y-114947050D01*
X137477310Y-115267753D01*
X130342000Y-115267753D01*
X130342000Y-114027378D01*
X138116983Y-114027378D01*
X139115000Y-115025395D01*
X140113017Y-114027378D01*
X139972675Y-113808446D01*
X139683741Y-113667957D01*
X139372950Y-113586535D01*
X139052247Y-113567310D01*
X138733956Y-113611020D01*
X138430307Y-113715986D01*
X138257325Y-113808446D01*
X138116983Y-114027378D01*
X130342000Y-114027378D01*
X130342000Y-111395000D01*
X131632157Y-111395000D01*
X131639513Y-111469689D01*
X131661299Y-111541508D01*
X131696678Y-111607696D01*
X131744289Y-111665711D01*
X131802304Y-111713322D01*
X131868492Y-111748701D01*
X131940311Y-111770487D01*
X132015000Y-111777843D01*
X133592750Y-111776000D01*
X133688000Y-111680750D01*
X133688000Y-110482000D01*
X133942000Y-110482000D01*
X133942000Y-111680750D01*
X134037250Y-111776000D01*
X135615000Y-111777843D01*
X135689689Y-111770487D01*
X135761508Y-111748701D01*
X135827696Y-111713322D01*
X135885711Y-111665711D01*
X135933322Y-111607696D01*
X135968701Y-111541508D01*
X135990487Y-111469689D01*
X135997843Y-111395000D01*
X135996000Y-110577250D01*
X135900750Y-110482000D01*
X133942000Y-110482000D01*
X133688000Y-110482000D01*
X131729250Y-110482000D01*
X131634000Y-110577250D01*
X131632157Y-111395000D01*
X130342000Y-111395000D01*
X130342000Y-109315000D01*
X131632157Y-109315000D01*
X131634000Y-110132750D01*
X131729250Y-110228000D01*
X133688000Y-110228000D01*
X133688000Y-109029250D01*
X133942000Y-109029250D01*
X133942000Y-110228000D01*
X135900750Y-110228000D01*
X135996000Y-110132750D01*
X135997843Y-109315000D01*
X135990487Y-109240311D01*
X135968701Y-109168492D01*
X135933322Y-109102304D01*
X135885711Y-109044289D01*
X135827696Y-108996678D01*
X135761508Y-108961299D01*
X135689689Y-108939513D01*
X135615000Y-108932157D01*
X134037250Y-108934000D01*
X133942000Y-109029250D01*
X133688000Y-109029250D01*
X133592750Y-108934000D01*
X132015000Y-108932157D01*
X131940311Y-108939513D01*
X131868492Y-108961299D01*
X131802304Y-108996678D01*
X131744289Y-109044289D01*
X131696678Y-109102304D01*
X131661299Y-109168492D01*
X131639513Y-109240311D01*
X131632157Y-109315000D01*
X130342000Y-109315000D01*
X130342000Y-109292606D01*
X131072606Y-108562000D01*
X136382394Y-108562000D01*
X137472547Y-109652153D01*
G37*
G04 #@! TD.AperFunction*
D53*
X133572157Y-92080000D02*
X133579513Y-92154689D01*
X133601299Y-92226508D01*
X133636678Y-92292696D01*
X133684289Y-92350711D01*
X133742304Y-92398322D01*
X133808492Y-92433701D01*
X133880311Y-92455487D01*
X133955000Y-92462843D01*
X134882750Y-92461000D01*
X134978000Y-92365750D01*
X134978000Y-92012000D01*
X135232000Y-92012000D01*
X135232000Y-92365750D01*
X135327250Y-92461000D01*
X136255000Y-92462843D01*
X136329689Y-92455487D01*
X136401508Y-92433701D01*
X136467696Y-92398322D01*
X136525711Y-92350711D01*
X136573322Y-92292696D01*
X136608701Y-92226508D01*
X136630487Y-92154689D01*
X136637843Y-92080000D01*
X136637682Y-92012000D01*
X139438000Y-92012000D01*
X139438000Y-92079491D01*
X139519739Y-92490423D01*
X139680077Y-92877512D01*
X139912851Y-93225884D01*
X140209116Y-93522149D01*
X140557488Y-93754923D01*
X140944577Y-93915261D01*
X141355509Y-93997000D01*
X141547394Y-93997000D01*
X143098000Y-95547606D01*
X143098000Y-101510430D01*
X143092622Y-101506983D01*
X142094605Y-102505000D01*
X143078000Y-103488395D01*
X143078000Y-109107394D01*
X142827394Y-109358000D01*
X141532606Y-109358000D01*
X141135620Y-108961014D01*
X141236614Y-108964916D01*
X141485816Y-108925280D01*
X141722498Y-108837788D01*
X141810160Y-108790933D01*
X141908234Y-108607839D01*
X141160000Y-107859605D01*
X141145858Y-107873748D01*
X140966253Y-107694143D01*
X140980395Y-107680000D01*
X141339605Y-107680000D01*
X142087839Y-108428234D01*
X142270933Y-108330160D01*
X142376427Y-108100935D01*
X142435174Y-107855534D01*
X142444916Y-107603386D01*
X142405280Y-107354184D01*
X142317788Y-107117502D01*
X142270933Y-107029840D01*
X142087839Y-106931766D01*
X141339605Y-107680000D01*
X140980395Y-107680000D01*
X140232161Y-106931766D01*
X140049067Y-107029840D01*
X139943573Y-107259065D01*
X139884826Y-107504466D01*
X139877172Y-107702566D01*
X138789803Y-106615197D01*
X138770557Y-106599403D01*
X138748601Y-106587667D01*
X138724776Y-106580440D01*
X138700000Y-106578000D01*
X135140085Y-106578000D01*
X135236126Y-106539232D01*
X135470062Y-106385961D01*
X135669601Y-106189996D01*
X135676911Y-106179267D01*
X140390338Y-106179267D01*
X140500510Y-106372596D01*
X140721675Y-106476310D01*
X140597502Y-106522212D01*
X140509840Y-106569067D01*
X140411766Y-106752161D01*
X141160000Y-107500395D01*
X141908234Y-106752161D01*
X141810160Y-106569067D01*
X141642757Y-106492025D01*
X141807435Y-106432490D01*
X141919490Y-106372596D01*
X142029662Y-106179267D01*
X141210000Y-105359605D01*
X140390338Y-106179267D01*
X135676911Y-106179267D01*
X135827075Y-105958869D01*
X135936433Y-105701461D01*
X135953021Y-105621840D01*
X135894653Y-105402000D01*
X133942000Y-105402000D01*
X133942000Y-105422000D01*
X133688000Y-105422000D01*
X133688000Y-105402000D01*
X131735347Y-105402000D01*
X131676979Y-105621840D01*
X131693567Y-105701461D01*
X131802925Y-105958869D01*
X131960399Y-106189996D01*
X132159938Y-106385961D01*
X132393874Y-106539232D01*
X132489915Y-106578000D01*
X127940000Y-106578000D01*
X127915224Y-106580440D01*
X127891399Y-106587667D01*
X127869443Y-106599403D01*
X127850197Y-106615197D01*
X127834403Y-106634443D01*
X127822667Y-106656399D01*
X127815440Y-106680224D01*
X127813197Y-106703000D01*
X126867000Y-106703000D01*
X126867000Y-105525000D01*
X126864560Y-105500224D01*
X126857333Y-105476399D01*
X126845597Y-105454443D01*
X126829803Y-105435197D01*
X126647257Y-105252651D01*
X139824222Y-105252651D01*
X139865023Y-105521607D01*
X139957510Y-105777435D01*
X140017404Y-105889490D01*
X140210733Y-105999662D01*
X141030395Y-105180000D01*
X141389605Y-105180000D01*
X142209267Y-105999662D01*
X142402596Y-105889490D01*
X142518095Y-105643194D01*
X142583324Y-105379097D01*
X142595778Y-105107349D01*
X142554977Y-104838393D01*
X142462490Y-104582565D01*
X142402596Y-104470510D01*
X142209267Y-104360338D01*
X141389605Y-105180000D01*
X141030395Y-105180000D01*
X140210733Y-104360338D01*
X140017404Y-104470510D01*
X139901905Y-104716806D01*
X139836676Y-104980903D01*
X139824222Y-105252651D01*
X126647257Y-105252651D01*
X126584803Y-105190197D01*
X126565557Y-105174403D01*
X126543601Y-105162667D01*
X126519776Y-105155440D01*
X126495000Y-105153000D01*
X125990000Y-105153000D01*
X125965224Y-105155440D01*
X125941399Y-105162667D01*
X125919443Y-105174403D01*
X125900197Y-105190197D01*
X125650197Y-105440197D01*
X125634403Y-105459443D01*
X125622667Y-105481399D01*
X125615440Y-105505224D01*
X125613000Y-105530000D01*
X125613000Y-106658000D01*
X124667000Y-106658000D01*
X124667000Y-106625000D01*
X124664560Y-106600224D01*
X124657333Y-106576399D01*
X124645597Y-106554443D01*
X124629803Y-106535197D01*
X123412000Y-105317394D01*
X123412000Y-104928160D01*
X131676979Y-104928160D01*
X131735347Y-105148000D01*
X133688000Y-105148000D01*
X133688000Y-103854000D01*
X133942000Y-103854000D01*
X133942000Y-105148000D01*
X135894653Y-105148000D01*
X135953021Y-104928160D01*
X135936433Y-104848539D01*
X135827075Y-104591131D01*
X135669601Y-104360004D01*
X135487061Y-104180733D01*
X140390338Y-104180733D01*
X141210000Y-105000395D01*
X142029662Y-104180733D01*
X142005789Y-104138840D01*
X142296044Y-104098980D01*
X142599693Y-103994014D01*
X142772675Y-103901554D01*
X142913017Y-103682622D01*
X141915000Y-102684605D01*
X140916983Y-103682622D01*
X141001712Y-103814798D01*
X140868393Y-103835023D01*
X140612565Y-103927510D01*
X140500510Y-103987404D01*
X140390338Y-104180733D01*
X135487061Y-104180733D01*
X135470062Y-104164039D01*
X135236126Y-104010768D01*
X134976783Y-103906081D01*
X134702000Y-103854000D01*
X133942000Y-103854000D01*
X133688000Y-103854000D01*
X132928000Y-103854000D01*
X132653217Y-103906081D01*
X132393874Y-104010768D01*
X132159938Y-104164039D01*
X131960399Y-104360004D01*
X131802925Y-104591131D01*
X131693567Y-104848539D01*
X131676979Y-104928160D01*
X123412000Y-104928160D01*
X123412000Y-104887606D01*
X124379803Y-103919803D01*
X124395597Y-103900557D01*
X124407333Y-103878601D01*
X124414560Y-103854776D01*
X124417000Y-103830000D01*
X124417000Y-102567753D01*
X140277310Y-102567753D01*
X140321020Y-102886044D01*
X140425986Y-103189693D01*
X140518446Y-103362675D01*
X140737378Y-103503017D01*
X141735395Y-102505000D01*
X140737378Y-101506983D01*
X140518446Y-101647325D01*
X140377957Y-101936259D01*
X140296535Y-102247050D01*
X140277310Y-102567753D01*
X124417000Y-102567753D01*
X124417000Y-100541840D01*
X131676979Y-100541840D01*
X131693567Y-100621461D01*
X131802925Y-100878869D01*
X131960399Y-101109996D01*
X132159938Y-101305961D01*
X132393874Y-101459232D01*
X132653217Y-101563919D01*
X132928000Y-101616000D01*
X133688000Y-101616000D01*
X133688000Y-100322000D01*
X133942000Y-100322000D01*
X133942000Y-101616000D01*
X134702000Y-101616000D01*
X134976783Y-101563919D01*
X135236126Y-101459232D01*
X135437373Y-101327378D01*
X140916983Y-101327378D01*
X141915000Y-102325395D01*
X142913017Y-101327378D01*
X142772675Y-101108446D01*
X142483741Y-100967957D01*
X142172950Y-100886535D01*
X141852247Y-100867310D01*
X141533956Y-100911020D01*
X141230307Y-101015986D01*
X141057325Y-101108446D01*
X140916983Y-101327378D01*
X135437373Y-101327378D01*
X135470062Y-101305961D01*
X135669601Y-101109996D01*
X135827075Y-100878869D01*
X135936433Y-100621461D01*
X135953021Y-100541840D01*
X135894653Y-100322000D01*
X133942000Y-100322000D01*
X133688000Y-100322000D01*
X131735347Y-100322000D01*
X131676979Y-100541840D01*
X124417000Y-100541840D01*
X124417000Y-99848160D01*
X131676979Y-99848160D01*
X131735347Y-100068000D01*
X133688000Y-100068000D01*
X133688000Y-98774000D01*
X133942000Y-98774000D01*
X133942000Y-100068000D01*
X135894653Y-100068000D01*
X135953021Y-99848160D01*
X135936433Y-99768539D01*
X135827075Y-99511131D01*
X135669601Y-99280004D01*
X135470062Y-99084039D01*
X135236126Y-98930768D01*
X134976783Y-98826081D01*
X134702000Y-98774000D01*
X133942000Y-98774000D01*
X133688000Y-98774000D01*
X132928000Y-98774000D01*
X132653217Y-98826081D01*
X132393874Y-98930768D01*
X132159938Y-99084039D01*
X131960399Y-99280004D01*
X131802925Y-99511131D01*
X131693567Y-99768539D01*
X131676979Y-99848160D01*
X124417000Y-99848160D01*
X124417000Y-96660509D01*
X137638000Y-96660509D01*
X137638000Y-97079491D01*
X137719739Y-97490423D01*
X137880077Y-97877512D01*
X138112851Y-98225884D01*
X138409116Y-98522149D01*
X138757488Y-98754923D01*
X139144577Y-98915261D01*
X139555509Y-98997000D01*
X139974491Y-98997000D01*
X140385423Y-98915261D01*
X140772512Y-98754923D01*
X141120884Y-98522149D01*
X141417149Y-98225884D01*
X141649923Y-97877512D01*
X141810261Y-97490423D01*
X141892000Y-97079491D01*
X141892000Y-96660509D01*
X141810261Y-96249577D01*
X141649923Y-95862488D01*
X141417149Y-95514116D01*
X141120884Y-95217851D01*
X140772512Y-94985077D01*
X140385423Y-94824739D01*
X139974491Y-94743000D01*
X139555509Y-94743000D01*
X139144577Y-94824739D01*
X138757488Y-94985077D01*
X138409116Y-95217851D01*
X138112851Y-95514116D01*
X137880077Y-95862488D01*
X137719739Y-96249577D01*
X137638000Y-96660509D01*
X124417000Y-96660509D01*
X124417000Y-94252606D01*
X126657606Y-92012000D01*
X133572318Y-92012000D01*
X133572157Y-92080000D01*
G04 #@! TA.AperFunction,Conductor*
D54*
G36*
X133572157Y-92080000D02*
G01*
X133579513Y-92154689D01*
X133601299Y-92226508D01*
X133636678Y-92292696D01*
X133684289Y-92350711D01*
X133742304Y-92398322D01*
X133808492Y-92433701D01*
X133880311Y-92455487D01*
X133955000Y-92462843D01*
X134882750Y-92461000D01*
X134978000Y-92365750D01*
X134978000Y-92012000D01*
X135232000Y-92012000D01*
X135232000Y-92365750D01*
X135327250Y-92461000D01*
X136255000Y-92462843D01*
X136329689Y-92455487D01*
X136401508Y-92433701D01*
X136467696Y-92398322D01*
X136525711Y-92350711D01*
X136573322Y-92292696D01*
X136608701Y-92226508D01*
X136630487Y-92154689D01*
X136637843Y-92080000D01*
X136637682Y-92012000D01*
X139438000Y-92012000D01*
X139438000Y-92079491D01*
X139519739Y-92490423D01*
X139680077Y-92877512D01*
X139912851Y-93225884D01*
X140209116Y-93522149D01*
X140557488Y-93754923D01*
X140944577Y-93915261D01*
X141355509Y-93997000D01*
X141547394Y-93997000D01*
X143098000Y-95547606D01*
X143098000Y-101510430D01*
X143092622Y-101506983D01*
X142094605Y-102505000D01*
X143078000Y-103488395D01*
X143078000Y-109107394D01*
X142827394Y-109358000D01*
X141532606Y-109358000D01*
X141135620Y-108961014D01*
X141236614Y-108964916D01*
X141485816Y-108925280D01*
X141722498Y-108837788D01*
X141810160Y-108790933D01*
X141908234Y-108607839D01*
X141160000Y-107859605D01*
X141145858Y-107873748D01*
X140966253Y-107694143D01*
X140980395Y-107680000D01*
X141339605Y-107680000D01*
X142087839Y-108428234D01*
X142270933Y-108330160D01*
X142376427Y-108100935D01*
X142435174Y-107855534D01*
X142444916Y-107603386D01*
X142405280Y-107354184D01*
X142317788Y-107117502D01*
X142270933Y-107029840D01*
X142087839Y-106931766D01*
X141339605Y-107680000D01*
X140980395Y-107680000D01*
X140232161Y-106931766D01*
X140049067Y-107029840D01*
X139943573Y-107259065D01*
X139884826Y-107504466D01*
X139877172Y-107702566D01*
X138789803Y-106615197D01*
X138770557Y-106599403D01*
X138748601Y-106587667D01*
X138724776Y-106580440D01*
X138700000Y-106578000D01*
X135140085Y-106578000D01*
X135236126Y-106539232D01*
X135470062Y-106385961D01*
X135669601Y-106189996D01*
X135676911Y-106179267D01*
X140390338Y-106179267D01*
X140500510Y-106372596D01*
X140721675Y-106476310D01*
X140597502Y-106522212D01*
X140509840Y-106569067D01*
X140411766Y-106752161D01*
X141160000Y-107500395D01*
X141908234Y-106752161D01*
X141810160Y-106569067D01*
X141642757Y-106492025D01*
X141807435Y-106432490D01*
X141919490Y-106372596D01*
X142029662Y-106179267D01*
X141210000Y-105359605D01*
X140390338Y-106179267D01*
X135676911Y-106179267D01*
X135827075Y-105958869D01*
X135936433Y-105701461D01*
X135953021Y-105621840D01*
X135894653Y-105402000D01*
X133942000Y-105402000D01*
X133942000Y-105422000D01*
X133688000Y-105422000D01*
X133688000Y-105402000D01*
X131735347Y-105402000D01*
X131676979Y-105621840D01*
X131693567Y-105701461D01*
X131802925Y-105958869D01*
X131960399Y-106189996D01*
X132159938Y-106385961D01*
X132393874Y-106539232D01*
X132489915Y-106578000D01*
X127940000Y-106578000D01*
X127915224Y-106580440D01*
X127891399Y-106587667D01*
X127869443Y-106599403D01*
X127850197Y-106615197D01*
X127834403Y-106634443D01*
X127822667Y-106656399D01*
X127815440Y-106680224D01*
X127813197Y-106703000D01*
X126867000Y-106703000D01*
X126867000Y-105525000D01*
X126864560Y-105500224D01*
X126857333Y-105476399D01*
X126845597Y-105454443D01*
X126829803Y-105435197D01*
X126647257Y-105252651D01*
X139824222Y-105252651D01*
X139865023Y-105521607D01*
X139957510Y-105777435D01*
X140017404Y-105889490D01*
X140210733Y-105999662D01*
X141030395Y-105180000D01*
X141389605Y-105180000D01*
X142209267Y-105999662D01*
X142402596Y-105889490D01*
X142518095Y-105643194D01*
X142583324Y-105379097D01*
X142595778Y-105107349D01*
X142554977Y-104838393D01*
X142462490Y-104582565D01*
X142402596Y-104470510D01*
X142209267Y-104360338D01*
X141389605Y-105180000D01*
X141030395Y-105180000D01*
X140210733Y-104360338D01*
X140017404Y-104470510D01*
X139901905Y-104716806D01*
X139836676Y-104980903D01*
X139824222Y-105252651D01*
X126647257Y-105252651D01*
X126584803Y-105190197D01*
X126565557Y-105174403D01*
X126543601Y-105162667D01*
X126519776Y-105155440D01*
X126495000Y-105153000D01*
X125990000Y-105153000D01*
X125965224Y-105155440D01*
X125941399Y-105162667D01*
X125919443Y-105174403D01*
X125900197Y-105190197D01*
X125650197Y-105440197D01*
X125634403Y-105459443D01*
X125622667Y-105481399D01*
X125615440Y-105505224D01*
X125613000Y-105530000D01*
X125613000Y-106658000D01*
X124667000Y-106658000D01*
X124667000Y-106625000D01*
X124664560Y-106600224D01*
X124657333Y-106576399D01*
X124645597Y-106554443D01*
X124629803Y-106535197D01*
X123412000Y-105317394D01*
X123412000Y-104928160D01*
X131676979Y-104928160D01*
X131735347Y-105148000D01*
X133688000Y-105148000D01*
X133688000Y-103854000D01*
X133942000Y-103854000D01*
X133942000Y-105148000D01*
X135894653Y-105148000D01*
X135953021Y-104928160D01*
X135936433Y-104848539D01*
X135827075Y-104591131D01*
X135669601Y-104360004D01*
X135487061Y-104180733D01*
X140390338Y-104180733D01*
X141210000Y-105000395D01*
X142029662Y-104180733D01*
X142005789Y-104138840D01*
X142296044Y-104098980D01*
X142599693Y-103994014D01*
X142772675Y-103901554D01*
X142913017Y-103682622D01*
X141915000Y-102684605D01*
X140916983Y-103682622D01*
X141001712Y-103814798D01*
X140868393Y-103835023D01*
X140612565Y-103927510D01*
X140500510Y-103987404D01*
X140390338Y-104180733D01*
X135487061Y-104180733D01*
X135470062Y-104164039D01*
X135236126Y-104010768D01*
X134976783Y-103906081D01*
X134702000Y-103854000D01*
X133942000Y-103854000D01*
X133688000Y-103854000D01*
X132928000Y-103854000D01*
X132653217Y-103906081D01*
X132393874Y-104010768D01*
X132159938Y-104164039D01*
X131960399Y-104360004D01*
X131802925Y-104591131D01*
X131693567Y-104848539D01*
X131676979Y-104928160D01*
X123412000Y-104928160D01*
X123412000Y-104887606D01*
X124379803Y-103919803D01*
X124395597Y-103900557D01*
X124407333Y-103878601D01*
X124414560Y-103854776D01*
X124417000Y-103830000D01*
X124417000Y-102567753D01*
X140277310Y-102567753D01*
X140321020Y-102886044D01*
X140425986Y-103189693D01*
X140518446Y-103362675D01*
X140737378Y-103503017D01*
X141735395Y-102505000D01*
X140737378Y-101506983D01*
X140518446Y-101647325D01*
X140377957Y-101936259D01*
X140296535Y-102247050D01*
X140277310Y-102567753D01*
X124417000Y-102567753D01*
X124417000Y-100541840D01*
X131676979Y-100541840D01*
X131693567Y-100621461D01*
X131802925Y-100878869D01*
X131960399Y-101109996D01*
X132159938Y-101305961D01*
X132393874Y-101459232D01*
X132653217Y-101563919D01*
X132928000Y-101616000D01*
X133688000Y-101616000D01*
X133688000Y-100322000D01*
X133942000Y-100322000D01*
X133942000Y-101616000D01*
X134702000Y-101616000D01*
X134976783Y-101563919D01*
X135236126Y-101459232D01*
X135437373Y-101327378D01*
X140916983Y-101327378D01*
X141915000Y-102325395D01*
X142913017Y-101327378D01*
X142772675Y-101108446D01*
X142483741Y-100967957D01*
X142172950Y-100886535D01*
X141852247Y-100867310D01*
X141533956Y-100911020D01*
X141230307Y-101015986D01*
X141057325Y-101108446D01*
X140916983Y-101327378D01*
X135437373Y-101327378D01*
X135470062Y-101305961D01*
X135669601Y-101109996D01*
X135827075Y-100878869D01*
X135936433Y-100621461D01*
X135953021Y-100541840D01*
X135894653Y-100322000D01*
X133942000Y-100322000D01*
X133688000Y-100322000D01*
X131735347Y-100322000D01*
X131676979Y-100541840D01*
X124417000Y-100541840D01*
X124417000Y-99848160D01*
X131676979Y-99848160D01*
X131735347Y-100068000D01*
X133688000Y-100068000D01*
X133688000Y-98774000D01*
X133942000Y-98774000D01*
X133942000Y-100068000D01*
X135894653Y-100068000D01*
X135953021Y-99848160D01*
X135936433Y-99768539D01*
X135827075Y-99511131D01*
X135669601Y-99280004D01*
X135470062Y-99084039D01*
X135236126Y-98930768D01*
X134976783Y-98826081D01*
X134702000Y-98774000D01*
X133942000Y-98774000D01*
X133688000Y-98774000D01*
X132928000Y-98774000D01*
X132653217Y-98826081D01*
X132393874Y-98930768D01*
X132159938Y-99084039D01*
X131960399Y-99280004D01*
X131802925Y-99511131D01*
X131693567Y-99768539D01*
X131676979Y-99848160D01*
X124417000Y-99848160D01*
X124417000Y-96660509D01*
X137638000Y-96660509D01*
X137638000Y-97079491D01*
X137719739Y-97490423D01*
X137880077Y-97877512D01*
X138112851Y-98225884D01*
X138409116Y-98522149D01*
X138757488Y-98754923D01*
X139144577Y-98915261D01*
X139555509Y-98997000D01*
X139974491Y-98997000D01*
X140385423Y-98915261D01*
X140772512Y-98754923D01*
X141120884Y-98522149D01*
X141417149Y-98225884D01*
X141649923Y-97877512D01*
X141810261Y-97490423D01*
X141892000Y-97079491D01*
X141892000Y-96660509D01*
X141810261Y-96249577D01*
X141649923Y-95862488D01*
X141417149Y-95514116D01*
X141120884Y-95217851D01*
X140772512Y-94985077D01*
X140385423Y-94824739D01*
X139974491Y-94743000D01*
X139555509Y-94743000D01*
X139144577Y-94824739D01*
X138757488Y-94985077D01*
X138409116Y-95217851D01*
X138112851Y-95514116D01*
X137880077Y-95862488D01*
X137719739Y-96249577D01*
X137638000Y-96660509D01*
X124417000Y-96660509D01*
X124417000Y-94252606D01*
X126657606Y-92012000D01*
X133572318Y-92012000D01*
X133572157Y-92080000D01*
G37*
G04 #@! TD.AperFunction*
D53*
X128853000Y-116197606D02*
X128853000Y-125877394D01*
X128646394Y-126084000D01*
X127944338Y-126084000D01*
X127948869Y-126082075D01*
X128179996Y-125924601D01*
X128375961Y-125725062D01*
X128529232Y-125491126D01*
X128633919Y-125231783D01*
X128686000Y-124957000D01*
X128686000Y-124197000D01*
X127392000Y-124197000D01*
X127392000Y-124217000D01*
X127138000Y-124217000D01*
X127138000Y-124197000D01*
X125844000Y-124197000D01*
X125844000Y-124957000D01*
X125896081Y-125231783D01*
X126000768Y-125491126D01*
X126154039Y-125725062D01*
X126350004Y-125924601D01*
X126581131Y-126082075D01*
X126585662Y-126084000D01*
X122864338Y-126084000D01*
X122868869Y-126082075D01*
X123099996Y-125924601D01*
X123295961Y-125725062D01*
X123449232Y-125491126D01*
X123553919Y-125231783D01*
X123606000Y-124957000D01*
X123606000Y-124197000D01*
X122312000Y-124197000D01*
X122312000Y-124217000D01*
X122058000Y-124217000D01*
X122058000Y-124197000D01*
X120764000Y-124197000D01*
X120764000Y-124957000D01*
X120816081Y-125231783D01*
X120920768Y-125491126D01*
X121074039Y-125725062D01*
X121270004Y-125924601D01*
X121501131Y-126082075D01*
X121505662Y-126084000D01*
X118727000Y-126084000D01*
X118727000Y-123183000D01*
X120764000Y-123183000D01*
X120764000Y-123943000D01*
X122058000Y-123943000D01*
X122058000Y-121990347D01*
X122312000Y-121990347D01*
X122312000Y-123943000D01*
X123606000Y-123943000D01*
X123606000Y-123183000D01*
X125844000Y-123183000D01*
X125844000Y-123943000D01*
X127138000Y-123943000D01*
X127138000Y-121990347D01*
X127392000Y-121990347D01*
X127392000Y-123943000D01*
X128686000Y-123943000D01*
X128686000Y-123183000D01*
X128633919Y-122908217D01*
X128529232Y-122648874D01*
X128375961Y-122414938D01*
X128179996Y-122215399D01*
X127948869Y-122057925D01*
X127691461Y-121948567D01*
X127611840Y-121931979D01*
X127392000Y-121990347D01*
X127138000Y-121990347D01*
X126918160Y-121931979D01*
X126838539Y-121948567D01*
X126581131Y-122057925D01*
X126350004Y-122215399D01*
X126154039Y-122414938D01*
X126000768Y-122648874D01*
X125896081Y-122908217D01*
X125844000Y-123183000D01*
X123606000Y-123183000D01*
X123553919Y-122908217D01*
X123449232Y-122648874D01*
X123295961Y-122414938D01*
X123099996Y-122215399D01*
X122868869Y-122057925D01*
X122611461Y-121948567D01*
X122531840Y-121931979D01*
X122312000Y-121990347D01*
X122058000Y-121990347D01*
X121838160Y-121931979D01*
X121758539Y-121948567D01*
X121501131Y-122057925D01*
X121270004Y-122215399D01*
X121074039Y-122414938D01*
X120920768Y-122648874D01*
X120816081Y-122908217D01*
X120764000Y-123183000D01*
X118727000Y-123183000D01*
X118727000Y-120790000D01*
X120762157Y-120790000D01*
X120769513Y-120864689D01*
X120791299Y-120936508D01*
X120826678Y-121002696D01*
X120874289Y-121060711D01*
X120932304Y-121108322D01*
X120998492Y-121143701D01*
X121070311Y-121165487D01*
X121145000Y-121172843D01*
X121962750Y-121171000D01*
X122058000Y-121075750D01*
X122058000Y-119117000D01*
X122312000Y-119117000D01*
X122312000Y-121075750D01*
X122407250Y-121171000D01*
X123225000Y-121172843D01*
X123299689Y-121165487D01*
X123371508Y-121143701D01*
X123437696Y-121108322D01*
X123495711Y-121060711D01*
X123543322Y-121002696D01*
X123578701Y-120936508D01*
X123600487Y-120864689D01*
X123607843Y-120790000D01*
X123606000Y-119212250D01*
X123510750Y-119117000D01*
X125844000Y-119117000D01*
X125844000Y-119877000D01*
X125896081Y-120151783D01*
X126000768Y-120411126D01*
X126154039Y-120645062D01*
X126350004Y-120844601D01*
X126581131Y-121002075D01*
X126838539Y-121111433D01*
X126918160Y-121128021D01*
X127138000Y-121069653D01*
X127138000Y-119117000D01*
X127392000Y-119117000D01*
X127392000Y-121069653D01*
X127611840Y-121128021D01*
X127691461Y-121111433D01*
X127948869Y-121002075D01*
X128179996Y-120844601D01*
X128375961Y-120645062D01*
X128529232Y-120411126D01*
X128633919Y-120151783D01*
X128686000Y-119877000D01*
X128686000Y-119117000D01*
X127392000Y-119117000D01*
X127138000Y-119117000D01*
X125844000Y-119117000D01*
X123510750Y-119117000D01*
X122312000Y-119117000D01*
X122058000Y-119117000D01*
X120859250Y-119117000D01*
X120764000Y-119212250D01*
X120762157Y-120790000D01*
X118727000Y-120790000D01*
X118727000Y-117190000D01*
X120762157Y-117190000D01*
X120764000Y-118767750D01*
X120859250Y-118863000D01*
X122058000Y-118863000D01*
X122058000Y-116904250D01*
X122312000Y-116904250D01*
X122312000Y-118863000D01*
X123510750Y-118863000D01*
X123606000Y-118767750D01*
X123606776Y-118103000D01*
X125844000Y-118103000D01*
X125844000Y-118863000D01*
X127138000Y-118863000D01*
X127138000Y-116910347D01*
X127392000Y-116910347D01*
X127392000Y-118863000D01*
X128686000Y-118863000D01*
X128686000Y-118103000D01*
X128633919Y-117828217D01*
X128529232Y-117568874D01*
X128375961Y-117334938D01*
X128179996Y-117135399D01*
X127948869Y-116977925D01*
X127691461Y-116868567D01*
X127611840Y-116851979D01*
X127392000Y-116910347D01*
X127138000Y-116910347D01*
X126918160Y-116851979D01*
X126838539Y-116868567D01*
X126581131Y-116977925D01*
X126350004Y-117135399D01*
X126154039Y-117334938D01*
X126000768Y-117568874D01*
X125896081Y-117828217D01*
X125844000Y-118103000D01*
X123606776Y-118103000D01*
X123607843Y-117190000D01*
X123600487Y-117115311D01*
X123578701Y-117043492D01*
X123543322Y-116977304D01*
X123495711Y-116919289D01*
X123437696Y-116871678D01*
X123371508Y-116836299D01*
X123299689Y-116814513D01*
X123225000Y-116807157D01*
X122407250Y-116809000D01*
X122312000Y-116904250D01*
X122058000Y-116904250D01*
X121962750Y-116809000D01*
X121145000Y-116807157D01*
X121070311Y-116814513D01*
X120998492Y-116836299D01*
X120932304Y-116871678D01*
X120874289Y-116919289D01*
X120826678Y-116977304D01*
X120791299Y-117043492D01*
X120769513Y-117115311D01*
X120762157Y-117190000D01*
X118727000Y-117190000D01*
X118727000Y-117082606D01*
X119371660Y-116437946D01*
X119403544Y-116416642D01*
X119512327Y-116307859D01*
X119533631Y-116275975D01*
X119947606Y-115862000D01*
X123880000Y-115862000D01*
X123904776Y-115859560D01*
X123928601Y-115852333D01*
X123950557Y-115840597D01*
X123969803Y-115824803D01*
X124592606Y-115202000D01*
X125571281Y-115202000D01*
X125586299Y-115251508D01*
X125621678Y-115317696D01*
X125623000Y-115319307D01*
X125623000Y-116285000D01*
X125625440Y-116309776D01*
X125632667Y-116333601D01*
X125644403Y-116355557D01*
X125660197Y-116374803D01*
X125870197Y-116584803D01*
X125889443Y-116600597D01*
X125911399Y-116612333D01*
X125935224Y-116619560D01*
X125960000Y-116622000D01*
X126540000Y-116622000D01*
X126564776Y-116619560D01*
X126588601Y-116612333D01*
X126610557Y-116600597D01*
X126629803Y-116584803D01*
X126829803Y-116384803D01*
X126845597Y-116365557D01*
X126857333Y-116343601D01*
X126864560Y-116319776D01*
X126867000Y-116295000D01*
X126867000Y-115301461D01*
X126893701Y-115251508D01*
X126915487Y-115179689D01*
X126917229Y-115162000D01*
X127817394Y-115162000D01*
X128853000Y-116197606D01*
G04 #@! TA.AperFunction,Conductor*
D54*
G36*
X128853000Y-116197606D02*
G01*
X128853000Y-125877394D01*
X128646394Y-126084000D01*
X127944338Y-126084000D01*
X127948869Y-126082075D01*
X128179996Y-125924601D01*
X128375961Y-125725062D01*
X128529232Y-125491126D01*
X128633919Y-125231783D01*
X128686000Y-124957000D01*
X128686000Y-124197000D01*
X127392000Y-124197000D01*
X127392000Y-124217000D01*
X127138000Y-124217000D01*
X127138000Y-124197000D01*
X125844000Y-124197000D01*
X125844000Y-124957000D01*
X125896081Y-125231783D01*
X126000768Y-125491126D01*
X126154039Y-125725062D01*
X126350004Y-125924601D01*
X126581131Y-126082075D01*
X126585662Y-126084000D01*
X122864338Y-126084000D01*
X122868869Y-126082075D01*
X123099996Y-125924601D01*
X123295961Y-125725062D01*
X123449232Y-125491126D01*
X123553919Y-125231783D01*
X123606000Y-124957000D01*
X123606000Y-124197000D01*
X122312000Y-124197000D01*
X122312000Y-124217000D01*
X122058000Y-124217000D01*
X122058000Y-124197000D01*
X120764000Y-124197000D01*
X120764000Y-124957000D01*
X120816081Y-125231783D01*
X120920768Y-125491126D01*
X121074039Y-125725062D01*
X121270004Y-125924601D01*
X121501131Y-126082075D01*
X121505662Y-126084000D01*
X118727000Y-126084000D01*
X118727000Y-123183000D01*
X120764000Y-123183000D01*
X120764000Y-123943000D01*
X122058000Y-123943000D01*
X122058000Y-121990347D01*
X122312000Y-121990347D01*
X122312000Y-123943000D01*
X123606000Y-123943000D01*
X123606000Y-123183000D01*
X125844000Y-123183000D01*
X125844000Y-123943000D01*
X127138000Y-123943000D01*
X127138000Y-121990347D01*
X127392000Y-121990347D01*
X127392000Y-123943000D01*
X128686000Y-123943000D01*
X128686000Y-123183000D01*
X128633919Y-122908217D01*
X128529232Y-122648874D01*
X128375961Y-122414938D01*
X128179996Y-122215399D01*
X127948869Y-122057925D01*
X127691461Y-121948567D01*
X127611840Y-121931979D01*
X127392000Y-121990347D01*
X127138000Y-121990347D01*
X126918160Y-121931979D01*
X126838539Y-121948567D01*
X126581131Y-122057925D01*
X126350004Y-122215399D01*
X126154039Y-122414938D01*
X126000768Y-122648874D01*
X125896081Y-122908217D01*
X125844000Y-123183000D01*
X123606000Y-123183000D01*
X123553919Y-122908217D01*
X123449232Y-122648874D01*
X123295961Y-122414938D01*
X123099996Y-122215399D01*
X122868869Y-122057925D01*
X122611461Y-121948567D01*
X122531840Y-121931979D01*
X122312000Y-121990347D01*
X122058000Y-121990347D01*
X121838160Y-121931979D01*
X121758539Y-121948567D01*
X121501131Y-122057925D01*
X121270004Y-122215399D01*
X121074039Y-122414938D01*
X120920768Y-122648874D01*
X120816081Y-122908217D01*
X120764000Y-123183000D01*
X118727000Y-123183000D01*
X118727000Y-120790000D01*
X120762157Y-120790000D01*
X120769513Y-120864689D01*
X120791299Y-120936508D01*
X120826678Y-121002696D01*
X120874289Y-121060711D01*
X120932304Y-121108322D01*
X120998492Y-121143701D01*
X121070311Y-121165487D01*
X121145000Y-121172843D01*
X121962750Y-121171000D01*
X122058000Y-121075750D01*
X122058000Y-119117000D01*
X122312000Y-119117000D01*
X122312000Y-121075750D01*
X122407250Y-121171000D01*
X123225000Y-121172843D01*
X123299689Y-121165487D01*
X123371508Y-121143701D01*
X123437696Y-121108322D01*
X123495711Y-121060711D01*
X123543322Y-121002696D01*
X123578701Y-120936508D01*
X123600487Y-120864689D01*
X123607843Y-120790000D01*
X123606000Y-119212250D01*
X123510750Y-119117000D01*
X125844000Y-119117000D01*
X125844000Y-119877000D01*
X125896081Y-120151783D01*
X126000768Y-120411126D01*
X126154039Y-120645062D01*
X126350004Y-120844601D01*
X126581131Y-121002075D01*
X126838539Y-121111433D01*
X126918160Y-121128021D01*
X127138000Y-121069653D01*
X127138000Y-119117000D01*
X127392000Y-119117000D01*
X127392000Y-121069653D01*
X127611840Y-121128021D01*
X127691461Y-121111433D01*
X127948869Y-121002075D01*
X128179996Y-120844601D01*
X128375961Y-120645062D01*
X128529232Y-120411126D01*
X128633919Y-120151783D01*
X128686000Y-119877000D01*
X128686000Y-119117000D01*
X127392000Y-119117000D01*
X127138000Y-119117000D01*
X125844000Y-119117000D01*
X123510750Y-119117000D01*
X122312000Y-119117000D01*
X122058000Y-119117000D01*
X120859250Y-119117000D01*
X120764000Y-119212250D01*
X120762157Y-120790000D01*
X118727000Y-120790000D01*
X118727000Y-117190000D01*
X120762157Y-117190000D01*
X120764000Y-118767750D01*
X120859250Y-118863000D01*
X122058000Y-118863000D01*
X122058000Y-116904250D01*
X122312000Y-116904250D01*
X122312000Y-118863000D01*
X123510750Y-118863000D01*
X123606000Y-118767750D01*
X123606776Y-118103000D01*
X125844000Y-118103000D01*
X125844000Y-118863000D01*
X127138000Y-118863000D01*
X127138000Y-116910347D01*
X127392000Y-116910347D01*
X127392000Y-118863000D01*
X128686000Y-118863000D01*
X128686000Y-118103000D01*
X128633919Y-117828217D01*
X128529232Y-117568874D01*
X128375961Y-117334938D01*
X128179996Y-117135399D01*
X127948869Y-116977925D01*
X127691461Y-116868567D01*
X127611840Y-116851979D01*
X127392000Y-116910347D01*
X127138000Y-116910347D01*
X126918160Y-116851979D01*
X126838539Y-116868567D01*
X126581131Y-116977925D01*
X126350004Y-117135399D01*
X126154039Y-117334938D01*
X126000768Y-117568874D01*
X125896081Y-117828217D01*
X125844000Y-118103000D01*
X123606776Y-118103000D01*
X123607843Y-117190000D01*
X123600487Y-117115311D01*
X123578701Y-117043492D01*
X123543322Y-116977304D01*
X123495711Y-116919289D01*
X123437696Y-116871678D01*
X123371508Y-116836299D01*
X123299689Y-116814513D01*
X123225000Y-116807157D01*
X122407250Y-116809000D01*
X122312000Y-116904250D01*
X122058000Y-116904250D01*
X121962750Y-116809000D01*
X121145000Y-116807157D01*
X121070311Y-116814513D01*
X120998492Y-116836299D01*
X120932304Y-116871678D01*
X120874289Y-116919289D01*
X120826678Y-116977304D01*
X120791299Y-117043492D01*
X120769513Y-117115311D01*
X120762157Y-117190000D01*
X118727000Y-117190000D01*
X118727000Y-117082606D01*
X119371660Y-116437946D01*
X119403544Y-116416642D01*
X119512327Y-116307859D01*
X119533631Y-116275975D01*
X119947606Y-115862000D01*
X123880000Y-115862000D01*
X123904776Y-115859560D01*
X123928601Y-115852333D01*
X123950557Y-115840597D01*
X123969803Y-115824803D01*
X124592606Y-115202000D01*
X125571281Y-115202000D01*
X125586299Y-115251508D01*
X125621678Y-115317696D01*
X125623000Y-115319307D01*
X125623000Y-116285000D01*
X125625440Y-116309776D01*
X125632667Y-116333601D01*
X125644403Y-116355557D01*
X125660197Y-116374803D01*
X125870197Y-116584803D01*
X125889443Y-116600597D01*
X125911399Y-116612333D01*
X125935224Y-116619560D01*
X125960000Y-116622000D01*
X126540000Y-116622000D01*
X126564776Y-116619560D01*
X126588601Y-116612333D01*
X126610557Y-116600597D01*
X126629803Y-116584803D01*
X126829803Y-116384803D01*
X126845597Y-116365557D01*
X126857333Y-116343601D01*
X126864560Y-116319776D01*
X126867000Y-116295000D01*
X126867000Y-115301461D01*
X126893701Y-115251508D01*
X126915487Y-115179689D01*
X126917229Y-115162000D01*
X127817394Y-115162000D01*
X128853000Y-116197606D01*
G37*
G04 #@! TD.AperFunction*
D53*
X105659504Y-90553463D02*
X105584556Y-90845583D01*
X105568039Y-91146711D01*
X105610586Y-91445275D01*
X105710562Y-91729802D01*
X105790001Y-91878422D01*
X105998690Y-92006705D01*
X106925395Y-91080000D01*
X106911253Y-91065858D01*
X107090858Y-90886253D01*
X107105000Y-90900395D01*
X107119143Y-90886253D01*
X107298748Y-91065858D01*
X107284605Y-91080000D01*
X108211310Y-92006705D01*
X108419999Y-91878422D01*
X108550496Y-91606537D01*
X108625444Y-91314417D01*
X108641961Y-91013289D01*
X108599414Y-90714725D01*
X108499438Y-90430198D01*
X108497729Y-90427000D01*
X120341097Y-90427000D01*
X123426174Y-94073000D01*
X103516857Y-94073000D01*
X103397325Y-92638623D01*
X103849638Y-92186310D01*
X106178295Y-92186310D01*
X106306578Y-92394999D01*
X106578463Y-92525496D01*
X106870583Y-92600444D01*
X107171711Y-92616961D01*
X107470275Y-92574414D01*
X107754802Y-92474438D01*
X107903422Y-92394999D01*
X108031705Y-92186310D01*
X107105000Y-91259605D01*
X106178295Y-92186310D01*
X103849638Y-92186310D01*
X105608948Y-90427000D01*
X105720203Y-90427000D01*
X105659504Y-90553463D01*
G04 #@! TA.AperFunction,Conductor*
D54*
G36*
X105659504Y-90553463D02*
G01*
X105584556Y-90845583D01*
X105568039Y-91146711D01*
X105610586Y-91445275D01*
X105710562Y-91729802D01*
X105790001Y-91878422D01*
X105998690Y-92006705D01*
X106925395Y-91080000D01*
X106911253Y-91065858D01*
X107090858Y-90886253D01*
X107105000Y-90900395D01*
X107119143Y-90886253D01*
X107298748Y-91065858D01*
X107284605Y-91080000D01*
X108211310Y-92006705D01*
X108419999Y-91878422D01*
X108550496Y-91606537D01*
X108625444Y-91314417D01*
X108641961Y-91013289D01*
X108599414Y-90714725D01*
X108499438Y-90430198D01*
X108497729Y-90427000D01*
X120341097Y-90427000D01*
X123426174Y-94073000D01*
X103516857Y-94073000D01*
X103397325Y-92638623D01*
X103849638Y-92186310D01*
X106178295Y-92186310D01*
X106306578Y-92394999D01*
X106578463Y-92525496D01*
X106870583Y-92600444D01*
X107171711Y-92616961D01*
X107470275Y-92574414D01*
X107754802Y-92474438D01*
X107903422Y-92394999D01*
X108031705Y-92186310D01*
X107105000Y-91259605D01*
X106178295Y-92186310D01*
X103849638Y-92186310D01*
X105608948Y-90427000D01*
X105720203Y-90427000D01*
X105659504Y-90553463D01*
G37*
G04 #@! TD.AperFunction*
D53*
X133574000Y-90857750D02*
X133669250Y-90953000D01*
X134978000Y-90953000D01*
X134978000Y-90933000D01*
X135232000Y-90933000D01*
X135232000Y-90953000D01*
X136540750Y-90953000D01*
X136636000Y-90857750D01*
X136637021Y-90427000D01*
X138241271Y-90427000D01*
X139438000Y-91834916D01*
X139438000Y-92079491D01*
X139519739Y-92490423D01*
X139680077Y-92877512D01*
X139912851Y-93225884D01*
X140209116Y-93522149D01*
X140557488Y-93754923D01*
X140944577Y-93915261D01*
X141259546Y-93977912D01*
X141425371Y-94173000D01*
X124564239Y-94173000D01*
X126238639Y-92080000D01*
X133572157Y-92080000D01*
X133579513Y-92154689D01*
X133601299Y-92226508D01*
X133636678Y-92292696D01*
X133684289Y-92350711D01*
X133742304Y-92398322D01*
X133808492Y-92433701D01*
X133880311Y-92455487D01*
X133955000Y-92462843D01*
X134882750Y-92461000D01*
X134978000Y-92365750D01*
X134978000Y-91207000D01*
X135232000Y-91207000D01*
X135232000Y-92365750D01*
X135327250Y-92461000D01*
X136255000Y-92462843D01*
X136329689Y-92455487D01*
X136401508Y-92433701D01*
X136467696Y-92398322D01*
X136525711Y-92350711D01*
X136573322Y-92292696D01*
X136608701Y-92226508D01*
X136630487Y-92154689D01*
X136637843Y-92080000D01*
X136636000Y-91302250D01*
X136540750Y-91207000D01*
X135232000Y-91207000D01*
X134978000Y-91207000D01*
X133669250Y-91207000D01*
X133574000Y-91302250D01*
X133572157Y-92080000D01*
X126238639Y-92080000D01*
X127561039Y-90427000D01*
X133572979Y-90427000D01*
X133574000Y-90857750D01*
G04 #@! TA.AperFunction,Conductor*
D54*
G36*
X133574000Y-90857750D02*
G01*
X133669250Y-90953000D01*
X134978000Y-90953000D01*
X134978000Y-90933000D01*
X135232000Y-90933000D01*
X135232000Y-90953000D01*
X136540750Y-90953000D01*
X136636000Y-90857750D01*
X136637021Y-90427000D01*
X138241271Y-90427000D01*
X139438000Y-91834916D01*
X139438000Y-92079491D01*
X139519739Y-92490423D01*
X139680077Y-92877512D01*
X139912851Y-93225884D01*
X140209116Y-93522149D01*
X140557488Y-93754923D01*
X140944577Y-93915261D01*
X141259546Y-93977912D01*
X141425371Y-94173000D01*
X124564239Y-94173000D01*
X126238639Y-92080000D01*
X133572157Y-92080000D01*
X133579513Y-92154689D01*
X133601299Y-92226508D01*
X133636678Y-92292696D01*
X133684289Y-92350711D01*
X133742304Y-92398322D01*
X133808492Y-92433701D01*
X133880311Y-92455487D01*
X133955000Y-92462843D01*
X134882750Y-92461000D01*
X134978000Y-92365750D01*
X134978000Y-91207000D01*
X135232000Y-91207000D01*
X135232000Y-92365750D01*
X135327250Y-92461000D01*
X136255000Y-92462843D01*
X136329689Y-92455487D01*
X136401508Y-92433701D01*
X136467696Y-92398322D01*
X136525711Y-92350711D01*
X136573322Y-92292696D01*
X136608701Y-92226508D01*
X136630487Y-92154689D01*
X136637843Y-92080000D01*
X136636000Y-91302250D01*
X136540750Y-91207000D01*
X135232000Y-91207000D01*
X134978000Y-91207000D01*
X133669250Y-91207000D01*
X133574000Y-91302250D01*
X133572157Y-92080000D01*
X126238639Y-92080000D01*
X127561039Y-90427000D01*
X133572979Y-90427000D01*
X133574000Y-90857750D01*
G37*
G04 #@! TD.AperFunction*
M02*
