G04 #@! TF.GenerationSoftware,KiCad,Pcbnew,(5.1.9)-1*
G04 #@! TF.CreationDate,2022-09-19T13:39:08+02:00*
G04 #@! TF.ProjectId,Zusatzplatine,5a757361-747a-4706-9c61-74696e652e6b,1.0*
G04 #@! TF.SameCoordinates,Original*
G04 #@! TF.FileFunction,Paste,Top*
G04 #@! TF.FilePolarity,Positive*
%FSLAX46Y46*%
G04 Gerber Fmt 4.6, Leading zero omitted, Abs format (unit mm)*
G04 Created by KiCad (PCBNEW (5.1.9)-1) date 2022-09-19 13:39:08*
%MOMM*%
%LPD*%
G01*
G04 APERTURE LIST*
%ADD10C,1.000000*%
%ADD11R,1.000000X1.250000*%
%ADD12R,1.250000X1.000000*%
%ADD13R,5.175000X1.600000*%
%ADD14R,0.250000X0.500000*%
%ADD15R,1.000000X1.000000*%
%ADD16R,0.304800X0.812800*%
%ADD17R,0.812800X0.304800*%
%ADD18R,3.302000X3.302000*%
%ADD19R,1.500000X0.600000*%
%ADD20R,1.500000X1.780000*%
%ADD21R,1.000000X1.600000*%
%ADD22C,0.200000*%
%ADD23R,0.600000X3.400000*%
%ADD24R,1.200000X3.400000*%
G04 APERTURE END LIST*
D10*
X68580000Y-109220000D03*
X123444000Y-79248000D03*
X68580000Y-79248000D03*
G36*
G01*
X89200002Y-99350000D02*
X88299998Y-99350000D01*
G75*
G02*
X88050000Y-99100002I0J249998D01*
G01*
X88050000Y-98574998D01*
G75*
G02*
X88299998Y-98325000I249998J0D01*
G01*
X89200002Y-98325000D01*
G75*
G02*
X89450000Y-98574998I0J-249998D01*
G01*
X89450000Y-99100002D01*
G75*
G02*
X89200002Y-99350000I-249998J0D01*
G01*
G37*
G36*
G01*
X89200002Y-101175000D02*
X88299998Y-101175000D01*
G75*
G02*
X88050000Y-100925002I0J249998D01*
G01*
X88050000Y-100399998D01*
G75*
G02*
X88299998Y-100150000I249998J0D01*
G01*
X89200002Y-100150000D01*
G75*
G02*
X89450000Y-100399998I0J-249998D01*
G01*
X89450000Y-100925002D01*
G75*
G02*
X89200002Y-101175000I-249998J0D01*
G01*
G37*
G36*
G01*
X89850000Y-108475000D02*
X89850000Y-107525000D01*
G75*
G02*
X90100000Y-107275000I250000J0D01*
G01*
X90600000Y-107275000D01*
G75*
G02*
X90850000Y-107525000I0J-250000D01*
G01*
X90850000Y-108475000D01*
G75*
G02*
X90600000Y-108725000I-250000J0D01*
G01*
X90100000Y-108725000D01*
G75*
G02*
X89850000Y-108475000I0J250000D01*
G01*
G37*
G36*
G01*
X87950000Y-108475000D02*
X87950000Y-107525000D01*
G75*
G02*
X88200000Y-107275000I250000J0D01*
G01*
X88700000Y-107275000D01*
G75*
G02*
X88950000Y-107525000I0J-250000D01*
G01*
X88950000Y-108475000D01*
G75*
G02*
X88700000Y-108725000I-250000J0D01*
G01*
X88200000Y-108725000D01*
G75*
G02*
X87950000Y-108475000I0J250000D01*
G01*
G37*
G36*
G01*
X88950000Y-102725000D02*
X88950000Y-103675000D01*
G75*
G02*
X88700000Y-103925000I-250000J0D01*
G01*
X88200000Y-103925000D01*
G75*
G02*
X87950000Y-103675000I0J250000D01*
G01*
X87950000Y-102725000D01*
G75*
G02*
X88200000Y-102475000I250000J0D01*
G01*
X88700000Y-102475000D01*
G75*
G02*
X88950000Y-102725000I0J-250000D01*
G01*
G37*
G36*
G01*
X90850000Y-102725000D02*
X90850000Y-103675000D01*
G75*
G02*
X90600000Y-103925000I-250000J0D01*
G01*
X90100000Y-103925000D01*
G75*
G02*
X89850000Y-103675000I0J250000D01*
G01*
X89850000Y-102725000D01*
G75*
G02*
X90100000Y-102475000I250000J0D01*
G01*
X90600000Y-102475000D01*
G75*
G02*
X90850000Y-102725000I0J-250000D01*
G01*
G37*
G36*
G01*
X89000000Y-105049998D02*
X89000000Y-105950002D01*
G75*
G02*
X88750002Y-106200000I-249998J0D01*
G01*
X88224998Y-106200000D01*
G75*
G02*
X87975000Y-105950002I0J249998D01*
G01*
X87975000Y-105049998D01*
G75*
G02*
X88224998Y-104800000I249998J0D01*
G01*
X88750002Y-104800000D01*
G75*
G02*
X89000000Y-105049998I0J-249998D01*
G01*
G37*
G36*
G01*
X90825000Y-105049998D02*
X90825000Y-105950002D01*
G75*
G02*
X90575002Y-106200000I-249998J0D01*
G01*
X90049998Y-106200000D01*
G75*
G02*
X89800000Y-105950002I0J249998D01*
G01*
X89800000Y-105049998D01*
G75*
G02*
X90049998Y-104800000I249998J0D01*
G01*
X90575002Y-104800000D01*
G75*
G02*
X90825000Y-105049998I0J-249998D01*
G01*
G37*
D11*
X90400000Y-111300000D03*
X88400000Y-111300000D03*
X86000000Y-93500000D03*
X84000000Y-93500000D03*
D12*
X85840000Y-83095000D03*
X85840000Y-85095000D03*
D13*
X107355000Y-97615000D03*
X118430000Y-97615000D03*
D14*
X113190000Y-105225000D03*
D15*
X113190000Y-107305000D03*
G36*
G01*
X88216250Y-80590000D02*
X87303750Y-80590000D01*
G75*
G02*
X87060000Y-80346250I0J243750D01*
G01*
X87060000Y-79858750D01*
G75*
G02*
X87303750Y-79615000I243750J0D01*
G01*
X88216250Y-79615000D01*
G75*
G02*
X88460000Y-79858750I0J-243750D01*
G01*
X88460000Y-80346250D01*
G75*
G02*
X88216250Y-80590000I-243750J0D01*
G01*
G37*
G36*
G01*
X88216250Y-82465000D02*
X87303750Y-82465000D01*
G75*
G02*
X87060000Y-82221250I0J243750D01*
G01*
X87060000Y-81733750D01*
G75*
G02*
X87303750Y-81490000I243750J0D01*
G01*
X88216250Y-81490000D01*
G75*
G02*
X88460000Y-81733750I0J-243750D01*
G01*
X88460000Y-82221250D01*
G75*
G02*
X88216250Y-82465000I-243750J0D01*
G01*
G37*
G36*
G01*
X138848750Y-109152500D02*
X139761250Y-109152500D01*
G75*
G02*
X140005000Y-109396250I0J-243750D01*
G01*
X140005000Y-109883750D01*
G75*
G02*
X139761250Y-110127500I-243750J0D01*
G01*
X138848750Y-110127500D01*
G75*
G02*
X138605000Y-109883750I0J243750D01*
G01*
X138605000Y-109396250D01*
G75*
G02*
X138848750Y-109152500I243750J0D01*
G01*
G37*
G36*
G01*
X138848750Y-111027500D02*
X139761250Y-111027500D01*
G75*
G02*
X140005000Y-111271250I0J-243750D01*
G01*
X140005000Y-111758750D01*
G75*
G02*
X139761250Y-112002500I-243750J0D01*
G01*
X138848750Y-112002500D01*
G75*
G02*
X138605000Y-111758750I0J243750D01*
G01*
X138605000Y-111271250D01*
G75*
G02*
X138848750Y-111027500I243750J0D01*
G01*
G37*
G36*
G01*
X141508750Y-112700000D02*
X142421250Y-112700000D01*
G75*
G02*
X142665000Y-112943750I0J-243750D01*
G01*
X142665000Y-113431250D01*
G75*
G02*
X142421250Y-113675000I-243750J0D01*
G01*
X141508750Y-113675000D01*
G75*
G02*
X141265000Y-113431250I0J243750D01*
G01*
X141265000Y-112943750D01*
G75*
G02*
X141508750Y-112700000I243750J0D01*
G01*
G37*
G36*
G01*
X141508750Y-110825000D02*
X142421250Y-110825000D01*
G75*
G02*
X142665000Y-111068750I0J-243750D01*
G01*
X142665000Y-111556250D01*
G75*
G02*
X142421250Y-111800000I-243750J0D01*
G01*
X141508750Y-111800000D01*
G75*
G02*
X141265000Y-111556250I0J243750D01*
G01*
X141265000Y-111068750D01*
G75*
G02*
X141508750Y-110825000I243750J0D01*
G01*
G37*
D16*
X110685000Y-110120300D03*
X111184999Y-110120300D03*
X111685001Y-110120300D03*
X112185000Y-110120300D03*
X112684999Y-110120300D03*
X113185001Y-110120300D03*
X113685000Y-110120300D03*
D17*
X114585300Y-109220000D03*
X114585300Y-108720001D03*
X114585300Y-108219999D03*
X114585300Y-107720000D03*
X114585300Y-107220001D03*
X114585300Y-106719999D03*
X114585300Y-106220000D03*
D16*
X113685000Y-105319700D03*
X113185001Y-105319700D03*
X112684999Y-105319700D03*
X112185000Y-105319700D03*
X111685001Y-105319700D03*
X111184999Y-105319700D03*
X110685000Y-105319700D03*
D17*
X109784700Y-106220000D03*
X109784700Y-106719999D03*
X109784700Y-107220001D03*
X109784700Y-107720000D03*
X109784700Y-108219999D03*
X109784700Y-108720001D03*
X109784700Y-109220000D03*
D18*
X112185000Y-107720000D03*
D19*
X92445000Y-113650000D03*
X92445000Y-112380000D03*
X92445000Y-111110000D03*
X92445000Y-109840000D03*
X92445000Y-108570000D03*
X92445000Y-107300000D03*
X92445000Y-106030000D03*
X92445000Y-104760000D03*
X101745000Y-104760000D03*
X101745000Y-106030000D03*
X101745000Y-107300000D03*
X101745000Y-108570000D03*
X101745000Y-109840000D03*
X101745000Y-111110000D03*
X101745000Y-112380000D03*
X101745000Y-113650000D03*
D11*
X106815000Y-111520000D03*
X108815000Y-111520000D03*
X120695000Y-103250000D03*
X118695000Y-103250000D03*
X116360000Y-103250000D03*
X114360000Y-103250000D03*
X120445000Y-101375000D03*
X122445000Y-101375000D03*
D12*
X117190000Y-108595000D03*
X117190000Y-110595000D03*
X121250000Y-106910000D03*
X121250000Y-104910000D03*
X121115000Y-110610000D03*
X121115000Y-108610000D03*
X111255000Y-114135000D03*
X111255000Y-112135000D03*
D11*
X111870000Y-101265000D03*
X113870000Y-101265000D03*
X109180000Y-100870000D03*
X107180000Y-100870000D03*
D12*
X119260000Y-104910000D03*
X119260000Y-106910000D03*
X108915000Y-113275000D03*
X108915000Y-115275000D03*
D11*
X107020000Y-115270000D03*
X105020000Y-115270000D03*
X90400000Y-113400000D03*
X88400000Y-113400000D03*
D12*
X87750000Y-85550000D03*
X87750000Y-83550000D03*
D20*
X89920000Y-83685000D03*
X99450000Y-76065000D03*
X89920000Y-81145000D03*
X99450000Y-78605000D03*
X89920000Y-78605000D03*
X99450000Y-81145000D03*
X89920000Y-76065000D03*
X99450000Y-83685000D03*
X88865000Y-96175000D03*
X98395000Y-88555000D03*
X88865000Y-93635000D03*
X98395000Y-91095000D03*
X88865000Y-91095000D03*
X98395000Y-93635000D03*
X88865000Y-88555000D03*
X98395000Y-96175000D03*
G36*
G01*
X105443750Y-105575000D02*
X106356250Y-105575000D01*
G75*
G02*
X106600000Y-105818750I0J-243750D01*
G01*
X106600000Y-106306250D01*
G75*
G02*
X106356250Y-106550000I-243750J0D01*
G01*
X105443750Y-106550000D01*
G75*
G02*
X105200000Y-106306250I0J243750D01*
G01*
X105200000Y-105818750D01*
G75*
G02*
X105443750Y-105575000I243750J0D01*
G01*
G37*
G36*
G01*
X105443750Y-107450000D02*
X106356250Y-107450000D01*
G75*
G02*
X106600000Y-107693750I0J-243750D01*
G01*
X106600000Y-108181250D01*
G75*
G02*
X106356250Y-108425000I-243750J0D01*
G01*
X105443750Y-108425000D01*
G75*
G02*
X105200000Y-108181250I0J243750D01*
G01*
X105200000Y-107693750D01*
G75*
G02*
X105443750Y-107450000I243750J0D01*
G01*
G37*
G36*
G01*
X141538750Y-118395000D02*
X142451250Y-118395000D01*
G75*
G02*
X142695000Y-118638750I0J-243750D01*
G01*
X142695000Y-119126250D01*
G75*
G02*
X142451250Y-119370000I-243750J0D01*
G01*
X141538750Y-119370000D01*
G75*
G02*
X141295000Y-119126250I0J243750D01*
G01*
X141295000Y-118638750D01*
G75*
G02*
X141538750Y-118395000I243750J0D01*
G01*
G37*
G36*
G01*
X141538750Y-120270000D02*
X142451250Y-120270000D01*
G75*
G02*
X142695000Y-120513750I0J-243750D01*
G01*
X142695000Y-121001250D01*
G75*
G02*
X142451250Y-121245000I-243750J0D01*
G01*
X141538750Y-121245000D01*
G75*
G02*
X141295000Y-121001250I0J243750D01*
G01*
X141295000Y-120513750D01*
G75*
G02*
X141538750Y-120270000I243750J0D01*
G01*
G37*
G36*
G01*
X114932500Y-115231250D02*
X114932500Y-114318750D01*
G75*
G02*
X115176250Y-114075000I243750J0D01*
G01*
X115663750Y-114075000D01*
G75*
G02*
X115907500Y-114318750I0J-243750D01*
G01*
X115907500Y-115231250D01*
G75*
G02*
X115663750Y-115475000I-243750J0D01*
G01*
X115176250Y-115475000D01*
G75*
G02*
X114932500Y-115231250I0J243750D01*
G01*
G37*
G36*
G01*
X116807500Y-115231250D02*
X116807500Y-114318750D01*
G75*
G02*
X117051250Y-114075000I243750J0D01*
G01*
X117538750Y-114075000D01*
G75*
G02*
X117782500Y-114318750I0J-243750D01*
G01*
X117782500Y-115231250D01*
G75*
G02*
X117538750Y-115475000I-243750J0D01*
G01*
X117051250Y-115475000D01*
G75*
G02*
X116807500Y-115231250I0J243750D01*
G01*
G37*
G36*
G01*
X120910000Y-113151250D02*
X120910000Y-112238750D01*
G75*
G02*
X121153750Y-111995000I243750J0D01*
G01*
X121641250Y-111995000D01*
G75*
G02*
X121885000Y-112238750I0J-243750D01*
G01*
X121885000Y-113151250D01*
G75*
G02*
X121641250Y-113395000I-243750J0D01*
G01*
X121153750Y-113395000D01*
G75*
G02*
X120910000Y-113151250I0J243750D01*
G01*
G37*
G36*
G01*
X122785000Y-113151250D02*
X122785000Y-112238750D01*
G75*
G02*
X123028750Y-111995000I243750J0D01*
G01*
X123516250Y-111995000D01*
G75*
G02*
X123760000Y-112238750I0J-243750D01*
G01*
X123760000Y-113151250D01*
G75*
G02*
X123516250Y-113395000I-243750J0D01*
G01*
X123028750Y-113395000D01*
G75*
G02*
X122785000Y-113151250I0J243750D01*
G01*
G37*
G36*
G01*
X122618750Y-108145000D02*
X123531250Y-108145000D01*
G75*
G02*
X123775000Y-108388750I0J-243750D01*
G01*
X123775000Y-108876250D01*
G75*
G02*
X123531250Y-109120000I-243750J0D01*
G01*
X122618750Y-109120000D01*
G75*
G02*
X122375000Y-108876250I0J243750D01*
G01*
X122375000Y-108388750D01*
G75*
G02*
X122618750Y-108145000I243750J0D01*
G01*
G37*
G36*
G01*
X122618750Y-110020000D02*
X123531250Y-110020000D01*
G75*
G02*
X123775000Y-110263750I0J-243750D01*
G01*
X123775000Y-110751250D01*
G75*
G02*
X123531250Y-110995000I-243750J0D01*
G01*
X122618750Y-110995000D01*
G75*
G02*
X122375000Y-110751250I0J243750D01*
G01*
X122375000Y-110263750D01*
G75*
G02*
X122618750Y-110020000I243750J0D01*
G01*
G37*
G36*
G01*
X115980000Y-112208750D02*
X115980000Y-113121250D01*
G75*
G02*
X115736250Y-113365000I-243750J0D01*
G01*
X115248750Y-113365000D01*
G75*
G02*
X115005000Y-113121250I0J243750D01*
G01*
X115005000Y-112208750D01*
G75*
G02*
X115248750Y-111965000I243750J0D01*
G01*
X115736250Y-111965000D01*
G75*
G02*
X115980000Y-112208750I0J-243750D01*
G01*
G37*
G36*
G01*
X117855000Y-112208750D02*
X117855000Y-113121250D01*
G75*
G02*
X117611250Y-113365000I-243750J0D01*
G01*
X117123750Y-113365000D01*
G75*
G02*
X116880000Y-113121250I0J243750D01*
G01*
X116880000Y-112208750D01*
G75*
G02*
X117123750Y-111965000I243750J0D01*
G01*
X117611250Y-111965000D01*
G75*
G02*
X117855000Y-112208750I0J-243750D01*
G01*
G37*
G36*
G01*
X105585000Y-112918750D02*
X105585000Y-113831250D01*
G75*
G02*
X105341250Y-114075000I-243750J0D01*
G01*
X104853750Y-114075000D01*
G75*
G02*
X104610000Y-113831250I0J243750D01*
G01*
X104610000Y-112918750D01*
G75*
G02*
X104853750Y-112675000I243750J0D01*
G01*
X105341250Y-112675000D01*
G75*
G02*
X105585000Y-112918750I0J-243750D01*
G01*
G37*
G36*
G01*
X107460000Y-112918750D02*
X107460000Y-113831250D01*
G75*
G02*
X107216250Y-114075000I-243750J0D01*
G01*
X106728750Y-114075000D01*
G75*
G02*
X106485000Y-113831250I0J243750D01*
G01*
X106485000Y-112918750D01*
G75*
G02*
X106728750Y-112675000I243750J0D01*
G01*
X107216250Y-112675000D01*
G75*
G02*
X107460000Y-112918750I0J-243750D01*
G01*
G37*
G36*
G01*
X108706250Y-104925000D02*
X107793750Y-104925000D01*
G75*
G02*
X107550000Y-104681250I0J243750D01*
G01*
X107550000Y-104193750D01*
G75*
G02*
X107793750Y-103950000I243750J0D01*
G01*
X108706250Y-103950000D01*
G75*
G02*
X108950000Y-104193750I0J-243750D01*
G01*
X108950000Y-104681250D01*
G75*
G02*
X108706250Y-104925000I-243750J0D01*
G01*
G37*
G36*
G01*
X108706250Y-103050000D02*
X107793750Y-103050000D01*
G75*
G02*
X107550000Y-102806250I0J243750D01*
G01*
X107550000Y-102318750D01*
G75*
G02*
X107793750Y-102075000I243750J0D01*
G01*
X108706250Y-102075000D01*
G75*
G02*
X108950000Y-102318750I0J-243750D01*
G01*
X108950000Y-102806250D01*
G75*
G02*
X108706250Y-103050000I-243750J0D01*
G01*
G37*
G36*
G01*
X104336250Y-108107500D02*
X103423750Y-108107500D01*
G75*
G02*
X103180000Y-107863750I0J243750D01*
G01*
X103180000Y-107376250D01*
G75*
G02*
X103423750Y-107132500I243750J0D01*
G01*
X104336250Y-107132500D01*
G75*
G02*
X104580000Y-107376250I0J-243750D01*
G01*
X104580000Y-107863750D01*
G75*
G02*
X104336250Y-108107500I-243750J0D01*
G01*
G37*
G36*
G01*
X104336250Y-109982500D02*
X103423750Y-109982500D01*
G75*
G02*
X103180000Y-109738750I0J243750D01*
G01*
X103180000Y-109251250D01*
G75*
G02*
X103423750Y-109007500I243750J0D01*
G01*
X104336250Y-109007500D01*
G75*
G02*
X104580000Y-109251250I0J-243750D01*
G01*
X104580000Y-109738750D01*
G75*
G02*
X104336250Y-109982500I-243750J0D01*
G01*
G37*
G36*
G01*
X105543750Y-102112500D02*
X106456250Y-102112500D01*
G75*
G02*
X106700000Y-102356250I0J-243750D01*
G01*
X106700000Y-102843750D01*
G75*
G02*
X106456250Y-103087500I-243750J0D01*
G01*
X105543750Y-103087500D01*
G75*
G02*
X105300000Y-102843750I0J243750D01*
G01*
X105300000Y-102356250D01*
G75*
G02*
X105543750Y-102112500I243750J0D01*
G01*
G37*
G36*
G01*
X105543750Y-103987500D02*
X106456250Y-103987500D01*
G75*
G02*
X106700000Y-104231250I0J-243750D01*
G01*
X106700000Y-104718750D01*
G75*
G02*
X106456250Y-104962500I-243750J0D01*
G01*
X105543750Y-104962500D01*
G75*
G02*
X105300000Y-104718750I0J243750D01*
G01*
X105300000Y-104231250D01*
G75*
G02*
X105543750Y-103987500I243750J0D01*
G01*
G37*
G36*
G01*
X107150000Y-110156250D02*
X107150000Y-109243750D01*
G75*
G02*
X107393750Y-109000000I243750J0D01*
G01*
X107881250Y-109000000D01*
G75*
G02*
X108125000Y-109243750I0J-243750D01*
G01*
X108125000Y-110156250D01*
G75*
G02*
X107881250Y-110400000I-243750J0D01*
G01*
X107393750Y-110400000D01*
G75*
G02*
X107150000Y-110156250I0J243750D01*
G01*
G37*
G36*
G01*
X105275000Y-110156250D02*
X105275000Y-109243750D01*
G75*
G02*
X105518750Y-109000000I243750J0D01*
G01*
X106006250Y-109000000D01*
G75*
G02*
X106250000Y-109243750I0J-243750D01*
G01*
X106250000Y-110156250D01*
G75*
G02*
X106006250Y-110400000I-243750J0D01*
G01*
X105518750Y-110400000D01*
G75*
G02*
X105275000Y-110156250I0J243750D01*
G01*
G37*
G36*
G01*
X119651250Y-109300000D02*
X118738750Y-109300000D01*
G75*
G02*
X118495000Y-109056250I0J243750D01*
G01*
X118495000Y-108568750D01*
G75*
G02*
X118738750Y-108325000I243750J0D01*
G01*
X119651250Y-108325000D01*
G75*
G02*
X119895000Y-108568750I0J-243750D01*
G01*
X119895000Y-109056250D01*
G75*
G02*
X119651250Y-109300000I-243750J0D01*
G01*
G37*
G36*
G01*
X119651250Y-111175000D02*
X118738750Y-111175000D01*
G75*
G02*
X118495000Y-110931250I0J243750D01*
G01*
X118495000Y-110443750D01*
G75*
G02*
X118738750Y-110200000I243750J0D01*
G01*
X119651250Y-110200000D01*
G75*
G02*
X119895000Y-110443750I0J-243750D01*
G01*
X119895000Y-110931250D01*
G75*
G02*
X119651250Y-111175000I-243750J0D01*
G01*
G37*
D11*
X84000000Y-91000000D03*
X86000000Y-91000000D03*
G36*
G01*
X101415000Y-98208750D02*
X101415000Y-99121250D01*
G75*
G02*
X101171250Y-99365000I-243750J0D01*
G01*
X100683750Y-99365000D01*
G75*
G02*
X100440000Y-99121250I0J243750D01*
G01*
X100440000Y-98208750D01*
G75*
G02*
X100683750Y-97965000I243750J0D01*
G01*
X101171250Y-97965000D01*
G75*
G02*
X101415000Y-98208750I0J-243750D01*
G01*
G37*
G36*
G01*
X99540000Y-98208750D02*
X99540000Y-99121250D01*
G75*
G02*
X99296250Y-99365000I-243750J0D01*
G01*
X98808750Y-99365000D01*
G75*
G02*
X98565000Y-99121250I0J243750D01*
G01*
X98565000Y-98208750D01*
G75*
G02*
X98808750Y-97965000I243750J0D01*
G01*
X99296250Y-97965000D01*
G75*
G02*
X99540000Y-98208750I0J-243750D01*
G01*
G37*
G36*
G01*
X86425000Y-88043750D02*
X86425000Y-88956250D01*
G75*
G02*
X86181250Y-89200000I-243750J0D01*
G01*
X85693750Y-89200000D01*
G75*
G02*
X85450000Y-88956250I0J243750D01*
G01*
X85450000Y-88043750D01*
G75*
G02*
X85693750Y-87800000I243750J0D01*
G01*
X86181250Y-87800000D01*
G75*
G02*
X86425000Y-88043750I0J-243750D01*
G01*
G37*
G36*
G01*
X84550000Y-88043750D02*
X84550000Y-88956250D01*
G75*
G02*
X84306250Y-89200000I-243750J0D01*
G01*
X83818750Y-89200000D01*
G75*
G02*
X83575000Y-88956250I0J243750D01*
G01*
X83575000Y-88043750D01*
G75*
G02*
X83818750Y-87800000I243750J0D01*
G01*
X84306250Y-87800000D01*
G75*
G02*
X84550000Y-88043750I0J-243750D01*
G01*
G37*
D12*
X119330000Y-114405000D03*
X119330000Y-112405000D03*
D21*
X115480000Y-101300000D03*
X118480000Y-101300000D03*
D12*
X113570000Y-112375000D03*
X113570000Y-114375000D03*
G36*
G01*
X138665000Y-120918750D02*
X138665000Y-121831250D01*
G75*
G02*
X138421250Y-122075000I-243750J0D01*
G01*
X137933750Y-122075000D01*
G75*
G02*
X137690000Y-121831250I0J243750D01*
G01*
X137690000Y-120918750D01*
G75*
G02*
X137933750Y-120675000I243750J0D01*
G01*
X138421250Y-120675000D01*
G75*
G02*
X138665000Y-120918750I0J-243750D01*
G01*
G37*
G36*
G01*
X140540000Y-120918750D02*
X140540000Y-121831250D01*
G75*
G02*
X140296250Y-122075000I-243750J0D01*
G01*
X139808750Y-122075000D01*
G75*
G02*
X139565000Y-121831250I0J243750D01*
G01*
X139565000Y-120918750D01*
G75*
G02*
X139808750Y-120675000I243750J0D01*
G01*
X140296250Y-120675000D01*
G75*
G02*
X140540000Y-120918750I0J-243750D01*
G01*
G37*
D22*
G36*
X126540000Y-111705000D02*
G01*
X126540000Y-115105000D01*
X125940000Y-115105000D01*
X125940000Y-111705000D01*
X126540000Y-111705000D01*
G37*
D23*
X126240000Y-108405000D03*
D24*
X127340000Y-113405000D03*
X125140000Y-113405000D03*
X125140000Y-108405000D03*
X127340000Y-108405000D03*
M02*
